<svg width="51" height="64" viewBox="0 0 51 64" fill="none" xmlns="http://www.w3.org/2000/svg">
<path d="M6.33333 63.3333C4.59167 63.3333 3.10122 62.7137 1.862 61.4745C0.622777 60.2353 0.00211111 58.7438 0 57V6.33333C0 4.59167 0.620666 3.10122 1.862 1.862C3.10333 0.622778 4.59378 0.00211111 6.33333 0H44.3333C46.075 0 47.5665 0.620667 48.8078 1.862C50.0492 3.10333 50.6688 4.59378 50.6667 6.33333V57C50.6667 58.7417 50.0471 60.2332 48.8078 61.4745C47.5686 62.7158 46.0771 63.3354 44.3333 63.3333H6.33333ZM22.1667 28.5L30.0833 23.75L38 28.5V6.33333H22.1667V28.5Z" fill="white"/>
</svg>
