<svg width="73" height="66" viewBox="0 0 73 66" fill="none" xmlns="http://www.w3.org/2000/svg">
<path fill-rule="evenodd" clip-rule="evenodd" d="M28.3897 66H44.6103C56.002 66 61.6996 66 65.7913 63.305C67.5567 62.1426 69.0772 60.6426 70.2662 58.8904C73 54.857 73 49.236 73 38.0014C73 26.7631 73 21.1458 70.2662 17.1125C69.0773 15.3602 67.5568 13.8601 65.7913 12.6978C63.1632 10.9635 59.8709 10.3438 54.8303 10.1238C52.4249 10.1238 50.3554 8.32715 49.8846 5.99882C49.5247 4.29334 48.5898 2.76496 47.2378 1.67199C45.8857 0.57901 44.1995 -0.011531 42.4641 0.000170613H30.5359C26.9297 0.000170613 23.8236 2.51183 23.1155 5.99882C22.6446 8.32715 20.5751 10.1238 18.1697 10.1238C13.1327 10.3438 9.8404 10.9671 7.20875 12.6978C5.44441 13.8604 3.92512 15.3604 2.7375 17.1125C0 21.1458 0 26.7631 0 38.0014C0 49.236 2.17557e-07 54.8534 2.73385 58.8904C3.91645 60.6357 5.43485 62.1353 7.20875 63.305C11.3004 66 16.9981 66 28.3897 66ZM36.5 23.0011C28.1014 23.0011 21.2905 29.7148 21.2905 37.9977C21.2905 46.2844 28.1014 53.0017 36.5 53.0017C44.8987 53.0017 51.7095 46.2844 51.7095 38.0014C51.7095 29.7148 44.8987 23.0011 36.5 23.0011ZM36.5 28.9998C31.463 28.9998 27.375 33.0294 27.375 38.0014C27.375 42.9697 31.463 46.9994 36.5 46.9994C41.537 46.9994 45.625 42.9697 45.625 38.0014C45.625 33.0294 41.537 28.9998 36.5 28.9998ZM53.7353 26.0004C53.7353 24.3431 55.0968 23.0011 56.7794 23.0011H60.8309C62.5099 23.0011 63.875 24.3431 63.875 26.0004C63.8673 26.8031 63.5427 27.5698 62.9726 28.1322C62.4025 28.6946 61.6335 29.0066 60.8346 28.9998H56.7794C56.3835 29.0036 55.9907 28.9291 55.6234 28.7805C55.2561 28.6318 54.9216 28.412 54.639 28.1335C54.3563 27.855 54.131 27.5232 53.9759 27.1572C53.8209 26.7913 53.7391 26.3982 53.7353 26.0004Z" fill="#F797FF"/>
</svg>
