<svg width="61" height="61" viewBox="0 0 61 61" fill="none" xmlns="http://www.w3.org/2000/svg">
<path d="M3.51559 60.4081C4.64641 60.8789 5.90986 60.9222 7.07027 60.53L19.924 56.2481C20.5187 56.048 21.0589 55.7129 21.5023 55.2691L59.2226 17.5487C59.9836 16.787 60.411 15.7543 60.411 14.6776C60.411 13.6008 59.9836 12.5682 59.2226 11.8064L49.1679 1.75172C48.3943 1.01268 47.3656 0.600281 46.2957 0.600281C45.2259 0.600281 44.1972 1.01268 43.4236 1.75172L5.70527 39.468C5.25762 39.9143 4.92029 40.4589 4.72012 41.0584L0.438242 53.8939C0.137879 54.7902 0.0943647 55.7526 0.312623 56.6723C0.530882 57.592 1.0022 58.4322 1.67324 59.098L1.87637 59.3011C2.34355 59.7744 2.90215 60.1502 3.51762 60.4081M44.1345 6.78922L46.2957 4.62594L56.3525 14.6887L54.1932 16.848L44.1345 6.78922ZM42.6964 8.22531L52.7572 18.2841L51.3211 19.7202L41.2603 9.6614L42.6964 8.22531ZM22.5931 48.4481L21.157 49.8842L11.1023 39.8234L12.5384 38.3873L22.5931 48.4481ZM19.7209 51.3203L18.6342 52.407L5.78856 56.6848C5.60801 56.7441 5.41445 56.7516 5.22989 56.7063C5.04532 56.6611 4.87715 56.565 4.74449 56.4289L4.54137 56.2258C4.40708 56.0924 4.31272 55.9242 4.26893 55.7401C4.22514 55.556 4.23367 55.3633 4.29355 55.1837L8.57949 42.3462L9.66418 41.2616L19.7209 51.3203ZM34.809 31.9361C29.2576 37.4895 23.4686 40.705 21.8821 39.1186C20.2978 37.5322 23.5112 31.7452 29.0646 26.1917C34.6181 20.6383 40.4051 17.4228 41.9915 19.0092C43.5759 20.5956 40.3625 26.3827 34.809 31.9361Z" fill="#F797FF"/>
</svg>
