<svg width="62" height="62" viewBox="0 0 62 62" fill="none" xmlns="http://www.w3.org/2000/svg">
<path fill-rule="evenodd" clip-rule="evenodd" d="M30.8333 61.6667C13.8041 61.6667 0 47.8626 0 30.8333C0 13.8041 13.8041 0 30.8333 0C47.8626 0 61.6667 13.8041 61.6667 30.8333C61.6667 47.8626 47.8626 61.6667 30.8333 61.6667ZM30.8333 49.3333C35.0645 49.3339 39.143 47.7528 42.2681 44.9004C45.3933 42.0479 47.3392 38.1303 47.7238 33.9167H13.9428C14.3275 38.1303 16.2734 42.0479 19.3985 44.9004C22.5236 47.7528 26.6022 49.3339 30.8333 49.3333ZM20.0417 26.2083C21.2683 26.2083 22.4447 25.7211 23.312 24.8537C24.1794 23.9863 24.6667 22.81 24.6667 21.5833C24.6667 20.3567 24.1794 19.1803 23.312 18.313C22.4447 17.4456 21.2683 16.9583 20.0417 16.9583C18.815 16.9583 17.6387 17.4456 16.7713 18.313C15.9039 19.1803 15.4167 20.3567 15.4167 21.5833C15.4167 22.81 15.9039 23.9863 16.7713 24.8537C17.6387 25.7211 18.815 26.2083 20.0417 26.2083ZM41.625 26.2083C42.8516 26.2083 44.028 25.7211 44.8954 24.8537C45.7627 23.9863 46.25 22.81 46.25 21.5833C46.25 20.3567 45.7627 19.1803 44.8954 18.313C44.028 17.4456 42.8516 16.9583 41.625 16.9583C40.3984 16.9583 39.222 17.4456 38.3546 18.313C37.4873 19.1803 37 20.3567 37 21.5833C37 22.81 37.4873 23.9863 38.3546 24.8537C39.222 25.7211 40.3984 26.2083 41.625 26.2083Z" fill="#F797FF"/>
</svg>
