<svg width="67" height="67" viewBox="0 0 67 67" fill="none" xmlns="http://www.w3.org/2000/svg">
<path fill-rule="evenodd" clip-rule="evenodd" d="M48.3381 23.2598L46.4326 27.4361L49.536 30.8216L55.8075 37.6666L46.5852 36.6168L42.025 36.0941L39.7587 40.0901L35.1938 48.17L33.3438 39.0726L32.4281 34.5771L27.928 33.6614L18.8352 31.8114L26.9105 27.2373L30.9065 24.9756L30.3885 20.4154L29.3386 11.1931L36.1743 17.4646L39.5598 20.5634L43.7362 18.6625L52.1815 14.8145L48.3381 23.2598ZM29.4681 1.90152L40.8687 12.354L54.9426 5.93914C58.8368 4.16314 62.8421 8.17302 61.0707 12.0626L54.6558 26.1365L65.1037 37.5371C67.9943 40.6914 65.4228 45.7419 61.1725 45.2609L45.8036 43.5034L38.1908 56.9668C36.0818 60.6899 30.4856 59.8019 29.6346 55.6116L26.5497 40.4555L11.3936 37.3753C7.20334 36.5196 6.31534 30.9234 10.0385 28.819L23.4972 21.2016L21.749 5.83739C21.2633 1.58239 26.3138 -0.993735 29.4681 1.90152ZM22.5768 49.3263C22.9176 49.0087 23.191 48.6258 23.3806 48.2003C23.5702 47.7748 23.6721 47.3154 23.6803 46.8497C23.6885 46.3839 23.6029 45.9213 23.4284 45.4894C23.2539 45.0575 22.9943 44.6651 22.6649 44.3357C22.3355 44.0063 21.9431 43.7467 21.5112 43.5722C21.0793 43.3977 20.6167 43.3121 20.1509 43.3203C19.6852 43.3285 19.2258 43.4304 18.8004 43.62C18.3749 43.8096 17.9919 44.083 17.6743 44.4238L1.48684 60.6113C1.14604 60.9288 0.872689 61.3118 0.683101 61.7373C0.493513 62.1628 0.39157 62.6221 0.383352 63.0879C0.375135 63.5536 0.460811 64.0162 0.635271 64.4482C0.809731 64.8801 1.0694 65.2724 1.39879 65.6018C1.72817 65.9312 2.12053 66.1909 2.55245 66.3653C2.98437 66.5398 3.447 66.6255 3.91276 66.6173C4.37851 66.609 4.83783 66.5071 5.26333 66.3175C5.68882 66.1279 6.07178 65.8546 6.38934 65.5138L22.5768 49.3263Z" fill="#F797FF"/>
</svg>
