<svg width="68" height="68" viewBox="0 0 68 68" fill="none" xmlns="http://www.w3.org/2000/svg">
<path d="M48.824 40.8C49.096 38.556 49.3 36.312 49.3 34C49.3 31.688 49.096 29.444 48.824 27.2H60.316C60.86 29.376 61.2 31.654 61.2 34C61.2 36.346 60.86 38.624 60.316 40.8M42.806 59.704C44.846 55.93 46.41 51.85 47.498 47.6H57.528C54.234 53.2721 49.008 57.5688 42.806 59.704ZM41.956 40.8H26.044C25.704 38.556 25.5 36.312 25.5 34C25.5 31.688 25.704 29.41 26.044 27.2H41.956C42.262 29.41 42.5 31.688 42.5 34C42.5 36.312 42.262 38.556 41.956 40.8ZM34 61.064C31.178 56.984 28.9 52.462 27.506 47.6H40.494C39.1 52.462 36.822 56.984 34 61.064ZM20.4 20.4H10.472C13.7314 14.7119 18.9538 10.4082 25.16 8.296C23.12 12.07 21.59 16.15 20.4 20.4ZM10.472 47.6H20.4C21.59 51.85 23.12 55.93 25.16 59.704C18.9661 57.5698 13.7506 53.2719 10.472 47.6ZM7.684 40.8C7.14 38.624 6.8 36.346 6.8 34C6.8 31.654 7.14 29.376 7.684 27.2H19.176C18.904 29.444 18.7 31.688 18.7 34C18.7 36.312 18.904 38.556 19.176 40.8M34 6.902C36.822 10.982 39.1 15.538 40.494 20.4H27.506C28.9 15.538 31.178 10.982 34 6.902ZM57.528 20.4H47.498C46.4323 16.1895 44.8566 12.1248 42.806 8.296C49.062 10.438 54.264 14.756 57.528 20.4ZM34 0C15.198 0 0 15.3 0 34C0 43.0174 3.58213 51.6654 9.95837 58.0416C13.1156 61.1988 16.8637 63.7032 20.9888 65.4119C25.1138 67.1206 29.5351 68 34 68C43.0174 68 51.6654 64.4179 58.0416 58.0416C64.4179 51.6654 68 43.0174 68 34C68 29.5351 67.1206 25.1138 65.4119 20.9888C63.7032 16.8637 61.1988 13.1156 58.0416 9.95837C54.8844 6.80118 51.1363 4.29676 47.0112 2.5881C42.8862 0.879436 38.4649 0 34 0Z" fill="#F797FF"/>
</svg>
