<svg width="59" height="65" viewBox="0 0 59 65" fill="none" xmlns="http://www.w3.org/2000/svg">
<path d="M0.625 16.4584V10.0417H7.04167V6.83335C7.04167 5.13155 7.71771 3.49944 8.92106 2.29608C10.1244 1.09273 11.7565 0.416687 13.4583 0.416687H32.7083V22.875L40.7292 18.0625L48.75 22.875V0.416687H51.9583C55.3271 0.416687 58.375 3.4646 58.375 6.83335V58.1667C58.375 61.5354 55.3271 64.5834 51.9583 64.5834H13.4583C10.0896 64.5834 7.04167 61.5354 7.04167 58.1667V54.9584H0.625V48.5417H7.04167V35.7084H0.625V29.2917H7.04167V16.4584H0.625ZM13.4583 29.2917H7.04167V35.7084H13.4583V29.2917ZM13.4583 16.4584V10.0417H7.04167V16.4584H13.4583ZM13.4583 54.9584V48.5417H7.04167V54.9584H13.4583Z" fill="#F797FF"/>
</svg>
