<svg width="77" height="65" viewBox="0 0 77 65" fill="none" xmlns="http://www.w3.org/2000/svg">
<path d="M44.1881 64.8333H19.5423C17.4569 64.8333 15.6723 64.0914 14.1885 62.6076C12.7047 61.1238 11.9615 59.3379 11.959 57.25V32.6042C11.959 23.6306 15.0871 16.0156 21.3434 9.75937C27.5996 3.50312 35.2145 0.375 44.1881 0.375C53.1618 0.375 60.7767 3.50312 67.0329 9.75937C73.2892 16.0156 76.4173 23.6306 76.4173 32.6042C76.4173 41.5778 73.2892 49.1927 67.0329 55.449C60.7767 61.7052 53.1618 64.8333 44.1881 64.8333ZM44.1881 45.875C47.8534 45.875 50.9816 44.5795 53.5725 41.9885C56.1635 39.3976 57.459 36.2694 57.459 32.6042C57.459 28.9389 56.1635 25.8108 53.5725 23.2198C50.9816 20.6288 47.8534 19.3333 44.1881 19.3333C40.5229 19.3333 37.3947 20.6288 34.8038 23.2198C32.2128 25.8108 30.9173 28.9389 30.9173 32.6042C30.9173 36.2694 32.2128 39.3976 34.8038 41.9885C37.3947 44.5795 40.5229 45.875 44.1881 45.875ZM44.1881 38.2917C42.6083 38.2917 41.2648 37.7393 40.1576 36.6347C39.0504 35.5301 38.4981 34.1866 38.5006 32.6042C38.5032 31.0218 39.0568 29.6795 40.1614 28.5774C41.266 27.4753 42.6083 26.9217 44.1881 26.9167C45.768 26.9116 47.1115 27.4652 48.2187 28.5774C49.3259 29.6896 49.8782 31.0319 49.8756 32.6042C49.8731 34.1764 49.3208 35.52 48.2187 36.6347C47.1166 37.7495 45.7731 38.3018 44.1881 38.2917ZM4.37565 64.8333C3.30135 64.8333 2.40146 64.4693 1.67598 63.7413C0.950513 63.0133 0.586512 62.1134 0.583984 61.0417V49.6667C0.583984 48.5924 0.947985 47.6925 1.67598 46.967C2.40398 46.2415 3.30387 45.8775 4.37565 45.875C5.44743 45.8725 6.34858 46.2365 7.07911 46.967C7.80964 47.6975 8.17237 48.5974 8.16732 49.6667V61.0417C8.16732 62.116 7.80332 63.0171 7.07532 63.7451C6.34732 64.4731 5.44743 64.8359 4.37565 64.8333Z" fill="#F797FF"/>
</svg>
