<svg width="59" height="56" viewBox="0 0 59 56" fill="none" xmlns="http://www.w3.org/2000/svg">
<path d="M58.7503 0.25V38.7917C58.7503 41.6538 57.6133 44.3987 55.5895 46.4225C53.5657 48.4464 50.8208 49.5833 47.9587 49.5833C45.0965 49.5833 42.3516 48.4464 40.3278 46.4225C38.304 44.3987 37.167 41.6538 37.167 38.7917C37.167 35.9295 38.304 33.1846 40.3278 31.1608C42.3516 29.137 45.0965 28 47.9587 28C49.6237 28 51.1962 28.37 52.5837 29.0483V10.9492L21.7503 17.5167V44.9583C21.7503 47.8205 20.6133 50.5654 18.5895 52.5892C16.5657 54.613 13.8208 55.75 10.9587 55.75C8.09653 55.75 5.35163 54.613 3.3278 52.5892C1.30397 50.5654 0.166992 47.8205 0.166992 44.9583C0.166992 42.0962 1.30397 39.3513 3.3278 37.3275C5.35163 35.3036 8.09653 34.1667 10.9587 34.1667C12.6237 34.1667 14.1962 34.5367 15.5837 35.215V9.5L58.7503 0.25Z" fill="#F797FF"/>
</svg>
