<svg width="63" height="67" viewBox="0 0 63 67" fill="none" xmlns="http://www.w3.org/2000/svg">
<path d="M20.7999 26.9906L40.0916 46.2822C42.2577 48.4471 44.51 48.1009 46.5307 46.0789L60.8544 31.8132C62.8751 29.7925 63.1942 27.5401 61.0269 25.374L58.1104 22.4858C54.6752 25.5465 45.0288 32.4206 43.528 30.9186C43.0364 30.427 43.4417 29.9945 43.7301 29.705C46.9065 26.4423 51.1513 21.2438 51.7008 16.0171L36.4814 0.797666C34.6911 -0.533048 32.0333 -0.0401913 30.5905 1.11556C27.674 5.2457 27.7319 12.1469 20.7999 20.4072C18.895 22.7175 18.5771 24.7678 20.7999 26.9906ZM3.76182 64.0707C7.57407 67.825 12.3683 67.9396 15.7752 64.5327C18.4613 61.8762 21.2619 54.7433 23.1976 51.4227L31.283 59.4785C33.5932 61.79 36.1635 61.8466 38.3296 59.6818L40.1495 57.8336C42.3143 55.6674 42.2564 53.0972 39.9757 50.7857L17.0751 27.8876C14.7649 25.5477 12.2242 25.491 10.0285 27.7151L8.20986 29.5312C5.98584 31.7257 6.04375 34.238 8.38236 36.5779L16.411 44.6348C13.1187 46.5693 5.9575 49.3995 3.301 52.056C-0.194588 55.5221 -0.0208563 60.3459 3.76182 64.0707ZM7.68989 59.9972C6.73621 59.0152 6.70788 57.4565 7.68989 56.4745C8.70025 55.4925 10.2601 55.4925 11.2422 56.4745C12.2242 57.4849 12.2242 58.9868 11.2422 59.9984C10.2601 61.0088 8.70025 61.0359 7.68989 59.9972Z" fill="#F797FF"/>
</svg>
