<svg width="64" height="67" viewBox="0 0 64 67" fill="none" xmlns="http://www.w3.org/2000/svg">
<path d="M43.3333 1.55348e-08C45.884 -0.000142072 48.3384 0.974417 50.1942 2.72428C52.05 4.47414 53.167 6.86702 53.3167 9.41333L53.3333 10C55.9855 10 58.529 11.0536 60.4044 12.9289C62.2798 14.8043 63.3333 17.3478 63.3333 20C63.3335 25.1746 61.3281 30.1479 57.7385 33.8749C54.1488 37.6019 49.2543 39.7926 44.0833 39.9867L43.3333 40H30L30.5 40.0167C32.0872 40.1359 33.5794 40.8192 34.7068 41.9429C35.8341 43.0665 36.5222 44.5565 36.6467 46.1433L36.6667 46.6667V60C36.6672 61.6819 36.032 63.3019 34.8883 64.5352C33.7447 65.7684 32.1772 66.5239 30.5 66.65L30 66.6667H23.3333C21.6514 66.6672 20.0314 66.032 18.7982 64.8883C17.5649 63.7447 16.8095 62.1772 16.6833 60.5L16.6667 60V46.6667C16.6661 44.9847 17.3014 43.3648 18.445 42.1315C19.5886 40.8982 21.1562 40.1428 22.8333 40.0167L23.3333 40V36.6667C23.3334 35.8502 23.6332 35.0622 24.1757 34.4521C24.7182 33.842 25.4658 33.4522 26.2767 33.3567L26.6667 33.3333H43.3333C46.8696 33.3333 50.2609 31.9286 52.7614 29.4281C55.2619 26.9276 56.6667 23.5362 56.6667 20C56.6666 19.1836 56.3668 18.3955 55.8243 17.7854C55.2818 17.1753 54.5342 16.7855 53.7233 16.69L53.3333 16.6667L53.3167 17.2533C53.1731 19.6986 52.137 22.0062 50.4049 23.7383C48.6729 25.4703 46.3653 26.5064 43.92 26.65L43.3333 26.6667H10C7.4493 26.6668 4.99495 25.6922 3.13913 23.9424C1.28331 22.1925 0.166308 19.7996 0.0166671 17.2533L1.55348e-08 16.6667V10C-0.000142072 7.4493 0.974417 4.99495 2.72428 3.13913C4.47414 1.28331 6.86702 0.166308 9.41333 0.0166671L10 1.55348e-08H43.3333Z" fill="#F797FF"/>
</svg>
