<svg width="46" height="72" viewBox="0 0 46 72" fill="none" xmlns="http://www.w3.org/2000/svg">
<path d="M0.5 9C0.5 6.61305 1.44821 4.32387 3.13604 2.63604C4.82387 0.948212 7.11305 0 9.5 0L36.5 0C38.8869 0 41.1761 0.948212 42.864 2.63604C44.5518 4.32387 45.5 6.61305 45.5 9V63C45.5 65.3869 44.5518 67.6761 42.864 69.364C41.1761 71.0518 38.8869 72 36.5 72H9.5C7.11305 72 4.82387 71.0518 3.13604 69.364C1.44821 67.6761 0.5 65.3869 0.5 63V9ZM27.5 58.5C27.5 57.3065 27.0259 56.1619 26.182 55.318C25.3381 54.4741 24.1935 54 23 54C21.8065 54 20.6619 54.4741 19.818 55.318C18.9741 56.1619 18.5 57.3065 18.5 58.5C18.5 59.6935 18.9741 60.8381 19.818 61.682C20.6619 62.5259 21.8065 63 23 63C24.1935 63 25.3381 62.5259 26.182 61.682C27.0259 60.8381 27.5 59.6935 27.5 58.5Z" fill="#F797FF"/>
</svg>
