<svg width="78" height="61" viewBox="0 0 78 61" fill="none" xmlns="http://www.w3.org/2000/svg">
<path d="M10.3829 60.8709H67.6155C74.5266 60.8709 77.9984 57.433 77.9984 50.6221V10.2488C77.9984 3.43791 74.5266 0 67.6155 0H10.3829C3.50563 0.00141071 0 3.40687 0 10.2488V50.6235C0 57.4669 3.50563 60.8709 10.3829 60.8709ZM24.7975 31.2473C20.3016 31.2473 16.6309 27.5781 16.6309 23.0807C16.6309 18.6172 20.3016 14.9141 24.7989 14.9141C29.2624 14.9141 32.9317 18.6172 32.9317 23.0821C32.9317 27.5781 29.2624 31.2473 24.7975 31.2473ZM10.4492 55.5483C7.27505 55.5483 5.32404 53.6297 5.32404 50.3893V48.372L15.4741 39.5127C16.9286 38.2233 18.5156 37.5617 20.0039 37.5617C21.591 37.5617 23.2768 38.2233 24.7326 39.579L31.0809 45.2642L46.8526 31.2459C48.5046 29.7915 50.323 29.1298 52.1753 29.1298C53.9937 29.1298 55.8784 29.8239 57.4655 31.2798L72.673 45.3643V50.457C72.673 53.6311 70.6909 55.5483 67.5492 55.5483H10.4492Z" fill="#F797FF"/>
</svg>
