<svg width="75" height="64" viewBox="0 0 75 64" fill="none" xmlns="http://www.w3.org/2000/svg">
<path d="M66.2752 9.45318e-05C64.8259 0.00771367 62.9269 0.498904 60.6068 1.60109C43.8084 0.429684 23.535 2.87754 10.0229 7.12205C0.230334 2.59709 -1.39027 7.05299 3.06028 12.9881C-2.38595 29.1558 0.00159883 45.5854 5.79377 57.3395C4.00894 65.0612 8.54395 64.7151 12.4681 61.6276C40.1516 63.1028 58.1554 58.9495 69.187 50.4962C73.0792 53.6136 75.9404 49.5226 74.3531 44.5215C76.2857 32.8804 72.8827 17.399 68.5021 6.62356C70.6682 2.81837 69.8025 -0.0188723 66.2752 9.45318e-05ZM8.33953 12.6381C16.8746 22.5341 17.0305 45.1216 11.8651 58.5804C13.0073 43.8431 12.2712 22.3211 8.33953 12.6381Z" fill="#F797FF"/>
</svg>
