<svg width="71" height="68" viewBox="0 0 71 68" fill="none" xmlns="http://www.w3.org/2000/svg">
<path d="M24.75 56V11.8333M24.75 56C24.75 58.3427 23.9862 60.5895 22.6265 62.2461C21.2669 63.9027 19.4228 64.8333 17.5 64.8333H10.25C8.32718 64.8333 6.48311 63.9027 5.12348 62.2461C3.76384 60.5895 3 58.3427 3 56V11.8333C3 9.49059 3.76384 7.24379 5.12348 5.58722C6.48311 3.93065 8.32718 3 10.25 3H17.5C19.4228 3 21.2669 3.93065 22.6265 5.58722C23.9862 7.24379 24.75 9.49059 24.75 11.8333M24.75 56C24.75 58.3427 25.5138 60.5895 26.8735 62.2461C28.2331 63.9027 30.0772 64.8333 32 64.8333H39.25C41.1728 64.8333 43.0169 63.9027 44.3765 62.2461C45.7362 60.5895 46.5 58.3427 46.5 56M24.75 11.8333C24.75 9.49059 25.5138 7.24379 26.8735 5.58722C28.2331 3.93065 30.0772 3 32 3H39.25C41.1728 3 43.0169 3.93065 44.3765 5.58722C45.7362 7.24379 46.5 9.49059 46.5 11.8333M46.5 56V11.8333M46.5 56C46.5 58.3427 47.2638 60.5895 48.6235 62.2461C49.9831 63.9027 51.8272 64.8333 53.75 64.8333H61C62.9228 64.8333 64.7669 63.9027 66.1265 62.2461C67.4862 60.5895 68.25 58.3427 68.25 56V11.8333C68.25 9.49059 67.4862 7.24379 66.1265 5.58722C64.7669 3.93065 62.9228 3 61 3H53.75C51.8272 3 49.9831 3.93065 48.6235 5.58722C47.2638 7.24379 46.5 9.49059 46.5 11.8333" stroke="#F797FF" stroke-width="5" stroke-linecap="round" stroke-linejoin="round"/>
</svg>
