<svg width="66" height="66" viewBox="0 0 66 66" fill="none" xmlns="http://www.w3.org/2000/svg">
<path d="M16.5 0H24.75C27.0316 0 28.875 1.84336 28.875 4.125V16.5H12.375V4.125C12.375 1.84336 14.2184 0 16.5 0ZM0 33C0 26.168 5.54297 20.625 12.375 20.625H28.875C35.707 20.625 41.25 26.168 41.25 33V59.8125C41.25 63.2285 38.4785 66 35.0625 66H6.1875C2.77148 66 0 63.2285 0 59.8125V33ZM30.9375 43.3125C30.9375 40.5775 29.851 37.9544 27.917 36.0205C25.9831 34.0865 23.36 33 20.625 33C17.89 33 15.2669 34.0865 13.333 36.0205C11.399 37.9544 10.3125 40.5775 10.3125 43.3125C10.3125 46.0475 11.399 48.6706 13.333 50.6045C15.2669 52.5385 17.89 53.625 20.625 53.625C23.36 53.625 25.9831 52.5385 27.917 50.6045C29.851 48.6706 30.9375 46.0475 30.9375 43.3125ZM33 8.25C33 7.15598 33.4346 6.10677 34.2082 5.33318C34.9818 4.5596 36.031 4.125 37.125 4.125C38.219 4.125 39.2682 4.5596 40.0418 5.33318C40.8154 6.10677 41.25 7.15598 41.25 8.25C41.25 9.34402 40.8154 10.3932 40.0418 11.1668C39.2682 11.9404 38.219 12.375 37.125 12.375C36.031 12.375 34.9818 11.9404 34.2082 11.1668C33.4346 10.3932 33 9.34402 33 8.25ZM49.5 4.125C50.594 4.125 51.6432 4.5596 52.4168 5.33318C53.1904 6.10677 53.625 7.15598 53.625 8.25C53.625 9.34402 53.1904 10.3932 52.4168 11.1668C51.6432 11.9404 50.594 12.375 49.5 12.375C48.406 12.375 47.3568 11.9404 46.5832 11.1668C45.8096 10.3932 45.375 9.34402 45.375 8.25C45.375 7.15598 45.8096 6.10677 46.5832 5.33318C47.3568 4.5596 48.406 4.125 49.5 4.125ZM57.75 8.25C57.75 7.15598 58.1846 6.10677 58.9582 5.33318C59.7318 4.5596 60.781 4.125 61.875 4.125C62.969 4.125 64.0182 4.5596 64.7918 5.33318C65.5654 6.10677 66 7.15598 66 8.25C66 9.34402 65.5654 10.3932 64.7918 11.1668C64.0182 11.9404 62.969 12.375 61.875 12.375C60.781 12.375 59.7318 11.9404 58.9582 11.1668C58.1846 10.3932 57.75 9.34402 57.75 8.25ZM61.875 16.5C62.969 16.5 64.0182 16.9346 64.7918 17.7082C65.5654 18.4818 66 19.531 66 20.625C66 21.719 65.5654 22.7682 64.7918 23.5418C64.0182 24.3154 62.969 24.75 61.875 24.75C60.781 24.75 59.7318 24.3154 58.9582 23.5418C58.1846 22.7682 57.75 21.719 57.75 20.625C57.75 19.531 58.1846 18.4818 58.9582 17.7082C59.7318 16.9346 60.781 16.5 61.875 16.5ZM57.75 33C57.75 31.906 58.1846 30.8568 58.9582 30.0832C59.7318 29.3096 60.781 28.875 61.875 28.875C62.969 28.875 64.0182 29.3096 64.7918 30.0832C65.5654 30.8568 66 31.906 66 33C66 34.094 65.5654 35.1432 64.7918 35.9168C64.0182 36.6904 62.969 37.125 61.875 37.125C60.781 37.125 59.7318 36.6904 58.9582 35.9168C58.1846 35.1432 57.75 34.094 57.75 33ZM49.5 16.5C50.594 16.5 51.6432 16.9346 52.4168 17.7082C53.1904 18.4818 53.625 19.531 53.625 20.625C53.625 21.719 53.1904 22.7682 52.4168 23.5418C51.6432 24.3154 50.594 24.75 49.5 24.75C48.406 24.75 47.3568 24.3154 46.5832 23.5418C45.8096 22.7682 45.375 21.719 45.375 20.625C45.375 19.531 45.8096 18.4818 46.5832 17.7082C47.3568 16.9346 48.406 16.5 49.5 16.5Z" fill="#F797FF"/>
</svg>
