<svg width="73" height="73" viewBox="0 0 73 73" fill="none" xmlns="http://www.w3.org/2000/svg">
<circle cx="36.5" cy="36.5" r="36.5" fill="#F797FF"/>
<mask id="mask0_1867_892" style="mask-type:alpha" maskUnits="userSpaceOnUse" x="0" y="0" width="73" height="73">
<circle cx="36.5" cy="36.5" r="36.5" fill="#F797FF"/>
</mask>
<g mask="url(#mask0_1867_892)">
<ellipse cx="22.3458" cy="65.6496" rx="47.0658" ry="21.5" transform="rotate(11.2017 22.3458 65.6496)" fill="#FDE3FF"/>
<path d="M37.6046 24.2376C38.5262 22.6905 40.5208 22.1726 42.0787 23.0758C43.8019 24.0749 44.2481 26.3645 43.0262 27.9376L38.2261 34.1166C37.4102 35.1669 36.8093 36.3677 36.4578 37.6504L33.6833 47.7735C32.8684 50.7468 29.3356 51.9924 26.8361 50.1876C24.98 48.8474 24.4551 46.3114 25.6267 44.3446L37.6046 24.2376Z" fill="#FDE3FF"/>
<path d="M19.5974 26.0939C18.7211 25.3929 19.0058 23.9944 20.0864 23.6918L29.0362 21.1859C29.6745 21.0071 30.3376 20.9329 30.9996 20.966L37.6433 21.2982C38.9635 21.3642 40 22.4538 40 23.7756C40 25.2064 38.7928 26.3406 37.3647 26.2513L32 25.916L20.5152 26.3945C20.183 26.4084 19.857 26.3016 19.5974 26.0939Z" fill="#FDE3FF"/>
<path d="M52.4975 41.1244C53.5994 41.3535 54.5572 40.3429 54.2694 39.2548L52.2199 31.5071C52.003 30.6869 51.6268 29.9174 51.1127 29.2425L48.0342 25.2002C47.1696 24.065 45.5709 23.7985 44.3848 24.5919C43.0778 25.4663 42.7915 27.2683 43.7633 28.5046L46.3692 31.82L51.5059 40.4185C51.7231 40.7821 52.0827 41.0382 52.4975 41.1244Z" fill="#FDE3FF"/>
<path d="M28.9009 13.4841C28.5434 12.2667 29.7687 11.1851 30.9323 11.691L38.164 14.8352C39.0377 15.215 39.7899 15.8284 40.3379 16.6078L44.9425 23.1575C45.7101 24.2494 45.5538 25.7403 44.5764 26.6492C43.4963 27.6538 41.8064 27.5925 40.8019 26.5124L29.2407 14.0811C29.0827 13.9112 28.9663 13.7068 28.9009 13.4841Z" fill="#FDE3FF"/>
<path d="M58.2087 27.252C59.3927 26.8399 59.69 25.3289 58.7 24.7554L52.5098 21.1694C51.7745 20.7435 50.9084 20.5339 50.0053 20.5632L42.2522 20.8151C40.977 20.8565 39.8218 21.8013 39.5478 23.0269C39.2452 24.3802 40.1184 25.5891 41.4982 25.727L57.5555 27.3326C57.771 27.3541 57.9946 27.3265 58.2087 27.252Z" fill="#FDE3FF"/>
<path d="M46.7581 14.5518C46.9126 14.7835 46.9635 15.0691 46.8985 15.3399L44.2438 26.4009C44.111 26.954 43.5443 27.2852 42.9972 27.1292L40.2757 26.3534C39.709 26.1918 39.4041 25.5777 39.6182 25.0285L41.9325 19.0912C41.9776 18.9754 42.0007 18.8523 42.0007 18.728L42.0007 11.5503C42.0007 10.7024 42.9897 10.2392 43.641 10.7821L44.889 11.8224C44.9629 11.8839 45.0275 11.9558 45.0808 12.0358L46.7581 14.5518Z" fill="#FDE3FF"/>
</g>
</svg>
