<svg width="73" height="67" viewBox="0 0 73 67" fill="none" xmlns="http://www.w3.org/2000/svg">
<path d="M58.25 0.875H14.75V15.375H58.25M61.875 33.5C60.9136 33.5 59.9916 33.1181 59.3117 32.4383C58.6319 31.7584 58.25 30.8364 58.25 29.875C58.25 28.9136 58.6319 27.9916 59.3117 27.3117C59.9916 26.6319 60.9136 26.25 61.875 26.25C62.8364 26.25 63.7585 26.6319 64.4383 27.3117C65.1181 27.9916 65.5 28.9136 65.5 29.875C65.5 30.8364 65.1181 31.7584 64.4383 32.4383C63.7585 33.1181 62.8364 33.5 61.875 33.5ZM51 58.875H22V40.75H51M61.875 19H11.125C8.24077 19 5.47467 20.1458 3.43521 22.1852C1.39576 24.2247 0.25 26.9908 0.25 29.875V51.625H14.75V66.125H58.25V51.625H72.75V29.875C72.75 26.9908 71.6043 24.2247 69.5648 22.1852C67.5253 20.1458 64.7592 19 61.875 19Z" fill="#F797FF"/>
</svg>
