<svg width="57" height="70" viewBox="0 0 57 70" fill="none" xmlns="http://www.w3.org/2000/svg">
<path d="M31.957 24.2083V5.1875L50.9779 24.2083M7.7487 0C3.90995 0 0.832031 3.07792 0.832031 6.91667V62.25C0.832031 64.0844 1.56075 65.8437 2.85788 67.1408C4.155 68.4379 5.91428 69.1667 7.7487 69.1667H49.2487C51.0831 69.1667 52.8424 68.4379 54.1395 67.1408C55.4366 65.8437 56.1654 64.0844 56.1654 62.25V20.75L35.4154 0H7.7487Z" fill="#F797FF"/>
<path d="M34.625 64C34.1781 64 33.7957 63.841 33.4778 63.523C33.1598 63.2051 33.0005 62.8224 33 62.375C32.9995 61.9276 33.1587 61.5451 33.4778 61.2277C33.7968 60.9103 34.1792 60.7511 34.625 60.75C35.0708 60.7489 35.4535 60.9082 35.7731 61.2277C36.0926 61.5473 36.2516 61.9297 36.25 62.375C36.2484 62.8202 36.0894 63.2029 35.7731 63.523C35.4567 63.8432 35.074 64.0021 34.625 64ZM41.125 64C40.6781 64 40.2957 63.841 39.9777 63.523C39.6598 63.2051 39.5005 62.8224 39.5 62.375C39.4995 61.9276 39.6587 61.5451 39.9777 61.2277C40.2968 60.9103 40.6792 60.7511 41.125 60.75C41.5708 60.7489 41.9535 60.9082 42.2731 61.2277C42.5926 61.5473 42.7516 61.9297 42.75 62.375C42.7484 62.8202 42.5894 63.2029 42.2731 63.523C41.9567 63.8432 41.574 64.0021 41.125 64ZM37.875 60.75C37.4281 60.75 37.0457 60.591 36.7277 60.273C36.4098 59.9551 36.2505 59.5724 36.25 59.125C36.2495 58.6776 36.4087 58.2952 36.7277 57.9777C37.0468 57.6603 37.4292 57.5011 37.875 57.5C38.3208 57.4989 38.7035 57.6582 39.0231 57.9777C39.3426 58.2973 39.5016 58.6797 39.5 59.125C39.4984 59.5702 39.3394 59.9529 39.0231 60.273C38.7067 60.5932 38.324 60.7522 37.875 60.75ZM44.375 60.75C43.9281 60.75 43.5457 60.591 43.2277 60.273C42.9098 59.9551 42.7505 59.5724 42.75 59.125C42.7494 58.6776 42.9087 58.2952 43.2277 57.9777C43.5468 57.6603 43.9292 57.5011 44.375 57.5C44.8208 57.4989 45.2035 57.6582 45.5231 57.9777C45.8426 58.2973 46.0016 58.6797 46 59.125C45.9984 59.5702 45.8394 59.9529 45.5231 60.273C45.2067 60.5932 44.824 60.7522 44.375 60.75ZM34.625 57.5C34.1781 57.5 33.7957 57.341 33.4778 57.0231C33.1598 56.7051 33.0005 56.3224 33 55.875C32.9995 55.4276 33.1587 55.0452 33.4778 54.7277C33.7968 54.4103 34.1792 54.2511 34.625 54.25C35.0708 54.2489 35.4535 54.4082 35.7731 54.7277C36.0926 55.0473 36.2516 55.4297 36.25 55.875C36.2484 56.3202 36.0894 56.7029 35.7731 57.0231C35.4567 57.3432 35.074 57.5022 34.625 57.5ZM41.125 57.5C40.6781 57.5 40.2957 57.341 39.9777 57.0231C39.6598 56.7051 39.5005 56.3224 39.5 55.875C39.4995 55.4276 39.6587 55.0452 39.9777 54.7277C40.2968 54.4103 40.6792 54.2511 41.125 54.25C41.5708 54.2489 41.9535 54.4082 42.2731 54.7277C42.5926 55.0473 42.7516 55.4297 42.75 55.875C42.7484 56.3202 42.5894 56.7029 42.2731 57.0231C41.9567 57.3432 41.574 57.5022 41.125 57.5ZM37.875 54.25C37.4281 54.25 37.0457 54.091 36.7277 53.7731C36.4098 53.4551 36.2505 53.0724 36.25 52.625C36.2495 52.1776 36.4087 51.7952 36.7277 51.4778C37.0468 51.1603 37.4292 51.0011 37.875 51C38.3208 50.9989 38.7035 51.1582 39.0231 51.4778C39.3426 51.7973 39.5016 52.1798 39.5 52.625C39.4984 53.0703 39.3394 53.4529 39.0231 53.7731C38.7067 54.0932 38.324 54.2522 37.875 54.25ZM44.375 54.25C43.9281 54.25 43.5457 54.091 43.2277 53.7731C42.9098 53.4551 42.7505 53.0724 42.75 52.625C42.7494 52.1776 42.9087 51.7952 43.2277 51.4778C43.5468 51.1603 43.9292 51.0011 44.375 51C44.8208 50.9989 45.2035 51.1582 45.5231 51.4778C45.8426 51.7973 46.0016 52.1798 46 52.625C45.9984 53.0703 45.8394 53.4529 45.5231 53.7731C45.2067 54.0932 44.824 54.2522 44.375 54.25Z" fill="white"/>
<path d="M10.625 53C10.1781 53 9.79571 52.841 9.47775 52.523C9.15979 52.2051 9.00054 51.8224 9 51.375C8.99946 50.9276 9.15871 50.5451 9.47775 50.2277C9.79679 49.9103 10.1792 49.7511 10.625 49.75C11.0708 49.7489 11.4535 49.9082 11.7731 50.2277C12.0926 50.5473 12.2516 50.9297 12.25 51.375C12.2484 51.8202 12.0894 52.2029 11.7731 52.523C11.4567 52.8432 11.074 53.0021 10.625 53ZM17.125 53C16.6781 53 16.2957 52.841 15.9777 52.523C15.6598 52.2051 15.5005 51.8224 15.5 51.375C15.4995 50.9276 15.6587 50.5451 15.9777 50.2277C16.2968 49.9103 16.6792 49.7511 17.125 49.75C17.5708 49.7489 17.9535 49.9082 18.2731 50.2277C18.5926 50.5473 18.7516 50.9297 18.75 51.375C18.7484 51.8202 18.5894 52.2029 18.2731 52.523C17.9567 52.8432 17.574 53.0021 17.125 53ZM13.875 49.75C13.4281 49.75 13.0457 49.591 12.7277 49.273C12.4098 48.9551 12.2505 48.5724 12.25 48.125C12.2495 47.6776 12.4087 47.2952 12.7277 46.9777C13.0468 46.6603 13.4292 46.5011 13.875 46.5C14.3208 46.4989 14.7035 46.6582 15.0231 46.9777C15.3426 47.2973 15.5016 47.6797 15.5 48.125C15.4984 48.5702 15.3394 48.9529 15.0231 49.273C14.7067 49.5932 14.324 49.7522 13.875 49.75ZM20.375 49.75C19.9281 49.75 19.5457 49.591 19.2277 49.273C18.9098 48.9551 18.7505 48.5724 18.75 48.125C18.7494 47.6776 18.9087 47.2952 19.2277 46.9777C19.5468 46.6603 19.9292 46.5011 20.375 46.5C20.8208 46.4989 21.2035 46.6582 21.5231 46.9777C21.8426 47.2973 22.0016 47.6797 22 48.125C21.9984 48.5702 21.8394 48.9529 21.5231 49.273C21.2067 49.5932 20.824 49.7522 20.375 49.75ZM10.625 46.5C10.1781 46.5 9.79571 46.341 9.47775 46.0231C9.15979 45.7051 9.00054 45.3224 9 44.875C8.99946 44.4276 9.15871 44.0452 9.47775 43.7277C9.79679 43.4103 10.1792 43.2511 10.625 43.25C11.0708 43.2489 11.4535 43.4082 11.7731 43.7277C12.0926 44.0473 12.2516 44.4297 12.25 44.875C12.2484 45.3202 12.0894 45.7029 11.7731 46.0231C11.4567 46.3432 11.074 46.5022 10.625 46.5ZM17.125 46.5C16.6781 46.5 16.2957 46.341 15.9777 46.0231C15.6598 45.7051 15.5005 45.3224 15.5 44.875C15.4995 44.4276 15.6587 44.0452 15.9777 43.7277C16.2968 43.4103 16.6792 43.2511 17.125 43.25C17.5708 43.2489 17.9535 43.4082 18.2731 43.7277C18.5926 44.0473 18.7516 44.4297 18.75 44.875C18.7484 45.3202 18.5894 45.7029 18.2731 46.0231C17.9567 46.3432 17.574 46.5022 17.125 46.5ZM13.875 43.25C13.4281 43.25 13.0457 43.091 12.7277 42.7731C12.4098 42.4551 12.2505 42.0724 12.25 41.625C12.2495 41.1776 12.4087 40.7952 12.7277 40.4778C13.0468 40.1603 13.4292 40.0011 13.875 40C14.3208 39.9989 14.7035 40.1582 15.0231 40.4778C15.3426 40.7973 15.5016 41.1798 15.5 41.625C15.4984 42.0703 15.3394 42.4529 15.0231 42.7731C14.7067 43.0932 14.324 43.2522 13.875 43.25ZM20.375 43.25C19.9281 43.25 19.5457 43.091 19.2277 42.7731C18.9098 42.4551 18.7505 42.0724 18.75 41.625C18.7494 41.1776 18.9087 40.7952 19.2277 40.4778C19.5468 40.1603 19.9292 40.0011 20.375 40C20.8208 39.9989 21.2035 40.1582 21.5231 40.4778C21.8426 40.7973 22.0016 41.1798 22 41.625C21.9984 42.0703 21.8394 42.4529 21.5231 42.7731C21.2067 43.0932 20.824 43.2522 20.375 43.25Z" fill="white"/>
<path d="M13.625 24C13.1781 24 12.7957 23.841 12.4778 23.523C12.1598 23.2051 12.0005 22.8224 12 22.375C11.9995 21.9276 12.1587 21.5451 12.4778 21.2277C12.7968 20.9103 13.1792 20.7511 13.625 20.75C14.0708 20.7489 14.4535 20.9082 14.7731 21.2277C15.0926 21.5473 15.2516 21.9297 15.25 22.375C15.2484 22.8202 15.0894 23.2029 14.7731 23.523C14.4567 23.8432 14.074 24.0021 13.625 24ZM20.125 24C19.6781 24 19.2957 23.841 18.9777 23.523C18.6598 23.2051 18.5005 22.8224 18.5 22.375C18.4995 21.9276 18.6587 21.5451 18.9777 21.2277C19.2968 20.9103 19.6792 20.7511 20.125 20.75C20.5708 20.7489 20.9535 20.9082 21.2731 21.2277C21.5926 21.5473 21.7516 21.9297 21.75 22.375C21.7484 22.8202 21.5894 23.2029 21.2731 23.523C20.9567 23.8432 20.574 24.0021 20.125 24ZM16.875 20.75C16.4281 20.75 16.0457 20.591 15.7277 20.273C15.4098 19.9551 15.2505 19.5724 15.25 19.125C15.2495 18.6776 15.4087 18.2952 15.7277 17.9777C16.0468 17.6603 16.4292 17.5011 16.875 17.5C17.3208 17.4989 17.7035 17.6582 18.0231 17.9777C18.3426 18.2973 18.5016 18.6797 18.5 19.125C18.4984 19.5702 18.3394 19.9529 18.0231 20.273C17.7067 20.5932 17.324 20.7522 16.875 20.75ZM23.375 20.75C22.9281 20.75 22.5457 20.591 22.2277 20.273C21.9098 19.9551 21.7505 19.5724 21.75 19.125C21.7494 18.6776 21.9087 18.2952 22.2277 17.9777C22.5468 17.6603 22.9292 17.5011 23.375 17.5C23.8208 17.4989 24.2035 17.6582 24.5231 17.9777C24.8426 18.2973 25.0016 18.6797 25 19.125C24.9984 19.5702 24.8394 19.9529 24.5231 20.273C24.2067 20.5932 23.824 20.7522 23.375 20.75ZM13.625 17.5C13.1781 17.5 12.7957 17.341 12.4778 17.0231C12.1598 16.7051 12.0005 16.3224 12 15.875C11.9995 15.4276 12.1587 15.0452 12.4778 14.7277C12.7968 14.4103 13.1792 14.2511 13.625 14.25C14.0708 14.2489 14.4535 14.4082 14.7731 14.7277C15.0926 15.0473 15.2516 15.4297 15.25 15.875C15.2484 16.3202 15.0894 16.7029 14.7731 17.0231C14.4567 17.3432 14.074 17.5022 13.625 17.5ZM20.125 17.5C19.6781 17.5 19.2957 17.341 18.9777 17.0231C18.6598 16.7051 18.5005 16.3224 18.5 15.875C18.4995 15.4276 18.6587 15.0452 18.9777 14.7277C19.2968 14.4103 19.6792 14.2511 20.125 14.25C20.5708 14.2489 20.9535 14.4082 21.2731 14.7277C21.5926 15.0473 21.7516 15.4297 21.75 15.875C21.7484 16.3202 21.5894 16.7029 21.2731 17.0231C20.9567 17.3432 20.574 17.5022 20.125 17.5ZM16.875 14.25C16.4281 14.25 16.0457 14.091 15.7277 13.7731C15.4098 13.4551 15.2505 13.0724 15.25 12.625C15.2495 12.1776 15.4087 11.7952 15.7277 11.4778C16.0468 11.1603 16.4292 11.0011 16.875 11C17.3208 10.9989 17.7035 11.1582 18.0231 11.4778C18.3426 11.7973 18.5016 12.1798 18.5 12.625C18.4984 13.0703 18.3394 13.4529 18.0231 13.7731C17.7067 14.0932 17.324 14.2522 16.875 14.25ZM23.375 14.25C22.9281 14.25 22.5457 14.091 22.2277 13.7731C21.9098 13.4551 21.7505 13.0724 21.75 12.625C21.7494 12.1776 21.9087 11.7952 22.2277 11.4778C22.5468 11.1603 22.9292 11.0011 23.375 11C23.8208 10.9989 24.2035 11.1582 24.5231 11.4778C24.8426 11.7973 25.0016 12.1798 25 12.625C24.9984 13.0703 24.8394 13.4529 24.5231 13.7731C24.2067 14.0932 23.824 14.2522 23.375 14.25Z" fill="white"/>
</svg>
