<svg width="62" height="62" viewBox="0 0 62 62" fill="none" xmlns="http://www.w3.org/2000/svg">
<path d="M52.5827 3.25002L34.0827 21.75L40.2493 27.9167L61.8327 6.33335V3.25002M30.9993 32.5417C30.5905 32.5417 30.1983 32.3793 29.9092 32.0901C29.6201 31.801 29.4577 31.4089 29.4577 31C29.4577 30.5911 29.6201 30.199 29.9092 29.9099C30.1983 29.6208 30.5905 29.4584 30.9993 29.4584C31.4082 29.4584 31.8004 29.6208 32.0895 29.9099C32.3786 30.199 32.541 30.5911 32.541 31C32.541 31.4089 32.3786 31.801 32.0895 32.0901C31.8004 32.3793 31.4082 32.5417 30.9993 32.5417ZM12.4993 55.6667C10.8638 55.6667 9.29533 55.017 8.13886 53.8605C6.98238 52.704 6.33268 51.1355 6.33268 49.5C6.33268 47.8645 6.98238 46.296 8.13886 45.1395C9.29533 43.9831 10.8638 43.3334 12.4993 43.3334C14.1349 43.3334 15.7034 43.9831 16.8598 45.1395C18.0163 46.296 18.666 47.8645 18.666 49.5C18.666 51.1355 18.0163 52.704 16.8598 53.8605C15.7034 55.017 14.1349 55.6667 12.4993 55.6667ZM12.4993 18.6667C10.8638 18.6667 9.29533 18.017 8.13886 16.8605C6.98238 15.704 6.33268 14.1355 6.33268 12.5C6.33268 10.8645 6.98238 9.296 8.13886 8.13953C9.29533 6.98305 10.8638 6.33335 12.4993 6.33335C14.1349 6.33335 15.7034 6.98305 16.8598 8.13953C18.0163 9.296 18.666 10.8645 18.666 12.5C18.666 14.1355 18.0163 15.704 16.8598 16.8605C15.7034 18.017 14.1349 18.6667 12.4993 18.6667ZM23.7227 17.5567C24.4318 16.015 24.8327 14.3192 24.8327 12.5C24.8327 9.22902 23.5333 6.09199 21.2203 3.77904C18.9074 1.46609 15.7704 0.166687 12.4993 0.166687C9.22834 0.166687 6.09131 1.46609 3.77837 3.77904C1.46542 6.09199 0.166016 9.22902 0.166016 12.5C0.166016 15.771 1.46542 18.9081 3.77837 21.221C6.09131 23.534 9.22834 24.8334 12.4993 24.8334C14.3185 24.8334 16.0143 24.4325 17.556 23.7234L24.8327 31L17.556 38.2767C16.0143 37.5675 14.3185 37.1667 12.4993 37.1667C9.22834 37.1667 6.09131 38.4661 3.77837 40.779C1.46542 43.092 0.166016 46.229 0.166016 49.5C0.166016 52.771 1.46542 55.9081 3.77837 58.221C6.09131 60.5339 9.22834 61.8334 12.4993 61.8334C15.7704 61.8334 18.9074 60.5339 21.2203 58.221C23.5333 55.9081 24.8327 52.771 24.8327 49.5C24.8327 47.6809 24.4318 45.985 23.7227 44.4434L30.9993 37.1667L52.5827 58.75H61.8327V55.6667L23.7227 17.5567Z" fill="#F797FF"/>
</svg>
