<svg width="57" height="68" viewBox="0 0 57 68" fill="none" xmlns="http://www.w3.org/2000/svg">
<path d="M57 7.84615V41.8462C57.0008 42.2047 56.9285 42.5596 56.7877 42.8887C56.6469 43.2179 56.4406 43.5143 56.1815 43.7596C55.9224 44.0048 55.6162 44.1937 55.2817 44.3145C54.9473 44.4352 54.5918 44.4853 54.2374 44.4615C53.5712 44.4038 52.9513 44.0935 52.5025 43.5931C52.0537 43.0927 51.8092 42.4394 51.8182 41.7644V7.84615C51.819 7.48703 51.7466 7.13158 51.6054 6.80195C51.4642 6.47231 51.2572 6.17557 50.9975 5.9302C50.7377 5.68484 50.4306 5.49611 50.0954 5.37577C49.7602 5.25544 49.4041 5.20608 49.0491 5.23077C48.3829 5.2917 47.7641 5.60449 47.3167 6.10646C46.8693 6.60843 46.6263 7.26252 46.6364 7.93769V51C46.6364 51.3468 46.4999 51.6794 46.2569 51.9247C46.014 52.1699 45.6845 52.3077 45.3409 52.3077H1.29545C0.951879 52.3077 0.622375 52.1699 0.37943 51.9247C0.136485 51.6794 0 51.3468 0 51V7.84615C0 5.76522 0.81891 3.76952 2.27658 2.29809C3.73425 0.826646 5.71127 0 7.77273 0H49.2273C51.2887 0 53.2657 0.826646 54.7234 2.29809C56.1811 3.76952 57 5.76522 57 7.84615ZM45.3409 57.5385H1.29545C0.951879 57.5385 0.622375 57.6762 0.37943 57.9215C0.136485 58.1667 0 58.4993 0 58.8462V62.7692C0 64.1565 0.54594 65.487 1.51772 66.4679C2.4895 67.4489 3.80751 68 5.18182 68H41.4545C42.8288 68 44.1469 67.4489 45.1186 66.4679C46.0904 65.487 46.6364 64.1565 46.6364 62.7692V58.8462C46.6364 58.4993 46.4999 58.1667 46.2569 57.9215C46.014 57.6762 45.6845 57.5385 45.3409 57.5385Z" fill="#F797FF"/>
</svg>
