<svg width="73" height="73" viewBox="0 0 73 73" fill="none" xmlns="http://www.w3.org/2000/svg">
<circle cx="36.5" cy="36.5" r="36.5" fill="#6EE0DB"/>
<mask id="mask0_1581_67" style="mask-type:alpha" maskUnits="userSpaceOnUse" x="0" y="0" width="73" height="73">
<path d="M73 36.5C73 56.6584 56.6584 73 36.5 73C16.3416 73 0 56.6584 0 36.5C0 16.3416 16.3416 0 36.5 0C56.6584 0 73 16.3416 73 36.5Z" fill="#6EE0DB"/>
</mask>
<g mask="url(#mask0_1581_67)">
<path d="M48.3911 38.4966C77.8916 46 113.254 31.5968 92.8916 49C72.5296 66.4032 24.8533 114.814 10.5002 98.0207C-3.85295 81.2273 -8.4706 72.9019 11.8914 55.4987C32.2533 38.0956 23.3911 30.4966 48.3911 38.4966Z" fill="#52C5C0"/>
<path d="M49.2407 45.2193C78.7412 52.7227 114.103 38.3195 93.7412 55.7227C73.3793 73.1258 25.7029 121.537 11.3498 104.743C-3.00334 87.95 -7.62099 79.6245 12.741 62.2214C33.1029 44.8182 24.2407 37.2193 49.2407 45.2193Z" fill="#FFEBB9"/>
</g>
</svg>
