<svg width="73" height="73" viewBox="0 0 73 73" fill="none" xmlns="http://www.w3.org/2000/svg">
<circle cx="36.5" cy="36.5" r="36.5" fill="#107672"/>
<mask id="mask0_1180_353" style="mask-type:alpha" maskUnits="userSpaceOnUse" x="0" y="0" width="73" height="73">
<path d="M73 36.5C73 56.6584 56.6584 73 36.5 73C16.3416 73 0 56.6584 0 36.5C0 16.3416 16.3416 0 36.5 0C56.6584 0 73 16.3416 73 36.5Z" fill="#A7FBF7"/>
</mask>
<g mask="url(#mask0_1180_353)">
<path d="M48.3911 38.4966C77.8916 46 113.254 31.5968 92.8916 49C72.5296 66.4032 24.8533 114.814 10.5002 98.0207C-3.85295 81.2273 -8.4706 72.9019 11.8914 55.4987C32.2533 38.0956 23.3911 30.4966 48.3911 38.4966Z" fill="#88E8E4"/>
<path d="M55.9463 24.1317C74.417 48.327 111.082 58.9861 84.3147 59.9904C57.5477 60.9946 -9.88206 69.3533 -10.7103 47.2775C-11.5386 25.2016 -9.99073 15.808 16.7763 14.8038C43.5432 13.7995 41.3123 2.34068 55.9463 24.1317Z" fill="#44CA7B"/>
<path d="M65.9463 46.1317C84.417 70.327 121.082 80.9861 94.3147 81.9904C67.5477 82.9946 0.117944 91.3533 -0.710304 69.2775C-1.53855 47.2016 0.0092728 37.808 26.7763 36.8038C53.5432 35.7995 51.3123 24.3407 65.9463 46.1317Z" fill="#35A663"/>
</g>
</svg>
