<svg width="73" height="73" viewBox="0 0 73 73" fill="none" xmlns="http://www.w3.org/2000/svg">
<circle cx="36.5" cy="36.5" r="36.5" fill="#5A6EDD"/>
<path d="M37.939 29.8688C38.5569 29.1227 39.7685 29.6033 39.7071 30.5701L39.0114 41.5202C38.9839 41.9525 39.2379 42.3534 39.6406 42.5131L49.8398 46.5586C50.7403 46.9157 50.6577 48.2165 49.7192 48.4569L39.0901 51.179C38.6704 51.2864 38.3676 51.6519 38.3402 52.0843L37.6445 63.0344C37.583 64.0012 36.3204 64.3245 35.8018 63.5063L29.9283 54.2385C29.6964 53.8726 29.2553 53.6976 28.8356 53.8051L18.2064 56.5272C17.268 56.7675 16.5703 55.6666 17.1882 54.9206L24.1874 46.4707C24.4637 46.1371 24.4938 45.6634 24.2619 45.2975L18.3885 36.0297C17.8699 35.2115 18.7013 34.2077 19.6018 34.5649L29.801 38.6103C30.2037 38.77 30.6635 38.6523 30.9398 38.3187L37.939 29.8688Z" fill="#A9B6FF"/>
<path d="M32.3529 6.86369C32.9709 6.11766 34.1824 6.59822 34.121 7.565L33.8008 12.6053C33.7733 13.0377 34.0274 13.4386 34.4301 13.5983L39.1247 15.4604C40.0252 15.8176 39.9426 17.1183 39.0041 17.3587L34.1115 18.6117C33.6919 18.7191 33.3891 19.0846 33.3616 19.517L33.0414 24.5573C32.98 25.5241 31.7173 25.8475 31.1988 25.0292L28.4952 20.7633C28.2633 20.3973 27.8221 20.2224 27.4025 20.3298L22.5099 21.5828C21.5714 21.8232 20.8737 20.7222 21.4916 19.9762L24.7134 16.0867C24.9897 15.7531 25.0198 15.2794 24.7879 14.9135L22.0843 10.6476C21.5658 9.82932 22.3972 8.82554 23.2977 9.18271L27.9924 11.0448C28.3951 11.2046 28.8548 11.0868 29.1312 10.7532L32.3529 6.86369Z" fill="#9DACFF"/>
<path d="M60.6064 25.5926C61.2244 24.8466 62.4359 25.3272 62.3745 26.294L62.2131 28.8347C62.1856 29.267 62.4397 29.6679 62.8424 29.8276L65.2089 30.7663C66.1093 31.1234 66.0267 32.4242 65.0882 32.6645L62.622 33.2961C62.2023 33.4036 61.8996 33.7691 61.8721 34.2015L61.7107 36.7422C61.6493 37.709 60.3866 38.0323 59.868 37.2141L58.5052 35.0637C58.2733 34.6978 57.8322 34.5228 57.4125 34.6303L54.9463 35.2619C54.0078 35.5022 53.3101 34.4013 53.9281 33.6553L55.552 31.6947C55.8284 31.361 55.8585 30.8874 55.6266 30.5215L54.2638 28.3711C53.7452 27.5529 54.5767 26.5491 55.4771 26.9062L57.8436 27.8449C58.2463 28.0046 58.7061 27.8869 58.9824 27.5532L60.6064 25.5926Z" fill="#A9B6FF"/>
</svg>
