<svg width="109" height="110" viewBox="0 0 109 110" fill="none" xmlns="http://www.w3.org/2000/svg">
<path d="M13.625 32.0827V22.916H22.7083V18.3327C22.7083 15.9015 23.6653 13.57 25.3688 11.8509C27.0722 10.1318 29.3826 9.16602 31.7917 9.16602H59.0417V41.2493L70.3958 34.3743L81.75 41.2493V9.16602H86.2917C91.0604 9.16602 95.375 13.5202 95.375 18.3327V91.666C95.375 96.4785 91.0604 100.833 86.2917 100.833H31.7917C27.0229 100.833 22.7083 96.4785 22.7083 91.666V87.0827H13.625V77.916H22.7083V59.5827H13.625V50.416H22.7083V32.0827H13.625ZM31.7917 50.416H22.7083V59.5827H31.7917V50.416ZM31.7917 32.0827V22.916H22.7083V32.0827H31.7917ZM31.7917 87.0827V77.916H22.7083V87.0827H31.7917Z" fill="#5A6EDD"/>
</svg>
