<svg width="60" height="60" viewBox="0 0 60 60" fill="none" xmlns="http://www.w3.org/2000/svg">
<path d="M24 6V18H36V6H24ZM42 6V18H54V6H42ZM42 24V36H54V24H42ZM42 42V54H54V42H42ZM36 54V42H24V54H36ZM18 54V42H6V54H18ZM18 36V24H6V36H18ZM18 18V6H6V18H18ZM24 36H36V24H24V36ZM6 0H54C55.5913 0 57.1174 0.632141 58.2426 1.75736C59.3679 2.88258 60 4.4087 60 6V54C60 55.5913 59.3679 57.1174 58.2426 58.2426C57.1174 59.3679 55.5913 60 54 60H6C2.76 60 0 57.3 0 54V6C0 4.4087 0.632141 2.88258 1.75736 1.75736C2.88258 0.632141 4.4087 0 6 0Z" fill="#E75858"/>
</svg>
