<svg width="41" height="65" viewBox="0 0 41 65" fill="none" xmlns="http://www.w3.org/2000/svg">
<path d="M4.1 4.0625C4.1 1.81543 5.93219 0 8.2 0H32.8C35.0678 0 36.9 1.81543 36.9 4.0625C36.9 6.30957 35.0678 8.125 32.8 8.125H8.2C5.93219 8.125 4.1 6.30957 4.1 4.0625ZM0 20.3125C0 15.8311 3.67719 12.1875 8.2 12.1875H32.8C37.3228 12.1875 41 15.8311 41 20.3125V56.875C41 61.3564 37.3228 65 32.8 65H8.2C3.67719 65 0 61.3564 0 56.875V20.3125ZM12.3 28.4375C10.0322 28.4375 8.2 30.2529 8.2 32.5V44.6875C8.2 46.9346 10.0322 48.75 12.3 48.75H28.7C30.9678 48.75 32.8 46.9346 32.8 44.6875V32.5C32.8 30.2529 30.9678 28.4375 28.7 28.4375H12.3Z" fill="#E75858"/>
</svg>
