<svg width="73" height="73" viewBox="0 0 73 73" fill="none" xmlns="http://www.w3.org/2000/svg">
<mask id="mask0_582_418" style="mask-type:alpha" maskUnits="userSpaceOnUse" x="0" y="0" width="73" height="73">
<circle cx="36.5" cy="36.5" r="36.5" fill="#D9D9D9"/>
</mask>
<g mask="url(#mask0_582_418)">
<path d="M83 29.5441C83 53.5685 67.2964 82 39.7953 82C12.2941 82 -10 62.5244 -10 38.5C-10 14.4756 12.2941 -5 39.7953 -5C67.2964 -5 83 5.51973 83 29.5441Z" fill="#CB38FF"/>
<path d="M55.5 30C55.5 48.7777 44.7777 71 26 71C7.22232 71 -8 55.7777 -8 37C-8 18.2223 7.22232 3 26 3C44.7777 3 55.5 11.2223 55.5 30Z" fill="#D9D9D9"/>
<path d="M69 25.5441C69 49.5685 53.2964 78 25.7953 78C-1.70589 78 -24 58.5244 -24 34.5C-24 10.4756 -1.70589 -9 25.7953 -9C53.2964 -9 69 1.51973 69 25.5441Z" fill="#3858FF"/>
<path d="M58.4643 33.0968C53.8845 55.8361 35.5531 80.1464 12.9416 75.5923C-9.66983 71.0382 -24.2873 48.9126 -19.7075 26.1732C-15.1277 3.43388 6.91522 -11.3082 29.5267 -6.75411C52.1381 -2.20004 63.0442 10.3574 58.4643 33.0968Z" fill="#57F5FF"/>
<path d="M50 19.9706C50 41.5097 37.6736 67 16.0866 67C-5.50033 67 -23 49.5391 -23 28C-23 6.4609 -5.50033 -11 16.0866 -11C37.6736 -11 50 -1.56852 50 19.9706Z" fill="#46FF58"/>
<path d="M41 17.9853C41 38.1437 29.5178 62 9.40945 62C-10.6989 62 -27 45.6584 -27 25.5C-27 5.34161 -10.6989 -11 9.40945 -11C29.5178 -11 41 -2.1731 41 17.9853Z" fill="#FBFF44"/>
<path d="M29.5 14C29.5 32.7777 18.7777 55 0 55C-18.7777 55 -34 39.7777 -34 21C-34 2.22232 -18.7777 -13 0 -13C18.7777 -13 29.5 -4.77768 29.5 14Z" fill="#FF9255"/>
<path d="M19.5 9C19.5 27.7777 8.77768 50 -10 50C-28.7777 50 -44 34.7777 -44 16C-44 -2.77768 -28.7777 -18 -10 -18C8.77768 -18 19.5 -9.77768 19.5 9Z" fill="#E75858"/>
</g>
</svg>
