<svg width="78" height="78" viewBox="0 0 78 78" fill="none" xmlns="http://www.w3.org/2000/svg">
<path d="M35.3438 10.9688V6.09375C35.3438 5.12405 35.729 4.19407 36.4146 3.50839C37.1003 2.82271 38.0303 2.4375 39 2.4375C39.9697 2.4375 40.8997 2.82271 41.5854 3.50839C42.271 4.19407 42.6562 5.12405 42.6562 6.09375V10.9688C42.6562 11.9384 42.271 12.8684 41.5854 13.5541C40.8997 14.2398 39.9697 14.625 39 14.625C38.0303 14.625 37.1003 14.2398 36.4146 13.5541C35.729 12.8684 35.3438 11.9384 35.3438 10.9688ZM59.7188 39C59.7188 43.0978 58.5036 47.1035 56.227 50.5107C53.9504 53.9179 50.7146 56.5735 46.9287 58.1416C43.1429 59.7098 38.977 60.1201 34.958 59.3206C30.9389 58.5212 27.2472 56.5479 24.3496 53.6504C21.4521 50.7528 19.4788 47.0611 18.6794 43.042C17.8799 39.023 18.2902 34.8571 19.8584 31.0713C21.4265 27.2854 24.0821 24.0496 27.4893 21.773C30.8965 19.4964 34.9022 18.2812 39 18.2812C44.4932 18.2869 49.7598 20.4716 53.6441 24.3559C57.5284 28.2402 59.7131 33.5068 59.7188 39ZM52.4062 39C52.4062 36.3485 51.62 33.7565 50.1469 31.5519C48.6738 29.3472 46.58 27.6289 44.1304 26.6142C41.6807 25.5996 38.9851 25.3341 36.3846 25.8513C33.784 26.3686 31.3952 27.6455 29.5203 29.5203C27.6455 31.3952 26.3686 33.784 25.8513 36.3846C25.3341 38.9851 25.5996 41.6807 26.6142 44.1304C27.6289 46.58 29.3472 48.6738 31.5519 50.1469C33.7565 51.62 36.3485 52.4062 39 52.4062C42.5543 52.4022 45.9619 50.9885 48.4752 48.4752C50.9885 45.9619 52.4022 42.5543 52.4062 39ZM15.6945 20.868C16.0346 21.2081 16.4383 21.4779 16.8827 21.662C17.327 21.8461 17.8033 21.9408 18.2843 21.9408C18.7653 21.9408 19.2415 21.8461 19.6859 21.662C20.1303 21.4779 20.534 21.2081 20.8741 20.868C21.2142 20.5279 21.484 20.1242 21.6681 19.6798C21.8522 19.2354 21.9469 18.7592 21.9469 18.2782C21.9469 17.7972 21.8522 17.321 21.6681 16.8766C21.484 16.4322 21.2142 16.0285 20.8741 15.6884L17.2179 12.0321C16.531 11.3452 15.5994 10.9594 14.628 10.9594C13.6567 10.9594 12.7251 11.3452 12.0382 12.0321C11.3513 12.719 10.9655 13.6506 10.9655 14.622C10.9655 15.5933 11.3513 16.5249 12.0382 17.2118L15.6945 20.868ZM15.6945 57.1259L12.0382 60.7821C11.6981 61.1222 11.4283 61.526 11.2443 61.9703C11.0602 62.4147 10.9655 62.891 10.9655 63.372C10.9655 63.8529 11.0602 64.3292 11.2443 64.7736C11.4283 65.2179 11.6981 65.6217 12.0382 65.9618C12.7251 66.6487 13.6567 67.0345 14.628 67.0345C15.109 67.0345 15.5853 66.9398 16.0297 66.7557C16.474 66.5717 16.8778 66.3019 17.2179 65.9618L20.8741 62.3055C21.561 61.6187 21.9469 60.6871 21.9469 59.7157C21.9469 58.7443 21.561 57.8127 20.8741 57.1259C20.1873 56.439 19.2557 56.0531 18.2843 56.0531C17.3129 56.0531 16.3813 56.439 15.6945 57.1259ZM59.7188 21.9375C60.199 21.9379 60.6747 21.8436 61.1185 21.6601C61.5624 21.4766 61.9657 21.2075 62.3055 20.868L65.9618 17.2118C66.3019 16.8717 66.5717 16.4679 66.7557 16.0236C66.9398 15.5792 67.0345 15.1029 67.0345 14.622C67.0345 14.141 66.9398 13.6647 66.7557 13.2203C66.5717 12.776 66.3019 12.3722 65.9618 12.0321C65.6217 11.692 65.2179 11.4222 64.7736 11.2382C64.3292 11.0541 63.8529 10.9594 63.372 10.9594C62.891 10.9594 62.4147 11.0541 61.9703 11.2382C61.526 11.4222 61.1222 11.692 60.7821 12.0321L57.1259 15.6884C56.6115 16.1997 56.2608 16.8526 56.1185 17.5638C55.9761 18.275 56.0486 19.0125 56.3265 19.6825C56.6045 20.3525 57.0755 20.9246 57.6795 21.3261C58.2836 21.7277 58.9934 21.9405 59.7188 21.9375ZM62.3055 57.132C61.6187 56.4451 60.6871 56.0592 59.7157 56.0592C58.7443 56.0592 57.8127 56.4451 57.1259 57.132C56.439 57.8188 56.0531 58.7504 56.0531 59.7218C56.0531 60.6932 56.439 61.6248 57.1259 62.3116L60.7821 65.9679C61.469 66.6548 62.4006 67.0406 63.372 67.0406C64.3433 67.0406 65.2749 66.6548 65.9618 65.9679C66.6487 65.281 67.0345 64.3494 67.0345 63.378C67.0345 62.4067 66.6487 61.4751 65.9618 60.7882L62.3055 57.132ZM14.625 39C14.625 38.0303 14.2398 37.1003 13.5541 36.4146C12.8684 35.729 11.9384 35.3438 10.9688 35.3438H6.09375C5.12405 35.3438 4.19407 35.729 3.50839 36.4146C2.82271 37.1003 2.4375 38.0303 2.4375 39C2.4375 39.9697 2.82271 40.8997 3.50839 41.5854C4.19407 42.271 5.12405 42.6562 6.09375 42.6562H10.9688C11.9384 42.6562 12.8684 42.271 13.5541 41.5854C14.2398 40.8997 14.625 39.9697 14.625 39ZM39 63.375C38.0303 63.375 37.1003 63.7602 36.4146 64.4459C35.729 65.1316 35.3438 66.0616 35.3438 67.0312V71.9062C35.3438 72.8759 35.729 73.8059 36.4146 74.4916C37.1003 75.1773 38.0303 75.5625 39 75.5625C39.9697 75.5625 40.8997 75.1773 41.5854 74.4916C42.271 73.8059 42.6562 72.8759 42.6562 71.9062V67.0312C42.6562 66.0616 42.271 65.1316 41.5854 64.4459C40.8997 63.7602 39.9697 63.375 39 63.375ZM71.9062 35.3438H67.0312C66.0616 35.3438 65.1316 35.729 64.4459 36.4146C63.7602 37.1003 63.375 38.0303 63.375 39C63.375 39.9697 63.7602 40.8997 64.4459 41.5854C65.1316 42.271 66.0616 42.6562 67.0312 42.6562H71.9062C72.8759 42.6562 73.8059 42.271 74.4916 41.5854C75.1773 40.8997 75.5625 39.9697 75.5625 39C75.5625 38.0303 75.1773 37.1003 74.4916 36.4146C73.8059 35.729 72.8759 35.3438 71.9062 35.3438Z" fill="#E75858"/>
</svg>
