<svg width="69" height="65" viewBox="0 0 69 65" fill="none" xmlns="http://www.w3.org/2000/svg">
<path d="M21.5 0C9.63917 0 0.501667 9.63917 0 21.5V64.5H32.25V37.4817C36.1917 41.0292 41.2083 43 46.5833 43C58.4442 43 68.0833 33.3608 68.0833 21.5C68.0833 9.63917 58.4442 0 46.5833 0H21.5ZM46.5833 7.16667C54.5025 7.16667 60.9167 13.5808 60.9167 21.5C60.9167 29.4192 54.5025 35.8333 46.5833 35.8333C38.6642 35.8333 32.25 29.4192 32.25 21.5C32.25 13.5808 38.6642 7.16667 46.5833 7.16667ZM46.5833 15.2292C43.1075 15.2292 40.3125 18.0242 40.3125 21.5C40.3125 24.9758 43.1075 27.7708 46.5833 27.7708C50.0592 27.7708 52.8542 24.9758 52.8542 21.5C52.8542 18.0242 50.0592 15.2292 46.5833 15.2292ZM3.58333 32.25H7.16667V35.8333H3.58333V32.25ZM10.75 32.25H14.3333V35.8333H10.75V32.25ZM17.9167 32.25H21.5V35.8333H17.9167V32.25ZM25.0833 32.25H28.6667V35.8333H25.0833V32.25Z" fill="#FF5B5B"/>
</svg>
