<svg width="87" height="82" viewBox="0 0 87 82" fill="none" xmlns="http://www.w3.org/2000/svg">
<path d="M79.353 28.7765L55.2223 4.64691C54.7002 4.12478 54.0804 3.7106 53.3983 3.42802C52.7162 3.14544 51.9851 3 51.2467 3C50.5084 3 49.7773 3.14544 49.0951 3.42802C48.413 3.7106 47.7932 4.12478 47.2712 4.64691L37.2788 14.6388L16.9004 22.2839C15.9745 22.6284 15.1556 23.2109 14.5265 23.9726C13.8973 24.7344 13.48 25.6485 13.3167 26.6229L6.01912 70.3991C5.9702 70.6926 6.01572 70.9941 6.14912 71.2601C6.28253 71.5261 6.49693 71.7429 6.76144 71.8792C7.02595 72.0156 7.32692 72.0645 7.62098 72.0188C7.91505 71.9732 8.18704 71.8354 8.39777 71.6252L28.4247 51.5992C27.7902 50.2791 27.5128 48.8158 27.6202 47.3551C27.7508 45.5581 28.4536 43.8501 29.6257 42.4817C30.7977 41.1132 32.3773 40.1561 34.133 39.7507C35.8886 39.3452 37.728 39.5128 39.3814 40.2288C41.0349 40.9449 42.4155 42.1717 43.3209 43.7294C44.2263 45.2872 44.6089 47.094 44.4126 48.885C44.2163 50.6761 43.4514 52.3571 42.2301 53.6818C41.0088 55.0065 39.3952 55.9052 37.6259 56.2461C35.8567 56.5871 34.0247 56.3523 32.3985 55.5763L12.3715 75.6023C12.1614 75.8131 12.0236 76.085 11.9779 76.3791C11.9323 76.6731 11.9812 76.9741 12.1175 77.2386C12.2539 77.5031 12.4707 77.7175 12.7367 77.8509C13.0027 77.9843 13.3042 78.0298 13.5978 77.9809L57.3795 70.6837C58.3524 70.5216 59.2655 70.1064 60.0271 69.4799C60.7888 68.8533 61.3722 68.0374 61.7187 67.1141L69.3676 46.7121L79.353 36.7307C79.8752 36.2087 80.2894 35.589 80.572 34.9069C80.8545 34.2248 81 33.4937 81 32.7554C81 32.0171 80.8545 31.286 80.572 30.6039C80.2894 29.9218 79.8752 29.3021 79.353 28.78V28.7765ZM66.9468 41.1857L42.8161 17.056L51.2485 8.62401L75.3792 32.7536L66.9468 41.1857Z" fill="#E75858"/>
</svg>
