<svg width="87" height="83" viewBox="0 0 87 83" fill="none" xmlns="http://www.w3.org/2000/svg">
<path d="M44.4015 64.0048C44.2554 64.4214 44.2108 64.8672 44.2713 65.3046C44.3319 65.7426 44.4962 66.1598 44.7506 66.521C45.005 66.8822 45.3421 67.177 45.7338 67.3802C46.1253 67.5833 46.5597 67.689 47.0005 67.6881L59.5855 48.7261C59.585 48.7263 59.5845 48.7265 59.584 48.7267C59.0414 48.916 58.5725 49.2724 58.2435 49.7446C57.9151 50.216 57.7426 50.7791 57.75 51.354C57.7428 54.2185 56.6089 56.9631 54.597 58.9878C52.5853 61.0123 49.8595 62.1523 47.016 62.1595C46.4425 62.152 45.8815 62.3263 45.4124 62.6573C44.9426 62.9888 44.5891 63.4604 44.4015 64.0048ZM44.4015 64.0048C44.4013 64.0054 44.4011 64.0059 44.4009 64.0064L44.8738 64.169L44.402 64.0033C44.4018 64.0038 44.4017 64.0043 44.4015 64.0048ZM44.7315 0.66109C44.9607 0.767268 45.1647 0.922249 45.3292 1.11559C48.2885 4.59992 54.5922 12.3632 60.1535 21.4805C65.7279 30.6192 70.5 41.0296 70.5 49.8285C70.5 58.0604 67.9269 64.7172 63.3582 69.3148C58.7897 73.912 52.1765 76.5 44 76.5C35.8235 76.5 29.2103 73.912 24.6418 69.3148C20.0731 64.7172 17.5 58.0604 17.5 49.8285C17.5 41.0296 22.2721 30.6192 27.8467 21.4806C33.4084 12.3629 39.7129 4.59943 42.6729 1.11531C42.8374 0.922099 43.0412 0.767217 43.2704 0.66109C43.4996 0.554916 43.7488 0.5 44.0009 0.5C44.253 0.5 44.5023 0.554916 44.7315 0.66109ZM58.4867 62.8932C61.5326 59.828 63.2452 55.6727 63.25 51.3391L47.0011 67.6881C51.3101 67.6833 55.4407 65.9585 58.4867 62.8932Z" fill="#E75858" stroke="#E75858"/>
</svg>
