<svg width="69" height="69" viewBox="0 0 69 69" fill="none" xmlns="http://www.w3.org/2000/svg">
<path d="M48.875 61.8319C45.6933 61.8319 43.125 58.6119 43.125 54.6254C43.125 50.6772 45.6933 47.4572 48.875 47.4572C52.0567 47.4572 54.625 50.6772 54.625 54.6254C54.625 58.6119 52.0567 61.8319 48.875 61.8319ZM34.5 31.626C29.7467 31.626 25.875 28.4061 25.875 24.4579C25.875 20.4713 29.7467 17.2514 34.5 17.2514C39.2534 17.2514 43.125 20.4713 43.125 24.4579C43.125 28.4061 39.2534 31.626 34.5 31.626ZM20.125 61.8319C16.9434 61.8319 14.375 58.6119 14.375 54.6254C14.375 50.6772 16.9434 47.4572 20.125 47.4572C23.3067 47.4572 25.875 50.6772 25.875 54.6254C25.875 58.6119 23.3067 61.8319 20.125 61.8319ZM34.5 20.1263C36.0717 20.1263 37.375 21.4296 37.375 23.0012C37.375 24.5729 36.0717 25.8762 34.5 25.8762C32.9284 25.8762 31.625 24.5729 31.625 23.0012C31.625 21.4296 32.9284 20.1263 34.5 20.1263ZM60.375 34.5009C59.1483 34.5009 57.96 34.7692 56.8867 35.2676C55.0467 32.9293 52.555 30.936 49.565 29.4027C51.75 26.3361 53.0533 22.6179 53.0533 18.593V18.363C57.2317 17.4814 60.375 13.7631 60.375 9.27826C60.375 4.18006 56.1967 0.00184154 51.0983 0.00184154C48.4533 0.00184154 46 1.11348 44.39 2.87676C41.4336 0.99786 38.003 0 34.5 0C30.997 0 27.5665 0.99786 24.61 2.87676C23 1.11348 20.5467 0.00184154 17.9017 0.00184154C12.8034 0.00184154 8.62504 4.18006 8.62504 9.27826C8.62504 13.7248 11.7684 17.443 15.9084 18.363V18.593C15.9084 22.6179 17.25 26.3745 19.3967 29.4027C16.445 30.936 13.9534 32.9293 12.1134 35.2676C10.8034 34.6775 9.36627 34.4255 7.93367 34.5348C6.50107 34.644 5.11878 35.111 3.91344 35.8929C2.7081 36.6749 1.71824 37.7467 1.03453 39.0104C0.35083 40.274 -0.00485942 41.689 5.01431e-05 43.1257C5.01431e-05 47.9172 3.83338 51.7505 8.62504 51.7505H8.85504C8.70171 52.6704 8.62504 53.6671 8.62504 54.6254C8.62504 62.5602 13.7617 69 20.125 69C23.9967 69 27.4084 66.5851 29.5167 62.9052C31.1267 63.1352 32.775 63.2502 34.5 63.2502C36.225 63.2502 37.8734 63.1352 39.4834 62.9052C41.5917 66.5851 45.0033 69 48.875 69C55.2383 69 60.375 62.5602 60.375 54.6254C60.375 53.6671 60.2983 52.6704 60.145 51.7505H60.375C65.1667 51.7505 69 47.9172 69 43.1257C69 38.3342 65.1667 34.5009 60.375 34.5009Z" fill="#E75858"/>
</svg>
