<svg width="21" height="70" viewBox="0 0 21 70" fill="none" xmlns="http://www.w3.org/2000/svg">
<path d="M3.5 70C2.57174 70 1.6815 69.6313 1.02513 68.9749C0.36875 68.3185 0 67.4283 0 66.5V31.5C0 24.5 3.5 18.375 7 17.5V1.75C7 1.28587 7.18437 0.840752 7.51256 0.512563C7.84075 0.184375 8.28587 0 8.75 0H12.25C12.7141 0 13.1592 0.184375 13.4874 0.512563C13.8156 0.840752 14 1.28587 14 1.75V17.5C17.5 18.375 21 24.5 21 31.5V66.5C21 67.4283 20.6312 68.3185 19.9749 68.9749C19.3185 69.6313 18.4283 70 17.5 70H3.5Z" fill="#E75858"/>
</svg>
