<svg width="79" height="75" viewBox="0 0 79 75" fill="none" xmlns="http://www.w3.org/2000/svg">
<path d="M57.2018 46.3909C57.2027 45.9837 57.1064 45.582 56.9208 45.2198C56.7352 44.8575 56.4657 44.5451 56.1347 44.309C55.8036 44.0729 55.4209 43.9201 55.0185 43.8637C54.6167 43.8074 54.2074 43.8489 53.8249 43.9847C53.3251 44.1591 52.8932 44.4875 52.5901 44.9224C52.2877 45.3566 52.1288 45.875 52.1355 46.4045C52.129 48.9801 51.1094 51.4479 49.3005 53.2683C47.4917 55.0885 45.0411 56.1134 42.4846 56.12C41.9563 56.1132 41.4396 56.2738 41.0075 56.5786C40.5747 56.884 40.2491 57.3185 40.0763 57.8199C39.9418 58.2035 39.9007 58.614 39.9564 59.0168C40.0123 59.4202 40.1636 59.8044 40.3979 60.1371C40.6322 60.4698 40.9427 60.7413 41.3035 60.9285C41.6641 61.1156 42.0643 61.2129 42.4704 61.2121L42.4699 60.7121L42.471 61.2121C46.3775 61.2078 50.1222 59.6441 52.8836 56.8652C55.6449 54.0863 57.1975 50.3194 57.2018 46.3909ZM57.2018 46.3909L56.7018 46.3898L57.2018 46.3903C57.2018 46.3905 57.2018 46.3907 57.2018 46.3909ZM40.3998 0.641101C40.6006 0.734109 40.7793 0.86988 40.9234 1.03929C43.5967 4.18689 49.2911 11.1997 54.3145 19.4352C59.3509 27.6921 63.6566 37.0891 63.6566 45.0258C63.6566 52.454 61.3349 58.4562 57.2172 62.5999C53.0997 66.7433 47.1371 69.0783 39.759 69.0783C32.381 69.0783 26.4184 66.7433 22.3009 62.5999C18.1831 58.4562 15.8615 52.454 15.8615 45.0258C15.8615 37.0891 20.1672 27.6921 25.2038 19.4352C30.2275 11.1997 35.9223 4.18682 38.5964 1.03929C38.7405 0.869882 38.9192 0.734109 39.12 0.641101C39.3208 0.548097 39.5391 0.5 39.7599 0.5C39.9807 0.5 40.199 0.548097 40.3998 0.641101L40.6099 0.187402L40.3998 0.641101Z" fill="#E75858" stroke="#E75858"/>
</svg>
