<svg width="87" height="82" viewBox="0 0 87 82" fill="none" xmlns="http://www.w3.org/2000/svg">
<path d="M68.875 10.25C71.7592 10.25 74.5253 11.3299 76.5648 13.2522C78.6042 15.1744 79.75 17.7815 79.75 20.5V61.5C79.75 64.2185 78.6042 66.8256 76.5648 68.7478C74.5253 70.6701 71.7592 71.75 68.875 71.75H18.125C15.2408 71.75 12.4747 70.6701 10.4352 68.7478C8.39576 66.8256 7.25 64.2185 7.25 61.5V20.5C7.25 17.7815 8.39576 15.1744 10.4352 13.2522C12.4747 11.3299 15.2408 10.25 18.125 10.25H68.875ZM43.5 23.9167C38.693 23.9167 34.0828 25.7165 30.6837 28.9203C27.2846 32.124 25.375 36.4692 25.375 41C25.375 45.5308 27.2846 49.876 30.6837 53.0797C34.0828 56.2835 38.693 58.0833 43.5 58.0833C48.307 58.0833 52.9172 56.2835 56.3163 53.0797C59.7154 49.876 61.625 45.5308 61.625 41C61.625 36.4692 59.7154 32.124 56.3163 28.9203C52.9172 25.7165 48.307 23.9167 43.5 23.9167ZM43.5 30.75C46.3842 30.75 49.1503 31.8299 51.1898 33.7522C53.2292 35.6744 54.375 38.2815 54.375 41C54.375 43.7185 53.2292 46.3256 51.1898 48.2478C49.1503 50.1701 46.3842 51.25 43.5 51.25C40.6158 51.25 37.8497 50.1701 35.8102 48.2478C33.7708 46.3256 32.625 43.7185 32.625 41C32.625 38.2815 33.7708 35.6744 35.8102 33.7522C37.8497 31.8299 40.6158 30.75 43.5 30.75ZM68.875 20.5H65.25C64.3261 20.501 63.4374 20.8344 62.7655 21.4322C62.0937 22.03 61.6894 22.8471 61.6353 23.7164C61.5811 24.5858 61.8812 25.4418 62.4742 26.1096C63.0672 26.7774 63.9084 27.2066 64.8259 27.3094L65.25 27.3333H68.875C69.7989 27.3324 70.6876 26.9989 71.3595 26.4011C72.0313 25.8033 72.4356 24.9862 72.4897 24.1169C72.5439 23.2476 72.2438 22.3915 71.6508 21.7237C71.0578 21.0559 70.2166 20.6268 69.2991 20.5239L68.875 20.5Z" fill="#E75858"/>
<path d="M9.32808 18.3187C9.14844 12.1213 14.1235 7 20.3235 7H67C73.0751 7 78 11.9249 78 18V65C78 71.0751 73.0751 76 67 76H21.6858C15.7348 76 10.8628 71.2672 10.6904 65.3187L9.32808 18.3187Z" fill="#E75858"/>
<rect x="16.0645" y="64.9951" width="26.8629" height="56.4494" rx="6" transform="rotate(-90.1338 16.0645 64.9951)" fill="white"/>
</svg>
