<svg width="106" height="106" viewBox="0 0 106 106" fill="none" xmlns="http://www.w3.org/2000/svg">
<path d="M68.1634 15.1521C71.1182 12.2653 75.092 10.6598 79.2229 10.6839C83.3538 10.7079 87.3087 12.3596 90.2297 15.2806C93.1507 18.2016 94.8024 22.1565 94.8264 26.2874C94.8505 30.4182 93.245 34.3921 90.3582 37.3469L86.8235 40.8816L88.5961 42.6542C90.5742 44.6329 91.6854 47.3162 91.6854 50.1141C91.6854 52.9119 90.5742 55.5952 88.5961 57.5739L83.637 62.533C83.1416 63.0276 82.4701 63.3052 81.7701 63.3047C81.0702 63.3042 80.399 63.0257 79.9044 62.5304C79.4098 62.0351 79.1322 61.3635 79.1327 60.6636C79.1332 59.9636 79.4117 59.2924 79.9071 58.7978L84.8662 53.844C85.8552 52.8546 86.4109 51.513 86.4109 50.1141C86.4109 48.7151 85.8552 47.3735 84.8662 46.3842L83.0936 44.6115L40.9936 86.7168C39.2096 88.509 36.948 89.7506 34.4781 90.2937L13.7658 94.8993C13.3322 94.9962 12.8812 94.982 12.4545 94.8581C12.0279 94.7341 11.6395 94.5044 11.3253 94.1902C11.0112 93.8761 10.7815 93.4876 10.6575 93.061C10.5335 92.6344 10.5193 92.1833 10.6162 91.7498L15.2483 70.9108C15.7758 68.5262 16.9787 66.3368 18.7038 64.6116L68.1634 15.1521Z" fill="#E75858"/>
</svg>
