<svg width="54" height="68" viewBox="0 0 54 68" fill="none" xmlns="http://www.w3.org/2000/svg">
<path d="M26.7896 37.875V37.9138M19.0396 49.5V49.5388M34.5396 49.5V49.5388M9.35205 18.5H44.2271L43.1382 9.789C42.9039 7.9143 41.9929 6.18973 40.5764 4.93953C39.16 3.68932 37.3356 2.99959 35.4463 3H18.1328C16.2428 2.99865 14.4175 3.68795 13.0003 4.93824C11.583 6.18854 10.6714 7.91363 10.4371 9.789L9.35205 18.5Z" stroke="#E75858" stroke-width="6" stroke-linecap="round" stroke-linejoin="round"/>
<path d="M9.35208 18.5L3.10558 55.9751C2.9204 57.0855 2.97934 58.2229 3.27828 59.3081C3.57723 60.3934 4.10901 61.4005 4.83665 62.2595C5.56428 63.1184 6.47029 63.8085 7.49166 64.2818C8.51304 64.755 9.62525 65.0001 10.751 65H42.8282C43.9539 65.0001 45.0661 64.755 46.0875 64.2818C47.1089 63.8085 48.0149 63.1184 48.7425 62.2595C49.4701 61.4005 50.0019 60.3934 50.3009 59.3081C50.5998 58.2229 50.6588 57.0855 50.4736 55.9751L44.2271 18.5" stroke="#E75858" stroke-width="6" stroke-linecap="round" stroke-linejoin="round"/>
</svg>
