<svg width="68" height="65" viewBox="0 0 68 65" fill="none" xmlns="http://www.w3.org/2000/svg">
<path d="M66.7761 24.2803C66.4176 23.174 65.739 22.199 64.8262 21.4787C63.9134 20.7583 62.8074 20.3249 61.6481 20.2334L45.2901 18.9124L38.9769 3.64698C38.5333 2.56808 37.779 1.64537 36.8098 0.996028C35.8407 0.346684 34.7005 0 33.5339 0C32.3673 0 31.2271 0.346684 30.258 0.996028C29.2888 1.64537 28.5345 2.56808 28.0909 3.64698L21.7835 18.9153L5.42547 20.2334C4.26408 20.3292 3.1569 20.7661 2.24308 21.4892C1.32926 22.2124 0.649568 23.1895 0.289408 24.2977C-0.0707522 25.406 -0.0953061 26.596 0.218832 27.7182C0.53297 28.8404 1.17178 29.8447 2.055 30.6049L14.5367 41.3696L10.7211 57.4704C10.4428 58.6056 10.5086 59.7979 10.9102 60.8955C11.3118 61.9932 12.031 62.9465 12.9761 63.634C13.9213 64.3216 15.0497 64.7123 16.2176 64.7564C17.3856 64.8006 18.5403 64.4961 19.5346 63.8818L33.5339 55.2649L47.5332 63.8818C48.5273 64.492 49.68 64.7935 50.8456 64.7481C52.0111 64.7028 53.1369 64.3127 54.0806 63.6271C55.0243 62.9416 55.7433 61.9914 56.1467 60.897C56.5501 59.8026 56.6197 58.6131 56.3467 57.4791L52.5311 41.3783L65.0128 30.6136C65.9013 29.8516 66.5433 28.8426 66.8572 27.715C67.1712 26.5873 67.1429 25.3918 66.7761 24.2803ZM46.4059 37.4904C45.9246 37.9054 45.5665 38.4445 45.3707 39.0491C45.175 39.6537 45.1491 40.3004 45.2959 40.9187L49.0219 56.6553L35.3521 48.2493C34.8053 47.9128 34.1759 47.7346 33.5339 47.7346C32.8919 47.7346 32.2625 47.9128 31.7157 48.2493L18.0459 56.6553L21.7719 40.9303C21.9187 40.312 21.8928 39.6652 21.6971 39.0607C21.5013 38.4561 21.1432 37.9169 20.6619 37.502L8.44328 26.9512L24.4573 25.6591C25.0946 25.6079 25.7053 25.3816 26.2221 25.0051C26.7388 24.6286 27.1415 24.1167 27.3855 23.5258L33.5339 8.63909L39.6823 23.5258C39.9263 24.1167 40.329 24.6286 40.8457 25.0051C41.3625 25.3816 41.9732 25.6079 42.6105 25.6591L58.6245 26.9512L46.4059 37.4904Z" fill="#E75858"/>
</svg>
