<svg width="64" height="64" viewBox="0 0 64 64" fill="none" xmlns="http://www.w3.org/2000/svg">
<path d="M43.6364 20.3636H59.6364L43.6364 4.36364V20.3636ZM17.4545 0H46.5455L64 17.4545V46.5455C64 48.0885 63.387 49.5684 62.2959 50.6595C61.2048 51.7507 59.7249 52.3636 58.1818 52.3636H17.4545C15.9115 52.3636 14.4316 51.7507 13.3405 50.6595C12.2493 49.5684 11.6364 48.0885 11.6364 46.5455V5.81818C11.6364 4.2751 12.2493 2.79523 13.3405 1.70411C14.4316 0.612985 15.9115 0 17.4545 0ZM5.81818 11.6364V58.1818H58.1818V64H5.81818C4.2751 64 2.79523 63.387 1.70411 62.2959C0.612985 61.2048 0 59.7249 0 58.1818V11.6364H5.81818Z" fill="#E75858"/>
</svg>
