<svg width="69" height="66" viewBox="0 0 69 66" fill="none" xmlns="http://www.w3.org/2000/svg">
<path fill-rule="evenodd" clip-rule="evenodd" d="M8.30125 4.3065C12.8325 1.05125 18.154 6.98035e-09 21.75 6.98035e-09H47.125C50.6507 -8.93067e-05 54.1235 0.856899 57.2444 2.49715C60.3652 4.1374 63.0406 6.51173 65.04 9.41565C67.0393 12.3196 68.3028 15.666 68.7216 19.1667C69.1403 22.6674 68.7018 26.2174 67.4438 29.511C66.1857 32.8045 64.1459 35.7429 61.4999 38.073C58.854 40.4031 55.6813 42.055 52.2551 42.8865C48.8289 43.718 45.2519 43.7041 41.8322 42.8461C38.4126 41.988 35.2528 40.3115 32.625 37.961V61.625C32.6251 62.2813 32.447 62.9253 32.1098 63.4883C31.7726 64.0513 31.2888 64.5122 30.7101 64.8218C30.1315 65.1314 29.4796 65.2781 28.8241 65.2463C28.1686 65.2144 27.534 65.0052 26.9881 64.641L23.3015 62.1833L17.9365 64.8658C17.4329 65.1178 16.8775 65.249 16.3143 65.249C15.7512 65.249 15.1957 65.1178 14.6921 64.8658L9.3235 62.1833L5.63687 64.641C5.09095 65.0052 4.45638 65.2144 3.80087 65.2463C3.14537 65.2781 2.49351 65.1314 1.91485 64.8218C1.33619 64.5122 0.852441 64.0513 0.515205 63.4883C0.177969 62.9253 -9.81785e-05 62.2813 4.061e-08 61.625V21.75C4.061e-08 13.3183 3.596 7.6995 8.30125 4.3065ZM30.9176 7.25H21.75C19.3104 7.25 15.5657 8.01125 12.5425 10.1935C9.69325 12.238 7.25 15.6818 7.25 21.75V54.8608C7.76922 54.5614 8.35456 54.3954 8.95365 54.3777C9.55274 54.36 10.1469 54.4911 10.6829 54.7593L16.3125 57.5723L21.9421 54.7593C22.4781 54.4911 23.0723 54.36 23.6713 54.3777C24.2704 54.3954 24.8558 54.5614 25.375 54.8608V21.75C25.375 16.1784 27.4702 11.0998 30.914 7.25H30.9176ZM47.125 29C49.0478 29 50.8919 28.2362 52.2515 26.8765C53.6112 25.5169 54.375 23.6728 54.375 21.75C54.375 19.8272 53.6112 17.9831 52.2515 16.6235C50.8919 15.2638 49.0478 14.5 47.125 14.5C45.2022 14.5 43.3581 15.2638 41.9985 16.6235C40.6388 17.9831 39.875 19.8272 39.875 21.75C39.875 23.6728 40.6388 25.5169 41.9985 26.8765C43.3581 28.2362 45.2022 29 47.125 29Z" fill="#E75858"/>
</svg>
