<svg width="56" height="70" viewBox="0 0 56 70" fill="none" xmlns="http://www.w3.org/2000/svg">
<path fill-rule="evenodd" clip-rule="evenodd" d="M17.2917 0C15.4573 0 13.698 0.728718 12.4008 2.02584C11.1037 3.32297 10.375 5.08225 10.375 6.91667V10.375C10.375 11.6823 10.7381 12.9065 11.371 13.9509L5.53333 18.3292C3.81529 19.6177 2.42084 21.2885 1.46042 23.2094C0.500007 25.1302 0 27.2483 0 29.3958V55.3333C0 59.0022 1.45744 62.5207 4.05169 65.115C6.64594 67.7092 10.1645 69.1667 13.8333 69.1667H41.5C45.1688 69.1667 48.6874 67.7092 51.2816 65.115C53.8759 62.5207 55.3333 59.0022 55.3333 55.3333V29.3958C55.3333 27.2483 54.8333 25.1302 53.8729 23.2094C52.9125 21.2885 51.518 19.6177 49.8 18.3292L43.9623 13.9509C44.614 12.872 44.9584 11.6355 44.9583 10.375V6.91667C44.9583 5.08225 44.2296 3.32297 42.9325 2.02584C41.6354 0.728718 39.8761 0 38.0417 0H17.2917ZM38.0417 10.375V6.91667H17.2917V10.375H38.0417ZM48.4167 38.0417H6.91667V31.125H48.4167V38.0417ZM6.91667 44.9583H48.4167V51.875H6.91667V44.9583Z" fill="#E75858"/>
</svg>
