<svg width="79" height="79" viewBox="0 0 79 79" fill="none" xmlns="http://www.w3.org/2000/svg">
<path d="M64.1681 16.1955C62.0381 11.377 58.554 7.28108 54.1394 4.40587C49.7249 1.53066 44.57 0 39.3017 0C34.0334 0 28.8786 1.53066 24.464 4.40587C20.0494 7.28108 16.5653 11.377 14.4353 16.1955C8.45725 19.1337 3.84549 24.268 1.56326 30.526C-0.718969 36.7839 -0.495181 43.6817 2.18789 49.7786C4.87095 55.8755 9.80581 60.7 15.9618 63.2445C22.1178 65.7891 29.0188 65.8569 35.2236 63.4338V74.7778C35.2236 75.8594 35.6532 76.8966 36.418 77.6614C37.1828 78.4262 38.2201 78.8559 39.3017 78.8559C40.3833 78.8559 41.4206 78.4262 42.1854 77.6614C42.9502 76.8966 43.3798 75.8594 43.3798 74.7778V63.4406C46.4091 64.6402 49.6373 65.2582 52.8955 65.2621H53.548C59.3381 65.1195 64.9123 63.0349 69.3751 59.343C73.8379 55.6512 76.9303 50.5665 78.1556 44.9056C79.3808 39.2448 78.6678 33.3364 76.1311 28.1296C73.5943 22.9227 69.381 18.7197 64.1681 16.1955ZM53.3543 57.1059C49.8254 57.1929 46.3514 56.2211 43.3798 54.3158V41.9557L57.4392 34.9243C57.926 34.6894 58.3613 34.3601 58.7197 33.9555C59.0781 33.5509 59.3525 33.0791 59.5269 32.5675C59.7014 32.0559 59.7724 31.5147 59.7358 30.9755C59.6992 30.4362 59.5558 29.9095 59.3139 29.4262C59.072 28.9428 58.7364 28.5124 58.3267 28.1599C57.9169 27.8073 57.4412 27.5398 56.9271 27.3728C56.4131 27.2058 55.8709 27.1426 55.3322 27.187C54.7936 27.2313 54.2691 27.3824 53.7892 27.6312L43.3798 32.8343V25.8403C43.3798 24.7587 42.9502 23.7214 42.1854 22.9566C41.4206 22.1918 40.3833 21.7621 39.3017 21.7621C38.2201 21.7621 37.1828 22.1918 36.418 22.9566C35.6532 23.7214 35.2236 24.7587 35.2236 25.8403V40.9905L24.8142 35.7875C23.8493 35.3219 22.7399 35.2548 21.7259 35.6006C20.7118 35.9463 19.8746 36.6772 19.3951 37.6353C18.9156 38.5934 18.8324 39.7016 19.1635 40.7206C19.4945 41.7395 20.2132 42.5872 21.1642 43.0805L35.2236 50.1119V54.3158C32.25 56.2165 28.7774 57.1879 25.2492 57.1059C15.8933 56.8714 8.01229 48.7593 8.03608 39.3898C8.03751 35.8695 9.09418 32.4304 11.0696 29.5166C13.0451 26.6027 15.8487 24.3479 19.1184 23.0434C19.6475 22.83 20.1259 22.5081 20.5228 22.0983C20.9197 21.6886 21.2262 21.2001 21.4225 20.6644C22.76 16.9973 25.1928 13.8302 28.391 11.5923C31.5893 9.35448 35.3983 8.1542 39.3017 8.1542C43.2051 8.1542 47.0141 9.35448 50.2124 11.5923C53.4106 13.8302 55.8434 16.9973 57.1809 20.6644C57.3772 21.2001 57.6837 21.6886 58.0806 22.0983C58.4775 22.5081 58.9559 22.83 59.485 23.0434C62.7537 24.3475 65.5565 26.6012 67.5319 29.5137C69.5072 32.4262 70.5645 35.8638 70.5673 39.383C70.5945 48.7491 62.7101 56.8646 53.3543 57.1059Z" fill="#35A663"/>
</svg>
