<svg width="54" height="69" viewBox="0 0 54 69" fill="none" xmlns="http://www.w3.org/2000/svg">
<path d="M27 0C19.8416 0.00815288 12.9788 2.86669 7.91709 7.9485C2.85536 13.0303 0.00812066 19.9204 0 27.1071C0 34.3244 2.88409 42.3303 7.71034 48.5156C11.4167 53.2625 15.841 56.5246 20.5691 58.0925L17.3813 65.5654C17.2214 65.9401 17.1566 66.3488 17.1927 66.7549C17.2288 67.1609 17.3647 67.5516 17.5882 67.892C17.8116 68.2324 18.1157 68.5117 18.4732 68.7051C18.8307 68.8985 19.2303 68.9998 19.6364 69H34.3636C34.7697 68.9998 35.1693 68.8985 35.5268 68.7051C35.8843 68.5117 36.1884 68.2324 36.4118 67.892C36.6353 67.5516 36.7712 67.1609 36.8073 66.7549C36.8434 66.3488 36.7786 65.9401 36.6188 65.5654L33.4432 58.0925C38.1682 56.5307 42.5956 53.2625 46.3019 48.5156C51.1159 42.3303 54 34.3244 54 27.1071C53.9919 19.9204 51.1446 13.0303 46.0829 7.9485C41.0212 2.86669 34.1584 0.00815288 27 0ZM42.1323 27.0733C41.9984 27.0951 41.8629 27.1064 41.7273 27.1071C41.147 27.1064 40.5858 26.8993 40.1433 26.5226C39.7007 26.1459 39.4053 25.624 39.3095 25.0495C38.8557 22.4852 37.6287 20.1226 35.7944 18.2809C33.96 16.4393 31.6068 15.2075 29.0526 14.7518C28.7323 14.7011 28.4252 14.5871 28.1491 14.4166C27.8729 14.246 27.6331 14.0222 27.4436 13.758C27.254 13.4939 27.1185 13.1947 27.0448 12.8777C26.9712 12.5606 26.9608 12.2321 27.0143 11.911C27.0678 11.59 27.1841 11.2827 27.3566 11.007C27.529 10.7314 27.7542 10.4927 28.019 10.3049C28.2838 10.1171 28.5831 9.98379 28.8996 9.91276C29.216 9.84172 29.5433 9.83434 29.8626 9.89103C33.4211 10.5249 36.6997 12.2407 39.2552 14.8064C41.8107 17.372 43.5197 20.6637 44.1511 24.2362C44.2043 24.5556 44.1942 24.8824 44.1215 25.1979C44.0488 25.5133 43.9148 25.8113 43.7273 26.0748C43.5398 26.3383 43.3025 26.5621 43.0288 26.7334C42.7551 26.9047 42.4504 27.0202 42.1323 27.0733Z" fill="#35A663"/>
</svg>
