<svg width="40" height="72" viewBox="0 0 40 72" fill="none" xmlns="http://www.w3.org/2000/svg">
<path d="M9.95998 71.6667C8.10859 71.6667 6.49609 71.0539 5.12248 69.8284C3.74887 68.6029 2.97248 67.0657 2.79331 65.2167L0.0162289 34.2208C-0.0434933 33.6236 0.0616172 33.0718 0.331562 32.5653C0.601506 32.0589 1.00403 31.6552 1.53914 31.3542C2.01692 31.0556 2.43498 30.6972 2.79331 30.2792C3.15164 29.8611 3.33081 29.3535 3.33081 28.7562C3.33081 28.2187 3.21137 27.7254 2.97248 27.2763C2.73359 26.8272 2.37526 26.4546 1.89748 26.1583C1.30026 25.8597 0.852339 25.3975 0.553728 24.7716C0.255116 24.1457 0.195395 23.5031 0.374562 22.8438L2.70373 13.4375C2.8829 12.6014 3.30095 11.9444 3.95789 11.4667C4.61484 10.9889 5.36137 10.75 6.19748 10.75H15.9621V7.16667H10.5871V0H28.5037V7.16667H23.1287V10.75H32.8933C33.7294 10.75 34.4616 10.9889 35.0899 11.4667C35.7182 11.9444 36.1207 12.6014 36.2975 13.4375L38.7162 22.8438C38.8954 23.5007 38.8357 24.1433 38.5371 24.7716C38.2384 25.3999 37.7905 25.8621 37.1933 26.1583C36.7155 26.3972 36.3429 26.7257 36.0753 27.1437C35.8078 27.5618 35.6728 28.0396 35.6704 28.5771C35.6704 29.234 35.8352 29.7871 36.1649 30.2362C36.4946 30.6853 36.927 31.0579 37.4621 31.3542C37.9972 31.6504 38.4152 32.0541 38.7162 32.5653C39.0172 33.0766 39.1367 33.6284 39.0746 34.2208L36.2975 65.1271C36.1183 66.9785 35.3419 68.5312 33.9683 69.7854C32.5947 71.0396 30.9822 71.6667 29.1308 71.6667H9.95998Z" fill="#35A663"/>
</svg>
