<svg width="63" height="71" viewBox="0 0 63 71" fill="none" xmlns="http://www.w3.org/2000/svg">
<path d="M28.2011 1.20075C29.2035 0.620491 30.3412 0.314941 31.4993 0.314941C32.6575 0.314941 33.7952 0.620491 34.7976 1.20075L59.4851 15.4932C60.4842 16.0715 61.3136 16.9024 61.8902 17.9025C62.4668 18.9025 62.7702 20.0367 62.7702 21.191V49.8088C62.7697 50.9626 62.4659 52.0961 61.8894 53.0955C61.3128 54.0949 60.4837 54.9253 59.4851 55.5034L34.7976 69.7991C33.7952 70.3793 32.6575 70.6849 31.4993 70.6849C30.3412 70.6849 29.2035 70.3793 28.2011 69.7991L3.5136 55.5067C2.51454 54.9283 1.68512 54.0974 1.10853 53.0974C0.531939 52.0973 0.228455 50.9632 0.228516 49.8088V21.191C0.229032 20.0372 0.53279 18.9038 1.10935 17.9043C1.68591 16.9049 2.51502 16.0745 3.5136 15.4965L28.2011 1.20075ZM9.2806 22.6361C9.03032 22.4908 8.74616 22.4141 8.45678 22.4137C8.16739 22.4133 7.88301 22.4891 7.63231 22.6337C7.38161 22.7782 7.17346 22.9863 7.02883 23.237C6.88421 23.4876 6.80823 23.772 6.80856 24.0614V46.0135C6.80907 47.1673 7.11283 48.3008 7.68939 49.3002C8.26595 50.2996 9.09506 51.13 10.0936 51.7081L29.024 62.6693C29.2741 62.8145 29.5579 62.8912 29.847 62.8917C30.1361 62.8923 30.4203 62.8167 30.6709 62.6725C30.9215 62.5284 31.1297 62.3208 31.2745 62.0706C31.4194 61.8204 31.4958 61.5364 31.4961 61.2473V39.2952C31.4955 38.1414 31.1918 37.0079 30.6152 36.0085C30.0387 35.0091 29.2096 34.1787 28.211 33.6006L9.2806 22.6361ZM43.8991 14.16C42.3256 13.2515 39.7713 13.2515 38.1979 14.16C36.6245 15.0685 36.6245 16.5432 38.1979 17.4517C39.7713 18.3602 42.3256 18.3602 43.8991 17.4517C45.4725 16.5432 45.4725 15.0685 43.8991 14.16ZM24.8074 14.16C23.234 13.2515 20.6796 13.2515 19.1062 14.16C17.5328 15.0685 17.5328 16.5432 19.1062 17.4517C20.6796 18.3602 23.234 18.3602 24.8074 17.4517C26.3841 16.5432 26.3841 15.0685 24.8074 14.16ZM47.9314 48.1564C49.8965 47.0207 51.4929 44.259 51.4929 41.9845C51.4929 39.7132 49.8965 38.7916 47.9314 39.9272C45.9662 41.0628 44.3698 43.8278 44.3698 46.0991C44.3698 48.3703 45.9662 49.292 47.9314 48.1564ZM12.9508 36.1582C14.5242 37.07 15.8014 36.3327 15.8014 34.5124C15.8014 32.6954 14.5242 30.4867 12.9508 29.5749C11.3774 28.6631 10.1002 29.4037 10.1002 31.2207C10.1002 33.041 11.3774 35.2497 12.9508 36.1582ZM27.2037 54.2558C27.2037 56.0728 25.9233 56.8102 24.3498 55.9017C22.7764 54.9932 21.4993 52.7812 21.4993 50.9642C21.4993 49.1472 22.7764 48.4098 24.3498 49.3183C25.9233 50.2268 27.2037 52.4388 27.2037 54.2558ZM15.8014 47.6791C15.8014 49.4994 14.5242 50.2367 12.9508 49.3249C11.3774 48.4164 10.1002 46.2077 10.1002 44.3874C10.1002 42.5704 11.3774 41.8331 12.9508 42.7416C14.5242 43.6534 15.8014 45.8621 15.8014 47.6791ZM27.2004 41.0957C27.2004 42.916 25.9233 43.6534 24.3498 42.7416C22.7731 41.8364 21.4993 39.6244 21.4993 37.8041C21.4993 35.9904 22.7731 35.253 24.3498 36.1582C25.9233 37.07 27.2004 39.282 27.2004 41.0957Z" fill="#35A663"/>
</svg>
