<svg width="61" height="56" viewBox="0 0 61 56" fill="none" xmlns="http://www.w3.org/2000/svg">
<path d="M59.7715 7.80404L59.748 7.83028L39.8817 28.921V45.1036C39.8829 45.8732 39.6925 46.6312 39.3276 47.31C38.9627 47.9888 38.4346 48.5673 37.7904 48.9939L28.4043 55.2173C27.6969 55.6858 26.875 55.9545 26.026 55.9947C25.1771 56.0349 24.3332 55.8452 23.5842 55.4458C22.8353 55.0464 22.2095 54.4523 21.7736 53.7269C21.3378 53.0014 21.1082 52.172 21.1095 51.327V28.921L1.24321 7.83028L1.21975 7.80404C0.60891 7.13566 0.206272 6.30541 0.0606819 5.41399C-0.0849084 4.52258 0.0328049 3.60832 0.399542 2.78211C0.766279 1.9559 1.36628 1.25326 2.12676 0.759425C2.88723 0.265588 3.7755 0.00177941 4.68381 0H56.3074C57.2165 8.77782e-05 58.1059 0.262673 58.8677 0.755852C59.6295 1.24903 60.2309 1.95157 60.5987 2.77812C60.9665 3.60466 61.085 4.51962 60.9397 5.41184C60.7944 6.30405 60.3916 7.13511 59.7803 7.80404H59.7715Z" fill="#35A663"/>
</svg>
