<svg width="71" height="70" viewBox="0 0 71 70" fill="none" xmlns="http://www.w3.org/2000/svg">
<path d="M34.5675 0.193627C34.8622 0.0658747 35.1794 0 35.5 0C35.8206 0 36.1378 0.0658747 36.4325 0.193627L64.4004 12.3187C66.0064 13.015 66.0064 15.2925 64.4003 15.9887L36.2954 28.1714C35.788 28.3914 35.212 28.3914 34.7046 28.1714L6.59966 15.9887C4.99361 15.2925 4.99356 13.015 6.59957 12.3187L34.5675 0.193627ZM2.79542 19.5498C1.47477 18.9773 0 19.9454 0 21.3848V55.0578C0 56.0153 0.568 56.877 1.4342 57.26L30.3379 69.7883C31.6586 70.3608 33.1333 69.3927 33.1333 67.9533V34.0133C33.1333 33.2162 32.6601 32.4953 31.9288 32.1783L2.79542 19.5498ZM37.8667 34.0133C37.8667 33.2162 38.3399 32.4953 39.0712 32.1783L68.2046 19.5498C69.5252 18.9773 71 19.9454 71 21.3848V55.0578C71.0004 55.5266 70.8647 55.9852 70.6098 56.3767C70.3548 56.7682 69.9918 57.0753 69.5658 57.26L40.6621 69.7883C39.3414 70.3608 37.8667 69.3927 37.8667 67.9533V34.0133Z" fill="#35A663"/>
</svg>
