<svg width="87" height="83" viewBox="0 0 87 83" fill="none" xmlns="http://www.w3.org/2000/svg">
<path d="M45.71 0.791573C45.4988 0.543323 45.2366 0.344031 44.9416 0.207391C44.6466 0.0707508 44.3257 0 44.0009 0C43.6762 0 43.3553 0.0707508 43.0602 0.207391C42.7652 0.344031 42.5031 0.543323 42.2919 0.791573C36.3556 7.77879 17 31.935 17 49.8285C17 66.5031 27.4325 77 44 77C60.5675 77 71 66.5031 71 49.8285C71 31.935 51.6444 7.77879 45.71 0.791573ZM47 67.1881C46.6396 67.1889 46.2843 67.1025 45.964 66.9364C45.6437 66.7702 45.3678 66.529 45.1594 66.2331C44.951 65.9372 44.8163 65.5953 44.7666 65.2361C44.7169 64.8769 44.7536 64.5109 44.8738 64.169C45.0272 63.7229 45.3165 63.3368 45.7007 63.0658C46.0848 62.7948 46.5441 62.6526 47.0131 62.6595C49.9914 62.653 52.8458 61.4595 54.9517 59.3402C57.0576 57.2209 58.2436 54.3484 58.25 51.3513C58.2431 50.8792 58.3844 50.417 58.6537 50.0305C58.9231 49.6439 59.3067 49.3527 59.75 49.1983C60.0898 49.0774 60.4534 49.0404 60.8103 49.0904C61.1673 49.1405 61.507 49.276 61.8011 49.4857C62.0951 49.6954 62.3347 49.9732 62.4999 50.2955C62.665 50.6178 62.7508 50.9754 62.75 51.3381C62.7455 55.5404 61.0847 59.5693 58.132 62.5408C55.1793 65.5122 51.1758 67.1836 47 67.1881Z" fill="#35A663"/>
</svg>
