<svg width="99" height="100" viewBox="0 0 99 100" fill="none" xmlns="http://www.w3.org/2000/svg">
<path d="M79.2161 24.9143C95.3366 34.8777 87.264 54.9009 77.3164 70.9957C67.3688 87.0906 46.4767 91.6726 30.3562 81.7092C14.2358 71.7458 14.7885 39.02 24.736 22.9251C34.6836 6.83024 63.0956 14.9509 79.2161 24.9143Z" fill="#FBEBCC"/>
<path d="M48.08 54C48.9067 53.16 49.7067 52.3467 50.48 51.56C51.2533 50.7733 51.9467 50.0133 52.56 49.28C53.1733 48.5333 53.6533 47.82 54 47.14C54.36 46.4467 54.54 45.7733 54.54 45.12C54.54 44.7467 54.48 44.42 54.36 44.14C54.24 43.86 54.0733 43.6267 53.86 43.44C53.6467 43.2533 53.4 43.1133 53.12 43.02C52.8533 42.9267 52.56 42.88 52.24 42.88C51.8533 42.88 51.52 42.94 51.24 43.06C50.96 43.18 50.7333 43.34 50.56 43.54C50.3867 43.7267 50.2533 43.9333 50.16 44.16C50.0667 44.3733 50.02 44.5933 50.02 44.82C50.02 45.26 50.0867 45.6533 50.22 46C50.3667 46.3333 50.56 46.6267 50.8 46.88L49.38 48.18C49.0333 47.9933 48.74 47.7 48.5 47.3C48.26 46.9 48.0733 46.48 47.94 46.04C47.82 45.6 47.76 45.2133 47.76 44.88C47.76 44.1467 47.9467 43.46 48.32 42.82C48.7067 42.18 49.26 41.66 49.98 41.26C50.7133 40.8467 51.6 40.64 52.64 40.64C53.5067 40.64 54.26 40.84 54.9 41.24C55.5533 41.6267 56.06 42.1467 56.42 42.8C56.78 43.4533 56.96 44.16 56.96 44.92C56.96 45.56 56.84 46.1867 56.6 46.8C56.3733 47.4 56.06 48 55.66 48.6C55.26 49.1867 54.8133 49.7667 54.32 50.34C53.84 50.9133 53.3533 51.4933 52.86 52.08L51.82 51.76H57.28V54H48.08Z" fill="black"/>
</svg>
