<svg width="95" height="97" viewBox="0 0 95 97" fill="none" xmlns="http://www.w3.org/2000/svg">
<path d="M42.8597 9.64652C59.9994 1.56154 72.3871 19.2432 80.4592 36.3557C88.5314 53.4683 80.9857 73.4818 63.846 81.5668C46.7062 89.6518 19.5699 71.3513 11.4978 54.2387C3.42565 37.1262 25.7199 17.7315 42.8597 9.64652Z" fill="#FBEBCC"/>
<path d="M50.9 36.8L47.58 42.5L46.26 41.84C46.42 41.76 46.5933 41.7 46.78 41.66C46.9667 41.62 47.1467 41.6 47.32 41.6C47.8133 41.5867 48.2933 41.6467 48.76 41.78C49.2267 41.9 49.6467 42.1133 50.02 42.42C50.3933 42.7267 50.6933 43.14 50.92 43.66C51.1467 44.18 51.26 44.8267 51.26 45.6C51.26 46.5467 51.04 47.36 50.6 48.04C50.1733 48.72 49.6 49.2467 48.88 49.62C48.1733 49.98 47.4 50.16 46.56 50.16C45.92 50.16 45.26 50.0267 44.58 49.76C43.9133 49.4933 43.3733 49.14 42.96 48.7L44.14 46.78C44.3667 47.06 44.6933 47.32 45.12 47.56C45.56 47.8 46.02 47.92 46.5 47.92C46.9133 47.92 47.2933 47.8267 47.64 47.64C48 47.44 48.2933 47.16 48.52 46.8C48.7467 46.4267 48.86 45.98 48.86 45.46C48.86 44.78 48.66 44.24 48.26 43.84C47.86 43.4267 47.3067 43.22 46.6 43.22C46.2133 43.22 45.9 43.2467 45.66 43.3C45.42 43.34 45.1933 43.3933 44.98 43.46L44.92 43.4L47.72 38.74L48.42 39.04H43.86V36.8H50.9Z" fill="black"/>
</svg>
