<svg width="89" height="86" viewBox="0 0 89 86" fill="none" xmlns="http://www.w3.org/2000/svg">
<path d="M11.4592 21.9401C16.0416 3.55149 37.5719 5.14456 55.9313 9.71964C74.2907 14.2947 85.016 32.8 80.4337 51.1886C75.8513 69.5772 44.5109 79.0144 26.1515 74.4393C7.79205 69.8643 6.87686 40.3287 11.4592 21.9401Z" fill="#FBEBCC"/>
<path d="M41.86 44.16C41.1267 44.16 40.4133 44.0267 39.72 43.76C39.04 43.48 38.5 43.14 38.1 42.74L39.32 40.9C39.5733 41.2067 39.92 41.4533 40.36 41.64C40.8133 41.8267 41.2533 41.92 41.68 41.92C42.1067 41.92 42.4867 41.8333 42.82 41.66C43.1533 41.4733 43.4133 41.2133 43.6 40.88C43.8 40.5333 43.9 40.14 43.9 39.7C43.9 39.2067 43.8067 38.7733 43.62 38.4C43.4467 38.0267 43.18 37.7333 42.82 37.52C42.46 37.3067 42.0267 37.2 41.52 37.2C41.08 37.2 40.66 37.2667 40.26 37.4C39.8733 37.52 39.4533 37.7067 39 37.96H38.98V30.8H45.4V33.04H40.98V35.9L40.7 35.42C40.9133 35.3667 41.1333 35.3267 41.36 35.3C41.6 35.26 41.8333 35.24 42.06 35.24C42.98 35.24 43.7533 35.44 44.38 35.84C45.0067 36.24 45.48 36.7733 45.8 37.44C46.1333 38.1067 46.3 38.8333 46.3 39.62C46.3 40.46 46.1067 41.2267 45.72 41.92C45.3333 42.6 44.8 43.1467 44.12 43.56C43.4533 43.96 42.7 44.16 41.86 44.16Z" fill="black"/>
</svg>
