<svg width="89" height="86" viewBox="0 0 89 86" fill="none" xmlns="http://www.w3.org/2000/svg">
<path d="M11.4592 21.9401C16.0416 3.55149 37.5719 5.14456 55.9313 9.71964C74.2907 14.2947 85.016 32.8 80.4337 51.1886C75.8513 69.5772 44.5109 79.0144 26.1515 74.4393C7.79205 69.8643 6.87686 40.3287 11.4592 21.9401Z" fill="#FBEBCC"/>
<path d="M42.58 44.16C41.66 44.16 40.8267 43.9467 40.08 43.52C39.3467 43.08 38.76 42.4533 38.32 41.64C37.8933 40.8133 37.68 39.8267 37.68 38.68C37.68 37.84 37.84 37.04 38.16 36.28C38.4933 35.52 38.94 34.8 39.5 34.12C40.06 33.4267 40.6933 32.7867 41.4 32.2C42.1067 31.6133 42.8467 31.0733 43.62 30.58L45.18 32.28C44.1 32.7733 43.2 33.3533 42.48 34.02C41.7733 34.6733 41.2333 35.3467 40.86 36.04C40.5 36.7333 40.3 37.38 40.26 37.98L39.68 37.9C40.04 37.1267 40.5067 36.5267 41.08 36.1C41.6533 35.66 42.4133 35.44 43.36 35.44C44.0267 35.44 44.66 35.6267 45.26 36C45.86 36.36 46.3467 36.8533 46.72 37.48C47.1067 38.1067 47.3 38.84 47.3 39.68C47.3 40.6 47.0733 41.4 46.62 42.08C46.1667 42.7467 45.58 43.26 44.86 43.62C44.1533 43.98 43.3933 44.16 42.58 44.16ZM42.48 42.08C42.9333 42.08 43.34 41.9867 43.7 41.8C44.06 41.6 44.3467 41.32 44.56 40.96C44.7733 40.6 44.88 40.1733 44.88 39.68C44.88 39.2 44.7733 38.7933 44.56 38.46C44.3467 38.1267 44.0533 37.8667 43.68 37.68C43.32 37.4933 42.92 37.4 42.48 37.4C42.04 37.4 41.64 37.4933 41.28 37.68C40.92 37.8533 40.6267 38.0933 40.4 38.4C40.1867 38.6933 40.08 39.0267 40.08 39.4V39.8C40.08 40.2 40.1867 40.5733 40.4 40.92C40.6133 41.2667 40.9 41.5467 41.26 41.76C41.6333 41.9733 42.04 42.08 42.48 42.08Z" fill="black"/>
</svg>
