<svg width="247" height="165" viewBox="0 0 247 165" fill="none" xmlns="http://www.w3.org/2000/svg">
<rect width="247" height="165" rx="14" fill="#FEEDFF"/>
<path d="M68.3026 108H65.4901L70.6108 93.4545H73.8636L78.9915 108H76.179L72.294 96.4375H72.1804L68.3026 108ZM68.3949 102.297H76.0653V104.413H68.3949V102.297ZM84.5099 108.192C83.6529 108.192 82.8859 107.972 82.2088 107.531C81.5317 107.091 80.9967 106.452 80.6037 105.614C80.2107 104.776 80.0142 103.758 80.0142 102.56C80.0142 101.348 80.2131 100.325 80.6108 99.4915C81.0133 98.6534 81.5554 98.0213 82.2372 97.5952C82.919 97.1643 83.679 96.9489 84.517 96.9489C85.1563 96.9489 85.6818 97.0578 86.0938 97.2756C86.5057 97.4886 86.8324 97.7467 87.0739 98.0497C87.3153 98.348 87.5024 98.6297 87.6349 98.8949H87.7415V93.4545H90.3196V108H87.7912V106.281H87.6349C87.5024 106.546 87.3106 106.828 87.0597 107.126C86.8087 107.42 86.4773 107.671 86.0653 107.879C85.6534 108.088 85.1349 108.192 84.5099 108.192ZM85.2273 106.082C85.7718 106.082 86.2358 105.936 86.6193 105.642C87.0028 105.344 87.294 104.929 87.4929 104.399C87.6918 103.869 87.7912 103.251 87.7912 102.545C87.7912 101.84 87.6918 101.227 87.4929 100.706C87.2988 100.185 87.0099 99.7803 86.6264 99.4915C86.2476 99.2027 85.7813 99.0582 85.2273 99.0582C84.6544 99.0582 84.1761 99.2074 83.7926 99.5057C83.4091 99.804 83.1203 100.216 82.9261 100.741C82.732 101.267 82.6349 101.868 82.6349 102.545C82.6349 103.227 82.732 103.836 82.9261 104.371C83.125 104.901 83.4162 105.32 83.7997 105.628C84.188 105.931 84.6638 106.082 85.2273 106.082ZM97.1076 108.192C96.2506 108.192 95.4835 107.972 94.8065 107.531C94.1294 107.091 93.5943 106.452 93.2013 105.614C92.8084 104.776 92.6119 103.758 92.6119 102.56C92.6119 101.348 92.8107 100.325 93.2085 99.4915C93.6109 98.6534 94.1531 98.0213 94.8349 97.5952C95.5167 97.1643 96.2766 96.9489 97.1147 96.9489C97.7539 96.9489 98.2795 97.0578 98.6914 97.2756C99.1033 97.4886 99.43 97.7467 99.6715 98.0497C99.913 98.348 100.1 98.6297 100.233 98.8949H100.339V93.4545H102.917V108H100.389V106.281H100.233C100.1 106.546 99.9083 106.828 99.6573 107.126C99.4064 107.42 99.0749 107.671 98.663 107.879C98.2511 108.088 97.7326 108.192 97.1076 108.192ZM97.8249 106.082C98.3694 106.082 98.8335 105.936 99.217 105.642C99.6005 105.344 99.8917 104.929 100.091 104.399C100.289 103.869 100.389 103.251 100.389 102.545C100.389 101.84 100.289 101.227 100.091 100.706C99.8964 100.185 99.6076 99.7803 99.2241 99.4915C98.8453 99.2027 98.3789 99.0582 97.8249 99.0582C97.252 99.0582 96.7738 99.2074 96.3903 99.5057C96.0067 99.804 95.7179 100.216 95.5238 100.741C95.3297 101.267 95.2326 101.868 95.2326 102.545C95.2326 103.227 95.3297 103.836 95.5238 104.371C95.7227 104.901 96.0138 105.32 96.3974 105.628C96.7856 105.931 97.2615 106.082 97.8249 106.082ZM113.757 108.22C113.066 108.22 112.443 108.097 111.889 107.851C111.34 107.6 110.904 107.231 110.582 106.743C110.265 106.255 110.107 105.654 110.107 104.939C110.107 104.323 110.22 103.814 110.447 103.412C110.675 103.009 110.985 102.688 111.378 102.446C111.771 102.205 112.214 102.022 112.706 101.899C113.203 101.771 113.717 101.679 114.247 101.622C114.886 101.556 115.405 101.497 115.803 101.445C116.2 101.388 116.489 101.303 116.669 101.189C116.854 101.071 116.946 100.888 116.946 100.642V100.599C116.946 100.064 116.787 99.6501 116.47 99.3565C116.153 99.063 115.696 98.9162 115.099 98.9162C114.47 98.9162 113.97 99.0535 113.601 99.3281C113.236 99.6027 112.99 99.9271 112.862 100.301L110.462 99.9602C110.651 99.2973 110.964 98.7434 111.399 98.2983C111.835 97.8485 112.367 97.5123 112.997 97.2898C113.627 97.0625 114.323 96.9489 115.085 96.9489C115.611 96.9489 116.134 97.0104 116.655 97.1335C117.176 97.2566 117.652 97.4602 118.082 97.7443C118.513 98.0237 118.859 98.4048 119.119 98.8878C119.384 99.3707 119.517 99.9744 119.517 100.699V108H117.045V106.501H116.96C116.804 106.804 116.584 107.089 116.3 107.354C116.02 107.614 115.668 107.825 115.241 107.986C114.82 108.142 114.325 108.22 113.757 108.22ZM114.425 106.331C114.941 106.331 115.388 106.229 115.767 106.026C116.146 105.817 116.437 105.543 116.641 105.202C116.849 104.861 116.953 104.489 116.953 104.087V102.801C116.873 102.867 116.735 102.929 116.541 102.986C116.352 103.043 116.139 103.092 115.902 103.135C115.665 103.178 115.431 103.215 115.199 103.249C114.967 103.282 114.766 103.31 114.595 103.334C114.212 103.386 113.868 103.471 113.565 103.589C113.262 103.708 113.023 103.874 112.848 104.087C112.673 104.295 112.585 104.565 112.585 104.896C112.585 105.37 112.758 105.727 113.104 105.969C113.449 106.21 113.89 106.331 114.425 106.331ZM127.063 112.091V97.0909H129.592V98.8949H129.741C129.873 98.6297 130.06 98.348 130.302 98.0497C130.543 97.7467 130.87 97.4886 131.282 97.2756C131.694 97.0578 132.219 96.9489 132.859 96.9489C133.701 96.9489 134.461 97.1643 135.138 97.5952C135.82 98.0213 136.36 98.6534 136.758 99.4915C137.16 100.325 137.362 101.348 137.362 102.56C137.362 103.758 137.165 104.776 136.772 105.614C136.379 106.452 135.844 107.091 135.167 107.531C134.49 107.972 133.723 108.192 132.866 108.192C132.241 108.192 131.722 108.088 131.31 107.879C130.898 107.671 130.567 107.42 130.316 107.126C130.07 106.828 129.878 106.546 129.741 106.281H129.634V112.091H127.063ZM129.585 102.545C129.585 103.251 129.684 103.869 129.883 104.399C130.086 104.929 130.378 105.344 130.756 105.642C131.14 105.936 131.604 106.082 132.148 106.082C132.717 106.082 133.192 105.931 133.576 105.628C133.96 105.32 134.248 104.901 134.442 104.371C134.641 103.836 134.741 103.227 134.741 102.545C134.741 101.868 134.644 101.267 134.45 100.741C134.255 100.216 133.967 99.804 133.583 99.5057C133.2 99.2074 132.721 99.0582 132.148 99.0582C131.599 99.0582 131.133 99.2027 130.749 99.4915C130.366 99.7803 130.075 100.185 129.876 100.706C129.682 101.227 129.585 101.84 129.585 102.545ZM142.134 101.608V108H139.563V93.4545H142.077V98.9446H142.205C142.461 98.3291 142.856 97.8437 143.391 97.4886C143.931 97.1288 144.618 96.9489 145.451 96.9489C146.209 96.9489 146.869 97.1075 147.433 97.4247C147.996 97.742 148.432 98.206 148.739 98.8168C149.052 99.4276 149.208 100.173 149.208 101.054V108H146.637V101.452C146.637 100.718 146.448 100.147 146.069 99.7401C145.695 99.3281 145.169 99.1222 144.492 99.1222C144.038 99.1222 143.63 99.2216 143.271 99.4205C142.915 99.6146 142.636 99.8963 142.433 100.266C142.234 100.635 142.134 101.082 142.134 101.608ZM156.587 108.213C155.522 108.213 154.599 107.979 153.817 107.51C153.036 107.041 152.43 106.385 151.999 105.543C151.573 104.7 151.36 103.715 151.36 102.588C151.36 101.461 151.573 100.474 151.999 99.6264C152.43 98.7789 153.036 98.1207 153.817 97.652C154.599 97.1832 155.522 96.9489 156.587 96.9489C157.653 96.9489 158.576 97.1832 159.357 97.652C160.138 98.1207 160.742 98.7789 161.168 99.6264C161.599 100.474 161.815 101.461 161.815 102.588C161.815 103.715 161.599 104.7 161.168 105.543C160.742 106.385 160.138 107.041 159.357 107.51C158.576 107.979 157.653 108.213 156.587 108.213ZM156.602 106.153C157.179 106.153 157.662 105.995 158.05 105.678C158.439 105.356 158.728 104.925 158.917 104.385C159.111 103.845 159.208 103.244 159.208 102.581C159.208 101.913 159.111 101.31 158.917 100.77C158.728 100.225 158.439 99.7921 158.05 99.4702C157.662 99.1482 157.179 98.9872 156.602 98.9872C156.01 98.9872 155.517 99.1482 155.124 99.4702C154.736 99.7921 154.445 100.225 154.251 100.77C154.061 101.31 153.967 101.913 153.967 102.581C153.967 103.244 154.061 103.845 154.251 104.385C154.445 104.925 154.736 105.356 155.124 105.678C155.517 105.995 156.01 106.153 156.602 106.153ZM169.444 97.0909V99.0795H163.173V97.0909H169.444ZM164.721 94.4773H167.292V104.719C167.292 105.064 167.344 105.33 167.449 105.514C167.557 105.694 167.699 105.817 167.875 105.884C168.05 105.95 168.244 105.983 168.457 105.983C168.618 105.983 168.765 105.971 168.897 105.947C169.035 105.924 169.139 105.902 169.21 105.884L169.643 107.893C169.506 107.941 169.309 107.993 169.054 108.05C168.803 108.107 168.495 108.14 168.13 108.149C167.486 108.168 166.906 108.071 166.39 107.858C165.874 107.64 165.465 107.304 165.162 106.849C164.863 106.395 164.717 105.827 164.721 105.145V94.4773ZM176.236 108.213C175.17 108.213 174.247 107.979 173.466 107.51C172.685 107.041 172.079 106.385 171.648 105.543C171.222 104.7 171.009 103.715 171.009 102.588C171.009 101.461 171.222 100.474 171.648 99.6264C172.079 98.7789 172.685 98.1207 173.466 97.652C174.247 97.1832 175.17 96.9489 176.236 96.9489C177.301 96.9489 178.224 97.1832 179.006 97.652C179.787 98.1207 180.391 98.7789 180.817 99.6264C181.248 100.474 181.463 101.461 181.463 102.588C181.463 103.715 181.248 104.7 180.817 105.543C180.391 106.385 179.787 107.041 179.006 107.51C178.224 107.979 177.301 108.213 176.236 108.213ZM176.25 106.153C176.828 106.153 177.311 105.995 177.699 105.678C178.087 105.356 178.376 104.925 178.565 104.385C178.759 103.845 178.857 103.244 178.857 102.581C178.857 101.913 178.759 101.31 178.565 100.77C178.376 100.225 178.087 99.7921 177.699 99.4702C177.311 99.1482 176.828 98.9872 176.25 98.9872C175.658 98.9872 175.166 99.1482 174.773 99.4702C174.384 99.7921 174.093 100.225 173.899 100.77C173.71 101.31 173.615 101.913 173.615 102.581C173.615 103.244 173.71 103.845 173.899 104.385C174.093 104.925 174.384 105.356 174.773 105.678C175.166 105.995 175.658 106.153 176.25 106.153Z" fill="#F797FF"/>
<path d="M111.938 60.0938H115.944L117.914 57.1395C118.019 56.9813 118.162 56.8516 118.33 56.7619C118.498 56.6721 118.685 56.6251 118.875 56.625H128.125C128.315 56.6251 128.502 56.6721 128.67 56.7619C128.838 56.8516 128.981 56.9813 129.086 57.1395L131.058 60.0938H135.062C135.982 60.0938 136.865 60.4592 137.515 61.1097C138.166 61.7602 138.531 62.6425 138.531 63.5625V79.75C138.531 80.67 138.166 81.5523 137.515 82.2028C136.865 82.8533 135.982 83.2188 135.062 83.2188H111.938C111.018 83.2188 110.135 82.8533 109.485 82.2028C108.834 81.5523 108.469 80.67 108.469 79.75V63.5625C108.469 62.6425 108.834 61.7602 109.485 61.1097C110.135 60.4592 111.018 60.0938 111.938 60.0938ZM118.297 71.0781C118.297 72.1072 118.602 73.1132 119.174 73.9688C119.745 74.8245 120.558 75.4914 121.509 75.8852C122.46 76.279 123.506 76.382 124.515 76.1813C125.524 75.9805 126.451 75.485 127.179 74.7573C127.907 74.0296 128.402 73.1025 128.603 72.0932C128.804 71.0839 128.701 70.0377 128.307 69.087C127.913 68.1362 127.246 67.3236 126.391 66.7519C125.535 66.1802 124.529 65.875 123.5 65.875C122.12 65.875 120.797 66.4232 119.821 67.399C118.845 68.3747 118.297 69.6982 118.297 71.0781Z" fill="#F797FF"/>
</svg>
