<svg width="97" height="95" viewBox="0 0 97 95" fill="none" xmlns="http://www.w3.org/2000/svg">
<path d="M60.6247 11.875C62.664 11.8744 64.6282 12.6287 66.1236 13.9868C67.6189 15.3448 68.5349 17.2063 68.6878 19.1979L68.708 19.7917C68.7081 20.7612 69.0716 21.697 69.7294 22.4215C70.3872 23.146 71.2937 23.6089 72.2768 23.7223L72.7497 23.75H76.7913C79.8841 23.7498 82.86 24.9071 85.1101 26.9851C87.3603 29.063 88.7147 31.9046 88.8961 34.9283L88.9164 35.625V71.25C88.9165 74.279 87.7349 77.1935 85.6132 79.3973C83.4915 81.6011 80.5901 82.9275 77.5027 83.1052L76.7913 83.125H20.208C17.1153 83.1252 14.1394 81.9679 11.8892 79.8899C9.63902 77.812 8.28466 74.9704 8.10322 71.9467L8.08301 71.25V35.625C8.08284 32.596 9.26449 29.6815 11.3862 27.4777C13.5079 25.2739 16.4093 23.9475 19.4967 23.7698L20.208 23.75H24.2497C25.3216 23.75 26.3496 23.333 27.1076 22.5906C27.8655 21.8483 28.2913 20.8415 28.2913 19.7917C28.2907 17.7944 29.0609 15.8707 30.4476 14.4062C31.8342 12.9417 33.7348 12.0446 35.7684 11.8948L36.3747 11.875H60.6247ZM48.4997 39.5833C45.4951 39.5831 42.5974 40.6754 40.3684 42.6486C38.1394 44.6218 36.7378 47.3352 36.4353 50.2629L36.3908 50.8646L36.3747 51.4583L36.3908 52.0521C36.5095 54.3726 37.3205 56.608 38.7236 58.4815C40.1266 60.355 42.06 61.7843 44.2843 62.5922C46.5086 63.4002 48.926 63.5513 51.2371 63.027C53.5482 62.5026 55.6515 61.3258 57.2864 59.6423C58.9214 57.9587 60.0161 55.8424 60.4351 53.5556C60.8541 51.2687 60.5788 48.9117 59.6435 46.7765C58.7082 44.6413 57.1539 42.8217 55.1731 41.5431C53.1923 40.2645 50.872 39.5831 48.4997 39.5833Z" fill="#FFD178"/>
</svg>
