<svg width="273" height="45" viewBox="0 0 273 45" fill="none" xmlns="http://www.w3.org/2000/svg">
<rect width="273" height="45" rx="19" fill="#FF5B5B"/>
<path d="M35.8125 20H33.875C33.7604 19.4427 33.5599 18.9531 33.2734 18.5312C32.9922 18.1094 32.6484 17.7552 32.2422 17.4688C31.8411 17.1771 31.3958 16.9583 30.9063 16.8125C30.4167 16.6667 29.9063 16.5937 29.375 16.5937C28.4063 16.5937 27.5286 16.8385 26.7422 17.3281C25.9609 17.8177 25.3385 18.5391 24.875 19.4922C24.4167 20.4453 24.1875 21.6146 24.1875 23C24.1875 24.3854 24.4167 25.5547 24.875 26.5078C25.3385 27.4609 25.9609 28.1823 26.7422 28.6719C27.5286 29.1615 28.4063 29.4062 29.375 29.4062C29.9063 29.4062 30.4167 29.3333 30.9063 29.1875C31.3958 29.0417 31.8411 28.8255 32.2422 28.5391C32.6484 28.2474 32.9922 27.8906 33.2734 27.4687C33.5599 27.0417 33.7604 26.5521 33.875 26H35.8125C35.6667 26.8177 35.401 27.5495 35.0156 28.1953C34.6302 28.8411 34.151 29.3906 33.5781 29.8437C33.0052 30.2917 32.362 30.6328 31.6484 30.8672C30.9401 31.1016 30.1823 31.2187 29.375 31.2187C28.0104 31.2187 26.7969 30.8854 25.7344 30.2188C24.6719 29.5521 23.8359 28.6042 23.2266 27.375C22.6172 26.1458 22.3125 24.6875 22.3125 23C22.3125 21.3125 22.6172 19.8542 23.2266 18.625C23.8359 17.3958 24.6719 16.4479 25.7344 15.7812C26.7969 15.1146 28.0104 14.7812 29.375 14.7812C30.1823 14.7812 30.9401 14.8984 31.6484 15.1328C32.362 15.3672 33.0052 15.7109 33.5781 16.1641C34.151 16.612 34.6302 17.1589 35.0156 17.8047C35.401 18.4453 35.6667 19.1771 35.8125 20ZM43.5684 31.25C42.485 31.25 41.5345 30.9922 40.7168 30.4766C39.9043 29.9609 39.2689 29.2396 38.8105 28.3125C38.3574 27.3854 38.1309 26.3021 38.1309 25.0625C38.1309 23.8125 38.3574 22.7214 38.8105 21.7891C39.2689 20.8568 39.9043 20.1328 40.7168 19.6172C41.5345 19.1016 42.485 18.8438 43.5684 18.8438C44.6517 18.8438 45.5996 19.1016 46.4121 19.6172C47.2298 20.1328 47.8652 20.8568 48.3184 21.7891C48.7767 22.7214 49.0059 23.8125 49.0059 25.0625C49.0059 26.3021 48.7767 27.3854 48.3184 28.3125C47.8652 29.2396 47.2298 29.9609 46.4121 30.4766C45.5996 30.9922 44.6517 31.25 43.5684 31.25ZM43.5684 29.5938C44.3913 29.5938 45.0684 29.3828 45.5996 28.9609C46.1309 28.5391 46.5241 27.9844 46.7793 27.2969C47.0345 26.6094 47.1621 25.8646 47.1621 25.0625C47.1621 24.2604 47.0345 23.513 46.7793 22.8203C46.5241 22.1276 46.1309 21.5677 45.5996 21.1406C45.0684 20.7135 44.3913 20.5 43.5684 20.5C42.7454 20.5 42.0684 20.7135 41.5371 21.1406C41.0059 21.5677 40.6126 22.1276 40.3574 22.8203C40.1022 23.513 39.9746 24.2604 39.9746 25.0625C39.9746 25.8646 40.1022 26.6094 40.3574 27.2969C40.6126 27.9844 41.0059 28.5391 41.5371 28.9609C42.0684 29.3828 42.7454 29.5938 43.5684 29.5938ZM53.6641 23.7812V31H51.8203V19H53.6016V20.875H53.7578C54.0391 20.2656 54.4661 19.776 55.0391 19.4063C55.612 19.0313 56.3516 18.8438 57.2578 18.8438C58.0703 18.8438 58.7813 19.0104 59.3906 19.3437C60 19.6719 60.474 20.1719 60.8125 20.8437C61.151 21.5104 61.3203 22.3542 61.3203 23.375V31H59.4766V23.5C59.4766 22.5573 59.2318 21.8229 58.7422 21.2969C58.2526 20.7656 57.5807 20.5 56.7266 20.5C56.138 20.5 55.612 20.6276 55.1484 20.8828C54.6901 21.138 54.3281 21.5104 54.0625 22C53.7969 22.4896 53.6641 23.0833 53.6641 23.7812ZM69.9082 19V20.5625H63.6895V19H69.9082ZM65.502 16.125H67.3457V27.5625C67.3457 28.0833 67.4212 28.474 67.5723 28.7344C67.7285 28.9896 67.9264 29.1615 68.166 29.25C68.4108 29.3333 68.6686 29.375 68.9395 29.375C69.1426 29.375 69.3092 29.3646 69.4395 29.3437C69.5697 29.3177 69.6738 29.2969 69.752 29.2812L70.127 30.9375C70.002 30.9844 69.8275 31.0313 69.6035 31.0781C69.3796 31.1302 69.0957 31.1563 68.752 31.1563C68.2311 31.1563 67.7207 31.0443 67.2207 30.8203C66.7259 30.5964 66.3145 30.2552 65.9863 29.7969C65.6634 29.3385 65.502 28.7604 65.502 28.0625V16.125ZM72.6816 31V19H74.5254V31H72.6816ZM73.6191 17C73.2598 17 72.9499 16.8776 72.6895 16.6328C72.4342 16.388 72.3066 16.0938 72.3066 15.75C72.3066 15.4063 72.4342 15.112 72.6895 14.8672C72.9499 14.6224 73.2598 14.5 73.6191 14.5C73.9785 14.5 74.2858 14.6224 74.541 14.8672C74.8014 15.112 74.9316 15.4063 74.9316 15.75C74.9316 16.0938 74.8014 16.388 74.541 16.6328C74.2858 16.8776 73.9785 17 73.6191 17ZM79.7461 23.7812V31H77.9023V19H79.6836V20.875H79.8398C80.1211 20.2656 80.5482 19.776 81.1211 19.4063C81.694 19.0313 82.4336 18.8438 83.3398 18.8438C84.1523 18.8438 84.8633 19.0104 85.4727 19.3437C86.082 19.6719 86.556 20.1719 86.8945 20.8437C87.2331 21.5104 87.4023 22.3542 87.4023 23.375V31H85.5586V23.5C85.5586 22.5573 85.3138 21.8229 84.8242 21.2969C84.3346 20.7656 83.6628 20.5 82.8086 20.5C82.2201 20.5 81.694 20.6276 81.2305 20.8828C80.7721 21.138 80.4102 21.5104 80.1445 22C79.8789 22.4896 79.7461 23.0833 79.7461 23.7812ZM98.334 26.0937V19H100.178V31H98.334V28.9687H98.209C97.9277 29.5781 97.4902 30.0964 96.8965 30.5234C96.3027 30.9453 95.5527 31.1563 94.6465 31.1563C93.8965 31.1563 93.2298 30.9922 92.6465 30.6641C92.0632 30.3307 91.6048 29.8307 91.2715 29.1641C90.9382 28.4922 90.7715 27.6458 90.7715 26.625V19H92.6152V26.5C92.6152 27.375 92.86 28.0729 93.3496 28.5938C93.8444 29.1146 94.4746 29.375 95.2402 29.375C95.6986 29.375 96.1647 29.2578 96.6387 29.0234C97.1178 28.7891 97.5189 28.4297 97.8418 27.9453C98.1699 27.4609 98.334 26.8437 98.334 26.0937ZM108.586 31.25C107.43 31.25 106.432 30.9948 105.594 30.4844C104.76 29.9688 104.117 29.25 103.664 28.3281C103.216 27.401 102.992 26.3229 102.992 25.0938C102.992 23.8646 103.216 22.7812 103.664 21.8437C104.117 20.901 104.747 20.1667 105.555 19.6406C106.367 19.1094 107.315 18.8438 108.398 18.8438C109.023 18.8438 109.641 18.9479 110.25 19.1562C110.859 19.3646 111.414 19.7031 111.914 20.1719C112.414 20.6354 112.813 21.25 113.109 22.0156C113.406 22.7812 113.555 23.724 113.555 24.8437V25.625H104.305V24.0312H111.68C111.68 23.3542 111.544 22.75 111.273 22.2187C111.008 21.6875 110.628 21.2682 110.133 20.9609C109.643 20.6536 109.065 20.5 108.398 20.5C107.664 20.5 107.029 20.6823 106.492 21.0469C105.961 21.4062 105.552 21.875 105.266 22.4531C104.979 23.0312 104.836 23.651 104.836 24.3125V25.375C104.836 26.2813 104.992 27.0495 105.305 27.6797C105.622 28.3047 106.063 28.7812 106.625 29.1094C107.188 29.4323 107.841 29.5938 108.586 29.5938C109.07 29.5938 109.508 29.526 109.898 29.3906C110.294 29.25 110.635 29.0417 110.922 28.7656C111.208 28.4844 111.43 28.1354 111.586 27.7187L113.367 28.2188C113.18 28.8229 112.865 29.3542 112.422 29.8125C111.979 30.2656 111.432 30.6198 110.781 30.875C110.13 31.125 109.398 31.25 108.586 31.25ZM127.766 19V20.5625H121.547V19H127.766ZM123.359 16.125H125.203V27.5625C125.203 28.0833 125.279 28.474 125.43 28.7344C125.586 28.9896 125.784 29.1615 126.023 29.25C126.268 29.3333 126.526 29.375 126.797 29.375C127 29.375 127.167 29.3646 127.297 29.3437C127.427 29.3177 127.531 29.2969 127.609 29.2812L127.984 30.9375C127.859 30.9844 127.685 31.0313 127.461 31.0781C127.237 31.1302 126.953 31.1563 126.609 31.1563C126.089 31.1563 125.578 31.0443 125.078 30.8203C124.583 30.5964 124.172 30.2552 123.844 29.7969C123.521 29.3385 123.359 28.7604 123.359 28.0625V16.125ZM135.285 31.25C134.202 31.25 133.251 30.9922 132.434 30.4766C131.621 29.9609 130.986 29.2396 130.527 28.3125C130.074 27.3854 129.848 26.3021 129.848 25.0625C129.848 23.8125 130.074 22.7214 130.527 21.7891C130.986 20.8568 131.621 20.1328 132.434 19.6172C133.251 19.1016 134.202 18.8438 135.285 18.8438C136.368 18.8438 137.316 19.1016 138.129 19.6172C138.947 20.1328 139.582 20.8568 140.035 21.7891C140.493 22.7214 140.723 23.8125 140.723 25.0625C140.723 26.3021 140.493 27.3854 140.035 28.3125C139.582 29.2396 138.947 29.9609 138.129 30.4766C137.316 30.9922 136.368 31.25 135.285 31.25ZM135.285 29.5938C136.108 29.5938 136.785 29.3828 137.316 28.9609C137.848 28.5391 138.241 27.9844 138.496 27.2969C138.751 26.6094 138.879 25.8646 138.879 25.0625C138.879 24.2604 138.751 23.513 138.496 22.8203C138.241 22.1276 137.848 21.5677 137.316 21.1406C136.785 20.7135 136.108 20.5 135.285 20.5C134.462 20.5 133.785 20.7135 133.254 21.1406C132.723 21.5677 132.329 22.1276 132.074 22.8203C131.819 23.513 131.691 24.2604 131.691 25.0625C131.691 25.8646 131.819 26.6094 132.074 27.2969C132.329 27.9844 132.723 28.5391 133.254 28.9609C133.785 29.3828 134.462 29.5938 135.285 29.5938ZM153.256 31.2813C152.495 31.2813 151.805 31.138 151.186 30.8516C150.566 30.5599 150.074 30.1406 149.709 29.5938C149.344 29.0417 149.162 28.375 149.162 27.5937C149.162 26.9062 149.298 26.349 149.568 25.9219C149.839 25.4896 150.201 25.151 150.654 24.9062C151.107 24.6615 151.607 24.4792 152.154 24.3594C152.706 24.2344 153.261 24.1354 153.818 24.0625C154.548 23.9687 155.139 23.8984 155.592 23.8516C156.05 23.7995 156.383 23.7135 156.592 23.5937C156.805 23.474 156.912 23.2656 156.912 22.9687V22.9062C156.912 22.1354 156.701 21.5365 156.279 21.1094C155.863 20.6823 155.23 20.4687 154.381 20.4687C153.501 20.4687 152.811 20.6615 152.311 21.0469C151.811 21.4323 151.459 21.8437 151.256 22.2812L149.506 21.6562C149.818 20.9271 150.235 20.3594 150.756 19.9531C151.282 19.5417 151.855 19.2552 152.475 19.0937C153.1 18.9271 153.714 18.8438 154.318 18.8438C154.704 18.8438 155.146 18.8906 155.646 18.9844C156.152 19.0729 156.639 19.2578 157.107 19.5391C157.581 19.8203 157.975 20.2448 158.287 20.8125C158.6 21.3802 158.756 22.1406 158.756 23.0938V31H156.912V29.375H156.818C156.693 29.6354 156.485 29.9141 156.193 30.2109C155.902 30.5078 155.514 30.7604 155.029 30.9687C154.545 31.1771 153.954 31.2813 153.256 31.2813ZM153.537 29.625C154.266 29.625 154.881 29.4818 155.381 29.1953C155.886 28.9089 156.266 28.5391 156.521 28.0859C156.782 27.6328 156.912 27.1562 156.912 26.6562V24.9687C156.834 25.0625 156.662 25.1484 156.396 25.2266C156.136 25.2995 155.834 25.3646 155.49 25.4219C155.152 25.474 154.821 25.5208 154.498 25.5625C154.18 25.599 153.923 25.6302 153.725 25.6562C153.245 25.7187 152.798 25.8203 152.381 25.9609C151.969 26.0964 151.636 26.3021 151.381 26.5781C151.131 26.849 151.006 27.2187 151.006 27.6875C151.006 28.3281 151.243 28.8125 151.717 29.1406C152.196 29.4635 152.803 29.625 153.537 29.625ZM166.996 31.25C165.871 31.25 164.902 30.9844 164.09 30.4531C163.277 29.9219 162.652 29.1901 162.215 28.2578C161.777 27.3255 161.559 26.2604 161.559 25.0625C161.559 23.8437 161.783 22.7682 162.23 21.8359C162.684 20.8984 163.314 20.1667 164.121 19.6406C164.934 19.1094 165.882 18.8438 166.965 18.8438C167.809 18.8438 168.569 19 169.246 19.3125C169.923 19.625 170.478 20.0625 170.91 20.625C171.342 21.1875 171.611 21.8437 171.715 22.5937H169.871C169.73 22.0469 169.418 21.5625 168.934 21.1406C168.454 20.7135 167.809 20.5 166.996 20.5C166.277 20.5 165.647 20.6875 165.105 21.0625C164.569 21.4323 164.15 21.9557 163.848 22.6328C163.551 23.3047 163.402 24.0937 163.402 25C163.402 25.9271 163.548 26.7344 163.84 27.4219C164.137 28.1094 164.553 28.6432 165.09 29.0234C165.632 29.4036 166.267 29.5938 166.996 29.5938C167.475 29.5938 167.91 29.5104 168.301 29.3437C168.691 29.1771 169.022 28.9375 169.293 28.625C169.564 28.3125 169.757 27.9375 169.871 27.5H171.715C171.611 28.2083 171.353 28.8464 170.941 29.4141C170.535 29.9766 169.996 30.4245 169.324 30.7578C168.658 31.0859 167.882 31.25 166.996 31.25ZM179.629 19V20.5625H173.41V19H179.629ZM175.223 16.125H177.066V27.5625C177.066 28.0833 177.142 28.474 177.293 28.7344C177.449 28.9896 177.647 29.1615 177.887 29.25C178.132 29.3333 178.389 29.375 178.66 29.375C178.863 29.375 179.03 29.3646 179.16 29.3437C179.29 29.3177 179.395 29.2969 179.473 29.2812L179.848 30.9375C179.723 30.9844 179.548 31.0313 179.324 31.0781C179.1 31.1302 178.816 31.1563 178.473 31.1563C177.952 31.1563 177.441 31.0443 176.941 30.8203C176.447 30.5964 176.035 30.2552 175.707 29.7969C175.384 29.3385 175.223 28.7604 175.223 28.0625V16.125ZM182.402 31V19H184.246V31H182.402ZM183.34 17C182.98 17 182.671 16.8776 182.41 16.6328C182.155 16.388 182.027 16.0938 182.027 15.75C182.027 15.4063 182.155 15.112 182.41 14.8672C182.671 14.6224 182.98 14.5 183.34 14.5C183.699 14.5 184.007 14.6224 184.262 14.8672C184.522 15.112 184.652 15.4063 184.652 15.75C184.652 16.0938 184.522 16.388 184.262 16.6328C184.007 16.8776 183.699 17 183.34 17ZM197.436 19L192.998 31H191.123L186.686 19H188.686L191.998 28.5625H192.123L195.436 19H197.436ZM199.869 31V19H201.713V31H199.869ZM200.807 17C200.447 17 200.137 16.8776 199.877 16.6328C199.622 16.388 199.494 16.0938 199.494 15.75C199.494 15.4063 199.622 15.112 199.877 14.8672C200.137 14.6224 200.447 14.5 200.807 14.5C201.166 14.5 201.473 14.6224 201.729 14.8672C201.989 15.112 202.119 15.4063 202.119 15.75C202.119 16.0938 201.989 16.388 201.729 16.6328C201.473 16.8776 201.166 17 200.807 17ZM210.309 19V20.5625H204.09V19H210.309ZM205.902 16.125H207.746V27.5625C207.746 28.0833 207.822 28.474 207.973 28.7344C208.129 28.9896 208.327 29.1615 208.566 29.25C208.811 29.3333 209.069 29.375 209.34 29.375C209.543 29.375 209.71 29.3646 209.84 29.3437C209.97 29.3177 210.074 29.2969 210.152 29.2812L210.527 30.9375C210.402 30.9844 210.228 31.0313 210.004 31.0781C209.78 31.1302 209.496 31.1563 209.152 31.1563C208.632 31.1563 208.121 31.0443 207.621 30.8203C207.126 30.5964 206.715 30.2552 206.387 29.7969C206.064 29.3385 205.902 28.7604 205.902 28.0625V16.125ZM214.27 35.5C213.957 35.5 213.678 35.474 213.434 35.4219C213.189 35.375 213.02 35.3281 212.926 35.2813L213.395 33.6563C213.842 33.7708 214.238 33.8125 214.582 33.7812C214.926 33.75 215.23 33.5964 215.496 33.3203C215.767 33.0495 216.014 32.6094 216.238 32L216.582 31.0625L212.145 19H214.145L217.457 28.5625H217.582L220.895 19H222.895L217.801 32.75C217.572 33.3698 217.288 33.8828 216.949 34.2891C216.611 34.7005 216.217 35.0052 215.77 35.2031C215.327 35.401 214.827 35.5 214.27 35.5Z" fill="white"/>
<path d="M242.694 33.772L253.736 22.6906L242.694 11.6092" stroke="white" stroke-width="2" stroke-miterlimit="10" stroke-linecap="round" stroke-linejoin="round"/>
</svg>
