<svg width="273" height="45" viewBox="0 0 273 45" fill="none" xmlns="http://www.w3.org/2000/svg">
<rect width="273" height="45" rx="19" fill="#FF5B5B"/>
<path d="M104.813 20H102.875C102.76 19.4427 102.56 18.9531 102.273 18.5312C101.992 18.1094 101.648 17.7552 101.242 17.4688C100.841 17.1771 100.396 16.9583 99.9063 16.8125C99.4167 16.6667 98.9063 16.5937 98.375 16.5937C97.4063 16.5937 96.5286 16.8385 95.7422 17.3281C94.9609 17.8177 94.3385 18.5391 93.875 19.4922C93.4167 20.4453 93.1875 21.6146 93.1875 23C93.1875 24.3854 93.4167 25.5547 93.875 26.5078C94.3385 27.4609 94.9609 28.1823 95.7422 28.6719C96.5286 29.1615 97.4063 29.4062 98.375 29.4062C98.9063 29.4062 99.4167 29.3333 99.9063 29.1875C100.396 29.0417 100.841 28.8255 101.242 28.5391C101.648 28.2474 101.992 27.8906 102.273 27.4687C102.56 27.0417 102.76 26.5521 102.875 26H104.813C104.667 26.8177 104.401 27.5495 104.016 28.1953C103.63 28.8411 103.151 29.3906 102.578 29.8437C102.005 30.2917 101.362 30.6328 100.648 30.8672C99.9401 31.1016 99.1823 31.2187 98.375 31.2187C97.0104 31.2187 95.7969 30.8854 94.7344 30.2188C93.6719 29.5521 92.8359 28.6042 92.2266 27.375C91.6172 26.1458 91.3125 24.6875 91.3125 23C91.3125 21.3125 91.6172 19.8542 92.2266 18.625C92.8359 17.3958 93.6719 16.4479 94.7344 15.7812C95.7969 15.1146 97.0104 14.7812 98.375 14.7812C99.1823 14.7812 99.9401 14.8984 100.648 15.1328C101.362 15.3672 102.005 15.7109 102.578 16.1641C103.151 16.612 103.63 17.1589 104.016 17.8047C104.401 18.4453 104.667 19.1771 104.813 20ZM112.568 31.25C111.485 31.25 110.535 30.9922 109.717 30.4766C108.904 29.9609 108.269 29.2396 107.811 28.3125C107.357 27.3854 107.131 26.3021 107.131 25.0625C107.131 23.8125 107.357 22.7214 107.811 21.7891C108.269 20.8568 108.904 20.1328 109.717 19.6172C110.535 19.1016 111.485 18.8438 112.568 18.8438C113.652 18.8438 114.6 19.1016 115.412 19.6172C116.23 20.1328 116.865 20.8568 117.318 21.7891C117.777 22.7214 118.006 23.8125 118.006 25.0625C118.006 26.3021 117.777 27.3854 117.318 28.3125C116.865 29.2396 116.23 29.9609 115.412 30.4766C114.6 30.9922 113.652 31.25 112.568 31.25ZM112.568 29.5938C113.391 29.5938 114.068 29.3828 114.6 28.9609C115.131 28.5391 115.524 27.9844 115.779 27.2969C116.035 26.6094 116.162 25.8646 116.162 25.0625C116.162 24.2604 116.035 23.513 115.779 22.8203C115.524 22.1276 115.131 21.5677 114.6 21.1406C114.068 20.7135 113.391 20.5 112.568 20.5C111.745 20.5 111.068 20.7135 110.537 21.1406C110.006 21.5677 109.613 22.1276 109.357 22.8203C109.102 23.513 108.975 24.2604 108.975 25.0625C108.975 25.8646 109.102 26.6094 109.357 27.2969C109.613 27.9844 110.006 28.5391 110.537 28.9609C111.068 29.3828 111.745 29.5938 112.568 29.5938ZM122.664 23.7812V31H120.82V19H122.602V20.875H122.758C123.039 20.2656 123.466 19.776 124.039 19.4063C124.612 19.0313 125.352 18.8438 126.258 18.8438C127.07 18.8438 127.781 19.0104 128.391 19.3437C129 19.6719 129.474 20.1719 129.813 20.8437C130.151 21.5104 130.32 22.3542 130.32 23.375V31H128.477V23.5C128.477 22.5573 128.232 21.8229 127.742 21.2969C127.253 20.7656 126.581 20.5 125.727 20.5C125.138 20.5 124.612 20.6276 124.148 20.8828C123.69 21.138 123.328 21.5104 123.063 22C122.797 22.4896 122.664 23.0833 122.664 23.7812ZM138.908 19V20.5625H132.689V19H138.908ZM134.502 16.125H136.346V27.5625C136.346 28.0833 136.421 28.474 136.572 28.7344C136.729 28.9896 136.926 29.1615 137.166 29.25C137.411 29.3333 137.669 29.375 137.939 29.375C138.143 29.375 138.309 29.3646 138.439 29.3437C138.57 29.3177 138.674 29.2969 138.752 29.2812L139.127 30.9375C139.002 30.9844 138.827 31.0313 138.604 31.0781C138.38 31.1302 138.096 31.1563 137.752 31.1563C137.231 31.1563 136.721 31.0443 136.221 30.8203C135.726 30.5964 135.314 30.2552 134.986 29.7969C134.663 29.3385 134.502 28.7604 134.502 28.0625V16.125ZM141.682 31V19H143.525V31H141.682ZM142.619 17C142.26 17 141.95 16.8776 141.689 16.6328C141.434 16.388 141.307 16.0938 141.307 15.75C141.307 15.4063 141.434 15.112 141.689 14.8672C141.95 14.6224 142.26 14.5 142.619 14.5C142.979 14.5 143.286 14.6224 143.541 14.8672C143.801 15.112 143.932 15.4063 143.932 15.75C143.932 16.0938 143.801 16.388 143.541 16.6328C143.286 16.8776 142.979 17 142.619 17ZM148.746 23.7812V31H146.902V19H148.684V20.875H148.84C149.121 20.2656 149.548 19.776 150.121 19.4063C150.694 19.0313 151.434 18.8438 152.34 18.8438C153.152 18.8438 153.863 19.0104 154.473 19.3437C155.082 19.6719 155.556 20.1719 155.895 20.8437C156.233 21.5104 156.402 22.3542 156.402 23.375V31H154.559V23.5C154.559 22.5573 154.314 21.8229 153.824 21.2969C153.335 20.7656 152.663 20.5 151.809 20.5C151.22 20.5 150.694 20.6276 150.23 20.8828C149.772 21.138 149.41 21.5104 149.145 22C148.879 22.4896 148.746 23.0833 148.746 23.7812ZM167.334 26.0937V19H169.178V31H167.334V28.9687H167.209C166.928 29.5781 166.49 30.0964 165.896 30.5234C165.303 30.9453 164.553 31.1563 163.646 31.1563C162.896 31.1563 162.23 30.9922 161.646 30.6641C161.063 30.3307 160.605 29.8307 160.271 29.1641C159.938 28.4922 159.771 27.6458 159.771 26.625V19H161.615V26.5C161.615 27.375 161.86 28.0729 162.35 28.5938C162.844 29.1146 163.475 29.375 164.24 29.375C164.699 29.375 165.165 29.2578 165.639 29.0234C166.118 28.7891 166.519 28.4297 166.842 27.9453C167.17 27.4609 167.334 26.8437 167.334 26.0937ZM177.586 31.25C176.43 31.25 175.432 30.9948 174.594 30.4844C173.76 29.9688 173.117 29.25 172.664 28.3281C172.216 27.401 171.992 26.3229 171.992 25.0938C171.992 23.8646 172.216 22.7812 172.664 21.8437C173.117 20.901 173.747 20.1667 174.555 19.6406C175.367 19.1094 176.315 18.8438 177.398 18.8438C178.023 18.8438 178.641 18.9479 179.25 19.1562C179.859 19.3646 180.414 19.7031 180.914 20.1719C181.414 20.6354 181.813 21.25 182.109 22.0156C182.406 22.7812 182.555 23.724 182.555 24.8437V25.625H173.305V24.0312H180.68C180.68 23.3542 180.544 22.75 180.273 22.2187C180.008 21.6875 179.628 21.2682 179.133 20.9609C178.643 20.6536 178.065 20.5 177.398 20.5C176.664 20.5 176.029 20.6823 175.492 21.0469C174.961 21.4062 174.552 21.875 174.266 22.4531C173.979 23.0312 173.836 23.651 173.836 24.3125V25.375C173.836 26.2813 173.992 27.0495 174.305 27.6797C174.622 28.3047 175.063 28.7812 175.625 29.1094C176.188 29.4323 176.841 29.5938 177.586 29.5938C178.07 29.5938 178.508 29.526 178.898 29.3906C179.294 29.25 179.635 29.0417 179.922 28.7656C180.208 28.4844 180.43 28.1354 180.586 27.7187L182.367 28.2188C182.18 28.8229 181.865 29.3542 181.422 29.8125C180.979 30.2656 180.432 30.6198 179.781 30.875C179.13 31.125 178.398 31.25 177.586 31.25Z" fill="white"/>
<path d="M242.694 33.772L253.736 22.6906L242.694 11.6092" stroke="white" stroke-width="2" stroke-miterlimit="10" stroke-linecap="round" stroke-linejoin="round"/>
</svg>
