<svg width="164" height="45" viewBox="0 0 164 45" fill="none" xmlns="http://www.w3.org/2000/svg">
<rect width="164" height="45" rx="19" fill="#FF5B5B"/>
<path d="M29.2734 20.3984H26.3516C26.2682 19.9193 26.1146 19.4948 25.8906 19.125C25.6667 18.75 25.388 18.4323 25.0547 18.1719C24.7214 17.9115 24.3411 17.7161 23.9141 17.5859C23.4922 17.4505 23.0365 17.3828 22.5469 17.3828C21.6771 17.3828 20.9063 17.6016 20.2344 18.0391C19.5625 18.4714 19.0365 19.1068 18.6563 19.9453C18.276 20.7786 18.0859 21.7969 18.0859 23C18.0859 24.224 18.276 25.2552 18.6563 26.0937C19.0417 26.9271 19.5677 27.5573 20.2344 27.9844C20.9063 28.4062 21.6745 28.6172 22.5391 28.6172C23.0182 28.6172 23.4661 28.5547 23.8828 28.4297C24.3047 28.2995 24.6823 28.1094 25.0156 27.8594C25.3542 27.6094 25.638 27.3021 25.8672 26.9375C26.1016 26.5729 26.263 26.1562 26.3516 25.6875L29.2734 25.7031C29.1641 26.4635 28.9271 27.1771 28.5625 27.8438C28.2031 28.5104 27.7318 29.099 27.1484 29.6094C26.5651 30.1146 25.8828 30.5104 25.1016 30.7969C24.3203 31.0781 23.4531 31.2187 22.5 31.2187C21.0938 31.2187 19.8385 30.8932 18.7344 30.2422C17.6302 29.5911 16.7604 28.651 16.125 27.4219C15.4896 26.1927 15.1719 24.7187 15.1719 23C15.1719 21.276 15.4922 19.8021 16.1328 18.5781C16.7734 17.349 17.6458 16.4089 18.75 15.7578C19.8542 15.1068 21.1042 14.7812 22.5 14.7812C23.3906 14.7812 24.2188 14.9062 24.9844 15.1562C25.75 15.4062 26.4323 15.7734 27.0313 16.2578C27.6302 16.737 28.1224 17.3255 28.5078 18.0234C28.8984 18.7161 29.1536 19.5078 29.2734 20.3984ZM37.0371 31.2344C35.8652 31.2344 34.8496 30.9766 33.9902 30.4609C33.1309 29.9453 32.4642 29.224 31.9902 28.2969C31.5215 27.3698 31.2871 26.2865 31.2871 25.0469C31.2871 23.8073 31.5215 22.7214 31.9902 21.7891C32.4642 20.8568 33.1309 20.1328 33.9902 19.6172C34.8496 19.1016 35.8652 18.8438 37.0371 18.8438C38.209 18.8438 39.2246 19.1016 40.084 19.6172C40.9434 20.1328 41.6074 20.8568 42.0762 21.7891C42.5501 22.7214 42.7871 23.8073 42.7871 25.0469C42.7871 26.2865 42.5501 27.3698 42.0762 28.2969C41.6074 29.224 40.9434 29.9453 40.084 30.4609C39.2246 30.9766 38.209 31.2344 37.0371 31.2344ZM37.0527 28.9687C37.6882 28.9687 38.2194 28.7943 38.6465 28.4453C39.0736 28.0911 39.3913 27.6172 39.5996 27.0234C39.8132 26.4297 39.9199 25.7682 39.9199 25.0391C39.9199 24.3047 39.8132 23.6406 39.5996 23.0469C39.3913 22.4479 39.0736 21.9714 38.6465 21.6172C38.2194 21.263 37.6882 21.0859 37.0527 21.0859C36.4017 21.0859 35.86 21.263 35.4277 21.6172C35.0007 21.9714 34.6803 22.4479 34.4668 23.0469C34.2585 23.6406 34.1543 24.3047 34.1543 25.0391C34.1543 25.7682 34.2585 26.4297 34.4668 27.0234C34.6803 27.6172 35.0007 28.0911 35.4277 28.4453C35.86 28.7943 36.4017 28.9687 37.0527 28.9687ZM48.0156 23.9687V31H45.1875V19H47.8906V21.0391H48.0312C48.3073 20.3672 48.7474 19.8333 49.3516 19.4375C49.9609 19.0417 50.7135 18.8438 51.6094 18.8438C52.4375 18.8438 53.1589 19.0208 53.7734 19.375C54.3932 19.7292 54.8724 20.2422 55.2109 20.9141C55.5547 21.5859 55.724 22.401 55.7187 23.3594V31H52.8906V23.7969C52.8906 22.9948 52.6823 22.3672 52.2656 21.9141C51.8542 21.4609 51.2839 21.2344 50.5547 21.2344C50.0599 21.2344 49.6198 21.3437 49.2344 21.5625C48.8542 21.776 48.5547 22.0859 48.3359 22.4922C48.1224 22.8984 48.0156 23.3906 48.0156 23.9687ZM64.5859 19V21.1875H57.6875V19H64.5859ZM59.3906 16.125H62.2188V27.3906C62.2188 27.7708 62.276 28.0625 62.3906 28.2656C62.5104 28.4635 62.6667 28.599 62.8594 28.6719C63.0521 28.7448 63.2656 28.7812 63.5 28.7812C63.6771 28.7812 63.8385 28.7682 63.9844 28.7422C64.1354 28.7161 64.25 28.6927 64.3281 28.6719L64.8047 30.8828C64.6536 30.9349 64.4375 30.9922 64.1563 31.0547C63.8802 31.1172 63.5417 31.1536 63.1406 31.1641C62.4323 31.1849 61.7943 31.0781 61.2266 30.8437C60.6589 30.6042 60.2083 30.2344 59.875 29.7344C59.5469 29.2344 59.3854 28.6094 59.3906 27.8594V16.125ZM66.9512 31V19H69.7793V31H66.9512ZM68.373 17.2969C67.9251 17.2969 67.5397 17.1484 67.2168 16.8516C66.8939 16.5495 66.7324 16.1875 66.7324 15.7656C66.7324 15.3385 66.8939 14.9766 67.2168 14.6797C67.5397 14.3776 67.9251 14.2266 68.373 14.2266C68.8262 14.2266 69.2116 14.3776 69.5293 14.6797C69.8522 14.9766 70.0137 15.3385 70.0137 15.7656C70.0137 16.1875 69.8522 16.5495 69.5293 16.8516C69.2116 17.1484 68.8262 17.2969 68.373 17.2969ZM75.5156 23.9687V31H72.6875V19H75.3906V21.0391H75.5312C75.8073 20.3672 76.2474 19.8333 76.8516 19.4375C77.4609 19.0417 78.2135 18.8438 79.1094 18.8438C79.9375 18.8438 80.6589 19.0208 81.2734 19.375C81.8932 19.7292 82.3724 20.2422 82.7109 20.9141C83.0547 21.5859 83.224 22.401 83.2187 23.3594V31H80.3906V23.7969C80.3906 22.9948 80.1823 22.3672 79.7656 21.9141C79.3542 21.4609 78.7839 21.2344 78.0547 21.2344C77.5599 21.2344 77.1198 21.3437 76.7344 21.5625C76.3542 21.776 76.0547 22.0859 75.8359 22.4922C75.6224 22.8984 75.5156 23.3906 75.5156 23.9687ZM93.7422 25.9531V19H96.5703V31H93.8281V28.8672H93.7031C93.4323 29.5391 92.987 30.0885 92.3672 30.5156C91.7526 30.9427 90.9948 31.1563 90.0938 31.1563C89.3073 31.1563 88.612 30.9818 88.0078 30.6328C87.4089 30.2786 86.9401 29.7656 86.6016 29.0938C86.263 28.4167 86.0938 27.599 86.0938 26.6406V19H88.9219V26.2031C88.9219 26.9635 89.1302 27.5677 89.5469 28.0156C89.9635 28.4635 90.5104 28.6875 91.1875 28.6875C91.6042 28.6875 92.0078 28.5859 92.3984 28.3828C92.7891 28.1797 93.1094 27.8776 93.3594 27.4766C93.6146 27.0703 93.7422 26.5625 93.7422 25.9531ZM104.791 31.2344C103.588 31.2344 102.549 30.9844 101.674 30.4844C100.804 29.9792 100.135 29.2656 99.666 28.3437C99.1973 27.4167 98.9629 26.3255 98.9629 25.0703C98.9629 23.8359 99.1973 22.7526 99.666 21.8203C100.14 20.8828 100.801 20.1536 101.65 19.6328C102.499 19.1068 103.497 18.8438 104.643 18.8438C105.382 18.8438 106.08 18.9635 106.736 19.2031C107.398 19.4375 107.981 19.8021 108.486 20.2969C108.997 20.7917 109.398 21.4219 109.689 22.1875C109.981 22.9479 110.127 23.8542 110.127 24.9062V25.7734H100.291V23.8672H107.416C107.411 23.3255 107.294 22.8437 107.064 22.4219C106.835 21.9948 106.515 21.6589 106.104 21.4141C105.697 21.1693 105.223 21.0469 104.682 21.0469C104.104 21.0469 103.596 21.1875 103.158 21.4687C102.721 21.7448 102.38 22.1094 102.135 22.5625C101.895 23.0104 101.773 23.5026 101.768 24.0391V25.7031C101.768 26.401 101.895 27 102.15 27.5C102.406 27.9948 102.762 28.375 103.221 28.6406C103.679 28.901 104.215 29.0312 104.83 29.0312C105.242 29.0312 105.614 28.974 105.947 28.8594C106.281 28.7396 106.57 28.5651 106.814 28.3359C107.059 28.1068 107.244 27.8229 107.369 27.4844L110.01 27.7812C109.843 28.4792 109.525 29.0885 109.057 29.6094C108.593 30.125 107.999 30.526 107.275 30.8125C106.551 31.0937 105.723 31.2344 104.791 31.2344Z" fill="white"/>
<path d="M133.694 33.772L144.736 22.6906L133.694 11.6092" stroke="white" stroke-width="3" stroke-miterlimit="10" stroke-linecap="round" stroke-linejoin="round"/>
</svg>
