<svg width="317" height="636" viewBox="0 0 317 636" fill="none" xmlns="http://www.w3.org/2000/svg">
<path d="M147 82L147 396" stroke="#F5B935" stroke-width="164" stroke-linecap="round"/>
<path d="M82.8164 199.5C30.8164 317 -6.45176 394.734 37.3164 418" stroke="#F5B935" stroke-width="35" stroke-linecap="round"/>
<path d="M199.316 238.5C313.237 146.006 298.316 98 298.316 72" stroke="#F5B935" stroke-width="35" stroke-linecap="round"/>
<path d="M130.316 422.5L130.316 621.5" stroke="#F5B935" stroke-width="25" stroke-linecap="round"/>
<path d="M163.816 422.5L163.816 621.5" stroke="#F5B935" stroke-width="25" stroke-linecap="round"/>
<path d="M99.3164 624.5L130.316 624.5" stroke="#FF5520" stroke-width="22" stroke-linecap="round"/>
<path d="M163.316 624.5L194.316 624.5" stroke="#FF5520" stroke-width="22" stroke-linecap="round"/>
<circle cx="106.5" cy="94.5" r="8.5" fill="#1F1F1F"/>
<circle cx="187.5" cy="94.5" r="8.5" fill="#1F1F1F"/>
<path d="M127 101.076V101.076C138.768 112.833 157.808 112.927 169.691 101.284L169.981 101" stroke="#1F1F1F" stroke-width="7" stroke-linecap="round"/>
<mask id="mask0_1040_34" style="mask-type:alpha" maskUnits="userSpaceOnUse" x="65" y="0" width="164" height="478">
<path d="M147 82L147 396" stroke="#76E044" stroke-width="164" stroke-linecap="round"/>
</mask>
<g mask="url(#mask0_1040_34)">
<rect x="31" y="283.5" width="229" height="200" fill="#4BAC3F"/>
</g>
<path d="M66 194.5C84.3333 212.833 117.9 259.3 105.5 294.5" stroke="#4BAC3F" stroke-width="13" stroke-linecap="round"/>
<path d="M227 192C209.181 210.7 176.556 258.096 188.608 294" stroke="#4BAC3F" stroke-width="13" stroke-linecap="round"/>
<circle cx="106" cy="291" r="11" fill="#FFA361"/>
<circle cx="188" cy="291" r="11" fill="#FFA361"/>
</svg>
