<svg width="108" height="108" viewBox="0 0 108 108" fill="none" xmlns="http://www.w3.org/2000/svg">
<path d="M12 24.1705C12 20.147 13.5983 16.2883 16.4433 13.4433C19.2883 10.5983 23.147 9 27.1705 9H85.8295C89.853 9 93.7117 10.5983 96.5567 13.4433C99.4017 16.2883 101 20.147 101 24.1705V69.6818H97.6018L84.6564 53.5H94.9318V24.1705C94.9318 21.7564 93.9728 19.4412 92.2658 17.7342C90.5588 16.0272 88.2436 15.0682 85.8295 15.0682H27.1705C24.7564 15.0682 22.4412 16.0272 20.7342 17.7342C19.0272 19.4412 18.0682 21.7564 18.0682 24.1705V53.5H28.3436L15.3982 69.6818H12V24.1705ZM75.4125 75.75H101V82.8295C101 86.853 99.4017 90.7117 96.5567 93.5567C93.7117 96.4017 89.853 98 85.8295 98H82.2938L81.1409 94.0597L75.4125 75.75ZM89.8305 69.6818H73.5152L68.4543 53.5H76.8891L89.8305 69.6818ZM47.867 69.6818H67.1557L62.0949 53.5H52.9279L47.867 69.6818ZM69.053 75.75H45.9697L39.6709 95.8721L39.0034 98H75.9708L75.3397 95.8438L69.053 75.75ZM46.5684 53.5L41.5116 69.6818H23.1655L36.1109 53.5H46.5684ZM39.6102 75.75H12V82.8295C12 86.853 13.5983 90.7117 16.4433 93.5567C19.2883 96.4017 23.147 98 27.1705 98H32.644L33.8859 94.0557L39.6102 75.75Z" fill="#5A6EDD"/>
</svg>
