<svg width="176" height="30" viewBox="0 0 176 30" fill="none" xmlns="http://www.w3.org/2000/svg">
<rect x="149" y="7" width="27" height="3" rx="1.5" fill="#4A4444"/>
<rect x="149" y="14" width="27" height="3" rx="1.5" fill="#4A4444"/>
<rect x="149" y="21" width="27" height="3" rx="1.5" fill="#4A4444"/>
<path d="M2.19567 24V5.81818H13.8434V8.57919H5.48935V13.5153H13.0444V16.2763H5.48935V24H2.19567ZM21.6492 24.2663C20.3176 24.2663 19.1634 23.9734 18.1869 23.3874C17.2103 22.8015 16.4527 21.9818 15.9142 20.9283C15.3815 19.8748 15.1151 18.6437 15.1151 17.2351C15.1151 15.8265 15.3815 14.5924 15.9142 13.533C16.4527 12.4736 17.2103 11.6509 18.1869 11.065C19.1634 10.479 20.3176 10.1861 21.6492 10.1861C22.9809 10.1861 24.135 10.479 25.1116 11.065C26.0882 11.6509 26.8428 12.4736 27.3754 13.533C27.914 14.5924 28.1833 15.8265 28.1833 17.2351C28.1833 18.6437 27.914 19.8748 27.3754 20.9283C26.8428 21.9818 26.0882 22.8015 25.1116 23.3874C24.135 23.9734 22.9809 24.2663 21.6492 24.2663ZM21.667 21.6918C22.3891 21.6918 22.9927 21.4935 23.4781 21.0969C23.9634 20.6945 24.3244 20.1559 24.5612 19.4812C24.8038 18.8065 24.9252 18.0548 24.9252 17.2262C24.9252 16.3917 24.8038 15.6371 24.5612 14.9624C24.3244 14.2817 23.9634 13.7402 23.4781 13.3377C22.9927 12.9353 22.3891 12.734 21.667 12.734C20.9272 12.734 20.3116 12.9353 19.8204 13.3377C19.3351 13.7402 18.9711 14.2817 18.7284 14.9624C18.4917 15.6371 18.3733 16.3917 18.3733 17.2262C18.3733 18.0548 18.4917 18.8065 18.7284 19.4812C18.9711 20.1559 19.3351 20.6945 19.8204 21.0969C20.3116 21.4935 20.9272 21.6918 21.667 21.6918ZM30.911 24V10.3636H34.0272V12.6364H34.1692C34.4178 11.8492 34.8439 11.2425 35.4476 10.8164C36.0572 10.3844 36.7527 10.1683 37.5339 10.1683C37.7115 10.1683 37.9097 10.1772 38.1287 10.195C38.3536 10.2068 38.5401 10.2275 38.688 10.2571V13.2134C38.5519 13.1661 38.3359 13.1246 38.04 13.0891C37.7499 13.0477 37.4688 13.027 37.1966 13.027C36.6106 13.027 36.0839 13.1542 35.6163 13.4087C35.1547 13.6573 34.7907 14.0036 34.5243 14.4474C34.258 14.8913 34.1248 15.4033 34.1248 15.9833V24H30.911ZM47.1664 24V5.81818H53.9846C55.3813 5.81818 56.5532 6.0786 57.5002 6.59943C58.4531 7.12026 59.1722 7.83641 59.6575 8.74787C60.1487 9.65341 60.3944 10.6832 60.3944 11.8374C60.3944 13.0033 60.1487 14.0391 59.6575 14.9446C59.1663 15.8501 58.4412 16.5633 57.4824 17.0842C56.5236 17.5991 55.3429 17.8565 53.9402 17.8565H49.4213V15.1488H53.4963C54.313 15.1488 54.9818 15.0067 55.5027 14.7227C56.0235 14.4386 56.4082 14.0479 56.6568 13.5508C56.9113 13.0536 57.0385 12.4825 57.0385 11.8374C57.0385 11.1922 56.9113 10.6241 56.6568 10.1328C56.4082 9.64157 56.0205 9.25982 55.4938 8.98757C54.973 8.7094 54.3012 8.57031 53.4785 8.57031H50.46V24H47.1664ZM66.7931 24.2752C65.9289 24.2752 65.1507 24.1213 64.4582 23.8136C63.7716 23.4999 63.2271 23.0382 62.8247 22.4286C62.4281 21.819 62.2298 21.0674 62.2298 20.1737C62.2298 19.4042 62.3719 18.768 62.656 18.2649C62.9401 17.7618 63.3277 17.3594 63.819 17.0575C64.3102 16.7557 64.8636 16.5278 65.4791 16.3739C66.1006 16.2141 66.7427 16.0987 67.4056 16.0277C68.2046 15.9448 68.8527 15.8709 69.3499 15.8058C69.847 15.7347 70.2081 15.6282 70.433 15.4862C70.6638 15.3382 70.7792 15.1103 70.7792 14.8026V14.7493C70.7792 14.0805 70.5809 13.5626 70.1844 13.1957C69.7878 12.8287 69.2167 12.6452 68.471 12.6452C67.6838 12.6452 67.0594 12.8169 66.5977 13.1602C66.142 13.5034 65.8343 13.9089 65.6744 14.3764L62.6737 13.9503C62.9105 13.1217 63.3011 12.4292 63.8456 11.8729C64.3901 11.3106 65.056 10.8904 65.8431 10.6122C66.6303 10.3281 67.5003 10.1861 68.4532 10.1861C69.1102 10.1861 69.7642 10.263 70.4152 10.4169C71.0663 10.5708 71.6611 10.8253 72.1997 11.1804C72.7383 11.5296 73.1703 12.006 73.4958 12.6097C73.8273 13.2134 73.993 13.968 73.993 14.8736V24H70.9035V22.1268H70.797C70.6017 22.5056 70.3264 22.8607 69.9713 23.1921C69.6221 23.5176 69.1812 23.781 68.6485 23.9822C68.1218 24.1776 67.5033 24.2752 66.7931 24.2752ZM67.6276 21.9137C68.2727 21.9137 68.832 21.7865 69.3055 21.532C69.779 21.2715 70.143 20.9283 70.3975 20.5021C70.6579 20.076 70.7881 19.6114 70.7881 19.1083V17.5014C70.6875 17.5843 70.5158 17.6612 70.2732 17.7322C70.0364 17.8033 69.7701 17.8654 69.4742 17.9187C69.1782 17.9719 68.8853 18.0193 68.5953 18.0607C68.3052 18.1022 68.0537 18.1377 67.8406 18.1673C67.3612 18.2324 66.9321 18.3389 66.5534 18.4869C66.1746 18.6348 65.8757 18.842 65.6567 19.1083C65.4377 19.3687 65.3282 19.7061 65.3282 20.1204C65.3282 20.7122 65.5442 21.1591 65.9763 21.4609C66.4084 21.7628 66.9588 21.9137 67.6276 21.9137ZM77.2245 24V10.3636H80.3406V12.6364H80.4827C80.7313 11.8492 81.1574 11.2425 81.7611 10.8164C82.3707 10.3844 83.0661 10.1683 83.8474 10.1683C84.0249 10.1683 84.2232 10.1772 84.4422 10.195C84.6671 10.2068 84.8535 10.2275 85.0015 10.2571V13.2134C84.8654 13.1661 84.6494 13.1246 84.3534 13.0891C84.0634 13.0477 83.7823 13.027 83.51 13.027C82.9241 13.027 82.3973 13.1542 81.9298 13.4087C81.4681 13.6573 81.1041 14.0036 80.8378 14.4474C80.5715 14.8913 80.4383 15.4033 80.4383 15.9833V24H77.2245ZM92.612 24.2663C91.2449 24.2663 90.0641 23.9822 89.0698 23.4141C88.0814 22.84 87.3208 22.0291 86.7882 20.9815C86.2555 19.928 85.9892 18.6881 85.9892 17.2617C85.9892 15.859 86.2555 14.628 86.7882 13.5685C87.3268 12.5032 88.0784 11.6746 89.0431 11.0827C90.0079 10.485 91.1413 10.1861 92.4434 10.1861C93.2838 10.1861 94.0769 10.3222 94.8226 10.5945C95.5743 10.8608 96.2372 11.2751 96.8113 11.8374C97.3913 12.3996 97.847 13.1158 98.1784 13.9858C98.5099 14.8499 98.6756 15.8797 98.6756 17.0753V18.0607H87.4984V15.8945H95.595C95.5891 15.279 95.4559 14.7315 95.1955 14.2521C94.9351 13.7668 94.5711 13.3851 94.1035 13.1069C93.6419 12.8287 93.1033 12.6896 92.4877 12.6896C91.8308 12.6896 91.2537 12.8494 90.7566 13.169C90.2594 13.4827 89.8717 13.897 89.5936 14.4119C89.3213 14.9209 89.1822 15.4802 89.1763 16.0898V17.9808C89.1763 18.7739 89.3213 19.4545 89.6113 20.0227C89.9013 20.585 90.3068 21.017 90.8276 21.3189C91.3484 21.6148 91.958 21.7628 92.6564 21.7628C93.124 21.7628 93.5472 21.6977 93.926 21.5675C94.3047 21.4313 94.6332 21.2331 94.9114 20.9727C95.1896 20.7122 95.3997 20.3897 95.5417 20.005L98.5424 20.3423C98.353 21.1354 97.992 21.8279 97.4593 22.4197C96.9326 23.0057 96.2579 23.4614 95.4352 23.7869C94.6125 24.1065 93.6715 24.2663 92.612 24.2663ZM104.608 16.0099V24H101.394V10.3636H104.466V12.6808H104.626C104.94 11.9173 105.44 11.3106 106.126 10.8608C106.819 10.411 107.674 10.1861 108.692 10.1861C109.633 10.1861 110.453 10.3873 111.151 10.7898C111.855 11.1922 112.4 11.7752 112.785 12.5387C113.175 13.3022 113.368 14.2285 113.362 15.3175V24H110.148V15.8146C110.148 14.9032 109.911 14.19 109.438 13.6751C108.97 13.1602 108.322 12.9027 107.494 12.9027C106.931 12.9027 106.431 13.027 105.993 13.2756C105.561 13.5182 105.221 13.8704 104.972 14.332C104.73 14.7937 104.608 15.353 104.608 16.0099ZM123.438 10.3636V12.8494H115.599V10.3636H123.438ZM117.534 7.09659H120.748V19.8984C120.748 20.3305 120.813 20.6619 120.943 20.8928C121.08 21.1177 121.257 21.2715 121.476 21.3544C121.695 21.4373 121.938 21.4787 122.204 21.4787C122.405 21.4787 122.589 21.4639 122.755 21.4343C122.926 21.4047 123.056 21.3781 123.145 21.3544L123.687 23.8668C123.515 23.926 123.269 23.9911 122.95 24.0621C122.636 24.1332 122.251 24.1746 121.796 24.1864C120.991 24.2101 120.266 24.0888 119.621 23.8224C118.976 23.5502 118.464 23.13 118.085 22.5618C117.712 21.9936 117.528 21.2834 117.534 20.4311V7.09659ZM136.708 13.968L133.779 14.2876C133.696 13.9917 133.551 13.7135 133.344 13.4531C133.142 13.1927 132.87 12.9826 132.527 12.8228C132.184 12.663 131.763 12.5831 131.266 12.5831C130.597 12.5831 130.035 12.7281 129.579 13.0181C129.13 13.3081 128.908 13.6839 128.914 14.1456C128.908 14.5421 129.053 14.8647 129.349 15.1133C129.65 15.3619 130.148 15.5661 130.84 15.7259L133.166 16.223C134.456 16.5012 135.415 16.9421 136.042 17.5458C136.676 18.1495 136.995 18.9396 137.001 19.9162C136.995 20.7744 136.744 21.532 136.247 22.1889C135.755 22.84 135.072 23.349 134.196 23.7159C133.32 24.0829 132.314 24.2663 131.177 24.2663C129.508 24.2663 128.165 23.9171 127.147 23.2188C126.129 22.5144 125.522 21.5349 125.327 20.2802L128.461 19.9783C128.603 20.5939 128.905 21.0585 129.366 21.3722C129.828 21.6858 130.429 21.8427 131.169 21.8427C131.932 21.8427 132.545 21.6858 133.006 21.3722C133.474 21.0585 133.708 20.6708 133.708 20.2092C133.708 19.8185 133.557 19.496 133.255 19.2415C132.959 18.987 132.497 18.7917 131.87 18.6555L129.544 18.1673C128.236 17.895 127.268 17.4363 126.641 16.7912C126.013 16.1402 125.703 15.3175 125.709 14.3232C125.703 13.4827 125.931 12.7547 126.392 12.1392C126.86 11.5178 127.508 11.0384 128.336 10.701C129.171 10.3577 130.133 10.1861 131.222 10.1861C132.82 10.1861 134.077 10.5264 134.995 11.207C135.918 11.8877 136.489 12.808 136.708 13.968Z" fill="#4A4444"/>
</svg>
