<svg width="273" height="45" viewBox="0 0 273 45" fill="none" xmlns="http://www.w3.org/2000/svg">
<rect width="273" height="45" rx="19" fill="#FF5B5B"/>
<path d="M104.977 20H103.039C102.924 19.4427 102.724 18.9531 102.438 18.5312C102.156 18.1094 101.813 17.7552 101.406 17.4688C101.005 17.1771 100.56 16.9583 100.07 16.8125C99.5807 16.6667 99.0703 16.5937 98.5391 16.5937C97.5703 16.5937 96.6927 16.8385 95.9063 17.3281C95.125 17.8177 94.5026 18.5391 94.0391 19.4922C93.5807 20.4453 93.3516 21.6146 93.3516 23C93.3516 24.3854 93.5807 25.5547 94.0391 26.5078C94.5026 27.4609 95.125 28.1823 95.9063 28.6719C96.6927 29.1615 97.5703 29.4062 98.5391 29.4062C99.0703 29.4062 99.5807 29.3333 100.07 29.1875C100.56 29.0417 101.005 28.8255 101.406 28.5391C101.813 28.2474 102.156 27.8906 102.438 27.4687C102.724 27.0417 102.924 26.5521 103.039 26H104.977C104.831 26.8177 104.565 27.5495 104.18 28.1953C103.794 28.8411 103.315 29.3906 102.742 29.8437C102.169 30.2917 101.526 30.6328 100.813 30.8672C100.104 31.1016 99.3464 31.2187 98.5391 31.2187C97.1745 31.2187 95.9609 30.8854 94.8984 30.2188C93.8359 29.5521 93 28.6042 92.3906 27.375C91.7813 26.1458 91.4766 24.6875 91.4766 23C91.4766 21.3125 91.7813 19.8542 92.3906 18.625C93 17.3958 93.8359 16.4479 94.8984 15.7812C95.9609 15.1146 97.1745 14.7812 98.5391 14.7812C99.3464 14.7812 100.104 14.8984 100.813 15.1328C101.526 15.3672 102.169 15.7109 102.742 16.1641C103.315 16.612 103.794 17.1589 104.18 17.8047C104.565 18.4453 104.831 19.1771 104.977 20ZM112.732 31.25C111.649 31.25 110.699 30.9922 109.881 30.4766C109.068 29.9609 108.433 29.2396 107.975 28.3125C107.521 27.3854 107.295 26.3021 107.295 25.0625C107.295 23.8125 107.521 22.7214 107.975 21.7891C108.433 20.8568 109.068 20.1328 109.881 19.6172C110.699 19.1016 111.649 18.8438 112.732 18.8438C113.816 18.8438 114.764 19.1016 115.576 19.6172C116.394 20.1328 117.029 20.8568 117.482 21.7891C117.941 22.7214 118.17 23.8125 118.17 25.0625C118.17 26.3021 117.941 27.3854 117.482 28.3125C117.029 29.2396 116.394 29.9609 115.576 30.4766C114.764 30.9922 113.816 31.25 112.732 31.25ZM112.732 29.5938C113.555 29.5938 114.232 29.3828 114.764 28.9609C115.295 28.5391 115.688 27.9844 115.943 27.2969C116.199 26.6094 116.326 25.8646 116.326 25.0625C116.326 24.2604 116.199 23.513 115.943 22.8203C115.688 22.1276 115.295 21.5677 114.764 21.1406C114.232 20.7135 113.555 20.5 112.732 20.5C111.91 20.5 111.232 20.7135 110.701 21.1406C110.17 21.5677 109.777 22.1276 109.521 22.8203C109.266 23.513 109.139 24.2604 109.139 25.0625C109.139 25.8646 109.266 26.6094 109.521 27.2969C109.777 27.9844 110.17 28.5391 110.701 28.9609C111.232 29.3828 111.91 29.5938 112.732 29.5938ZM122.828 23.7812V31H120.984V19H122.766V20.875H122.922C123.203 20.2656 123.63 19.776 124.203 19.4063C124.776 19.0313 125.516 18.8438 126.422 18.8438C127.234 18.8438 127.945 19.0104 128.555 19.3437C129.164 19.6719 129.638 20.1719 129.977 20.8437C130.315 21.5104 130.484 22.3542 130.484 23.375V31H128.641V23.5C128.641 22.5573 128.396 21.8229 127.906 21.2969C127.417 20.7656 126.745 20.5 125.891 20.5C125.302 20.5 124.776 20.6276 124.313 20.8828C123.854 21.138 123.492 21.5104 123.227 22C122.961 22.4896 122.828 23.0833 122.828 23.7812ZM139.072 19V20.5625H132.854V19H139.072ZM134.666 16.125H136.51V27.5625C136.51 28.0833 136.585 28.474 136.736 28.7344C136.893 28.9896 137.09 29.1615 137.33 29.25C137.575 29.3333 137.833 29.375 138.104 29.375C138.307 29.375 138.473 29.3646 138.604 29.3437C138.734 29.3177 138.838 29.2969 138.916 29.2812L139.291 30.9375C139.166 30.9844 138.992 31.0313 138.768 31.0781C138.544 31.1302 138.26 31.1563 137.916 31.1563C137.395 31.1563 136.885 31.0443 136.385 30.8203C135.89 30.5964 135.479 30.2552 135.15 29.7969C134.827 29.3385 134.666 28.7604 134.666 28.0625V16.125ZM141.846 31V19H143.689V31H141.846ZM142.783 17C142.424 17 142.114 16.8776 141.854 16.6328C141.598 16.388 141.471 16.0938 141.471 15.75C141.471 15.4063 141.598 15.112 141.854 14.8672C142.114 14.6224 142.424 14.5 142.783 14.5C143.143 14.5 143.45 14.6224 143.705 14.8672C143.965 15.112 144.096 15.4063 144.096 15.75C144.096 16.0938 143.965 16.388 143.705 16.6328C143.45 16.8776 143.143 17 142.783 17ZM148.91 23.7812V31H147.066V19H148.848V20.875H149.004C149.285 20.2656 149.712 19.776 150.285 19.4063C150.858 19.0313 151.598 18.8438 152.504 18.8438C153.316 18.8438 154.027 19.0104 154.637 19.3437C155.246 19.6719 155.72 20.1719 156.059 20.8437C156.397 21.5104 156.566 22.3542 156.566 23.375V31H154.723V23.5C154.723 22.5573 154.478 21.8229 153.988 21.2969C153.499 20.7656 152.827 20.5 151.973 20.5C151.384 20.5 150.858 20.6276 150.395 20.8828C149.936 21.138 149.574 21.5104 149.309 22C149.043 22.4896 148.91 23.0833 148.91 23.7812ZM167.498 26.0937V19H169.342V31H167.498V28.9687H167.373C167.092 29.5781 166.654 30.0964 166.061 30.5234C165.467 30.9453 164.717 31.1563 163.811 31.1563C163.061 31.1563 162.394 30.9922 161.811 30.6641C161.227 30.3307 160.769 29.8307 160.436 29.1641C160.102 28.4922 159.936 27.6458 159.936 26.625V19H161.779V26.5C161.779 27.375 162.024 28.0729 162.514 28.5938C163.008 29.1146 163.639 29.375 164.404 29.375C164.863 29.375 165.329 29.2578 165.803 29.0234C166.282 28.7891 166.683 28.4297 167.006 27.9453C167.334 27.4609 167.498 26.8437 167.498 26.0937ZM177.75 31.25C176.594 31.25 175.596 30.9948 174.758 30.4844C173.924 29.9688 173.281 29.25 172.828 28.3281C172.38 27.401 172.156 26.3229 172.156 25.0938C172.156 23.8646 172.38 22.7812 172.828 21.8437C173.281 20.901 173.911 20.1667 174.719 19.6406C175.531 19.1094 176.479 18.8438 177.562 18.8438C178.188 18.8438 178.805 18.9479 179.414 19.1562C180.023 19.3646 180.578 19.7031 181.078 20.1719C181.578 20.6354 181.977 21.25 182.273 22.0156C182.57 22.7812 182.719 23.724 182.719 24.8437V25.625H173.469V24.0312H180.844C180.844 23.3542 180.708 22.75 180.438 22.2187C180.172 21.6875 179.792 21.2682 179.297 20.9609C178.807 20.6536 178.229 20.5 177.562 20.5C176.828 20.5 176.193 20.6823 175.656 21.0469C175.125 21.4062 174.716 21.875 174.43 22.4531C174.143 23.0312 174 23.651 174 24.3125V25.375C174 26.2813 174.156 27.0495 174.469 27.6797C174.786 28.3047 175.227 28.7812 175.789 29.1094C176.352 29.4323 177.005 29.5938 177.75 29.5938C178.234 29.5938 178.672 29.526 179.063 29.3906C179.458 29.25 179.799 29.0417 180.086 28.7656C180.372 28.4844 180.594 28.1354 180.75 27.7187L182.531 28.2188C182.344 28.8229 182.029 29.3542 181.586 29.8125C181.143 30.2656 180.596 30.6198 179.945 30.875C179.294 31.125 178.563 31.25 177.75 31.25Z" fill="white"/>
<path d="M242.694 33.7715L253.736 22.6901L242.694 11.6087" stroke="white" stroke-width="2" stroke-miterlimit="10" stroke-linecap="round" stroke-linejoin="round"/>
</svg>
