<svg width="109" height="110" viewBox="0 0 109 110" fill="none" xmlns="http://www.w3.org/2000/svg">
<path d="M13.625 32.0832V22.9165H22.7083V18.3332C22.7083 15.902 23.6653 13.5704 25.3688 11.8514C27.0722 10.1323 29.3826 9.1665 31.7917 9.1665H59.0417V41.2498L70.3958 34.3748L81.75 41.2498V9.1665H86.2917C91.0604 9.1665 95.375 13.5207 95.375 18.3332V91.6665C95.375 96.479 91.0604 100.833 86.2917 100.833H31.7917C27.0229 100.833 22.7083 96.479 22.7083 91.6665V87.0832H13.625V77.9165H22.7083V59.5832H13.625V50.4165H22.7083V32.0832H13.625ZM31.7917 50.4165H22.7083V59.5832H31.7917V50.4165ZM31.7917 32.0832V22.9165H22.7083V32.0832H31.7917ZM31.7917 87.0832V77.9165H22.7083V87.0832H31.7917Z" fill="#FFD178"/>
</svg>
