<svg width="149" height="45" viewBox="0 0 149 45" fill="none" xmlns="http://www.w3.org/2000/svg">
<rect x="1.5" y="1.5" width="146" height="42" rx="17.5" fill="white"/>
<rect x="1.5" y="1.5" width="146" height="42" rx="17.5" stroke="#FF5B5B" stroke-width="3"/>
<path d="M15.5781 31V15H18.4766V28.5703H25.5234V31H15.5781ZM33.2266 31.2344C32.0234 31.2344 30.9844 30.9844 30.1094 30.4844C29.2396 29.9792 28.5703 29.2656 28.1016 28.3437C27.6328 27.4167 27.3984 26.3255 27.3984 25.0703C27.3984 23.8359 27.6328 22.7526 28.1016 21.8203C28.5755 20.8828 29.237 20.1536 30.0859 19.6328C30.9349 19.1068 31.9323 18.8438 33.0781 18.8438C33.8177 18.8438 34.5156 18.9635 35.1719 19.2031C35.8333 19.4375 36.4167 19.8021 36.9219 20.2969C37.4323 20.7917 37.8333 21.4219 38.125 22.1875C38.4167 22.9479 38.5625 23.8542 38.5625 24.9062V25.7734H28.7266V23.8672H35.8516C35.8464 23.3255 35.7292 22.8437 35.5 22.4219C35.2708 21.9948 34.9505 21.6589 34.5391 21.4141C34.1328 21.1693 33.6589 21.0469 33.1172 21.0469C32.5391 21.0469 32.0313 21.1875 31.5938 21.4687C31.1563 21.7448 30.8151 22.1094 30.5703 22.5625C30.3307 23.0104 30.2083 23.5026 30.2031 24.0391V25.7031C30.2031 26.401 30.3307 27 30.5859 27.5C30.8411 27.9948 31.1979 28.375 31.6563 28.6406C32.1146 28.901 32.651 29.0312 33.2656 29.0312C33.6771 29.0312 34.0495 28.974 34.3828 28.8594C34.7161 28.7396 35.0052 28.5651 35.25 28.3359C35.4948 28.1068 35.6797 27.8229 35.8047 27.4844L38.4453 27.7812C38.2786 28.4792 37.9609 29.0885 37.4922 29.6094C37.0286 30.125 36.4349 30.526 35.7109 30.8125C34.987 31.0937 34.1589 31.2344 33.2266 31.2344ZM44.4082 31.2422C43.6478 31.2422 42.9629 31.1068 42.3535 30.8359C41.7493 30.5599 41.2702 30.1536 40.916 29.6172C40.5671 29.0807 40.3926 28.4193 40.3926 27.6328C40.3926 26.9557 40.5176 26.3958 40.7676 25.9531C41.0176 25.5104 41.3587 25.1562 41.791 24.8906C42.2233 24.625 42.7103 24.4245 43.252 24.2891C43.7988 24.1484 44.3639 24.0469 44.9473 23.9844C45.6504 23.9115 46.2207 23.8464 46.6582 23.7891C47.0957 23.7266 47.4134 23.6328 47.6113 23.5078C47.8145 23.3776 47.916 23.1771 47.916 22.9062V22.8594C47.916 22.2708 47.7415 21.8151 47.3926 21.4922C47.0436 21.1693 46.541 21.0078 45.8848 21.0078C45.1921 21.0078 44.6426 21.1589 44.2363 21.4609C43.8353 21.763 43.5645 22.1198 43.4238 22.5312L40.7832 22.1562C40.9915 21.4271 41.3353 20.8177 41.8145 20.3281C42.2936 19.8333 42.8796 19.4635 43.5723 19.2187C44.265 18.9688 45.0306 18.8438 45.8691 18.8438C46.4473 18.8438 47.0228 18.9115 47.5957 19.0469C48.1686 19.1823 48.6921 19.4062 49.166 19.7187C49.64 20.026 50.0202 20.4453 50.3066 20.9766C50.5983 21.5078 50.7441 22.1719 50.7441 22.9687V31H48.0254V29.3516H47.9316C47.7598 29.6849 47.5176 29.9974 47.2051 30.2891C46.8978 30.5755 46.5098 30.8073 46.041 30.9844C45.5775 31.1563 45.0332 31.2422 44.4082 31.2422ZM45.1426 29.1641C45.7103 29.1641 46.2025 29.0521 46.6191 28.8281C47.0358 28.599 47.3561 28.2969 47.5801 27.9219C47.8092 27.5469 47.9238 27.138 47.9238 26.6953V25.2812C47.8353 25.3542 47.6842 25.4219 47.4707 25.4844C47.2624 25.5469 47.028 25.6016 46.7676 25.6484C46.5072 25.6953 46.2493 25.737 45.9941 25.7734C45.7389 25.8099 45.5176 25.8411 45.3301 25.8672C44.9082 25.9245 44.5306 26.0182 44.1973 26.1484C43.8639 26.2786 43.6009 26.4609 43.4082 26.6953C43.2155 26.9245 43.1191 27.2214 43.1191 27.5859C43.1191 28.1068 43.3092 28.5 43.6895 28.7656C44.0697 29.0312 44.554 29.1641 45.1426 29.1641ZM53.5879 31V19H56.3301V21H56.4551C56.6738 20.3073 57.0488 19.7734 57.5801 19.3984C58.1165 19.0182 58.7285 18.8281 59.416 18.8281C59.5723 18.8281 59.7467 18.8359 59.9395 18.8516C60.1374 18.862 60.3014 18.8802 60.4316 18.9062V21.5078C60.3118 21.4661 60.1217 21.4297 59.8613 21.3984C59.6061 21.362 59.3587 21.3437 59.1191 21.3437C58.6035 21.3437 58.14 21.4557 57.7285 21.6797C57.3223 21.8984 57.002 22.2031 56.7676 22.5937C56.5332 22.9844 56.416 23.4349 56.416 23.9453V31H53.5879ZM65.1387 23.9687V31H62.3105V19H65.0137V21.0391H65.1543C65.4303 20.3672 65.8704 19.8333 66.4746 19.4375C67.084 19.0417 67.8366 18.8438 68.7324 18.8438C69.5605 18.8438 70.2819 19.0208 70.8965 19.375C71.5163 19.7292 71.9954 20.2422 72.334 20.9141C72.6777 21.5859 72.847 22.401 72.8418 23.3594V31H70.0137V23.7969C70.0137 22.9948 69.8053 22.3672 69.3887 21.9141C68.9772 21.4609 68.4069 21.2344 67.6777 21.2344C67.1829 21.2344 66.7428 21.3437 66.3574 21.5625C65.9772 21.776 65.6777 22.0859 65.459 22.4922C65.2454 22.8984 65.1387 23.3906 65.1387 23.9687ZM81.2988 15H84.8457L89.5957 26.5937H89.7832L94.5332 15H98.0801V31H95.2988V20.0078H95.1504L90.7285 30.9531H88.6504L84.2285 19.9844H84.0801V31H81.2988V15ZM106.346 31.2344C105.174 31.2344 104.158 30.9766 103.299 30.4609C102.439 29.9453 101.773 29.224 101.299 28.2969C100.83 27.3698 100.596 26.2865 100.596 25.0469C100.596 23.8073 100.83 22.7214 101.299 21.7891C101.773 20.8568 102.439 20.1328 103.299 19.6172C104.158 19.1016 105.174 18.8438 106.346 18.8438C107.518 18.8438 108.533 19.1016 109.393 19.6172C110.252 20.1328 110.916 20.8568 111.385 21.7891C111.859 22.7214 112.096 23.8073 112.096 25.0469C112.096 26.2865 111.859 27.3698 111.385 28.2969C110.916 29.224 110.252 29.9453 109.393 30.4609C108.533 30.9766 107.518 31.2344 106.346 31.2344ZM106.361 28.9687C106.997 28.9687 107.528 28.7943 107.955 28.4453C108.382 28.0911 108.7 27.6172 108.908 27.0234C109.122 26.4297 109.229 25.7682 109.229 25.0391C109.229 24.3047 109.122 23.6406 108.908 23.0469C108.7 22.4479 108.382 21.9714 107.955 21.6172C107.528 21.263 106.997 21.0859 106.361 21.0859C105.71 21.0859 105.169 21.263 104.736 21.6172C104.309 21.9714 103.989 22.4479 103.775 23.0469C103.567 23.6406 103.463 24.3047 103.463 25.0391C103.463 25.7682 103.567 26.4297 103.775 27.0234C103.989 27.6172 104.309 28.0911 104.736 28.4453C105.169 28.7943 105.71 28.9687 106.361 28.9687ZM114.496 31V19H117.238V21H117.363C117.582 20.3073 117.957 19.7734 118.488 19.3984C119.025 19.0182 119.637 18.8281 120.324 18.8281C120.48 18.8281 120.655 18.8359 120.848 18.8516C121.046 18.862 121.21 18.8802 121.34 18.9062V21.5078C121.22 21.4661 121.03 21.4297 120.77 21.3984C120.514 21.362 120.267 21.3437 120.027 21.3437C119.512 21.3437 119.048 21.4557 118.637 21.6797C118.23 21.8984 117.91 22.2031 117.676 22.5937C117.441 22.9844 117.324 23.4349 117.324 23.9453V31H114.496ZM128.037 31.2344C126.834 31.2344 125.795 30.9844 124.92 30.4844C124.05 29.9792 123.381 29.2656 122.912 28.3437C122.443 27.4167 122.209 26.3255 122.209 25.0703C122.209 23.8359 122.443 22.7526 122.912 21.8203C123.386 20.8828 124.048 20.1536 124.896 19.6328C125.745 19.1068 126.743 18.8438 127.889 18.8438C128.628 18.8438 129.326 18.9635 129.982 19.2031C130.644 19.4375 131.227 19.8021 131.732 20.2969C132.243 20.7917 132.644 21.4219 132.936 22.1875C133.227 22.9479 133.373 23.8542 133.373 24.9062V25.7734H123.537V23.8672H130.662C130.657 23.3255 130.54 22.8437 130.311 22.4219C130.081 21.9948 129.761 21.6589 129.35 21.4141C128.943 21.1693 128.469 21.0469 127.928 21.0469C127.35 21.0469 126.842 21.1875 126.404 21.4687C125.967 21.7448 125.626 22.1094 125.381 22.5625C125.141 23.0104 125.019 23.5026 125.014 24.0391V25.7031C125.014 26.401 125.141 27 125.396 27.5C125.652 27.9948 126.008 28.375 126.467 28.6406C126.925 28.901 127.462 29.0312 128.076 29.0312C128.488 29.0312 128.86 28.974 129.193 28.8594C129.527 28.7396 129.816 28.5651 130.061 28.3359C130.305 28.1068 130.49 27.8229 130.615 27.4844L133.256 27.7812C133.089 28.4792 132.771 29.0885 132.303 29.6094C131.839 30.125 131.245 30.526 130.521 30.8125C129.798 31.0937 128.969 31.2344 128.037 31.2344Z" fill="#FF5B5B"/>
</svg>
