<svg width="111" height="111" viewBox="0 0 111 111" fill="none" xmlns="http://www.w3.org/2000/svg">
<path d="M32.3757 78.625H18.5007C11.0082 78.625 4.44074 72.7975 3.51574 65.3975L1.20324 51.5687C0.694488 47.6375 1.80449 43.9375 4.20949 41.255C6.61449 38.5725 10.1295 37 13.8757 37H41.6257C45.4645 37 48.9332 38.6188 51.1532 41.44C51.662 42.1338 52.1245 42.8737 52.4945 43.7062C54.4832 43.29 56.5182 43.29 58.4607 43.7062C58.8307 42.8737 59.2932 42.1338 59.8482 41.44C62.022 38.6188 65.4907 37 69.3757 37H97.1257C100.872 37 104.387 38.5725 106.792 41.255C109.151 43.9375 110.261 47.6375 109.798 51.3837L107.439 65.5825C106.561 72.7975 99.947 78.625 92.5007 78.625H78.6257C71.4107 78.625 64.3807 73.1213 62.6232 66.1375L58.4607 53.6038C56.7032 52.3088 54.252 52.3088 52.4945 53.6038L48.2395 66.4613C46.5745 73.1675 39.5907 78.625 32.3757 78.625Z" fill="#5A6EDD"/>
<circle cx="38.5" cy="48.5" r="6.5" fill="white"/>
<circle cx="96.5" cy="48.5" r="6.5" fill="white"/>
</svg>
