<svg width="120" height="114" viewBox="0 0 120 114" fill="none" xmlns="http://www.w3.org/2000/svg">
<path d="M120 76.8467C120 107.578 85.4973 113.514 54.8148 113.514C24.1323 113.514 0 88.6009 0 57.8696C0 27.1384 45.6138 0 76.2963 0C106.979 0 120 46.1154 120 76.8467Z" fill="#FDDE6F"/>
<path d="M68.4324 49.5946L63.0486 58.8378L60.9081 57.7676C61.1676 57.6378 61.4486 57.5405 61.7514 57.4757C62.0541 57.4108 62.3459 57.3784 62.627 57.3784C63.427 57.3568 64.2054 57.4541 64.9622 57.6703C65.7189 57.8649 66.4 58.2108 67.0054 58.7081C67.6108 59.2054 68.0973 59.8757 68.4649 60.7189C68.8324 61.5622 69.0162 62.6108 69.0162 63.8649C69.0162 65.4 68.6595 66.7189 67.9459 67.8216C67.2541 68.9243 66.3243 69.7784 65.1568 70.3838C64.0108 70.9676 62.7568 71.2595 61.3946 71.2595C60.3568 71.2595 59.2865 71.0432 58.1838 70.6108C57.1027 70.1784 56.227 69.6054 55.5568 68.8919L57.4703 65.7784C57.8378 66.2324 58.3676 66.6541 59.0595 67.0432C59.773 67.4324 60.5189 67.627 61.2973 67.627C61.9676 67.627 62.5838 67.4757 63.1459 67.173C63.7297 66.8486 64.2054 66.3946 64.573 65.8108C64.9405 65.2054 65.1243 64.4811 65.1243 63.6378C65.1243 62.5351 64.8 61.6595 64.1514 61.0108C63.5027 60.3405 62.6054 60.0054 61.4595 60.0054C60.8324 60.0054 60.3243 60.0486 59.9351 60.1351C59.5459 60.2 59.1784 60.2865 58.8324 60.3946L58.7351 60.2973L63.2757 52.7405L64.4108 53.227H57.0162V49.5946H68.4324Z" fill="#232323"/>
</svg>
