<svg width="120" height="114" viewBox="0 0 120 114" fill="none" xmlns="http://www.w3.org/2000/svg">
<path d="M120 76.8467C120 107.578 85.4973 113.514 54.8148 113.514C24.1323 113.514 0 88.6009 0 57.8696C0 27.1384 45.6138 0 76.2963 0C106.979 0 120 46.1154 120 76.8467Z" fill="#FDDE6F"/>
<path d="M55.7514 71C57.0919 69.6378 58.3892 68.3189 59.6432 67.0432C60.8973 65.7676 62.0216 64.5351 63.0162 63.3459C64.0108 62.1351 64.7892 60.9784 65.3514 59.8757C65.9351 58.7514 66.227 57.6595 66.227 56.6C66.227 55.9946 66.1297 55.4649 65.9351 55.0108C65.7405 54.5568 65.4703 54.1784 65.1243 53.8757C64.7784 53.573 64.3784 53.3459 63.9243 53.1946C63.4919 53.0432 63.0162 52.9676 62.4973 52.9676C61.8703 52.9676 61.3297 53.0649 60.8757 53.2595C60.4216 53.4541 60.0541 53.7135 59.773 54.0378C59.4919 54.3405 59.2757 54.6757 59.1243 55.0432C58.973 55.3892 58.8973 55.7459 58.8973 56.1135C58.8973 56.827 59.0054 57.4649 59.2216 58.027C59.4595 58.5676 59.773 59.0432 60.1622 59.4541L57.8595 61.5622C57.2973 61.2595 56.8216 60.7838 56.4324 60.1351C56.0432 59.4865 55.7405 58.8054 55.5243 58.0919C55.3297 57.3784 55.2324 56.7513 55.2324 56.2108C55.2324 55.0216 55.5351 53.9081 56.1405 52.8703C56.7676 51.8324 57.6649 50.9892 58.8324 50.3405C60.0216 49.6703 61.4595 49.3351 63.1459 49.3351C64.5514 49.3351 65.773 49.6595 66.8108 50.3081C67.8703 50.9351 68.6919 51.7784 69.2757 52.8378C69.8595 53.8973 70.1514 55.0432 70.1514 56.2757C70.1514 57.3135 69.9568 58.3297 69.5676 59.3243C69.2 60.2973 68.6919 61.2703 68.0432 62.2432C67.3946 63.1946 66.6703 64.1351 65.8703 65.0649C65.0919 65.9946 64.3027 66.9351 63.5027 67.8865L61.8162 67.3676H70.6703V71H55.7514Z" fill="#232323"/>
</svg>
