<svg width="120" height="120" viewBox="0 0 120 120" fill="none" xmlns="http://www.w3.org/2000/svg">
<path d="M80 70H40C38.6739 70 37.4021 70.5268 36.4645 71.4645C35.5268 72.4021 35 73.6739 35 75C35 76.3261 35.5268 77.5979 36.4645 78.5355C37.4021 79.4732 38.6739 80 40 80H80C81.3261 80 82.5979 79.4732 83.5355 78.5355C84.4732 77.5979 85 76.3261 85 75C85 73.6739 84.4732 72.4021 83.5355 71.4645C82.5979 70.5268 81.3261 70 80 70ZM80 50H50C48.6739 50 47.4021 50.5268 46.4645 51.4645C45.5268 52.4021 45 53.6739 45 55C45 56.3261 45.5268 57.5979 46.4645 58.5355C47.4021 59.4732 48.6739 60 50 60H80C81.3261 60 82.5979 59.4732 83.5355 58.5355C84.4732 57.5979 85 56.3261 85 55C85 53.6739 84.4732 52.4021 83.5355 51.4645C82.5979 50.5268 81.3261 50 80 50ZM100 20H85V15C85 13.6739 84.4732 12.4021 83.5355 11.4645C82.5979 10.5268 81.3261 10 80 10C78.6739 10 77.4021 10.5268 76.4645 11.4645C75.5268 12.4021 75 13.6739 75 15V20H65V15C65 13.6739 64.4732 12.4021 63.5355 11.4645C62.5979 10.5268 61.3261 10 60 10C58.6739 10 57.4021 10.5268 56.4645 11.4645C55.5268 12.4021 55 13.6739 55 15V20H45V15C45 13.6739 44.4732 12.4021 43.5355 11.4645C42.5979 10.5268 41.3261 10 40 10C38.6739 10 37.4021 10.5268 36.4645 11.4645C35.5268 12.4021 35 13.6739 35 15V20H20C18.6739 20 17.4021 20.5268 16.4645 21.4645C15.5268 22.4021 15 23.6739 15 25V95C15 98.9782 16.5804 102.794 19.3934 105.607C22.2064 108.42 26.0218 110 30 110H90C93.9782 110 97.7936 108.42 100.607 105.607C103.42 102.794 105 98.9782 105 95V25C105 23.6739 104.473 22.4021 103.536 21.4645C102.598 20.5268 101.326 20 100 20ZM95 95C95 96.3261 94.4732 97.5979 93.5355 98.5355C92.5979 99.4732 91.3261 100 90 100H30C28.6739 100 27.4021 99.4732 26.4645 98.5355C25.5268 97.5979 25 96.3261 25 95V30H35V35C35 36.3261 35.5268 37.5979 36.4645 38.5355C37.4021 39.4732 38.6739 40 40 40C41.3261 40 42.5979 39.4732 43.5355 38.5355C44.4732 37.5979 45 36.3261 45 35V30H55V35C55 36.3261 55.5268 37.5979 56.4645 38.5355C57.4021 39.4732 58.6739 40 60 40C61.3261 40 62.5979 39.4732 63.5355 38.5355C64.4732 37.5979 65 36.3261 65 35V30H75V35C75 36.3261 75.5268 37.5979 76.4645 38.5355C77.4021 39.4732 78.6739 40 80 40C81.3261 40 82.5979 39.4732 83.5355 38.5355C84.4732 37.5979 85 36.3261 85 35V30H95V95Z" fill="#FFD178"/>
</svg>
