<svg width="149" height="128" viewBox="0 0 149 128" fill="none" xmlns="http://www.w3.org/2000/svg">
<path d="M16.3697 31.3445C22.9161 5.07406 59.9065 8.90283 91.6767 16.8198C123.447 24.7368 143.128 52.2601 136.581 78.5305C130.035 104.801 77.0229 116.23 45.2527 108.313C13.4824 100.396 9.82318 57.6149 16.3697 31.3445Z" fill="#8BD5FF"/>
<path d="M72.776 72.256C71.6027 72.256 70.4613 72.0427 69.352 71.616C68.264 71.168 67.4 70.624 66.76 69.984L68.712 67.04C69.1173 67.5307 69.672 67.9253 70.376 68.224C71.1013 68.5227 71.8053 68.672 72.488 68.672C73.1707 68.672 73.7787 68.5333 74.312 68.256C74.8453 67.9573 75.2613 67.5413 75.56 67.008C75.88 66.4533 76.04 65.824 76.04 65.12C76.04 64.3307 75.8907 63.6373 75.592 63.04C75.3147 62.4427 74.888 61.9733 74.312 61.632C73.736 61.2907 73.0427 61.12 72.232 61.12C71.528 61.12 70.856 61.2267 70.216 61.44C69.5973 61.632 68.9253 61.9307 68.2 62.336H68.168V50.88H78.44V54.464H71.368V59.04L70.92 58.272C71.2613 58.1867 71.6133 58.1227 71.976 58.08C72.36 58.016 72.7333 57.984 73.096 57.984C74.568 57.984 75.8053 58.304 76.808 58.944C77.8107 59.584 78.568 60.4373 79.08 61.504C79.6133 62.5707 79.88 63.7333 79.88 64.992C79.88 66.336 79.5707 67.5627 78.952 68.672C78.3333 69.76 77.48 70.6347 76.392 71.296C75.3253 71.936 74.12 72.256 72.776 72.256Z" fill="black"/>
</svg>
