<svg width="149" height="128" viewBox="0 0 149 128" fill="none" xmlns="http://www.w3.org/2000/svg">
<path d="M16.3697 31.3445C22.9161 5.07406 59.9065 8.90283 91.6767 16.8198C123.447 24.7368 143.128 52.2601 136.581 78.5305C130.035 104.801 77.0229 116.23 45.2527 108.313C13.4824 100.396 9.82318 57.6149 16.3697 31.3445Z" fill="#8BD5FF"/>
<path d="M79.24 50.88L73.928 60L71.816 58.944C72.072 58.816 72.3493 58.72 72.648 58.656C72.9467 58.592 73.2347 58.56 73.512 58.56C74.3013 58.5387 75.0693 58.6347 75.816 58.848C76.5627 59.04 77.2347 59.3813 77.832 59.872C78.4293 60.3627 78.9093 61.024 79.272 61.856C79.6347 62.688 79.816 63.7227 79.816 64.96C79.816 66.4747 79.464 67.776 78.76 68.864C78.0773 69.952 77.16 70.7947 76.008 71.392C74.8773 71.968 73.64 72.256 72.296 72.256C71.272 72.256 70.216 72.0427 69.128 71.616C68.0613 71.1893 67.1973 70.624 66.536 69.92L68.424 66.848C68.7867 67.296 69.3093 67.712 69.992 68.096C70.696 68.48 71.432 68.672 72.2 68.672C72.8613 68.672 73.4693 68.5227 74.024 68.224C74.6 67.904 75.0693 67.456 75.432 66.88C75.7947 66.2827 75.976 65.568 75.976 64.736C75.976 63.648 75.656 62.784 75.016 62.144C74.376 61.4827 73.4907 61.152 72.36 61.152C71.7413 61.152 71.24 61.1947 70.856 61.28C70.472 61.344 70.1093 61.4293 69.768 61.536L69.672 61.44L74.152 53.984L75.272 54.464H67.976V50.88H79.24Z" fill="black"/>
</svg>
