<svg width="149" height="128" viewBox="0 0 149 128" fill="none" xmlns="http://www.w3.org/2000/svg">
<path d="M16.3697 31.3445C22.9161 5.07406 59.9065 8.90283 91.6767 16.8198C123.447 24.7368 143.128 52.2601 136.581 78.5305C130.035 104.801 77.0229 116.23 45.2527 108.313C13.4824 100.396 9.82318 57.6149 16.3697 31.3445Z" fill="#8BD5FF"/>
<path d="M73.928 72.256C72.456 72.256 71.1227 71.9147 69.928 71.232C68.7547 70.528 67.816 69.5253 67.112 68.224C66.4293 66.9013 66.088 65.3227 66.088 63.488C66.088 62.144 66.344 60.864 66.856 59.648C67.3893 58.432 68.104 57.28 69 56.192C69.896 55.0827 70.9093 54.0587 72.04 53.12C73.1707 52.1813 74.3547 51.3173 75.592 50.528L78.088 53.248C76.36 54.0373 74.92 54.9653 73.768 56.032C72.6373 57.0773 71.7733 58.1547 71.176 59.264C70.6 60.3733 70.28 61.408 70.216 62.368L69.288 62.24C69.864 61.0027 70.6107 60.0427 71.528 59.36C72.4453 58.656 73.6613 58.304 75.176 58.304C76.2427 58.304 77.256 58.6027 78.216 59.2C79.176 59.776 79.9547 60.5653 80.552 61.568C81.1707 62.5707 81.48 63.744 81.48 65.088C81.48 66.56 81.1173 67.84 80.392 68.928C79.6667 69.9947 78.728 70.816 77.576 71.392C76.4453 71.968 75.2293 72.256 73.928 72.256ZM73.768 68.928C74.4933 68.928 75.144 68.7787 75.72 68.48C76.296 68.16 76.7547 67.712 77.096 67.136C77.4373 66.56 77.608 65.8773 77.608 65.088C77.608 64.32 77.4373 63.6693 77.096 63.136C76.7547 62.6027 76.2853 62.1867 75.688 61.888C75.112 61.5893 74.472 61.44 73.768 61.44C73.064 61.44 72.424 61.5893 71.848 61.888C71.272 62.1653 70.8027 62.5493 70.44 63.04C70.0987 63.5093 69.928 64.0427 69.928 64.64V65.28C69.928 65.92 70.0987 66.5173 70.44 67.072C70.7813 67.6267 71.24 68.0747 71.816 68.416C72.4133 68.7573 73.064 68.928 73.768 68.928Z" fill="black"/>
</svg>
