<svg width="149" height="128" viewBox="0 0 149 128" fill="none" xmlns="http://www.w3.org/2000/svg">
<path d="M16.3697 31.3445C22.9161 5.07406 59.9065 8.90283 91.6767 16.8198C123.447 24.7368 143.128 52.2601 136.581 78.5305C130.035 104.801 77.0229 116.23 45.2527 108.313C13.4824 100.396 9.82318 57.6149 16.3697 31.3445Z" fill="#8BD5FF"/>
<path d="M66.728 72C68.0507 70.656 69.3307 69.3547 70.568 68.096C71.8053 66.8373 72.9147 65.6213 73.896 64.448C74.8773 63.2533 75.6453 62.112 76.2 61.024C76.776 59.9147 77.064 58.8373 77.064 57.792C77.064 57.1947 76.968 56.672 76.776 56.224C76.584 55.776 76.3173 55.4027 75.976 55.104C75.6347 54.8053 75.24 54.5813 74.792 54.432C74.3653 54.2827 73.896 54.208 73.384 54.208C72.7653 54.208 72.232 54.304 71.784 54.496C71.336 54.688 70.9733 54.944 70.696 55.264C70.4187 55.5627 70.2053 55.8933 70.056 56.256C69.9067 56.5973 69.832 56.9493 69.832 57.312C69.832 58.016 69.9387 58.6453 70.152 59.2C70.3867 59.7333 70.696 60.2027 71.08 60.608L68.808 62.688C68.2533 62.3893 67.784 61.92 67.4 61.28C67.016 60.64 66.7173 59.968 66.504 59.264C66.312 58.56 66.216 57.9413 66.216 57.408C66.216 56.2347 66.5147 55.136 67.112 54.112C67.7307 53.088 68.616 52.256 69.768 51.616C70.9413 50.9547 72.36 50.624 74.024 50.624C75.4107 50.624 76.616 50.944 77.64 51.584C78.6853 52.2027 79.496 53.0347 80.072 54.08C80.648 55.1253 80.936 56.256 80.936 57.472C80.936 58.496 80.744 59.4987 80.36 60.48C79.9973 61.44 79.496 62.4 78.856 63.36C78.216 64.2987 77.5013 65.2267 76.712 66.144C75.944 67.0613 75.1653 67.9893 74.376 68.928L72.712 68.416H81.448V72H66.728Z" fill="black"/>
</svg>
