<svg width="75" height="75" viewBox="0 0 75 75" fill="none" xmlns="http://www.w3.org/2000/svg">
<path d="M73.353 25.7765L49.2223 1.64691C48.7002 1.12478 48.0804 0.710602 47.3983 0.428022C46.7162 0.145443 45.9851 0 45.2467 0C44.5084 0 43.7773 0.145443 43.0951 0.428022C42.413 0.710602 41.7932 1.12478 41.2712 1.64691L31.2788 11.6388L10.9004 19.2839C9.97447 19.6284 9.15565 20.2109 8.52648 20.9726C7.89732 21.7344 7.48004 22.6485 7.31667 23.6229L0.019122 67.3991C-0.0297996 67.6926 0.0157198 67.9941 0.149123 68.2601C0.282526 68.5261 0.496926 68.7429 0.761437 68.8792C1.02595 69.0156 1.32692 69.0645 1.62098 69.0188C1.91505 68.9732 2.18704 68.8354 2.39777 68.6252L22.4247 48.5992C21.7902 47.2791 21.5128 45.8158 21.6202 44.3551C21.7508 42.5581 22.4536 40.8501 23.6257 39.4817C24.7977 38.1132 26.3773 37.1561 28.133 36.7507C29.8886 36.3452 31.728 36.5128 33.3814 37.2288C35.0349 37.9449 36.4155 39.1717 37.3209 40.7294C38.2263 42.2872 38.6089 44.094 38.4126 45.885C38.2163 47.6761 37.4514 49.3571 36.2301 50.6818C35.0088 52.0065 33.3952 52.9052 31.6259 53.2461C29.8567 53.5871 28.0247 53.3523 26.3985 52.5763L6.37154 72.6023C6.16141 72.8131 6.02359 73.085 5.97795 73.3791C5.9323 73.6731 5.98117 73.9741 6.11753 74.2386C6.25389 74.5031 6.47069 74.7175 6.7367 74.8509C7.00272 74.9843 7.30421 75.0298 7.59775 74.9809L51.3795 67.6837C52.3524 67.5216 53.2655 67.1064 54.0271 66.4799C54.7888 65.8533 55.3722 65.0374 55.7187 64.1141L63.3676 43.7121L73.353 33.7307C73.8752 33.2087 74.2894 32.589 74.572 31.9069C74.8545 31.2248 75 30.4937 75 29.7554C75 29.0171 74.8545 28.286 74.572 27.6039C74.2894 26.9218 73.8752 26.3021 73.353 25.78V25.7765ZM60.9468 38.1857L36.8161 14.056L45.2485 5.62401L69.3792 29.7536L60.9468 38.1857Z" fill="#F797FF"/>
</svg>
