<svg width="83" height="83" viewBox="0 0 83 83" fill="none" xmlns="http://www.w3.org/2000/svg">
<path d="M53.6179 11.9228C55.9423 9.65192 59.0682 8.389 62.3177 8.40792C65.5672 8.42685 68.6782 9.72609 70.9759 12.0238C73.2737 14.3216 74.5729 17.4326 74.5918 20.6821C74.6108 23.9315 73.3478 27.0574 71.077 29.3818L68.2965 32.1623L69.6909 33.5567C71.2469 35.1132 72.121 37.2239 72.121 39.4248C72.121 41.6257 71.2469 43.7364 69.6909 45.2929L65.7899 49.1939C65.4003 49.583 64.872 49.8014 64.3214 49.801C63.7708 49.8006 63.2429 49.5815 62.8538 49.1918C62.4647 48.8022 62.2463 48.274 62.2467 47.7233C62.2471 47.1727 62.4662 46.6448 62.8558 46.2557L66.7568 42.3589C67.5349 41.5806 67.9719 40.5252 67.9719 39.4248C67.9719 38.3244 67.5349 37.269 66.7568 36.4908L65.3624 35.0964L32.2454 68.2175C30.8421 69.6274 29.063 70.604 27.1202 71.0312L10.8273 74.6542C10.4862 74.7304 10.1314 74.7192 9.79582 74.6217C9.46022 74.5242 9.15468 74.3435 8.90756 74.0963C8.66044 73.8492 8.47973 73.5437 8.38222 73.2081C8.2847 72.8725 8.27353 72.5177 8.34974 72.1766L11.9934 55.7841C12.4084 53.9083 13.3546 52.1861 14.7117 50.829L53.6179 11.9228Z" fill="#FFD178"/>
</svg>
