<svg width="96" height="96" viewBox="0 0 96 96" fill="none" xmlns="http://www.w3.org/2000/svg">
<path d="M18 12C18 8.8174 19.2643 5.76516 21.5147 3.51472C23.7652 1.26428 26.8174 0 30 0L66 0C69.1826 0 72.2348 1.26428 74.4853 3.51472C76.7357 5.76516 78 8.8174 78 12V84C78 87.1826 76.7357 90.2348 74.4853 92.4853C72.2348 94.7357 69.1826 96 66 96H30C26.8174 96 23.7652 94.7357 21.5147 92.4853C19.2643 90.2348 18 87.1826 18 84V12ZM54 78C54 76.4087 53.3679 74.8826 52.2426 73.7574C51.1174 72.6321 49.5913 72 48 72C46.4087 72 44.8826 72.6321 43.7574 73.7574C42.6321 74.8826 42 76.4087 42 78C42 79.5913 42.6321 81.1174 43.7574 82.2426C44.8826 83.3679 46.4087 84 48 84C49.5913 84 51.1174 83.3679 52.2426 82.2426C53.3679 81.1174 54 79.5913 54 78Z" fill="#FFD178"/>
</svg>
