<svg width="80" height="80" viewBox="0 0 80 80" fill="none" xmlns="http://www.w3.org/2000/svg">
<path d="M20.0003 6.6665H60.0003C63.5365 6.6665 66.9279 8.07126 69.4284 10.5717C71.9289 13.0722 73.3337 16.4636 73.3337 19.9998V39.9998H53.3337C48.5003 39.9998 44.267 42.5665 41.9337 46.4132C41.3026 46.628 40.6402 46.7361 39.9737 46.7332C37.8537 46.7332 36.1603 45.6865 34.8537 44.3798C34.1253 43.642 33.4956 42.8129 32.9803 41.9132C32.5692 41.1507 31.8774 40.5783 31.0515 40.3171C30.2256 40.0559 29.3304 40.1265 28.5557 40.5139C27.7809 40.9013 27.1874 41.575 26.9008 42.3925C26.6142 43.2099 26.6571 44.1068 27.0203 44.8932V44.9065L27.0337 44.9132L27.047 44.9465L27.1003 45.0465C27.3285 45.4755 27.58 45.8917 27.8537 46.2932C28.3537 47.0532 29.1203 48.0665 30.1403 49.0932C32.1603 51.1198 35.4537 53.3998 39.9737 53.3998H40.0003V73.3332H20.0003C16.4641 73.3332 13.0727 71.9284 10.5722 69.4279C8.07175 66.9274 6.66699 63.5361 6.66699 59.9998V19.9998C6.66699 16.4636 8.07175 13.0722 10.5722 10.5717C13.0727 8.07126 16.4641 6.6665 20.0003 6.6665ZM30.0003 33.3332C30.8844 33.3332 31.7322 32.982 32.3573 32.3569C32.9825 31.7317 33.3337 30.8839 33.3337 29.9998C33.3337 29.1158 32.9825 28.2679 32.3573 27.6428C31.7322 27.0177 30.8844 26.6665 30.0003 26.6665C29.1163 26.6665 28.2684 27.0177 27.6433 27.6428C27.0182 28.2679 26.667 29.1158 26.667 29.9998C26.667 30.8839 27.0182 31.7317 27.6433 32.3569C28.2684 32.982 29.1163 33.3332 30.0003 33.3332ZM50.0003 33.3332C50.8844 33.3332 51.7322 32.982 52.3573 32.3569C52.9825 31.7317 53.3337 30.8839 53.3337 29.9998C53.3337 29.1158 52.9825 28.2679 52.3573 27.6428C51.7322 27.0177 50.8844 26.6665 50.0003 26.6665C49.1163 26.6665 48.2684 27.0177 47.6433 27.6428C47.0182 28.2679 46.667 29.1158 46.667 29.9998C46.667 30.8839 47.0182 31.7317 47.6433 32.3569C48.2684 32.982 49.1163 33.3332 50.0003 33.3332ZM73.3337 46.6665H53.3337C51.5655 46.6665 49.8699 47.3689 48.6196 48.6191C47.3694 49.8694 46.667 51.5651 46.667 53.3332V73.3332H50.0003C50.4384 73.334 50.8722 73.2484 51.2772 73.0814C51.6821 72.9144 52.0502 72.6692 52.3603 72.3598L72.3603 52.3598C72.6697 52.0497 72.9149 51.6817 73.0819 51.2767C73.2489 50.8718 73.3344 50.4379 73.3337 49.9998V46.6665Z" fill="#FFD178"/>
</svg>
