<svg width="105" height="105" viewBox="0 0 105 105" fill="none" xmlns="http://www.w3.org/2000/svg">
<path d="M39.375 13.125V4.375H65.625V13.125H39.375ZM48.125 61.25H56.875V35H48.125V61.25ZM52.5 96.25C47.1042 96.25 42.0175 95.2117 37.24 93.135C32.4625 91.0583 28.2888 88.2321 24.7188 84.6562C21.1488 81.0804 18.324 76.9052 16.2444 72.1306C14.1648 67.356 13.125 62.2708 13.125 56.875C13.125 51.4792 14.1648 46.3925 16.2444 41.615C18.324 36.8375 21.1488 32.6637 24.7188 29.0938C28.2888 25.5238 32.464 22.699 37.2444 20.6194C42.0248 18.5398 47.11 17.5 52.5 17.5C57.0208 17.5 61.3594 18.2292 65.5156 19.6875C69.6719 21.1458 73.5729 23.2604 77.2188 26.0312L83.3438 19.9063L89.4688 26.0312L83.3438 32.1562C86.1146 35.8021 88.2292 39.7031 89.6875 43.8594C91.1458 48.0156 91.875 52.3542 91.875 56.875C91.875 62.2708 90.8352 67.3575 88.7556 72.135C86.676 76.9125 83.8512 81.0863 80.2812 84.6562C76.7113 88.2262 72.536 91.0525 67.7556 93.135C62.9752 95.2175 57.89 96.2558 52.5 96.25Z" fill="#FFD178"/>
</svg>
