<svg width="113" height="109" viewBox="0 0 113 109" fill="none" xmlns="http://www.w3.org/2000/svg">
<path fill-rule="evenodd" clip-rule="evenodd" d="M75.3004 9.16089C74.9755 9.64466 74.6723 10.1417 74.3917 10.6506L72.8709 13.2984L59.5605 19.6113L58.7695 19.9882C51.1137 23.7805 45.718 30.9019 44.0983 39.2131C44.0512 39.4402 44.0088 39.6809 43.9382 40.076L43.9335 40.1078L43.7922 40.8935C42.5261 47.6897 39.0751 53.9294 33.9283 58.7286L30.1428 62.3166C27.7698 64.5692 25.8582 66.3859 24.4269 67.9482C22.9673 69.5378 21.7902 71.1001 21.084 72.8896C20.1523 75.2536 19.8212 77.7985 20.1186 80.3112C20.416 82.8239 21.333 85.2314 22.7931 87.3321C23.9042 88.9216 25.4203 90.1751 27.2142 91.3923C28.9704 92.5822 31.2587 93.9129 34.0884 95.557L37.4454 97.5099C40.2751 99.154 42.5634 100.48 44.4703 101.416C46.4101 102.37 48.2652 103.083 50.238 103.26C52.8263 103.485 55.4313 103.067 57.805 102.047C60.1786 101.026 62.2418 99.4359 63.798 97.4282C64.9939 95.9067 65.7425 94.1037 66.3781 92.0508C67.0043 90.0298 67.607 87.4638 68.3556 84.2619L69.5563 79.1707L69.7399 78.3941C71.3709 71.6888 75.156 65.6519 80.5549 61.1448L80.5832 61.1221L81.247 60.5499C87.641 54.9318 91.0216 46.6796 90.466 38.2321L90.3953 37.3601L89.1618 22.5225L90.8332 19.6067C91.1063 19.1389 91.3982 18.6257 91.6148 18.1625C91.8643 17.6356 92.1374 16.9181 92.1798 16.0415C92.2347 14.873 91.914 13.7167 91.2617 12.7306C90.842 12.1162 90.3032 11.5857 89.675 11.1683C89.2124 10.8569 88.7365 10.5644 88.2483 10.2918L84.411 8.06181C83.9049 7.75771 83.3866 7.47288 82.8573 7.20798C82.1423 6.84884 81.3589 6.63404 80.5549 6.57668C79.2851 6.50289 78.0247 6.82796 76.9625 7.50318C76.2959 7.94075 75.7287 8.50481 75.2957 9.16089M75.2486 19.7566L82.1793 23.7851L83.347 37.8688C83.3705 38.1594 83.3893 38.3366 83.394 38.4774L78.4268 40.0715C76.97 40.5395 75.415 40.6483 73.9034 40.3881C72.3919 40.1279 70.9719 39.507 69.7728 38.5818C67.3467 36.7095 64.4152 35.5468 61.3254 35.2313C58.2355 34.9157 55.1167 35.4606 52.3379 36.8015L52.0554 36.9377C53.9443 31.9949 57.766 27.9628 62.7009 25.7062L75.2486 19.7566Z" fill="#FFD178"/>
</svg>
