<svg width="153" height="157" viewBox="0 0 153 157" fill="none" xmlns="http://www.w3.org/2000/svg">
<path d="M69.0916 15.5515C96.7217 2.51814 116.691 31.0218 129.704 58.608C142.716 86.1942 130.553 118.457 102.922 131.49C75.2923 144.524 31.5474 115.022 18.5348 87.4362C5.52208 59.85 41.4615 28.5849 69.0916 15.5515Z" fill="#FFC553"/>
<path d="M82.0955 66.1124L76.7835 75.2324L74.6715 74.1764C74.9275 74.0484 75.2048 73.9524 75.5035 73.8884C75.8021 73.8244 76.0901 73.7924 76.3675 73.7924C77.1568 73.7711 77.9248 73.8671 78.6715 74.0804C79.4181 74.2724 80.0901 74.6138 80.6875 75.1044C81.2848 75.5951 81.7648 76.2564 82.1275 77.0884C82.4901 77.9204 82.6715 78.9551 82.6715 80.1924C82.6715 81.7071 82.3195 83.0084 81.6155 84.0964C80.9328 85.1844 80.0155 86.0271 78.8635 86.6244C77.7328 87.2004 76.4955 87.4884 75.1515 87.4884C74.1275 87.4884 73.0715 87.2751 71.9835 86.8484C70.9168 86.4218 70.0528 85.8564 69.3915 85.1524L71.2795 82.0804C71.6421 82.5284 72.1648 82.9444 72.8475 83.3284C73.5515 83.7124 74.2875 83.9044 75.0555 83.9044C75.7168 83.9044 76.3248 83.7551 76.8795 83.4564C77.4555 83.1364 77.9248 82.6884 78.2875 82.1124C78.6501 81.5151 78.8315 80.8004 78.8315 79.9684C78.8315 78.8804 78.5115 78.0164 77.8715 77.3764C77.2315 76.7151 76.3461 76.3844 75.2155 76.3844C74.5968 76.3844 74.0955 76.4271 73.7115 76.5124C73.3275 76.5764 72.9648 76.6618 72.6235 76.7684L72.5275 76.6724L77.0075 69.2164L78.1275 69.6964H70.8315V66.1124H82.0955Z" fill="black"/>
</svg>
