<svg width="153" height="157" viewBox="0 0 153 157" fill="none" xmlns="http://www.w3.org/2000/svg">
<path d="M69.0916 15.5515C96.7217 2.51814 116.691 31.0218 129.704 58.608C142.716 86.1942 130.553 118.457 102.922 131.49C75.2923 144.524 31.5474 115.022 18.5348 87.4362C5.52208 59.85 41.4615 28.5849 69.0916 15.5515Z" fill="#FFC553"/>
<path d="M76.7835 87.4884C75.3115 87.4884 73.9781 87.1471 72.7835 86.4644C71.6101 85.7604 70.6715 84.7578 69.9675 83.4564C69.2848 82.1338 68.9435 80.5551 68.9435 78.7204C68.9435 77.3764 69.1995 76.0964 69.7115 74.8804C70.2448 73.6644 70.9595 72.5124 71.8555 71.4244C72.7515 70.3151 73.7648 69.2911 74.8955 68.3524C76.0261 67.4138 77.2101 66.5498 78.4475 65.7604L80.9435 68.4804C79.2155 69.2698 77.7755 70.1978 76.6235 71.2644C75.4928 72.3098 74.6288 73.3871 74.0315 74.4964C73.4555 75.6058 73.1355 76.6404 73.0715 77.6004L72.1435 77.4724C72.7195 76.2351 73.4661 75.2751 74.3835 74.5924C75.3008 73.8884 76.5168 73.5364 78.0315 73.5364C79.0981 73.5364 80.1115 73.8351 81.0715 74.4324C82.0315 75.0084 82.8101 75.7978 83.4075 76.8004C84.0261 77.8031 84.3355 78.9764 84.3355 80.3204C84.3355 81.7924 83.9728 83.0724 83.2475 84.1604C82.5221 85.2271 81.5835 86.0484 80.4315 86.6244C79.3008 87.2004 78.0848 87.4884 76.7835 87.4884ZM76.6235 84.1604C77.3488 84.1604 77.9995 84.0111 78.5755 83.7124C79.1515 83.3924 79.6101 82.9444 79.9515 82.3684C80.2928 81.7924 80.4635 81.1098 80.4635 80.3204C80.4635 79.5524 80.2928 78.9018 79.9515 78.3684C79.6101 77.8351 79.1408 77.4191 78.5435 77.1204C77.9675 76.8218 77.3275 76.6724 76.6235 76.6724C75.9195 76.6724 75.2795 76.8218 74.7035 77.1204C74.1275 77.3978 73.6581 77.7818 73.2955 78.2724C72.9541 78.7418 72.7835 79.2751 72.7835 79.8724V80.5124C72.7835 81.1524 72.9541 81.7498 73.2955 82.3044C73.6368 82.8591 74.0955 83.3071 74.6715 83.6484C75.2688 83.9898 75.9195 84.1604 76.6235 84.1604Z" fill="black"/>
</svg>
