<svg width="153" height="157" viewBox="0 0 153 157" fill="none" xmlns="http://www.w3.org/2000/svg">
<path d="M69.0916 15.5515C96.7217 2.51814 116.691 31.0218 129.704 58.608C142.716 86.1942 130.553 118.457 102.922 131.49C75.2923 144.524 31.5474 115.022 18.5348 87.4362C5.52208 59.85 41.4615 28.5849 69.0916 15.5515Z" fill="#FFC553"/>
<path d="M69.5835 87.2324C70.9061 85.8884 72.1861 84.5871 73.4235 83.3284C74.6608 82.0698 75.7701 80.8538 76.7515 79.6804C77.7328 78.4858 78.5008 77.3444 79.0555 76.2564C79.6315 75.1471 79.9195 74.0698 79.9195 73.0244C79.9195 72.4271 79.8235 71.9044 79.6315 71.4564C79.4395 71.0084 79.1728 70.6351 78.8315 70.3364C78.4901 70.0378 78.0955 69.8138 77.6475 69.6644C77.2208 69.5151 76.7515 69.4404 76.2395 69.4404C75.6208 69.4404 75.0875 69.5364 74.6395 69.7284C74.1915 69.9204 73.8288 70.1764 73.5515 70.4964C73.2741 70.7951 73.0608 71.1258 72.9115 71.4884C72.7621 71.8298 72.6875 72.1818 72.6875 72.5444C72.6875 73.2484 72.7941 73.8778 73.0075 74.4324C73.2421 74.9658 73.5515 75.4351 73.9355 75.8404L71.6635 77.9204C71.1088 77.6218 70.6395 77.1524 70.2555 76.5124C69.8715 75.8724 69.5728 75.2004 69.3595 74.4964C69.1675 73.7924 69.0715 73.1738 69.0715 72.6404C69.0715 71.4671 69.3701 70.3684 69.9675 69.3444C70.5861 68.3204 71.4715 67.4884 72.6235 66.8484C73.7968 66.1871 75.2155 65.8564 76.8795 65.8564C78.2661 65.8564 79.4715 66.1764 80.4955 66.8164C81.5408 67.4351 82.3515 68.2671 82.9275 69.3124C83.5035 70.3578 83.7915 71.4884 83.7915 72.7044C83.7915 73.7284 83.5995 74.7311 83.2155 75.7124C82.8528 76.6724 82.3515 77.6324 81.7115 78.5924C81.0715 79.5311 80.3568 80.4591 79.5675 81.3764C78.7995 82.2938 78.0208 83.2218 77.2315 84.1604L75.5675 83.6484H84.3035V87.2324H69.5835Z" fill="black"/>
</svg>
