<svg width="153" height="157" viewBox="0 0 153 157" fill="none" xmlns="http://www.w3.org/2000/svg">
<path d="M69.0916 15.5515C96.7217 2.51814 116.691 31.0218 129.704 58.608C142.716 86.1942 130.553 118.457 102.922 131.49C75.2923 144.524 31.5474 115.022 18.5348 87.4362C5.52208 59.85 41.4615 28.5849 69.0916 15.5515Z" fill="#FFC553"/>
<path d="M75.6315 87.4884C74.4581 87.4884 73.3168 87.2751 72.2075 86.8484C71.1195 86.4004 70.2555 85.8564 69.6155 85.2164L71.5675 82.2724C71.9728 82.7631 72.5275 83.1578 73.2315 83.4564C73.9568 83.7551 74.6608 83.9044 75.3435 83.9044C76.0261 83.9044 76.6341 83.7658 77.1675 83.4884C77.7008 83.1898 78.1168 82.7738 78.4155 82.2404C78.7355 81.6858 78.8955 81.0564 78.8955 80.3524C78.8955 79.5631 78.7461 78.8698 78.4475 78.2724C78.1701 77.6751 77.7435 77.2058 77.1675 76.8644C76.5915 76.5231 75.8981 76.3524 75.0875 76.3524C74.3835 76.3524 73.7115 76.4591 73.0715 76.6724C72.4528 76.8644 71.7808 77.1631 71.0555 77.5684H71.0235V66.1124H81.2955V69.6964H74.2235V74.2724L73.7755 73.5044C74.1168 73.4191 74.4688 73.3551 74.8315 73.3124C75.2155 73.2484 75.5888 73.2164 75.9515 73.2164C77.4235 73.2164 78.6608 73.5364 79.6635 74.1764C80.6661 74.8164 81.4235 75.6698 81.9355 76.7364C82.4688 77.8031 82.7355 78.9658 82.7355 80.2244C82.7355 81.5684 82.4261 82.7951 81.8075 83.9044C81.1888 84.9924 80.3355 85.8671 79.2475 86.5284C78.1808 87.1684 76.9755 87.4884 75.6315 87.4884Z" fill="black"/>
</svg>
