<svg width="68" height="68" viewBox="0 0 68 68" fill="none" xmlns="http://www.w3.org/2000/svg">
<path d="M30.625 8.125V3.625C30.625 2.72989 30.9806 1.87145 31.6135 1.23851C32.2464 0.605579 33.1049 0.25 34 0.25C34.8951 0.25 35.7535 0.605579 36.3865 1.23851C37.0194 1.87145 37.375 2.72989 37.375 3.625V8.125C37.375 9.02011 37.0194 9.87855 36.3865 10.5115C35.7535 11.1444 34.8951 11.5 34 11.5C33.1049 11.5 32.2464 11.1444 31.6135 10.5115C30.9806 9.87855 30.625 9.02011 30.625 8.125ZM53.125 34C53.125 37.7826 52.0033 41.4802 49.9019 44.6253C47.8004 47.7704 44.8135 50.2217 41.3188 51.6692C37.8242 53.1167 33.9788 53.4955 30.2689 52.7575C26.559 52.0196 23.1513 50.1981 20.4766 47.5234C17.8019 44.8487 15.9804 41.441 15.2425 37.7311C14.5045 34.0212 14.8833 30.1758 16.3308 26.6812C17.7783 23.1865 20.2296 20.1996 23.3747 18.0981C26.5198 15.9967 30.2174 14.875 34 14.875C39.0707 14.8802 43.9322 16.8968 47.5177 20.4823C51.1032 24.0678 53.1198 28.9293 53.125 34ZM46.375 34C46.375 31.5525 45.6492 29.1599 44.2894 27.1248C42.9297 25.0898 40.9969 23.5036 38.7357 22.567C36.4745 21.6304 33.9863 21.3853 31.5858 21.8628C29.1852 22.3403 26.9802 23.5189 25.2496 25.2496C23.5189 26.9802 22.3403 29.1852 21.8628 31.5858C21.3853 33.9863 21.6304 36.4745 22.567 38.7357C23.5036 40.9969 25.0898 42.9297 27.1248 44.2894C29.1599 45.6492 31.5525 46.375 34 46.375C37.2809 46.3713 40.4264 45.0663 42.7463 42.7463C45.0663 40.4264 46.3713 37.2809 46.375 34ZM12.4872 17.2628C12.8011 17.5768 13.1738 17.8258 13.584 17.9957C13.9942 18.1656 14.4338 18.253 14.8778 18.253C15.3218 18.253 15.7614 18.1656 16.1716 17.9957C16.5818 17.8258 16.9545 17.5768 17.2684 17.2628C17.5824 16.9489 17.8314 16.5762 18.0013 16.166C18.1712 15.7558 18.2587 15.3162 18.2587 14.8722C18.2587 14.4282 18.1712 13.9886 18.0013 13.5784C17.8314 13.1682 17.5824 12.7955 17.2684 12.4816L13.8934 9.10656C13.2594 8.47253 12.3995 8.11633 11.5028 8.11633C10.6062 8.11633 9.74622 8.47253 9.11219 9.10656C8.47815 9.7406 8.12196 10.6005 8.12196 11.4972C8.12196 12.3938 8.47815 13.2538 9.11219 13.8878L12.4872 17.2628ZM12.4872 50.7316L9.11219 54.1066C8.79825 54.4205 8.54921 54.7932 8.37931 55.2034C8.20941 55.6136 8.12196 56.0532 8.12196 56.4972C8.12196 56.9412 8.20941 57.3808 8.37931 57.791C8.54921 58.2012 8.79825 58.5739 9.11219 58.8878C9.74622 59.5218 10.6062 59.878 11.5028 59.878C11.9468 59.878 12.3864 59.7906 12.7966 59.6207C13.2068 59.4508 13.5795 59.2018 13.8934 58.8878L17.2684 55.5128C17.9025 54.8788 18.2587 54.0188 18.2587 53.1222C18.2587 52.2255 17.9025 51.3656 17.2684 50.7316C16.6344 50.0975 15.7745 49.7413 14.8778 49.7413C13.9812 49.7413 13.1212 50.0975 12.4872 50.7316ZM53.125 18.25C53.5683 18.2503 54.0074 18.1633 54.4171 17.994C54.8268 17.8246 55.1992 17.5761 55.5128 17.2628L58.8878 13.8878C59.2018 13.5739 59.4508 13.2012 59.6207 12.791C59.7906 12.3808 59.878 11.9412 59.878 11.4972C59.878 11.0532 59.7906 10.6136 59.6207 10.2034C59.4508 9.79321 59.2018 9.4205 58.8878 9.10656C58.5739 8.79262 58.2012 8.54359 57.791 8.37369C57.3808 8.20378 56.9412 8.11633 56.4972 8.11633C56.0532 8.11633 55.6136 8.20378 55.2034 8.37369C54.7932 8.54359 54.4205 8.79262 54.1066 9.10656L50.7316 12.4816C50.2567 12.9536 49.9331 13.5562 49.8017 14.2127C49.6703 14.8693 49.7371 15.55 49.9937 16.1685C50.2503 16.7869 50.6851 17.315 51.2426 17.6857C51.8002 18.0563 52.4555 18.2528 53.125 18.25ZM55.5128 50.7372C54.8788 50.1032 54.0188 49.747 53.1222 49.747C52.2255 49.747 51.3656 50.1032 50.7316 50.7372C50.0975 51.3712 49.7413 52.2312 49.7413 53.1278C49.7413 54.0245 50.0975 54.8844 50.7316 55.5184L54.1066 58.8934C54.7406 59.5275 55.6005 59.8837 56.4972 59.8837C57.3938 59.8837 58.2538 59.5275 58.8878 58.8934C59.5218 58.2594 59.878 57.3995 59.878 56.5028C59.878 55.6062 59.5218 54.7462 58.8878 54.1122L55.5128 50.7372ZM11.5 34C11.5 33.1049 11.1444 32.2464 10.5115 31.6135C9.87855 30.9806 9.02011 30.625 8.125 30.625H3.625C2.72989 30.625 1.87145 30.9806 1.23851 31.6135C0.605579 32.2464 0.25 33.1049 0.25 34C0.25 34.8951 0.605579 35.7535 1.23851 36.3865C1.87145 37.0194 2.72989 37.375 3.625 37.375H8.125C9.02011 37.375 9.87855 37.0194 10.5115 36.3865C11.1444 35.7535 11.5 34.8951 11.5 34ZM34 56.5C33.1049 56.5 32.2464 56.8556 31.6135 57.4885C30.9806 58.1215 30.625 58.9799 30.625 59.875V64.375C30.625 65.2701 30.9806 66.1285 31.6135 66.7615C32.2464 67.3944 33.1049 67.75 34 67.75C34.8951 67.75 35.7535 67.3944 36.3865 66.7615C37.0194 66.1285 37.375 65.2701 37.375 64.375V59.875C37.375 58.9799 37.0194 58.1215 36.3865 57.4885C35.7535 56.8556 34.8951 56.5 34 56.5ZM64.375 30.625H59.875C58.9799 30.625 58.1215 30.9806 57.4885 31.6135C56.8556 32.2464 56.5 33.1049 56.5 34C56.5 34.8951 56.8556 35.7535 57.4885 36.3865C58.1215 37.0194 58.9799 37.375 59.875 37.375H64.375C65.2701 37.375 66.1285 37.0194 66.7615 36.3865C67.3944 35.7535 67.75 34.8951 67.75 34C67.75 33.1049 67.3944 32.2464 66.7615 31.6135C66.1285 30.9806 65.2701 30.625 64.375 30.625Z" fill="#F1A533"/>
</svg>
