<svg width="97" height="97" viewBox="0 0 97 97" fill="none" xmlns="http://www.w3.org/2000/svg">
<path d="M15.4648 13.2322C15.2932 16.1004 15.7138 18.9732 16.7005 21.6717C17.6872 24.3703 19.2188 26.8369 21.1999 28.9179C17.3497 30.0219 13.9026 32.2195 11.2768 35.2441C8.65103 38.2688 6.9595 41.9905 6.40743 45.9576C5.07617 55.4779 7.02922 65.1676 11.9445 73.4288L13.3591 75.8134L13.5329 76.068L19.2559 83.7714C20.4681 85.4041 22.0215 86.753 23.8081 87.7241C25.5947 88.6952 27.5715 89.2652 29.6009 89.3945C31.6302 89.5238 33.6634 89.2091 35.5587 88.4726C37.4541 87.736 39.1662 86.5951 40.5757 85.1294C40.7405 84.9581 40.9382 84.8217 41.157 84.7286C41.3757 84.6354 41.611 84.5874 41.8488 84.5874C42.0866 84.5874 42.3219 84.6354 42.5407 84.7286C42.7594 84.8217 42.9571 84.9581 43.1219 85.1294C44.5315 86.5951 46.2435 87.736 48.1389 88.4726C50.0342 89.2091 52.0674 89.5238 54.0967 89.3945C56.1261 89.2652 58.1029 88.6952 59.8895 87.7241C61.6761 86.753 63.2296 85.4041 64.4417 83.7714L70.1647 76.064L70.3345 75.8094L71.7531 73.4248C76.6708 65.1673 78.628 55.4807 77.3023 45.9617C76.911 43.1568 75.9481 40.4621 74.4733 38.0444C72.9984 35.6267 71.043 33.5375 68.7281 31.9061C66.4132 30.2747 63.7881 29.1358 61.0152 28.5599C58.2424 27.984 55.3808 27.9835 52.6077 28.5582L44.9245 30.1507H44.9124C45.0336 26.9982 45.5267 23.6032 46.4927 20.7012C47.6648 17.1931 49.2895 15.0833 51.1002 14.3316C51.8425 14.0218 52.4313 13.4298 52.7372 12.6859C53.043 11.9419 53.0408 11.107 52.731 10.3647C52.4212 9.62238 51.8292 9.03354 51.0853 8.7277C50.3414 8.42186 49.5064 8.42408 48.7641 8.73386C44.5123 10.5082 42.0953 14.7155 40.7414 18.7814L40.5555 19.3554C39.5612 17.4315 38.2756 15.6728 36.7442 14.1416C34.6482 12.0429 32.1303 10.4136 29.3571 9.36144C26.584 8.30932 23.6189 7.85845 20.6583 8.0387C19.3073 8.11647 18.0317 8.68741 17.0737 9.64323C16.1156 10.5991 15.5417 11.8733 15.4608 13.2242M27.2867 44.8098C25.8842 45.0887 24.599 46.0748 23.7947 47.9542C22.9742 49.8699 22.6832 52.7112 23.5683 56.2558C23.7503 57.031 23.6199 57.8467 23.2054 58.5265C22.7908 59.2064 22.1254 59.6958 21.353 59.8891C20.5805 60.0823 19.763 59.9639 19.0772 59.5593C18.3913 59.1547 17.8922 58.4965 17.6877 57.7269C16.5561 53.1922 16.7703 48.9565 18.2212 45.5656C19.6883 42.1423 22.4448 39.592 26.0984 38.8645C26.4944 38.771 26.9051 38.7582 27.3061 38.8268C27.7072 38.8955 28.0903 39.0441 28.4326 39.2639C28.775 39.4838 29.0696 39.7703 29.2989 40.1063C29.5281 40.4424 29.6874 40.8212 29.7672 41.2202C29.847 41.6191 29.8457 42.0301 29.7633 42.4285C29.6809 42.8269 29.5191 43.2047 29.2877 43.5392C29.0562 43.8738 28.7598 44.1584 28.416 44.376C28.0722 44.5936 27.6881 44.7438 27.2867 44.8098Z" fill="#5A6EDD"/>
</svg>
