<svg width="110" height="110" viewBox="0 0 110 110" fill="none" xmlns="http://www.w3.org/2000/svg">
<path d="M27.5007 100.833C24.9798 100.833 22.8226 99.9359 21.029 98.1423C19.2354 96.3486 18.337 94.1899 18.334 91.666V18.3327C18.334 15.8118 19.2323 13.6546 21.029 11.861C22.8257 10.0674 24.9829 9.16907 27.5007 9.16602H82.5007C85.0215 9.16602 87.1802 10.0643 88.9769 11.861C90.7736 13.6577 91.6704 15.8149 91.6673 18.3327V91.666C91.6673 94.1868 90.7705 96.3456 88.9769 98.1423C87.1833 99.9389 85.0245 100.836 82.5007 100.833H27.5007ZM50.4173 50.416L61.8757 43.541L73.334 50.416V18.3327H50.4173V50.416Z" fill="#5A6EDD"/>
</svg>
