<svg width="74" height="87" viewBox="0 0 74 87" fill="none" xmlns="http://www.w3.org/2000/svg">
<path d="M34.5491 0C33.6623 0 32.8118 0.352287 32.1847 0.979361C31.5576 1.60644 31.2053 2.45693 31.2053 3.34375V53.5446C27.8616 50.7081 23.6377 49.1191 19.2536 49.0484C14.8694 48.9776 10.5964 50.4296 7.163 53.1567C3.72956 55.8839 1.34822 59.7174 0.424893 64.0038C-0.498432 68.2902 0.0934188 72.7642 2.09956 76.663C4.10569 80.5619 7.40193 83.6443 11.4264 85.3849C15.4508 87.1254 19.9544 87.4164 24.1693 86.2081C28.3843 84.9998 32.0497 82.3671 34.5409 78.7588C37.032 75.1504 38.1945 70.7898 37.8304 66.4203C37.8727 66.2029 37.8936 65.9819 37.8928 65.7604V24.5208H61.2991C64.5507 24.5208 67.6692 23.2291 69.9685 20.9298C72.2678 18.6306 73.5595 15.5121 73.5595 12.2604C73.5595 9.00875 72.2678 5.89027 69.9685 3.59099C67.6692 1.29172 64.5507 0 61.2991 0H34.5491Z" fill="#5A6EDD"/>
</svg>
