<svg width="111" height="111" viewBox="0 0 111 111" fill="none" xmlns="http://www.w3.org/2000/svg">
<path d="M43.3593 15.6094C43.3593 13.2082 44.0714 10.8609 45.4054 8.86441C46.7394 6.86789 48.6355 5.3118 50.854 4.39291C53.0724 3.47401 55.5134 3.23359 57.8685 3.70203C60.2235 4.17048 62.3868 5.32677 64.0847 7.02466C65.7826 8.72256 66.9389 10.8858 67.4073 13.2409C67.8758 15.5959 67.6353 18.037 66.7164 20.2554C65.7975 22.4738 64.2415 24.3699 62.2449 25.7039C60.2484 27.038 57.9012 27.75 55.5 27.75C52.2801 27.75 49.1921 26.4709 46.9152 24.1941C44.6384 21.9173 43.3593 18.8293 43.3593 15.6094ZM93.4047 61.0413L73.7846 38.798C72.6453 37.5061 71.2442 36.4715 69.6743 35.7628C68.1044 35.0541 66.4016 34.6875 64.6791 34.6875H46.3208C44.5983 34.6875 42.8956 35.0541 41.3257 35.7628C39.7557 36.4715 38.3546 37.5061 37.2153 38.798L17.5952 61.0413C16.3212 62.3449 15.6114 64.0974 15.6192 65.9201C15.627 67.7428 16.3519 69.4892 17.637 70.7818C18.9222 72.0744 20.6644 72.8092 22.487 72.8275C24.3096 72.8458 26.0662 72.1461 27.3771 70.8796L38.5898 61.8738L30.048 94.3413C29.3049 96.0096 29.2496 97.9037 29.8941 99.6125C30.5386 101.321 31.831 102.707 33.4908 103.469C35.1506 104.231 37.0439 104.308 38.7599 103.683C40.4759 103.057 41.8762 101.781 42.6569 100.13L55.5 78.0469L68.3257 100.16C69.1064 101.811 70.5067 103.088 72.2227 103.713C73.9387 104.338 75.832 104.261 77.4918 103.499C79.1516 102.737 80.444 101.352 81.0885 99.6429C81.733 97.9341 81.6777 96.04 80.9346 94.3717L72.4101 61.8738L83.6402 70.8796C84.951 72.1461 86.7076 72.8458 88.5303 72.8275C90.3529 72.8092 92.0951 72.0744 93.3803 70.7818C94.6654 69.4892 95.3903 67.7428 95.3981 65.9201C95.4059 64.0974 94.6961 62.3449 93.4221 61.0413H93.4047Z" fill="#5A6EDD"/>
</svg>
