<svg width="111" height="111" viewBox="0 0 111 111" fill="none" xmlns="http://www.w3.org/2000/svg">
<path fill-rule="evenodd" clip-rule="evenodd" d="M73.9674 9.32959C73.6482 9.82224 73.3504 10.3284 73.0748 10.8466L71.5809 13.543L58.506 19.9717L57.729 20.3556C50.2088 24.2175 44.9085 31.4695 43.3175 39.9332C43.2713 40.1645 43.2296 40.4096 43.1603 40.812L43.1556 40.8443L43.0169 41.6445C41.7731 48.5654 38.3832 54.9195 33.3275 59.8068L29.609 63.4606C27.278 65.7546 25.4003 67.6046 23.9943 69.1956C22.5605 70.8144 21.4043 72.4053 20.7105 74.2276C19.7953 76.635 19.4701 79.2266 19.7622 81.7854C20.0543 84.3443 20.9552 86.7959 22.3894 88.9351C23.4809 90.5538 24.9701 91.8303 26.7323 93.0698C28.4574 94.2816 30.7051 95.6367 33.4848 97.311L36.7824 99.2997C39.562 100.974 41.8098 102.324 43.6829 103.277C45.5884 104.248 47.4106 104.975 49.3485 105.155C51.891 105.385 54.45 104.959 56.7816 103.92C59.1132 102.88 61.1399 101.261 62.6685 99.2165C63.8433 97.6671 64.5786 95.831 65.203 93.7405C65.8181 91.6823 66.4101 89.0692 67.1455 85.8086L68.3249 80.624L68.5053 79.8331C70.1074 73.0048 73.8255 66.8571 79.1289 62.2673L79.1566 62.2442L79.8088 61.6615C86.0895 55.9403 89.4103 47.5367 88.8645 38.9342L88.7951 38.0462L87.5834 22.9363L89.2253 19.9671C89.4935 19.4907 89.7803 18.9681 89.993 18.4963C90.2381 17.9598 90.5064 17.2291 90.548 16.3365C90.6019 15.1465 90.2869 13.969 89.6461 12.9648C89.2339 12.3391 88.7047 11.7989 88.0875 11.3738C87.6332 11.0567 87.1656 10.7589 86.6861 10.4812L82.9167 8.21034C82.4196 7.90066 81.9104 7.6106 81.3905 7.34084C80.6881 6.97511 79.9186 6.75637 79.1289 6.69797C77.8815 6.62282 76.6434 6.95385 75.6 7.64147C74.9452 8.08707 74.3881 8.66147 73.9627 9.32959M73.9165 20.1197L80.7245 24.2221L81.8715 38.5642C81.8946 38.8602 81.9131 39.0406 81.9178 39.184L77.0384 40.8073C75.6074 41.2839 74.0799 41.3948 72.5951 41.1298C71.1103 40.8648 69.7154 40.2325 68.5376 39.2903C66.1544 37.3837 63.2748 36.1996 60.2397 35.8783C57.2045 35.557 54.1409 36.1119 51.4113 37.4773L51.1338 37.6161C52.9893 32.5825 56.7433 28.4765 61.5909 26.1785L73.9165 20.1197Z" fill="#5A6EDD"/>
</svg>
