<svg width="81" height="45" viewBox="0 0 81 45" fill="none" xmlns="http://www.w3.org/2000/svg">
<rect x="1.5" y="1.5" width="78" height="42" rx="17.5" fill="white"/>
<rect x="1.5" y="1.5" width="78" height="42" rx="17.5" stroke="#FF5B5B" stroke-width="3"/>
<path d="M15.5781 31V15H21.7031C22.8594 15 23.8203 15.1823 24.5859 15.5469C25.3568 15.9062 25.9323 16.3984 26.3125 17.0234C26.6979 17.6484 26.8906 18.3568 26.8906 19.1484C26.8906 19.7995 26.7656 20.3568 26.5156 20.8203C26.2656 21.2786 25.9297 21.651 25.5078 21.9375C25.0859 22.224 24.6146 22.4297 24.0938 22.5547V22.7109C24.6615 22.7422 25.2057 22.9167 25.7266 23.2344C26.2526 23.5469 26.6823 23.9896 27.0156 24.5625C27.349 25.1354 27.5156 25.8281 27.5156 26.6406C27.5156 27.4687 27.3151 28.2135 26.9141 28.875C26.513 29.5312 25.9089 30.0495 25.1016 30.4297C24.2943 30.8099 23.2786 31 22.0547 31H15.5781ZM18.4766 28.5781H21.5938C22.6458 28.5781 23.4036 28.3776 23.8672 27.9766C24.3359 27.5703 24.5703 27.0495 24.5703 26.4141C24.5703 25.9401 24.4531 25.513 24.2188 25.1328C23.9844 24.7474 23.651 24.4453 23.2188 24.2266C22.7865 24.0026 22.2708 23.8906 21.6719 23.8906H18.4766V28.5781ZM18.4766 21.8047H21.3438C21.8438 21.8047 22.2943 21.7135 22.6953 21.5312C23.0964 21.3437 23.4115 21.0807 23.6406 20.7422C23.875 20.3984 23.9922 19.9922 23.9922 19.5234C23.9922 18.9036 23.7734 18.3932 23.3359 17.9922C22.9036 17.5911 22.2604 17.3906 21.4063 17.3906H18.4766V21.8047ZM33.3652 31.2422C32.6048 31.2422 31.9199 31.1068 31.3105 30.8359C30.7064 30.5599 30.2272 30.1536 29.873 29.6172C29.5241 29.0807 29.3496 28.4193 29.3496 27.6328C29.3496 26.9557 29.4746 26.3958 29.7246 25.9531C29.9746 25.5104 30.3158 25.1562 30.748 24.8906C31.1803 24.625 31.6673 24.4245 32.209 24.2891C32.7559 24.1484 33.321 24.0469 33.9043 23.9844C34.6074 23.9115 35.1777 23.8464 35.6152 23.7891C36.0527 23.7266 36.3704 23.6328 36.5684 23.5078C36.7715 23.3776 36.873 23.1771 36.873 22.9062V22.8594C36.873 22.2708 36.6986 21.8151 36.3496 21.4922C36.0007 21.1693 35.498 21.0078 34.8418 21.0078C34.1491 21.0078 33.5996 21.1589 33.1934 21.4609C32.7923 21.763 32.5215 22.1198 32.3809 22.5312L29.7402 22.1562C29.9486 21.4271 30.2923 20.8177 30.7715 20.3281C31.2507 19.8333 31.8366 19.4635 32.5293 19.2187C33.222 18.9688 33.9876 18.8438 34.8262 18.8438C35.4043 18.8438 35.9798 18.9115 36.5527 19.0469C37.1257 19.1823 37.6491 19.4062 38.123 19.7187C38.597 20.026 38.9772 20.4453 39.2637 20.9766C39.5553 21.5078 39.7012 22.1719 39.7012 22.9687V31H36.9824V29.3516H36.8887C36.7168 29.6849 36.4746 29.9974 36.1621 30.2891C35.8548 30.5755 35.4668 30.8073 34.998 30.9844C34.5345 31.1563 33.9902 31.2422 33.3652 31.2422ZM34.0996 29.1641C34.6673 29.1641 35.1595 29.0521 35.5762 28.8281C35.9928 28.599 36.3132 28.2969 36.5371 27.9219C36.7663 27.5469 36.8809 27.138 36.8809 26.6953V25.2812C36.7923 25.3542 36.6413 25.4219 36.4277 25.4844C36.2194 25.5469 35.985 25.6016 35.7246 25.6484C35.4642 25.6953 35.2064 25.737 34.9512 25.7734C34.696 25.8099 34.4746 25.8411 34.2871 25.8672C33.8652 25.9245 33.4876 26.0182 33.1543 26.1484C32.821 26.2786 32.5579 26.4609 32.3652 26.6953C32.1725 26.9245 32.0762 27.2214 32.0762 27.5859C32.0762 28.1068 32.2663 28.5 32.6465 28.7656C33.0267 29.0312 33.5111 29.1641 34.0996 29.1641ZM47.7793 31.2344C46.5814 31.2344 45.5527 30.9714 44.6934 30.4453C43.8392 29.9193 43.1803 29.1927 42.7168 28.2656C42.2585 27.3333 42.0293 26.2604 42.0293 25.0469C42.0293 23.8281 42.2637 22.7526 42.7324 21.8203C43.2012 20.8828 43.8626 20.1536 44.7168 19.6328C45.5762 19.1068 46.5918 18.8438 47.7637 18.8438C48.7376 18.8438 49.5996 19.0234 50.3496 19.3828C51.1048 19.737 51.7064 20.2396 52.1543 20.8906C52.6022 21.5365 52.8574 22.2917 52.9199 23.1562H50.2168C50.1074 22.5781 49.847 22.0964 49.4355 21.7109C49.0293 21.3203 48.485 21.125 47.8027 21.125C47.2246 21.125 46.7168 21.2812 46.2793 21.5937C45.8418 21.901 45.5007 22.3437 45.2559 22.9219C45.0163 23.5 44.8965 24.1927 44.8965 25C44.8965 25.8177 45.0163 26.5208 45.2559 27.1094C45.4954 27.6927 45.8314 28.1432 46.2637 28.4609C46.7012 28.7734 47.2142 28.9297 47.8027 28.9297C48.2194 28.9297 48.5918 28.8516 48.9199 28.6953C49.2533 28.5339 49.5319 28.3021 49.7559 28C49.9798 27.6979 50.1335 27.3307 50.2168 26.8984H52.9199C52.8522 27.7474 52.6022 28.5 52.1699 29.1562C51.7376 29.8073 51.1491 30.3177 50.4043 30.6875C49.6595 31.0521 48.7845 31.2344 47.7793 31.2344ZM57.8203 27.2344L57.8125 23.8203H58.2656L62.5781 19H65.8828L60.5781 24.9062H59.9922L57.8203 27.2344ZM55.2422 31V15H58.0703V31H55.2422ZM62.7734 31L58.8672 25.5391L60.7734 23.5469L66.1562 31H62.7734Z" fill="#FF5B5B"/>
</svg>
