<svg width="159" height="45" viewBox="0 0 159 45" fill="none" xmlns="http://www.w3.org/2000/svg">
<rect x="0.957031" width="158.043" height="45" rx="19" fill="#FF5B5B"/>
<path d="M30.317 29.632C30.077 29.808 29.701 30.024 29.189 30.28C28.677 30.536 28.069 30.76 27.365 30.952C26.677 31.128 25.909 31.208 25.061 31.192C23.701 31.176 22.477 30.936 21.389 30.472C20.301 29.992 19.381 29.352 18.629 28.552C17.877 27.736 17.293 26.808 16.877 25.768C16.477 24.712 16.277 23.592 16.277 22.408C16.277 21.08 16.485 19.864 16.901 18.76C17.317 17.656 17.909 16.704 18.677 15.904C19.445 15.088 20.357 14.456 21.413 14.008C22.469 13.56 23.621 13.336 24.869 13.336C25.973 13.336 26.957 13.488 27.821 13.792C28.701 14.08 29.437 14.408 30.029 14.776L28.925 17.416C28.477 17.096 27.917 16.784 27.245 16.48C26.573 16.176 25.813 16.024 24.965 16.024C24.197 16.024 23.461 16.184 22.757 16.504C22.053 16.808 21.437 17.248 20.909 17.824C20.381 18.384 19.957 19.04 19.637 19.792C19.333 20.544 19.181 21.36 19.181 22.24C19.181 23.152 19.317 23.992 19.589 24.76C19.877 25.512 20.277 26.168 20.789 26.728C21.317 27.288 21.941 27.728 22.661 28.048C23.397 28.352 24.213 28.504 25.109 28.504C26.021 28.504 26.813 28.368 27.485 28.096C28.173 27.808 28.725 27.488 29.141 27.136L30.317 29.632ZM32.6525 25.816C32.6525 24.792 32.8925 23.872 33.3725 23.056C33.8525 22.224 34.5245 21.576 35.3885 21.112C36.2685 20.632 37.2605 20.392 38.3645 20.392C39.5005 20.392 40.4845 20.632 41.3165 21.112C42.1645 21.576 42.8205 22.224 43.2845 23.056C43.7485 23.872 43.9805 24.792 43.9805 25.816C43.9805 26.84 43.7485 27.768 43.2845 28.6C42.8205 29.416 42.1645 30.064 41.3165 30.544C40.4845 31.024 39.4925 31.264 38.3405 31.264C37.2525 31.264 36.2765 31.048 35.4125 30.616C34.5485 30.168 33.8685 29.536 33.3725 28.72C32.8925 27.904 32.6525 26.936 32.6525 25.816ZM35.3645 25.84C35.3645 26.432 35.4925 26.976 35.7485 27.472C36.0045 27.952 36.3565 28.336 36.8045 28.624C37.2525 28.912 37.7485 29.056 38.2925 29.056C38.8845 29.056 39.3965 28.912 39.8285 28.624C40.2765 28.336 40.6205 27.952 40.8605 27.472C41.1165 26.976 41.2445 26.432 41.2445 25.84C41.2445 25.232 41.1165 24.688 40.8605 24.208C40.6205 23.712 40.2765 23.32 39.8285 23.032C39.3965 22.744 38.8845 22.6 38.2925 22.6C37.7325 22.6 37.2285 22.752 36.7805 23.056C36.3485 23.344 36.0045 23.728 35.7485 24.208C35.4925 24.688 35.3645 25.232 35.3645 25.84ZM49.229 20.848L49.469 23.032L49.373 22.744C49.725 22.04 50.245 21.48 50.933 21.064C51.637 20.632 52.469 20.416 53.429 20.416C54.389 20.416 55.181 20.696 55.805 21.256C56.429 21.816 56.749 22.552 56.765 23.464V31H54.077V24.424C54.061 23.912 53.917 23.504 53.645 23.2C53.373 22.88 52.941 22.712 52.349 22.696C51.805 22.696 51.317 22.864 50.885 23.2C50.453 23.52 50.109 23.968 49.853 24.544C49.613 25.104 49.493 25.752 49.493 26.488V31H46.805V20.848H49.229ZM61.4291 16.384H64.1411V20.848H66.7811V22.96H64.1411V31H61.4291V22.96H59.7011V20.848H61.4291V16.384ZM69.4222 20.848H72.1102V31H69.4222V20.848ZM69.3022 17.224C69.3022 16.808 69.4622 16.464 69.7822 16.192C70.1182 15.92 70.4782 15.784 70.8622 15.784C71.2462 15.784 71.5902 15.92 71.8942 16.192C72.2142 16.464 72.3742 16.808 72.3742 17.224C72.3742 17.64 72.2142 17.984 71.8942 18.256C71.5902 18.512 71.2462 18.64 70.8622 18.64C70.4782 18.64 70.1182 18.504 69.7822 18.232C69.4622 17.96 69.3022 17.624 69.3022 17.224ZM78.2212 20.848L78.4612 23.032L78.3652 22.744C78.7172 22.04 79.2372 21.48 79.9252 21.064C80.6292 20.632 81.4612 20.416 82.4212 20.416C83.3812 20.416 84.1732 20.696 84.7972 21.256C85.4212 21.816 85.7412 22.552 85.7572 23.464V31H83.0692V24.424C83.0532 23.912 82.9092 23.504 82.6372 23.2C82.3652 22.88 81.9332 22.712 81.3412 22.696C80.7972 22.696 80.3092 22.864 79.8772 23.2C79.4452 23.52 79.1012 23.968 78.8452 24.544C78.6052 25.104 78.4852 25.752 78.4852 26.488V31H75.7972V20.848H78.2212ZM92.7253 31.432C91.7973 31.432 91.0293 31.152 90.4213 30.592C89.8133 30.016 89.4933 29.28 89.4613 28.384V20.848H92.1493V27.424C92.1813 27.92 92.3253 28.328 92.5813 28.648C92.8373 28.968 93.2453 29.128 93.8053 29.128C94.3333 29.128 94.8053 28.968 95.2213 28.648C95.6373 28.312 95.9573 27.856 96.1813 27.28C96.4213 26.704 96.5413 26.056 96.5413 25.336V20.848H99.2293V31H96.8053L96.5893 28.768L96.6613 29.128C96.4533 29.56 96.1573 29.96 95.7733 30.328C95.3893 30.68 94.9333 30.952 94.4053 31.144C93.8933 31.336 93.3333 31.432 92.7253 31.432ZM107.786 31.264C106.586 31.264 105.562 31.032 104.714 30.568C103.866 30.104 103.218 29.464 102.77 28.648C102.322 27.816 102.098 26.88 102.098 25.84C102.098 24.816 102.354 23.896 102.866 23.08C103.378 22.264 104.066 21.616 104.93 21.136C105.81 20.64 106.778 20.392 107.834 20.392C109.226 20.392 110.37 20.8 111.266 21.616C112.178 22.416 112.786 23.552 113.09 25.024L104.906 27.784L104.282 26.272L110.666 23.992L110.114 24.304C109.938 23.824 109.65 23.408 109.25 23.056C108.866 22.704 108.322 22.528 107.618 22.528C107.058 22.528 106.562 22.664 106.13 22.936C105.698 23.192 105.354 23.56 105.098 24.04C104.858 24.504 104.738 25.056 104.738 25.696C104.738 26.352 104.874 26.928 105.146 27.424C105.418 27.92 105.786 28.304 106.25 28.576C106.714 28.832 107.242 28.96 107.834 28.96C108.25 28.96 108.65 28.888 109.034 28.744C109.418 28.6 109.778 28.408 110.114 28.168L111.338 30.16C110.81 30.496 110.226 30.768 109.586 30.976C108.962 31.168 108.362 31.264 107.786 31.264Z" fill="white"/>
<path d="M133.957 33.5814L145 22.5L133.957 11.4186" stroke="white" stroke-width="3" stroke-miterlimit="10" stroke-linecap="round" stroke-linejoin="round"/>
</svg>
