<svg width="91" height="87" viewBox="0 0 91 87" fill="none" xmlns="http://www.w3.org/2000/svg">
<path d="M51 69.1041C51 81.408 39.6143 86.9998 27.3636 86.9998C15.113 86.9998 7 76.6602 7 64.3563C7 52.0523 20.5675 44.9998 32.8182 44.9998C45.0689 44.9998 51 56.8002 51 69.1041Z" fill="#F1A533"/>
<path d="M81.9197 23.2302C87.5949 31.0045 82.98 39.7893 75.2393 45.4399C67.4987 51.0905 57.6034 48.2995 51.9282 40.5252C46.253 32.7509 51.5727 22.0367 59.3133 16.3861C67.054 10.7355 76.2445 15.4559 81.9197 23.2302Z" fill="#F1A533"/>
<path d="M35.6398 13.947C40.8367 21.0662 36.6107 29.1106 29.5224 34.285C22.4341 39.4595 13.3727 36.9037 8.17577 29.7845C2.97885 22.6654 7.85025 12.8541 14.9386 7.67968C22.0269 2.50527 30.4429 6.82787 35.6398 13.947Z" fill="#F1A533"/>
</svg>
