<svg width="37" height="77" viewBox="0 0 37 77" fill="none" xmlns="http://www.w3.org/2000/svg">
<path d="M29 31.2004H7.25V25.375C7.25 24.4136 7.63192 23.4916 8.31174 22.8117C8.99156 22.1319 9.91359 21.75 10.875 21.75H14.5V3.625C14.5 2.66359 14.8819 1.74156 15.5617 1.06174C16.2416 0.381919 17.1636 0 18.125 0C19.0864 0 20.0084 0.381919 20.6883 1.06174C21.3681 1.74156 21.75 2.66359 21.75 3.625V21.75H25.375C26.3364 21.75 27.2584 22.1319 27.9383 22.8117C28.6181 23.4916 29 24.4136 29 25.375V31.2004ZM31.9326 34.8254C33.2749 35.8382 34.3635 37.149 35.1127 38.6543C35.862 40.1597 36.2513 41.8185 36.25 43.5V68.875C36.25 70.7978 35.4862 72.6419 34.1265 74.0015C32.7669 75.3612 30.9228 76.125 29 76.125H7.25C5.32718 76.125 3.48311 75.3612 2.12348 74.0015C0.763837 72.6419 0 70.7978 0 68.875V43.5C0 39.9584 1.69288 36.8119 4.31738 34.8254H31.9326Z" fill="#F1A533"/>
</svg>
