<svg width="71" height="58" viewBox="0 0 71 58" fill="none" xmlns="http://www.w3.org/2000/svg">
<path d="M69.3444 46.5803L24.812 16.28C25.174 15.0894 25.3577 13.8522 25.3572 12.6083C25.3575 9.75625 24.3853 6.98834 22.5993 4.75668C20.8132 2.52502 18.319 0.961502 15.5239 0.321508C12.7287 -0.318485 9.79799 0.00286659 7.21028 1.23308C4.62256 2.46329 2.53083 4.52965 1.27673 7.09465C0.0226294 9.65966 -0.319722 12.5717 0.305594 15.3552C0.93091 18.1387 2.48694 20.629 4.71952 22.4196C6.95211 24.2101 9.7293 25.1949 12.5975 25.2132C15.4657 25.2316 18.2554 24.2822 20.5109 22.5204L30.0196 29.0002L20.5109 35.4801C18.5899 33.9793 16.2737 33.0624 13.8409 32.8396C11.4082 32.6169 8.96257 33.0977 6.79818 34.2244C4.6338 35.3511 2.84288 37.0755 1.64084 39.1904C0.438801 41.3052 -0.12315 43.7204 0.0225822 46.1453C0.168315 48.5702 1.01552 50.9016 2.4623 52.859C3.90907 54.8165 5.89379 56.3166 8.17771 57.179C10.4616 58.0413 12.9475 58.2291 15.3362 57.7198C17.7249 57.2106 19.9148 56.0259 21.6424 54.3083C22.8248 53.1396 23.7619 51.7491 24.3996 50.2175C25.0373 48.6858 25.3628 47.0436 25.3572 45.3859C25.358 44.1409 25.1743 42.9027 24.812 41.711L36.7676 33.5796L65.0465 52.8238C65.4588 53.1045 65.9226 53.3016 66.4115 53.4039C66.9004 53.5063 67.4048 53.5119 67.8959 53.4205C68.3869 53.329 68.8551 53.1423 69.2736 52.8709C69.6921 52.5996 70.0527 52.2489 70.3349 51.8389C70.6171 51.429 70.8154 50.9678 70.9183 50.4816C71.0213 49.9955 71.0269 49.494 70.935 49.0057C70.843 48.5174 70.6552 48.0518 70.3823 47.6357C70.1094 47.2196 69.7567 46.861 69.3444 46.5803ZM16.2637 48.9567C15.434 49.7812 14.3424 50.2942 13.175 50.4083C12.0076 50.5224 10.8365 50.2306 9.86123 49.5825C8.88592 48.9345 8.16671 47.9702 7.8261 46.8541C7.48548 45.7379 7.54453 44.5389 7.99318 43.4611C8.44183 42.3834 9.25234 41.4937 10.2867 40.9434C11.321 40.3932 12.5151 40.2166 13.6657 40.4435C14.8164 40.6705 15.8522 41.2871 16.597 42.1883C17.3417 43.0894 17.7493 44.2195 17.7502 45.3859C17.7507 46.049 17.6197 46.7058 17.3646 47.3185C17.1095 47.9313 16.7354 48.488 16.2637 48.9567ZM9.09412 16.1697C8.38455 15.4646 7.90123 14.5661 7.70528 13.5878C7.50934 12.6096 7.60957 11.5955 7.99331 10.6738C8.37704 9.75222 9.02705 8.96446 9.86109 8.41022C10.6951 7.85597 11.6758 7.56014 12.6789 7.56014C13.6821 7.56014 14.6627 7.85597 15.4967 8.41022C16.3308 8.96446 16.9808 9.75222 17.3645 10.6738C17.7482 11.5955 17.8485 12.6096 17.6525 13.5878C17.4566 14.5661 16.9733 15.4646 16.2637 16.1697C15.3127 17.1147 14.0233 17.6455 12.6789 17.6455C11.3345 17.6455 10.0451 17.1147 9.09412 16.1697ZM44.8532 23.4943C44.5712 23.0843 44.3731 22.6231 44.2704 22.1371C44.1676 21.651 44.1621 21.1496 44.2542 20.6614C44.3464 20.1733 44.5343 19.7079 44.8073 19.292C45.0803 18.876 45.433 18.5176 45.8453 18.2372L65.0465 5.17035C65.8792 4.60362 66.9041 4.389 67.8959 4.57371C68.8876 4.75841 69.765 5.32731 70.3349 6.15525C70.9049 6.98319 71.1207 8.00235 70.935 8.98852C70.7492 9.9747 70.1771 10.8471 69.3444 11.4138L50.14 24.4807C49.7278 24.7612 49.264 24.9581 48.7752 25.0603C48.2863 25.1625 47.7821 25.1679 47.2911 25.0763C46.8002 24.9847 46.3322 24.7978 45.9139 24.5264C45.4956 24.2549 45.1352 23.9042 44.8532 23.4943Z" fill="#F1A533"/>
</svg>
