<svg width="84" height="80" viewBox="0 0 84 80" fill="none" xmlns="http://www.w3.org/2000/svg">
<path d="M39.1468 2.78115C40.0449 0.0172152 43.9551 0.0172203 44.8532 2.78115L52.5522 26.4762C52.9538 27.7123 54.1056 28.5491 55.4053 28.5491H80.3198C83.226 28.5491 84.4343 32.268 82.0831 33.9762L61.9269 48.6205C60.8755 49.3845 60.4355 50.7386 60.8371 51.9746L68.5361 75.6697C69.4342 78.4336 66.2707 80.732 63.9196 79.0238L43.7634 64.3794C42.7119 63.6155 41.2881 63.6155 40.2366 64.3795L20.0804 79.0238C17.7293 80.732 14.5659 78.4336 15.4639 75.6697L23.1629 51.9746C23.5645 50.7386 23.1245 49.3845 22.0731 48.6205L1.91686 33.9762C-0.434279 32.268 0.774054 28.5491 3.68022 28.5491H28.5947C29.8944 28.5491 31.0462 27.7123 31.4478 26.4762L39.1468 2.78115Z" fill="#F1A533"/>
</svg>
