<svg width="72" height="57" viewBox="0 0 72 57" fill="none" xmlns="http://www.w3.org/2000/svg">
<path d="M8.60004 44.1343C3.03757 37.5071 -0.0128039 29.0735 4.03978e-05 20.3571V20.235C4.03978e-05 9.03857 9.00004 0 20 0C26.56 0 32.36 3.21643 36 8.14286C39.64 3.21643 45.48 0 52 0C63.04 0 72 9.12 72 20.3571C72 29.4364 68.76 37.7421 63.4 44.1343L68.84 49.6714L63.16 55.4121L57.56 49.7121C51.3292 54.4359 43.7693 56.9913 36 57C28 57 20.44 54.2721 14.44 49.7121L8.84004 55.4121L3.16004 49.6714L8.60004 44.1343ZM51.84 43.8493L36 27.7671L20.16 43.8493C24.68 47.025 30.12 48.8571 36 48.8571C41.88 48.8571 47.32 47.025 51.84 43.8493ZM32 20.3571C32 13.5986 26.6 8.14286 20 8.14286C13.36 8.14286 8.00004 13.5986 8.00004 20.3571C8.00004 27.1971 10.36 33.4264 14.28 38.3529L32 20.3571ZM57.72 38.3529C61.7843 33.2679 64.0022 26.9123 64 20.3571C64 13.5579 58.6 8.14286 52 8.14286C45.4 8.14286 40 13.5986 40 20.3571L57.72 38.3529Z" fill="#F1A533"/>
</svg>
