<svg width="75" height="70" viewBox="0 0 75 70" fill="none" xmlns="http://www.w3.org/2000/svg">
<path fill-rule="evenodd" clip-rule="evenodd" d="M68.9605 0.582084C69.2171 0.607162 69.4639 0.683221 69.6828 0.80461C69.9017 0.925998 70.0869 1.0896 70.2247 1.28324C75.7214 9.00666 74.8917 17.2056 70.3003 22.3698C68.0072 24.9474 64.7865 26.746 61.0299 27.2779C57.7525 27.7398 54.1711 27.2231 50.5622 25.5464C50.2307 26.4747 49.9954 27.3755 49.8597 28.2245C49.7937 28.6233 49.5523 28.9827 49.1884 29.224C48.8245 29.4653 48.3678 29.5689 47.918 29.512C47.4683 29.4552 47.0623 29.2426 46.7888 28.9207C46.5153 28.5989 46.3966 28.194 46.4587 27.7947C46.6973 26.3803 47.1014 24.9918 47.6645 23.6517C45.0244 21.0757 44.3029 17.8169 44.6241 14.9055C44.978 11.6939 46.6287 8.6134 48.7775 7.0236C51.6495 4.90031 54.6658 4.02843 57.2836 3.60164C58.4276 3.42595 59.5795 3.29322 60.7362 3.20381C61.5589 3.13064 62.3989 3.08187 63.2028 2.90505C64.3927 2.64973 65.5299 2.23001 66.5729 1.66126C67.3321 1.24056 67.9797 0.484532 68.9605 0.582084ZM51.8522 22.7021C53.7623 19.2466 56.8851 15.9344 60.9509 14.1297C61.1544 14.0412 61.3363 13.9178 61.4858 13.7666C61.6354 13.6154 61.7498 13.4395 61.8223 13.2489C61.8949 13.0583 61.9243 12.8569 61.9087 12.6562C61.8931 12.4555 61.8329 12.2595 61.7316 12.0796C61.6302 11.8996 61.4898 11.7392 61.3182 11.6077C61.1467 11.4762 60.9476 11.376 60.7322 11.3131C60.5169 11.2502 60.2897 11.2258 60.0636 11.2411C59.8376 11.2565 59.6172 11.3115 59.4152 11.4028C54.9355 13.3904 51.5035 16.8276 49.2722 20.4935C49.7157 21.1347 50.2659 21.7129 50.9041 22.2083C51.2224 22.3841 51.5373 22.5487 51.8522 22.7021Z" fill="#F1A533"/>
<path d="M64.499 45.219C64.9664 44.7773 65.6073 44.5118 66.289 44.4774C66.9708 44.443 67.6413 44.6424 68.1621 45.0344C68.6829 45.4263 69.014 45.9809 69.0871 46.5833C69.1602 47.1858 68.9696 47.7902 68.5548 48.2715L68.3773 48.4558L47.1453 68.4953C46.6779 68.9371 46.0371 69.2026 45.3553 69.237C44.6736 69.2713 44.003 69.0719 43.4822 68.68C42.9614 68.288 42.6303 67.7335 42.5572 67.131C42.4841 66.5286 42.6747 65.9242 43.0895 65.4429L43.267 65.2586L64.499 45.219ZM53.3701 40.1441C53.713 39.6204 54.2695 39.2336 54.9246 39.0635C55.5798 38.8935 56.2835 38.9532 56.8904 39.2304C57.4973 39.5076 57.9611 39.981 58.186 40.5529C58.4108 41.1248 58.3795 41.7515 58.0985 42.3036L57.9814 42.5067L42.8943 65.6949C42.5513 66.2186 41.9948 66.6054 41.3397 66.7755C40.6846 66.9455 39.9809 66.8858 39.3739 66.6086C38.767 66.3315 38.3032 65.858 38.0784 65.2861C37.8536 64.7142 37.8848 64.0875 38.1658 63.5355L38.2829 63.3323L53.3701 40.1441Z" fill="#F1A533"/>
<path fill-rule="evenodd" clip-rule="evenodd" d="M12.3287 21.7488C13.42 20.7755 14.8066 20.1082 16.3177 19.829C17.8288 19.5498 19.3984 19.671 20.8333 20.1776C22.2682 20.6842 23.5057 21.554 24.3934 22.6801C25.2812 23.8062 25.7804 25.1393 25.8296 26.5152C27.7911 26.0108 29.8954 26.2047 31.7 27.056C33.5046 27.9073 34.8688 29.3498 35.5057 31.0799C36.1349 32.8048 35.9883 34.6825 35.0969 36.3127C34.2055 37.9429 32.639 39.2004 30.728 39.8198C31.8614 41.3236 32.2933 43.1621 31.9322 44.9453C31.5711 46.7285 30.4453 48.316 28.7938 49.3709C27.1392 50.4369 25.0879 50.8933 23.066 50.6454C21.0441 50.3975 19.2069 49.4642 17.9361 48.0395C17.1447 48.9278 16.1256 49.6333 14.9647 50.0968C13.8038 50.5602 12.5351 50.768 11.2653 50.7027C9.99562 50.6373 8.76209 50.3007 7.66865 49.7212C6.57522 49.1417 5.65389 48.3362 4.98229 47.3727C4.19214 46.2344 3.78645 44.917 3.81379 43.5783C3.84112 42.2396 4.30031 40.9363 5.13641 39.8244C3.22929 39.195 1.66952 37.9312 0.78434 36.2981C-0.100839 34.6649 -0.242627 32.7894 0.388723 31.065C1.02007 29.3406 2.37549 27.9014 4.17061 27.0493C5.96572 26.1971 8.06101 25.9984 10.0169 26.4946C10.0869 24.7094 10.913 23.0143 12.3287 21.7511V21.7488ZM23.5871 35.8372C23.5871 38.6099 21.0518 40.8556 17.9232 40.8556C16.4263 40.8599 14.9887 40.3336 13.9266 39.3925C12.8645 38.4514 12.2648 37.1726 12.2593 35.8372C12.2593 33.0644 14.7946 30.8187 17.9232 30.8187C21.0518 30.8187 23.5871 33.0644 23.5871 35.8372Z" fill="#F1A533"/>
</svg>
