<svg width="66" height="42" viewBox="0 0 66 42" fill="none" xmlns="http://www.w3.org/2000/svg">
<path d="M0.333374 33.2498C0.333374 31.0839 1.19379 29.0067 2.72534 27.4751C4.25688 25.9436 6.33411 25.0832 8.50004 25.0832C10.666 25.0832 12.7432 25.9436 14.2747 27.4751C15.8063 29.0067 16.6667 31.0839 16.6667 33.2498C16.6667 35.4158 15.8063 37.493 14.2747 39.0245C12.7432 40.5561 10.666 41.4165 8.50004 41.4165C6.33411 41.4165 4.25688 40.5561 2.72534 39.0245C1.19379 37.493 0.333374 35.4158 0.333374 33.2498ZM33 25.0832C30.8341 25.0832 28.7569 25.9436 27.2253 27.4751C25.6938 29.0067 24.8334 31.0839 24.8334 33.2498C24.8334 35.4158 25.6938 37.493 27.2253 39.0245C28.7569 40.5561 30.8341 41.4165 33 41.4165C35.166 41.4165 37.2432 40.5561 38.7747 39.0245C40.3063 37.493 41.1667 35.4158 41.1667 33.2498C41.1667 31.0839 40.3063 29.0067 38.7747 27.4751C37.2432 25.9436 35.166 25.0832 33 25.0832ZM57.5 25.0832C55.3341 25.0832 53.2569 25.9436 51.7253 27.4751C50.1938 29.0067 49.3334 31.0839 49.3334 33.2498C49.3334 35.4158 50.1938 37.493 51.7253 39.0245C53.2569 40.5561 55.3341 41.4165 57.5 41.4165C59.666 41.4165 61.7432 40.5561 63.2747 39.0245C64.8063 37.493 65.6667 35.4158 65.6667 33.2498C65.6667 31.0839 64.8063 29.0067 63.2747 27.4751C61.7432 25.9436 59.666 25.0832 57.5 25.0832ZM33 0.583176C30.8341 0.583176 28.7569 1.44359 27.2253 2.97514C25.6938 4.50668 24.8334 6.5839 24.8334 8.74984C24.8334 10.9158 25.6938 12.993 27.2253 14.5245C28.7569 16.0561 30.8341 16.9165 33 16.9165C35.166 16.9165 37.2432 16.0561 38.7747 14.5245C40.3063 12.993 41.1667 10.9158 41.1667 8.74984C41.1667 6.5839 40.3063 4.50668 38.7747 2.97514C37.2432 1.44359 35.166 0.583176 33 0.583176ZM49.3334 8.74984C49.3334 6.5839 50.1938 4.50668 51.7253 2.97514C53.2569 1.44359 55.3341 0.583176 57.5 0.583176C59.666 0.583176 61.7432 1.44359 63.2747 2.97514C64.8063 4.50668 65.6667 6.5839 65.6667 8.74984C65.6667 10.9158 64.8063 12.993 63.2747 14.5245C61.7432 16.0561 59.666 16.9165 57.5 16.9165C55.3341 16.9165 53.2569 16.0561 51.7253 14.5245C50.1938 12.993 49.3334 10.9158 49.3334 8.74984ZM8.50004 0.583176C6.33411 0.583176 4.25688 1.44359 2.72534 2.97514C1.19379 4.50668 0.333374 6.5839 0.333374 8.74984C0.333374 10.9158 1.19379 12.993 2.72534 14.5245C4.25688 16.0561 6.33411 16.9165 8.50004 16.9165C10.666 16.9165 12.7432 16.0561 14.2747 14.5245C15.8063 12.993 16.6667 10.9158 16.6667 8.74984C16.6667 6.5839 15.8063 4.50668 14.2747 2.97514C12.7432 1.44359 10.666 0.583176 8.50004 0.583176Z" fill="#F1A533"/>
</svg>
