<svg width="80" height="77" viewBox="0 0 80 77" fill="none" xmlns="http://www.w3.org/2000/svg">
<path d="M75.3492 68.2073H62.4919C69.5306 62.5169 74.3311 54.5212 76.0447 45.6336C77.7584 36.746 76.2749 27.5387 71.8564 19.6391C67.438 11.7395 60.3691 5.6563 51.8992 2.46462C43.4293 -0.72707 34.1038 -0.821692 25.5709 2.19747C17.0379 5.21664 9.84708 11.1552 5.26926 18.9635C0.691435 26.7718 -0.978583 35.9471 0.554372 44.8676C2.08733 53.7882 6.72455 61.8796 13.6464 67.7117C20.5683 73.5439 29.3291 76.7412 38.3804 76.7386H75.3492C76.4805 76.7386 77.5655 76.2892 78.3654 75.4892C79.1654 74.6893 79.6148 73.6043 79.6148 72.473C79.6148 71.3417 79.1654 70.2567 78.3654 69.4567C77.5655 68.6568 76.4805 68.2073 75.3492 68.2073ZM38.3804 8.48859C42.6632 8.48486 46.8958 9.41021 50.7863 11.2008C48.4899 12.3431 46.2505 13.5884 44.0679 14.9368C40.4231 12.6725 36.604 10.7017 32.6467 9.04312C34.5358 8.67502 36.4558 8.48932 38.3804 8.48859ZM21.0797 14.0339C26.4214 15.5313 31.571 17.6439 36.4253 20.3293C34.8305 21.5971 33.2901 22.9242 31.8042 24.3105C26.796 21.7451 21.48 19.8314 15.9859 18.6159C17.5046 16.9004 19.2136 15.3632 21.0797 14.0339ZM11.0484 26.3438C16.0508 27.1705 20.9216 28.6562 25.5338 30.7623C24.2446 32.2434 23.0076 33.7719 21.8227 35.3478C17.7969 33.6477 13.5725 32.4629 9.24975 31.8216C9.66903 29.9413 10.2715 28.1066 11.0484 26.3438ZM12.0295 52.3748C10.0438 48.6556 8.87324 44.5561 8.59568 40.3493C11.4584 40.8217 14.2664 41.5803 16.9776 42.6136C15.1112 45.7526 13.4581 49.0137 12.0295 52.3748ZM18.1187 60.2697C21.4923 50.5528 26.8812 41.6585 33.9321 34.1695C40.9831 26.6806 49.5369 20.7661 59.0331 16.8137C60.4847 18.2042 61.7945 19.7355 62.9433 21.385C53.4916 24.9789 44.9795 30.6723 38.049 38.0357C31.1186 45.3991 25.9507 54.2401 22.9353 63.8919C21.2117 62.8501 19.598 61.6365 18.1187 60.2697ZM36.4858 68.1434C34.5651 68.0252 32.6605 67.7216 30.7983 67.2369C33.3867 58.5084 37.9851 50.5082 44.2244 43.8782C50.4637 37.2481 58.1702 32.1728 66.7255 29.0596C67.3233 30.8844 67.7423 32.763 67.9767 34.6689C60.5499 37.5213 53.8624 42.0127 48.4125 47.8085C42.9625 53.6044 38.8906 60.5553 36.5 68.1434H36.4858ZM45.8701 67.2511C50.0226 57.1032 57.7866 48.8529 67.6639 44.0923C66.5734 49.6077 63.9524 54.7047 60.1008 58.8002C56.2491 62.8958 51.3225 65.8244 45.8844 67.2511H45.8701Z" fill="#F1A533"/>
</svg>
