<svg width="55" height="68" viewBox="0 0 55 68" fill="none" xmlns="http://www.w3.org/2000/svg">
<path d="M19.5731 20.4L16.1356 40.8H6.875V61.2H48.125V40.8H38.8644L35.4269 20.4H19.5731ZM20.625 3.4V13.6H34.375V3.4C34.375 2.49826 34.7372 1.63346 35.3818 0.995837C36.0265 0.358213 36.9008 0 37.8125 0C38.7242 0 39.5985 0.358213 40.2432 0.995837C40.8878 1.63346 41.25 2.49826 41.25 3.4V13.6L44.6875 34H48.125C49.9484 34 51.697 34.7164 52.9864 35.9917C54.2757 37.2669 55 38.9965 55 40.8V61.2C55 63.0035 54.2757 64.7331 52.9864 66.0083C51.697 67.2836 49.9484 68 48.125 68H6.875C5.05164 68 3.30295 67.2836 2.01364 66.0083C0.724328 64.7331 0 63.0035 0 61.2V40.8C0 38.9965 0.724328 37.2669 2.01364 35.9917C3.30295 34.7164 5.05164 34 6.875 34H10.3125L13.75 13.6V3.4C13.75 2.49826 14.1122 1.63346 14.7568 0.995837C15.4015 0.358213 16.2758 0 17.1875 0C18.0992 0 18.9735 0.358213 19.6182 0.995837C20.2628 1.63346 20.625 2.49826 20.625 3.4ZM13.75 47.6H41.25V54.4H13.75V47.6Z" fill="#5A6EDD"/>
</svg>
