<svg width="83" height="83" viewBox="0 0 83 83" fill="none" xmlns="http://www.w3.org/2000/svg">
<path fill-rule="evenodd" clip-rule="evenodd" d="M31.1257 6.91675C29.2912 6.91675 27.532 7.64547 26.2348 8.94259C24.9377 10.2397 24.209 11.999 24.209 13.8334V17.2917C24.209 18.599 24.5721 19.8232 25.205 20.8677L19.3673 25.2459C17.6493 26.5345 16.2548 28.2053 15.2944 30.1261C14.334 32.047 13.834 34.165 13.834 36.3126V62.2501C13.834 65.9189 15.2914 69.4375 17.8857 72.0317C20.4799 74.626 23.9985 76.0834 27.6673 76.0834H55.334C59.0028 76.0834 62.5214 74.626 65.1156 72.0317C67.7099 69.4375 69.1673 65.9189 69.1673 62.2501V36.3126C69.1673 34.165 68.6673 32.047 67.7069 30.1261C66.7465 28.2053 65.352 26.5345 63.634 25.2459L57.7963 20.8677C58.4479 19.7887 58.7923 18.5522 58.7923 17.2917V13.8334C58.7923 11.999 58.0636 10.2397 56.7665 8.94259C55.4693 7.64547 53.7101 6.91675 51.8756 6.91675H31.1257ZM51.8756 17.2917V13.8334H31.1257V17.2917H51.8756ZM62.2506 44.9584H20.7507V38.0417H62.2506V44.9584ZM20.7507 51.8751H62.2506V58.7918H20.7507V51.8751Z" fill="#5A6EDD"/>
</svg>
