<svg width="78" height="75" viewBox="0 0 78 75" fill="none" xmlns="http://www.w3.org/2000/svg">
<path fill-rule="evenodd" clip-rule="evenodd" d="M26.7936 4.99437C29.1654 2.64203 32.1788 1.02919 35.4628 0.354449C38.7469 -0.320292 42.1581 -0.0274751 45.2765 1.19684C48.3949 2.42116 51.0843 4.52353 53.0136 7.24507C54.9429 9.96661 56.0278 13.1885 56.1347 16.514C60.3976 15.295 64.9709 15.7635 68.8927 17.821C72.8146 19.8785 75.7794 23.3647 77.1637 27.5463C78.5311 31.7149 78.2125 36.2531 76.2753 40.1931C74.338 44.1331 70.9335 47.1723 66.7804 48.6693C69.2435 52.3037 70.1823 56.7472 69.3975 61.0569C68.6127 65.3666 66.1661 69.2034 62.5768 71.7529C58.981 74.3293 54.523 75.4324 50.1288 74.8332C45.7345 74.234 41.7418 71.9785 38.98 68.5352C37.2601 70.6819 35.0454 72.3871 32.5225 73.5072C29.9995 74.6273 27.2422 75.1295 24.4827 74.9716C21.7232 74.8136 19.0424 74.0001 16.6661 72.5995C14.2898 71.1989 12.2875 69.2522 10.8279 66.9235C9.11067 64.1723 8.229 60.9885 8.2884 57.753C8.34781 54.5176 9.34577 51.3677 11.1628 48.6804C7.01814 47.1593 3.62832 44.1048 1.70459 40.1577C-0.219151 36.2107 -0.527296 31.6778 0.844801 27.5102C2.2169 23.3427 5.1626 19.8642 9.06387 17.8048C12.9651 15.7453 17.5188 15.2648 21.7694 16.4642C21.9215 12.1497 23.7169 8.0529 26.7936 4.99991V4.99437ZM51.2613 39.0438C51.2613 45.7451 45.7515 51.1726 38.9521 51.1726C35.6988 51.1829 32.5745 49.911 30.2663 47.6366C27.958 45.3621 26.6547 42.2713 26.6429 39.0438C26.6429 32.3424 32.1527 26.9149 38.9521 26.9149C45.7515 26.9149 51.2613 32.3424 51.2613 39.0438Z" fill="#5A6EDD"/>
</svg>
