<svg width="37" height="77" viewBox="0 0 37 77" fill="none" xmlns="http://www.w3.org/2000/svg">
<path d="M29.375 31.2004H7.625V25.375C7.625 24.4136 8.00692 23.4916 8.68674 22.8117C9.36656 22.1319 10.2886 21.75 11.25 21.75H14.875V3.625C14.875 2.66359 15.2569 1.74156 15.9367 1.06174C16.6166 0.381919 17.5386 0 18.5 0C19.4614 0 20.3834 0.381919 21.0633 1.06174C21.7431 1.74156 22.125 2.66359 22.125 3.625V21.75H25.75C26.7114 21.75 27.6334 22.1319 28.3133 22.8117C28.9931 23.4916 29.375 24.4136 29.375 25.375V31.2004ZM32.3076 34.8254C33.6499 35.8382 34.7385 37.149 35.4877 38.6543C36.237 40.1597 36.6263 41.8185 36.625 43.5V68.875C36.625 70.7978 35.8612 72.6419 34.5015 74.0015C33.1419 75.3612 31.2978 76.125 29.375 76.125H7.625C5.70218 76.125 3.85811 75.3612 2.49848 74.0015C1.13884 72.6419 0.375 70.7978 0.375 68.875V43.5C0.375 39.9584 2.06788 36.8119 4.69238 34.8254H32.3076Z" fill="#5A6EDD"/>
</svg>
