<svg width="90" height="90" viewBox="0 0 90 90" fill="none" xmlns="http://www.w3.org/2000/svg">
<path fill-rule="evenodd" clip-rule="evenodd" d="M64.1606 11.2731C64.7207 11.3348 65.2597 11.5219 65.7375 11.8206C66.2154 12.1192 66.6198 12.5217 66.9206 12.9981C78.9206 31.9994 77.1094 52.1706 67.0856 64.8756C62.0794 71.2169 55.0481 75.6419 46.8469 76.9506C39.6919 78.0869 31.8731 76.8156 23.9944 72.6906C23.2706 74.9744 22.7569 77.1906 22.4606 79.2794C22.3165 80.2606 21.7896 81.1447 20.9952 81.7384C20.2007 82.332 19.2035 82.5868 18.2217 82.447C17.2399 82.3071 16.3534 81.7841 15.7563 80.9922C15.1592 80.2004 14.9001 79.2043 15.0356 78.2219C15.5566 74.7421 16.4388 71.3261 17.6681 68.0294C11.9044 61.6919 10.3294 53.6744 11.0306 46.5119C11.8031 38.6106 15.4069 31.0319 20.0981 27.1206C26.3681 21.8969 32.9531 19.7519 38.6681 18.7019C41.1657 18.2696 43.6805 17.9431 46.2056 17.7231C48.0019 17.5431 49.8356 17.4231 51.5906 16.9881C54.1883 16.36 56.6711 15.3274 58.9481 13.9281C60.6056 12.8931 62.0194 11.0331 64.1606 11.2731ZM26.8106 65.6931C30.9806 57.1919 37.7981 49.0431 46.6744 44.6031C47.1188 44.3853 47.5157 44.0817 47.8423 43.7098C48.1688 43.3379 48.4185 42.905 48.5769 42.4362C48.7354 41.9673 48.7994 41.4717 48.7654 40.978C48.7314 40.4842 48.6 40.0021 48.3788 39.5594C48.1575 39.1166 47.8508 38.7221 47.4764 38.3985C47.102 38.0749 46.6672 37.8285 46.1971 37.6738C45.727 37.519 45.2309 37.4588 44.7374 37.4967C44.244 37.5345 43.7629 37.6697 43.3219 37.8944C33.5419 42.7844 26.0494 51.2406 21.1781 60.2594C22.1464 61.837 23.3474 63.2593 24.7406 64.4781C25.4356 64.9106 26.1231 65.3156 26.8106 65.6931Z" fill="#5A6EDD"/>
</svg>
