<svg width="95" height="62" viewBox="0 0 95 62" fill="none" xmlns="http://www.w3.org/2000/svg">
<path d="M35.7902 35.6657L26.4219 26.332M89.9202 35.6657H37.87C36.727 35.6657 35.7902 36.8277 35.7902 38.2605C35.7902 49.7129 43.2474 59 52.447 59H75.3432C84.5428 59 92 49.7129 92 38.2605C92 36.8277 91.0679 35.6657 89.9202 35.6657ZM4.72493 4.71507C7.02016 2.42831 10.7487 2.42831 13.0487 4.71507L24.6981 16.3216C25.2447 16.8661 25.6782 17.5125 25.974 18.224C26.2698 18.9354 26.422 19.698 26.422 20.4681C26.422 21.2381 26.2698 22.0007 25.974 22.7121C25.6782 23.4236 25.2447 24.07 24.6981 24.6146C24.1516 25.1591 23.5028 25.591 22.7887 25.8857C22.0746 26.1804 21.3092 26.3321 20.5363 26.3321C19.7633 26.3321 18.998 26.1804 18.2839 25.8857C17.5698 25.591 16.921 25.1591 16.3744 24.6146L4.72493 13.0081C4.17809 12.4637 3.74429 11.8173 3.44831 11.1058C3.15234 10.3944 3 9.63175 3 8.86158C3 8.09141 3.15234 7.32879 3.44831 6.61731C3.74429 5.90583 4.17809 5.25943 4.72493 4.71507Z" stroke="#5A6EDD" stroke-width="6" stroke-linecap="round" stroke-linejoin="round"/>
</svg>
