<svg width="55" height="68" viewBox="0 0 55 68" fill="none" xmlns="http://www.w3.org/2000/svg">
<path d="M27.5 37.875V37.9138M19.75 49.5V49.5388M35.25 49.5V49.5388M10.0625 18.5H44.9375L43.8486 9.789C43.6144 7.9143 42.7033 6.18973 41.2869 4.93953C39.8704 3.68932 38.046 2.99959 36.1568 3H18.8432C16.9533 2.99865 15.128 3.68795 13.7107 4.93824C12.2934 6.18854 11.3819 7.91363 11.1475 9.789L10.0625 18.5Z" stroke="#5A6EDD" stroke-width="6" stroke-linecap="round" stroke-linejoin="round"/>
<path d="M10.063 18.5L3.81652 55.9751C3.63134 57.0855 3.69027 58.2229 3.98922 59.3081C4.28817 60.3934 4.81995 61.4005 5.54758 62.2595C6.27522 63.1184 7.18123 63.8085 8.2026 64.2818C9.22398 64.755 10.3362 65.0001 11.4619 65H43.5391C44.6648 65.0001 45.7771 64.755 46.7984 64.2818C47.8198 63.8085 48.7258 63.1184 49.4534 62.2595C50.1811 61.4005 50.7129 60.3934 51.0118 59.3081C51.3108 58.2229 51.3697 57.0855 51.1845 55.9751L44.938 18.5" stroke="#5A6EDD" stroke-width="6" stroke-linecap="round" stroke-linejoin="round"/>
</svg>
