<svg width="76" height="76" viewBox="0 0 76 76" fill="none" xmlns="http://www.w3.org/2000/svg">
<path d="M55.4584 4.3316L58.1184 6.25655C62.5772 9.49372 66.4985 13.4126 69.7385 17.8693L71.667 20.5257C73.6865 23.3012 73.382 27.1336 70.953 29.559L55.0979 45.4032C54.2794 46.2192 53.2715 46.8198 52.1642 47.1515C51.0569 47.4831 49.8848 47.5354 48.7524 47.3036L41.6194 45.8407C40.487 45.6089 39.3149 45.6612 38.2076 45.9928C37.1003 46.3245 36.0924 46.9251 35.2739 47.7411L12.2683 70.7251C10.8963 72.1601 7.81277 74.687 4.48076 71.3551C1.45675 68.3382 3.77026 65.0412 5.20526 63.6693L28.2143 40.6888C29.0293 39.8709 29.6293 38.8642 29.9609 37.7584C30.2925 36.6525 30.3454 35.4817 30.1148 34.3504L28.6553 27.2211C28.4259 26.09 28.4796 24.9198 28.8118 23.8146C29.144 22.7093 29.7443 21.7034 30.5593 20.8862L46.4179 5.04208C47.5952 3.86871 49.1516 3.15254 50.8086 3.02172C52.4656 2.89091 54.1151 3.35399 55.4619 4.32809M49.2704 33.4019L56.8129 25.8631M42.8129 26.9446L50.3519 19.4058" stroke="#5A6EDD" stroke-width="6" stroke-linecap="round" stroke-linejoin="round"/>
</svg>
