<svg width="93" height="93" viewBox="0 0 93 93" fill="none" xmlns="http://www.w3.org/2000/svg">
<g filter="url(#filter0_d_2019_1322)">
<path d="M70.493 24.6525C71.5134 23.5657 72.9124 22.9125 74.4008 22.8279C75.8892 22.7434 77.3531 23.234 78.4901 24.1983C79.627 25.1625 80.3499 26.5268 80.5095 28.009C80.6691 29.4912 80.253 30.9781 79.3474 32.1622L78.9598 32.6156L32.6071 81.9172C31.5867 83.004 30.1877 83.6572 28.6993 83.7417C27.2109 83.8263 25.7469 83.3357 24.61 82.3714C23.4731 81.4072 22.7501 80.0429 22.5906 78.5607C22.431 77.0785 22.8471 75.5916 23.7527 74.4075L24.1402 73.9541L70.493 24.6525ZM46.1967 12.1672C46.9454 10.8787 48.1603 9.92703 49.5906 9.50867C51.0209 9.09031 52.5572 9.23726 53.8822 9.91917C55.2072 10.6011 56.2197 11.7658 56.7106 13.1729C57.2014 14.5799 57.1331 16.1217 56.5197 17.4798L56.264 17.9797L23.3265 75.0275C22.5778 76.3159 21.3629 77.2677 19.9326 77.686C18.5023 78.1044 16.966 77.9574 15.641 77.2755C14.316 76.5936 13.3035 75.4288 12.8126 74.0218C12.3218 72.6148 12.3901 71.0729 13.0035 69.7148L13.2592 69.215L46.1967 12.1672Z" fill="#5A6EDD"/>
</g>
<defs>
<filter id="filter0_d_2019_1322" x="8.48828" y="9.2749" width="76.0547" height="82.4761" filterUnits="userSpaceOnUse" color-interpolation-filters="sRGB">
<feFlood flood-opacity="0" result="BackgroundImageFix"/>
<feColorMatrix in="SourceAlpha" type="matrix" values="0 0 0 0 0 0 0 0 0 0 0 0 0 0 0 0 0 0 127 0" result="hardAlpha"/>
<feOffset dy="4"/>
<feGaussianBlur stdDeviation="2"/>
<feComposite in2="hardAlpha" operator="out"/>
<feColorMatrix type="matrix" values="0 0 0 0 0 0 0 0 0 0 0 0 0 0 0 0 0 0 0.25 0"/>
<feBlend mode="normal" in2="BackgroundImageFix" result="effect1_dropShadow_2019_1322"/>
<feBlend mode="normal" in="SourceGraphic" in2="effect1_dropShadow_2019_1322" result="shape"/>
</filter>
</defs>
</svg>
