<svg width="52" height="64" viewBox="0 0 52 64" fill="none" xmlns="http://www.w3.org/2000/svg">
<path d="M6.99935 63.3333C5.25768 63.3333 3.76724 62.7137 2.52802 61.4745C1.28879 60.2353 0.668127 58.7438 0.666016 57V6.33333C0.666016 4.59167 1.28668 3.10122 2.52802 1.862C3.76935 0.622778 5.25979 0.00211111 6.99935 0H44.9993C46.741 0 48.2325 0.620667 49.4738 1.862C50.7152 3.10333 51.3348 4.59378 51.3327 6.33333V57C51.3327 58.7417 50.7131 60.2332 49.4738 61.4745C48.2346 62.7158 46.7431 63.3354 44.9993 63.3333H6.99935ZM22.8327 28.5L30.7493 23.75L38.666 28.5V6.33333H22.8327V28.5Z" fill="#5A6EDD"/>
</svg>
