<svg width="56" height="87" viewBox="0 0 56 87" fill="none" xmlns="http://www.w3.org/2000/svg">
<path d="M0.355709 18.4672C0.165706 16.694 1.55529 15.1476 3.33863 15.1476H52.5801C54.3921 15.1476 55.7906 16.7417 55.5545 18.5384L49.4975 64.6418C49.4507 64.998 49.3403 65.3428 49.1717 65.6599L38.7977 85.163C38.2768 86.1422 37.2582 86.7541 36.1491 86.7541H21.7746C20.7868 86.7541 19.8624 86.2679 19.3027 85.454L5.79128 65.8058C5.50899 65.3953 5.33337 64.921 5.28029 64.4256L0.355709 18.4672Z" fill="#5A6EDD"/>
<rect x="13.166" y="25.705" width="30.2951" height="18.3607" rx="4" fill="white"/>
<path d="M4.6935 14.2544C3.91218 16.2239 5.36331 18.3607 7.48208 18.3607H19.0146C21.0863 18.3607 22.5344 16.3108 21.8422 14.3583L17.46 1.99761C17.0355 0.800238 15.9028 6.29425e-05 14.6324 6.29425e-05H12.3858C11.156 6.29425e-05 10.0507 0.750639 9.59724 1.89378L4.6935 14.2544Z" fill="#5A6EDD"/>
<path d="M33.1525 14.2544C32.3712 16.2239 33.8223 18.3607 35.9411 18.3607H47.4736C49.5453 18.3607 50.9934 16.3108 50.3012 14.3583L45.919 1.99761C45.4945 0.800238 44.3618 6.29425e-05 43.0914 6.29425e-05H40.8448C39.615 6.29425e-05 38.5097 0.750639 38.0562 1.89378L33.1525 14.2544Z" fill="#5A6EDD"/>
</svg>
