<svg width="78" height="77" viewBox="0 0 78 77" fill="none" xmlns="http://www.w3.org/2000/svg">
<path d="M74.6667 23.1552C74.6667 21.0052 73.2333 18.8552 71.8 17.7802L49.225 3.8052C48.2966 3.27747 47.2471 3 46.1792 3C45.1113 3 44.0617 3.27747 43.1333 3.8052L6.225 25.3052C4.43333 26.0219 3 28.1719 3 30.3219V53.9719C3 55.7635 4.43333 58.2719 5.86667 59.3469L28.4417 73.3219C29.37 73.8496 30.4196 74.1271 31.4875 74.1271C32.5554 74.1271 33.605 73.8496 34.5333 73.3219L71.4417 51.8219C73.2333 50.7469 74.6667 48.2385 74.6667 46.4469V23.1552Z" stroke="#5A6EDD" stroke-width="5" stroke-linecap="round" stroke-linejoin="round"/>
<path d="M31.6658 74.0385V45.7301M31.6658 45.7301L3.35742 28.1718M31.6658 45.7301L74.3074 21.0051M45.9991 66.5135V37.4885M60.3324 58.2718V29.2468" stroke="#5A6EDD" stroke-width="5" stroke-linecap="round" stroke-linejoin="round"/>
</svg>
