<svg width="65" height="62" viewBox="0 0 65 62" fill="none" xmlns="http://www.w3.org/2000/svg">
<path d="M21.125 9.78947C19.8321 9.78947 18.5921 10.3052 17.6779 11.2231C16.7636 12.141 16.25 13.386 16.25 14.6842C16.25 15.9824 16.7636 17.2274 17.6779 18.1453C18.5921 19.0633 19.8321 19.5789 21.125 19.5789C22.4179 19.5789 23.6579 19.0633 24.5721 18.1453C25.4864 17.2274 26 15.9824 26 14.6842C26 13.386 25.4864 12.141 24.5721 11.2231C23.6579 10.3052 22.4179 9.78947 21.125 9.78947ZM26 0C30.3098 0 34.443 1.71898 37.4905 4.77878C40.538 7.83859 42.25 11.9886 42.25 16.3158C42.25 21.8632 39.4875 26.7579 35.295 29.6947C40.43 30.1842 46.215 31.3589 52 34.2632C61.75 39.1579 65 32.6316 65 32.6316C65 32.6316 61.75 62 42.25 62H22.75C22.75 62 6.5 62 6.5 45.6842C6.5 35.8947 16.25 32.6316 13 26.1053C0 26.1053 0 14.6842 0 14.6842C3.25 16.3158 7.28 16.3158 9.75 15.1737C10.0533 11.053 11.8964 7.19957 14.9099 4.38566C17.9234 1.57175 21.8847 0.0052236 26 0Z" fill="#5A6EDD"/>
</svg>
