<svg width="63" height="63" viewBox="0 0 63 63" fill="none" xmlns="http://www.w3.org/2000/svg">
<path fill-rule="evenodd" clip-rule="evenodd" d="M63 13.4802C63.0003 16.4746 62.0058 19.3843 60.1729 21.7517C58.34 24.1191 55.7727 25.8101 52.8745 26.5587V33.7395C52.8737 34.6347 52.5176 35.493 51.8845 36.1256L49.6344 38.3766C49.0015 39.0089 48.1437 39.3641 47.2493 39.3641C46.3548 39.3641 45.497 39.0089 44.8641 38.3766L41.624 35.1351L20.5765 56.1958C19.0996 57.672 17.0974 58.501 15.0097 58.5009H11.9856C11.8378 58.5006 11.6913 58.5295 11.5546 58.5859C11.418 58.6423 11.2937 58.7251 11.1891 58.8295L8.00741 62.0125C7.37456 62.6448 6.51672 63 5.6223 63C4.72788 63 3.87003 62.6448 3.23718 62.0125L0.987077 59.7615C0.35502 59.1284 0 58.2702 0 57.3754C0 56.4806 0.35502 55.6224 0.987077 54.9893L4.16873 51.8063C4.27314 51.7016 4.35589 51.5773 4.41226 51.4406C4.46863 51.3039 4.49751 51.1574 4.49724 51.0094V47.9841C4.49724 45.8951 5.32528 43.8917 6.80585 42.415L27.8488 21.3588L24.6087 18.1173C23.9766 17.4842 23.6216 16.626 23.6216 15.7312C23.6216 14.8364 23.9766 13.9782 24.6087 13.3451L26.8588 11.0941C27.1724 10.7799 27.545 10.5307 27.955 10.3607C28.365 10.1908 28.8046 10.1034 29.2484 10.1036H36.4263C37.2539 6.92655 39.2095 4.15968 41.9278 2.32008C44.646 0.480483 47.9409 -0.305967 51.1965 0.107708C54.4522 0.521382 57.4459 2.10687 59.6181 4.56788C61.7904 7.02889 62.9926 10.197 63 13.4802ZM36.8538 30.3629L32.6236 26.131L11.5761 47.1917C11.3663 47.4021 11.2482 47.6869 11.2476 47.9841V51.0094C11.2476 51.2706 11.2341 51.5302 11.2071 51.7883C11.4659 51.7636 11.7256 51.75 11.9856 51.7478H15.0097C15.1576 51.7481 15.304 51.7192 15.4407 51.6628C15.5774 51.6064 15.7016 51.5236 15.8063 51.4191L36.8538 30.3629Z" fill="#5A6EDD"/>
</svg>
