<svg width="78" height="68" viewBox="0 0 78 68" fill="none" xmlns="http://www.w3.org/2000/svg">
<path d="M49.7122 7.51451C49.8829 7.02703 49.8979 6.49856 49.755 6.00221C49.6121 5.50586 49.3184 5.06617 48.9145 4.74397L48.0272 4.10116C44.9133 2.04228 41.3764 0.708889 37.6778 0.199473C30.9827 -0.6875 22.4529 1.14126 14.1575 10.6289H8.90309C8.57519 10.629 8.25052 10.6937 7.94769 10.8194C7.64486 10.9451 7.36982 11.1293 7.13832 11.3614L0.727315 17.7745C0.261545 18.2415 0 18.8741 0 19.5335C0 20.1929 0.261545 20.8255 0.727315 21.2925L13.5443 34.1436C13.7759 34.3757 14.0509 34.5597 14.3538 34.6853C14.6566 34.811 14.9812 34.8756 15.3091 34.8756C15.637 34.8756 15.9616 34.811 16.2644 34.6853C16.5673 34.5597 16.8423 34.3757 17.0739 34.1436L23.4849 27.7156C23.9508 27.2486 24.2126 26.6161 24.2127 25.9566V22.7724L66.0238 66.9866C66.2367 67.2753 66.5095 67.5147 66.8234 67.6884C67.1374 67.8621 67.4852 67.966 67.8431 67.9929C68.2009 68.0199 68.5603 67.9693 68.8968 67.8447C69.2333 67.72 69.5389 67.5242 69.7927 67.2706L77.2705 59.7961C77.7226 59.3439 77.9835 58.7354 77.9992 58.0964C78.015 57.4573 77.7845 56.8367 77.3553 56.3628L31.8451 13.3596C35.5691 11.0873 40.6789 9.17883 47.3591 9.17883C47.8755 9.1792 48.3792 9.01927 48.8008 8.72113C49.2223 8.423 49.5407 8.00137 49.7122 7.51451Z" fill="#5A6EDD"/>
</svg>
