<svg width="110" height="58" viewBox="0 0 110 58" fill="none" xmlns="http://www.w3.org/2000/svg">
<path d="M0 25.4223H23.1581V0H0M5.78954 6.35557H17.3686V19.0667H5.78954M28.9477 57.2002H52.1058V31.7779H28.9477M34.7372 38.1334H46.3163V50.8446H34.7372M0 57.2002H23.1581V31.7779H0M5.78954 38.1334H17.3686V50.8446H5.78954M28.9477 0V25.4223H52.1058V0M46.3163 19.0667H34.7372V6.35557H46.3163V19.0667Z" fill="#5A6EDD"/>
<path d="M57.8945 25.4223H81.0527V0H57.8945M63.6841 6.35557H75.2631V19.0667H63.6841M86.8422 57.2002H110V31.7779H86.8422M92.6317 38.1334H104.211V50.8446H92.6317M57.8945 57.2002H81.0527V31.7779H57.8945M63.6841 38.1334H75.2631V50.8446H63.6841M86.8422 0V25.4223H110V0M104.211 19.0667H92.6317V6.35557H104.211V19.0667Z" fill="#5A6EDD"/>
</svg>
