<svg width="1920" height="2546" viewBox="0 0 1920 2546" fill="none" xmlns="http://www.w3.org/2000/svg">
<path d="M0 740H1920V2468C1920 2511.08 1885.08 2546 1842 2546H78C34.9217 2546 0 2511.08 0 2468V740Z" fill="#C5FFD9"/>
<path d="M2048.58 750.697C2057.61 839.988 1157.92 1084.47 934.276 1107.08C710.636 1129.69 866.548 839.783 857.521 750.492C848.495 661.201 1089.71 589.321 1313.35 566.713C1536.99 544.105 2039.55 661.406 2048.58 750.697Z" fill="#ADEFC4"/>
<path d="M1983.15 983.189C1959.72 1069.82 972.116 961.699 789.639 912.354C607.162 863.009 1029.06 693.848 1052.49 607.213C1075.92 520.578 1374.66 536.009 1557.14 585.354C1739.62 634.699 2006.58 896.554 1983.15 983.189Z" fill="#C5FFD9"/>
<path d="M1207.49 636.089C1193.62 724.756 261.339 733.496 39.2616 698.748C-182.816 664 41.4125 423.012 55.2862 334.345C69.1599 245.677 320.713 237.209 542.791 271.957C764.869 306.705 1221.36 547.421 1207.49 636.089Z" fill="#ADEFC4"/>
<path d="M154 29L408.611 416.75H-100.611L154 29Z" fill="#949EFF"/>
<path d="M1120 587C1120 676.746 200.281 829.5 -24.4986 829.5C-249.278 829.5 -64.9989 556.746 -64.9989 467C-64.9989 377.254 182.221 330 407.001 330C631.781 330 1120 497.254 1120 587Z" fill="#C5FFD9"/>
<path d="M343.284 469.909C357.928 499.297 0.351449 792.752 0.351459 719.752C0.3528 632.752 0.352898 605.252 0.35216 566.252C0.354909 534.252 70.8411 514.129 138.341 495.252C197.341 478.752 328.639 440.52 343.284 469.909Z" fill="#ADEFC4"/>
<path d="M1120 633.349C1120 705.757 630.158 829 510.44 829C390.722 829 488.869 608.94 488.869 536.533C488.869 464.125 620.539 426 740.257 426C859.974 426 1120 560.941 1120 633.349Z" fill="#AFF5FF"/>
<path d="M153.797 28.3224L140.923 52.1559L115.887 229.529L118.119 355.559L122.999 356L153.797 28.3224Z" fill="#7580DE"/>
<circle cx="747" cy="50" r="50" fill="#F9C8A5"/>
<path d="M501 164L544.301 239H457.699L501 164Z" fill="#ADEFC4"/>
<path d="M625 191L668.301 266H581.699L625 191Z" fill="#ADEFC4"/>
<path d="M678 204L721.301 279H634.699L678 204Z" fill="#ADEFC4"/>
<path d="M785 239L828.301 314H741.699L785 239Z" fill="#ADEFC4"/>
<path d="M1818 532L1861.3 607H1774.7L1818 532Z" fill="#ADEFC4"/>
<path d="M1718 502L1761.3 577H1674.7L1718 502Z" fill="#ADEFC4"/>
<path d="M501 199L544.301 274H457.699L501 199Z" fill="#ADEFC4"/>
<path d="M625 226L668.301 301H581.699L625 226Z" fill="#ADEFC4"/>
<path d="M678 239L721.301 314H634.699L678 239Z" fill="#ADEFC4"/>
<path d="M785 274L828.301 349H741.699L785 274Z" fill="#ADEFC4"/>
<path d="M1818 567L1861.3 642H1774.7L1818 567Z" fill="#ADEFC4"/>
<path d="M1718 537L1761.3 612H1674.7L1718 537Z" fill="#ADEFC4"/>
<rect x="775" y="339" width="21" height="60" fill="#ADEFC4"/>
</svg>
