<svg width="292" height="525" viewBox="0 0 292 525" fill="none" xmlns="http://www.w3.org/2000/svg">
<rect x="78" y="107.058" width="105" height="100" fill="#613B2A"/>
<rect x="92" y="107.058" width="77" height="100" fill="#512D1E"/>
<circle cx="184.956" cy="129.952" r="9.47138" fill="#FFD1A6"/>
<ellipse cx="183.372" cy="129.717" rx="8.0266" ry="7.86607" fill="#FFD1A6"/>
<circle cx="81.5729" cy="129.952" r="9.47138" fill="#FFD1A6"/>
<path d="M61.2712 227.058C17.2302 247.219 -39.0814 294.444 88 322.058" stroke="#FFD1A6" stroke-width="20" stroke-linecap="round"/>
<path d="M245.028 151.947C275.323 191.049 303.93 259.952 176 222.739" stroke="#FFD1A6" stroke-width="20" stroke-linecap="round"/>
<path d="M101 338.058H128V493.058C128 507.97 115.912 520.058 101 520.058V338.058Z" fill="#FFD1A6"/>
<path d="M135 338.058H163V520.058C147.536 520.058 135 507.522 135 492.058V338.058Z" fill="#FFD1A6"/>
<path d="M117 509.058H86" stroke="#B5B3FF" stroke-width="30" stroke-linecap="round"/>
<path d="M178 509.058H147" stroke="#B5B3FF" stroke-width="30" stroke-linecap="round"/>
<rect x="117" y="139.058" width="28" height="73" rx="14" fill="#E5B589"/>
<ellipse cx="131.179" cy="147.433" rx="46.2332" ry="40.4712" fill="#FFD1A6"/>
<ellipse cx="131.179" cy="118.893" rx="46.2332" ry="40.4712" fill="#FFD1A6"/>
<rect x="84.9453" y="117.957" width="92.4664" height="30.4119" fill="#FFD1A6"/>
<rect x="85" y="326" width="92" height="40" rx="20" fill="#FF6464"/>
<path d="M72 245C72 217.386 94.3858 195 122 195H139C166.614 195 189 217.386 189 245V341H72V245Z" fill="#F9B5FF"/>
<path d="M56 219.433C56 205.971 66.9131 195.058 80.375 195.058H113.5L92 234.058H70.625C62.5478 234.058 56 227.51 56 219.433Z" fill="#F9B5FF"/>
<path d="M147 195.058H181.625C195.087 195.058 206 205.971 206 219.433C206 227.51 199.452 234.058 191.375 234.058H170L147 195.058Z" fill="#F9B5FF"/>
<circle cx="158.908" cy="231.583" r="11.0215" transform="rotate(-146.528 158.908 231.583)" fill="white" stroke="#83E881" stroke-width="3"/>
<circle cx="151.762" cy="237.442" r="7.32926" transform="rotate(-146.528 151.762 237.442)" fill="white" stroke="#83E881" stroke-width="3"/>
<circle cx="151.633" cy="237.254" r="6.41935" transform="rotate(-146.528 151.633 237.254)" fill="#83E881"/>
<path d="M171.979 235.814C169.751 236.926 167.154 235.209 167.304 232.723C167.455 230.236 170.241 228.846 172.319 230.219C174.396 231.593 174.208 234.701 171.979 235.814Z" fill="white" stroke="#83E881" stroke-width="3"/>
<path d="M169.386 227.134C168.024 229.219 164.915 229.048 163.791 226.825C162.666 224.603 164.369 221.996 166.856 222.133C169.343 222.27 170.749 225.048 169.386 227.134Z" fill="white" stroke="#83E881" stroke-width="3"/>
<path d="M169.369 226.845C168.132 228.739 165.309 228.583 164.288 226.565C163.266 224.547 164.813 222.18 167.071 222.305C169.329 222.429 170.606 224.952 169.369 226.845Z" fill="#83E881"/>
<line x1="96.1907" y1="125.386" x2="106.371" y2="122.496" stroke="#613B2A" stroke-width="6"/>
<line y1="-3" x2="11.7396" y2="-3" transform="matrix(-0.969237 -0.246128 -0.302358 0.953195 166.359 128.593)" stroke="#613B2A" stroke-width="6"/>
<line x1="96.8336" y1="122.387" x2="107.75" y2="121.745" stroke="#613B2A" stroke-width="6"/>
<line y1="-3" x2="12.2173" y2="-3" transform="matrix(-0.998618 -0.0525589 -0.0656024 0.997846 166.359 125.704)" stroke="#613B2A" stroke-width="6"/>
<ellipse cx="109.967" cy="130.558" rx="8.96739" ry="8.5" fill="white"/>
<ellipse cx="109.967" cy="130.558" rx="8.96739" ry="8.5" fill="white"/>
<ellipse cx="109.967" cy="130.558" rx="8.96739" ry="8.5" fill="white"/>
<ellipse cx="152.032" cy="130.558" rx="8.96739" ry="8.5" fill="white"/>
<ellipse cx="152.032" cy="130.558" rx="8.96739" ry="8.5" fill="white"/>
<ellipse cx="152.032" cy="130.558" rx="8.96739" ry="8.5" fill="white"/>
<ellipse cx="152.195" cy="130.558" rx="7.17391" ry="6.2963" fill="white"/>
<ellipse cx="152.195" cy="130.558" rx="7.17391" ry="6.2963" fill="white"/>
<ellipse cx="152.195" cy="130.558" rx="7.17391" ry="6.2963" fill="#2EAEC0"/>
<ellipse cx="110.131" cy="130.558" rx="7.17391" ry="6.2963" fill="white"/>
<ellipse cx="110.131" cy="130.558" rx="7.17391" ry="6.2963" fill="white"/>
<ellipse cx="110.131" cy="130.558" rx="7.17391" ry="6.2963" fill="#2EAEC0"/>
<ellipse cx="107.684" cy="128.197" rx="2.44565" ry="2.36111" fill="white"/>
<ellipse cx="149.75" cy="128.197" rx="2.44565" ry="2.36111" fill="white"/>
<path d="M98 114.431C98 113.121 99.0625 112.058 100.373 112.058H114.632C115.94 112.058 117 113.118 117 114.426C117 115.833 115.782 116.929 114.383 116.782L108.469 116.157C107.94 116.101 107.406 116.1 106.876 116.154L100.613 116.792C99.215 116.934 98 115.837 98 114.431Z" fill="#613B2A"/>
<path d="M144 114.437C144 113.123 145.065 112.058 146.379 112.058H161.625C162.937 112.058 164 113.121 164 114.433C164 115.838 162.786 116.936 161.388 116.796L154.985 116.154C154.451 116.1 153.913 116.099 153.378 116.151L146.608 116.806C145.21 116.941 144 115.842 144 114.437Z" fill="#613B2A"/>
<path d="M124.317 149.171C122.771 145.857 125.191 142.058 128.849 142.058H132.868C136.336 142.058 138.751 145.503 137.568 148.763V148.763C136.85 150.741 134.972 152.058 132.868 152.058H128.849C126.906 152.058 125.139 150.932 124.317 149.171V149.171Z" fill="#E5B589"/>
<path d="M93.2949 87.987C98.2173 83.3896 106.098 88.0435 104.45 94.574L102.108 103.849C101.777 105.16 101.172 106.386 100.333 107.446L86.2269 125.259C82.7836 114.394 84.2576 102.566 90.2626 92.8789L93.2949 87.987Z" fill="#E5B589"/>
<ellipse cx="94.417" cy="90.38" rx="27.2904" ry="15.4111" transform="rotate(-36.2621 94.417 90.38)" fill="#765141"/>
<ellipse cx="132" cy="80.5581" rx="39" ry="15.5" fill="#765141"/>
<ellipse cx="167.445" cy="92.6048" rx="27.2904" ry="15.4111" transform="rotate(25.491 167.445 92.6048)" fill="#765141"/>
<ellipse cx="119.906" cy="91.0317" rx="15.6615" ry="9.22058" transform="rotate(-36.2621 119.906 91.0317)" fill="#613B2A"/>
<ellipse cx="129.56" cy="76.3533" rx="36.5004" ry="13.9384" transform="rotate(-0.949355 129.56 76.3533)" fill="#613B2A"/>
<ellipse cx="142.905" cy="92.1482" rx="15.6615" ry="9.22058" transform="rotate(48.0983 142.905 92.1482)" fill="#613B2A"/>
<path d="M94.2894 258.343L94.2543 266.209L96.9995 341.225L70.8672 341.225L70.8672 228.501C81.3156 233.055 89.2537 241.946 92.5998 252.841L94.2894 258.343Z" fill="#F797FF"/>
<path d="M175.893 269.994L175.869 276.649L173.876 338.759C180.016 343.496 188.925 339.153 188.977 331.398L189.483 255.158C184.073 254.461 178.992 257.906 177.638 263.19L175.893 269.994Z" fill="#F797FF"/>
<path d="M84.3057 148.523C84.7291 141.801 93.6547 139.775 96.9388 145.656L101.603 154.007C102.262 155.188 102.664 156.495 102.781 157.842L104.752 180.478C94.7897 174.941 87.7426 165.329 85.4589 154.162L84.3057 148.523Z" fill="#E5B589"/>
<path d="M117.206 156.842C117.107 156.605 117.277 156.345 117.534 156.341L144.338 155.911C144.595 155.907 144.766 156.175 144.654 156.405L140.167 165.604C138.788 168.429 136.128 170.412 133.02 170.933V170.933C130.806 171.303 128.527 170.902 126.566 169.798L125.456 169.173C122.843 167.702 120.794 165.402 119.637 162.64L117.206 156.842Z" fill="#F57878"/>
<path d="M124.777 158.016L139.702 157.337L135.789 163.436C135.758 163.485 135.707 163.518 135.65 163.527L133.242 163.925C131.933 164.141 130.587 163.98 129.362 163.46V163.46C127.807 162.801 126.54 161.603 125.796 160.089L124.777 158.016Z" fill="white"/>
<path d="M117 191.058H145V193.058C145 200.79 138.732 207.058 131 207.058C123.268 207.058 117 200.79 117 193.058V191.058Z" fill="#E5B589"/>
<path d="M78.3867 92.1787C78.3867 86.1674 81.4724 80.5768 86.5586 77.3727L97.3518 70.5736C98.1768 70.0539 99.2547 70.194 99.9195 70.9072L111.982 83.8487C113.171 85.1252 113.025 87.1437 111.663 88.235L93.6435 102.678C93.3218 102.936 92.9503 103.125 92.5522 103.233L72.8933 108.562C70.1276 109.312 67.9855 106.128 69.7219 103.849L78.2078 92.7089C78.3239 92.5566 78.3867 92.3703 78.3867 92.1787Z" fill="#613B2A"/>
<path d="M124.395 59.156C127.778 60.0306 130.775 62.0026 132.918 64.7632L135.829 68.5143C136.429 69.2882 136.129 70.4215 135.224 70.7967L130.381 72.8045C129.221 73.2853 127.884 72.9931 127.031 72.0722L119.234 63.6561C118.987 63.3899 118.791 63.0811 118.654 62.7448L118.139 61.4735C116.988 58.6377 120.324 56.1019 122.749 57.9686L124.111 59.0172C124.195 59.0821 124.292 59.1293 124.395 59.156Z" fill="#613B2A"/>
<path d="M134.617 68.8244C134.548 72.3181 133.323 75.6902 131.132 78.4126L128.155 82.1117C127.541 82.875 126.369 82.8449 125.795 82.0511L122.722 77.8031C121.986 76.7858 121.962 75.418 122.66 74.375L129.046 64.8433C129.248 64.5418 129.503 64.2794 129.799 64.069L130.917 63.2734C133.41 61.4989 136.648 64.1579 135.392 66.9485L134.687 68.516C134.643 68.6131 134.619 68.718 134.617 68.8244Z" fill="#613B2A"/>
<path d="M185.959 92.1313C184.926 87.1325 181.842 82.7969 177.46 80.1807L165.018 72.7546C164.195 72.263 163.146 72.373 162.442 73.0247L150.802 83.8071C149.443 85.0657 149.538 87.2429 151.001 88.3783L169.433 102.678C169.759 102.931 170.134 103.114 170.534 103.215L191.798 108.614C194.56 109.315 196.652 106.132 194.912 103.875L186.103 92.4452C186.032 92.3528 185.983 92.2455 185.959 92.1313Z" fill="#613B2A"/>
<path d="M41.4534 79.0043C39.7725 74.3374 43.2306 69.4163 48.191 69.4163H218.128C222.154 69.4163 225.419 72.6805 225.419 76.7071C225.419 80.3428 222.74 83.4228 219.14 83.9273L216.01 84.3659C160.659 92.122 104.487 91.9843 49.1746 83.9567L47.1624 83.6647C44.5448 83.2848 42.3497 81.4929 41.4534 79.0043Z" fill="#ECA877"/>
<path d="M120.392 23.2933C120.164 26.1107 122.389 28.5229 125.215 28.5229H138.556C141.258 28.5229 143.449 26.3318 143.449 23.629C143.449 21.9407 142.579 20.3716 141.147 19.4775L138.028 17.5301C134.237 15.1637 129.42 15.2019 125.667 17.6283L122.588 19.6192C121.324 20.436 120.513 21.7938 120.392 23.2933Z" fill="#ECA877"/>
<path d="M184 67.879C184 84.1298 154.734 72.0267 132.5 72.0267C110.266 72.0267 81 84.1298 81 67.879C81 51.6281 109.731 20.505 131.965 20.505C154.198 20.505 184 51.6281 184 67.879Z" fill="#F8C79A"/>
<path d="M120.184 23.5677C124.997 23.5676 128.581 30.7669 126.823 36.904L119.829 61.3218C118.477 66.041 115.281 69.0259 111.58 69.0259L80.6425 69.0259C86.6797 48.6755 98.4982 33.3875 113.415 26.6329L120.184 23.5677Z" fill="#ECA877"/>
<path d="M154.864 46.8766L158.717 54.5918C161.273 59.7105 159.099 66.3367 154.863 66.3365L131.788 67.2686C135.645 54.7281 144.294 46.8766 154.25 46.8766L154.864 46.8766Z" fill="#ECA877"/>
<path fill-rule="evenodd" clip-rule="evenodd" d="M88.1745 121.569C112.936 118.373 117.35 122.381 131.001 122.624C144.651 122.381 149.065 117.734 173.827 121.569C175.374 121.812 175.527 121.869 175.79 123.212C175.899 123.806 175.972 126.318 175.994 126.913C176.045 128.012 175.797 128.159 174.549 128.741C173.462 129.246 172.959 129.393 172.959 131.4C172.959 144.632 166.101 148.722 156.886 149.036C147.146 149.368 139.223 144.516 135.925 137.07C131.256 126.548 130.527 126.542 125.857 137.07C122.567 144.516 114.848 149.374 105.115 149.042C95.9007 148.722 89.0427 144.159 89.0427 131.406C89.0427 129.399 88.5393 129.252 87.4522 128.747C86.2047 128.159 85.9493 128.012 86.0077 126.913C86.0369 126.318 86.1098 123.806 86.2119 123.212C86.4746 121.869 86.6278 122.445 88.1745 121.569ZM168.895 131.151C169.019 126.171 168.217 125.014 164.612 124.369C161.234 123.761 157.776 123.467 154.362 123.582C150.254 123.723 145.556 124.503 142.404 125.737C138.377 127.315 137.932 128.549 138.807 130.774C141.281 137.076 144.25 145.322 156.762 144.913C166.013 144.612 168.705 138.821 168.895 131.151ZM93.1065 131.151C93.3034 138.821 95.9883 144.619 105.239 144.913C117.752 145.315 120.83 136.763 123.304 130.46C124.179 128.23 123.603 127.929 119.576 126.35C116.424 125.117 111.754 123.717 107.64 123.576C104.225 123.461 100.767 123.755 97.3891 124.362C93.785 125.014 92.9824 126.171 93.1065 131.151Z" fill="#FF6464"/>
</svg>
