<svg width="539" height="551" viewBox="0 0 539 551" fill="none" xmlns="http://www.w3.org/2000/svg">
<path d="M379.5 0L452.679 126.75H306.321L379.5 0Z" fill="#D9D9D9"/>
<path d="M320 46L366.765 127H273.235L320 46Z" fill="#D9D9D9"/>
<path d="M442 80L461.053 127.25H422.947L442 80Z" fill="#D9D9D9"/>
<path d="M208.696 297.1C208.696 331.404 283.231 362.939 181.367 362.939C147.063 362.939 54.6582 373.019 54.6582 338.715C54.6582 304.412 112.281 234.988 146.584 234.988C180.888 234.988 208.696 262.797 208.696 297.1Z" fill="#D9D9D9"/>
<rect x="4.9707" y="190.267" width="113.044" height="173.914" fill="#D9D9D9"/>
<circle cx="62.1122" cy="215.112" r="62.1122" fill="white"/>
<rect x="89.4414" y="162.938" width="28.5716" height="124.224" fill="#D9D9D9"/>
<rect x="54.6582" y="190.267" width="28.5716" height="124.224" fill="#D9D9D9"/>
<rect x="124.225" y="192.752" width="28.5716" height="124.224" fill="#D9D9D9"/>
<rect x="383" y="475" width="76" height="76" fill="#D9D9D9"/>
<path d="M398 333L430.909 389.25H365.091L398 333Z" fill="#D9D9D9"/>
<path d="M398 378L430.909 404.25H365.091L398 378Z" fill="#D9D9D9"/>
<rect x="343" y="507" width="44" height="44" fill="#D9D9D9"/>
<path d="M364.5 469L395.244 522.25H333.756L364.5 469Z" fill="#D9D9D9"/>
<rect x="482" y="507" width="44" height="44" fill="#D9D9D9"/>
<path d="M503.5 469L534.244 522.25H472.756L503.5 469Z" fill="#D9D9D9"/>
<rect x="454" y="507" width="44" height="44" fill="#D9D9D9"/>
<path d="M459 424L475.454 457.75H442.546L459 424Z" fill="#D9D9D9"/>
<rect x="383" y="378" width="29" height="116" fill="#D9D9D9"/>
<rect x="449" y="449" width="19" height="76" fill="#D9D9D9"/>
<path d="M104.018 388L105.325 397.393C108.066 417.078 116.216 435.616 128.868 450.943V450.943C133.291 456.302 138.223 461.218 143.596 465.624L145.289 467.012C155.384 475.29 166.669 481.999 178.764 486.912L195.555 493.734C204.18 497.238 213.095 499.982 222.197 501.936L271.791 512.581" stroke="#D9D9D9" stroke-width="12"/>
<path d="M243 48.0039L237.905 46.7581C221.869 42.8367 205.087 43.1647 189.215 47.7099V47.7099C184.042 49.1913 179.005 51.1097 174.157 53.4446L172.017 54.4751C162.365 59.1239 153.362 65.0155 145.238 72.0001L134.619 81.1301C128.383 86.4915 122.569 92.3258 117.23 98.581L91.1887 129.091" stroke="#D9D9D9" stroke-width="12"/>
</svg>
