<svg width="510" height="537" viewBox="0 0 510 537" fill="none" xmlns="http://www.w3.org/2000/svg">
<path d="M202.614 37.788C201.738 34.0133 206.204 31.3235 209.131 33.8627L225.078 47.696C226.387 48.8316 228.278 48.9951 229.762 48.1011L247.846 37.2101C251.166 35.211 255.104 38.6275 253.594 42.1959L245.365 61.6363C244.689 63.2322 245.118 65.0815 246.427 66.217L262.373 80.0504C265.3 82.5895 263.268 87.3908 259.408 87.057L238.376 85.2385C236.65 85.0892 235.023 86.0686 234.348 87.6645L226.119 107.105C224.609 110.673 219.415 110.224 218.539 106.449L213.769 85.8852C213.378 84.1971 211.944 82.9531 210.217 82.8038L189.186 80.9853C185.325 80.6515 184.147 75.5727 187.466 73.5736L205.55 62.6826C207.035 61.7886 207.775 60.0404 207.383 58.3523L202.614 37.788Z" fill="#D9D9D9"/>
<path d="M454.288 368.359C456.171 364.972 461.287 365.973 461.755 369.82L464.302 390.776C464.512 392.496 465.805 393.886 467.505 394.219L488.223 398.272C492.026 399.015 492.655 404.191 489.141 405.824L469.998 414.723C468.427 415.454 467.504 417.113 467.713 418.833L470.261 439.789C470.729 443.636 466.001 445.833 463.362 442.996L448.983 427.54C447.803 426.271 445.939 425.907 444.368 426.637L425.225 435.536C421.711 437.169 418.16 433.352 420.043 429.965L430.299 411.514C431.141 409.999 430.912 408.115 429.732 406.846L415.353 391.39C412.714 388.553 415.247 383.996 419.05 384.74L439.767 388.793C441.468 389.125 443.189 388.325 444.031 386.81L454.288 368.359Z" fill="#D9D9D9"/>
<circle cx="364.515" cy="232.53" r="76.9349" fill="#DEDEDE"/>
<rect x="342.047" y="286.588" width="82.5692" height="71.8945" rx="9.53838" transform="rotate(-57.5834 342.047 286.588)" fill="#DEDEDE"/>
<rect x="273" y="215.616" width="66.3267" height="64.028" rx="28.6151" transform="rotate(-76.9597 273 215.616)" fill="#DEDEDE"/>
<circle cx="174.15" cy="420.12" r="116.699" fill="#DEDEDE"/>
<rect x="24" y="445.83" width="71.7797" height="270.787" rx="9.53838" transform="rotate(-76.9597 24 445.83)" fill="#DEDEDE"/>
<path d="M146.628 369.619C144.631 372.594 140.266 372.627 138.224 369.682L89.8589 299.92C87.5299 296.561 89.9137 291.966 94.0014 291.935L189.679 291.217C193.767 291.186 196.219 295.745 193.941 299.139L146.628 369.619Z" fill="#DEDEDE"/>
<circle cx="86.4465" cy="194.407" r="55.4074" fill="#DEDEDE"/>
<rect x="95.2988" y="188.864" width="47.7675" height="46.112" rx="23.056" transform="rotate(-76.9597 95.2988 188.864)" fill="#DEDEDE"/>
<path d="M59.4143 223.389C59.3673 225.712 56.9269 227.202 54.8398 226.182L16.7716 207.583C14.5154 206.481 14.3674 203.321 16.5107 202.013L55.4356 178.252C57.579 176.943 60.3218 178.519 60.271 181.03L59.4143 223.389Z" fill="#DEDEDE"/>
</svg>
