<svg width="79" height="65" viewBox="0 0 79 65" fill="none" xmlns="http://www.w3.org/2000/svg">
<path d="M40.4375 2.6754C41.217 1.86809 42.1514 1.22634 43.1847 0.788539C44.218 0.350739 45.329 0.125892 46.4513 0.127449C47.5735 0.129007 48.6839 0.356939 49.716 0.797607C50.7481 1.23827 51.6807 1.88262 52.458 2.69209L72.4079 23.4402C75.0309 25.6161 76.9247 28.5429 77.8349 31.8271C78.745 35.1113 78.6278 38.5954 77.499 41.8111C76.3702 45.0267 74.2839 47.8196 71.5207 49.8143C68.7574 51.809 65.4497 52.9098 62.0422 52.9687C62.0422 55.9193 60.8701 58.749 58.7838 60.8353C56.6974 62.9216 53.8677 64.0937 50.9172 64.0937H45.0627V57.1406C45.0627 53.8213 43.7441 50.6379 41.3969 48.2907C39.0498 45.9436 35.8664 44.625 32.547 44.625H28.3752C27.6375 44.625 26.9301 44.918 26.4085 45.4396C25.8869 45.9612 25.5939 46.6686 25.5939 47.4062C25.5939 48.1439 25.8869 48.8513 26.4085 49.3729C26.9301 49.8945 27.6375 50.1875 28.3752 50.1875H32.547C34.3911 50.1875 36.1597 50.9201 37.4636 52.224C38.7676 53.528 39.5002 55.2965 39.5002 57.1406V64.0937H25.5939C21.9058 64.0937 18.3686 62.6286 15.7607 60.0207C13.1528 57.4128 11.6877 53.8757 11.6877 50.1875V44.3469C8.3186 43.649 5.32765 41.7274 3.29249 38.9533C1.25733 36.1792 0.322345 32.7493 0.66812 29.3261C1.01389 25.903 2.6159 22.7293 5.16472 20.4182C7.71354 18.1072 11.0283 16.8225 14.4689 16.8125C16.6282 16.8103 18.7582 17.312 20.6895 18.2777C22.6208 19.2433 24.3001 20.6463 25.5939 22.375H43.9502C44.3266 21.637 44.7586 20.9362 45.2462 20.2724L39.9507 13.7364C38.6656 12.152 38.0055 10.1517 38.0952 8.11356C38.1848 6.07544 39.0181 4.14081 40.4375 2.6754Z" fill="#5A6EDD"/>
</svg>
