<svg width="78" height="78" viewBox="0 0 78 78" fill="none" xmlns="http://www.w3.org/2000/svg">
<path d="M54.9376 69.3026C51.4101 69.3026 48.5626 65.7326 48.5626 61.3126C48.5626 56.9351 51.4101 53.3651 54.9376 53.3651C58.4651 53.3651 61.3126 56.9351 61.3126 61.3126C61.3126 65.7326 58.4651 69.3026 54.9376 69.3026ZM39.0001 35.8126C33.7301 35.8126 29.4376 32.2426 29.4376 27.8651C29.4376 23.4451 33.7301 19.8751 39.0001 19.8751C44.2701 19.8751 48.5626 23.4451 48.5626 27.8651C48.5626 32.2426 44.2701 35.8126 39.0001 35.8126ZM23.0626 69.3026C19.5351 69.3026 16.6876 65.7326 16.6876 61.3126C16.6876 56.9351 19.5351 53.3651 23.0626 53.3651C26.5901 53.3651 29.4376 56.9351 29.4376 61.3126C29.4376 65.7326 26.5901 69.3026 23.0626 69.3026ZM39.0001 23.0626C40.7426 23.0626 42.1876 24.5076 42.1876 26.2501C42.1876 27.9926 40.7426 29.4376 39.0001 29.4376C37.2576 29.4376 35.8126 27.9926 35.8126 26.2501C35.8126 24.5076 37.2576 23.0626 39.0001 23.0626ZM67.6876 39.0001C66.3276 39.0001 65.0101 39.2976 63.8201 39.8501C61.7801 37.2576 59.0176 35.0476 55.7026 33.3476C58.1251 29.9476 59.5701 25.8251 59.5701 21.3626V21.1076C64.2026 20.1301 67.6876 16.0076 67.6876 11.0351C67.6876 5.38259 63.0551 0.750089 57.4026 0.750089C54.4701 0.750089 51.7501 1.98259 49.9651 3.93759C46.6872 1.8544 42.8838 0.748047 39.0001 0.748047C35.1163 0.748047 31.3129 1.8544 28.0351 3.93759C26.2501 1.98259 23.5301 0.750089 20.5976 0.750089C14.9451 0.750089 10.3126 5.38259 10.3126 11.0351C10.3126 15.9651 13.7976 20.0876 18.3876 21.1076V21.3626C18.3876 25.8251 19.8751 29.9901 22.2551 33.3476C18.9826 35.0476 16.2201 37.2576 14.1801 39.8501C12.7277 39.1958 11.1344 38.9165 9.54603 39.0376C7.95771 39.1588 6.42518 39.6765 5.08882 40.5435C3.75246 41.4104 2.65501 42.5988 1.89699 43.9998C1.13896 45.4008 0.744612 46.9697 0.750056 48.5626C0.750056 53.8751 5.00006 58.1251 10.3126 58.1251H10.5676C10.3976 59.1451 10.3126 60.2501 10.3126 61.3126C10.3126 70.1101 16.0076 77.2501 23.0626 77.2501C27.3551 77.2501 31.1376 74.5726 33.4751 70.4926C35.2601 70.7476 37.0876 70.8751 39.0001 70.8751C40.9126 70.8751 42.7401 70.7476 44.5251 70.4926C46.8626 74.5726 50.6451 77.2501 54.9376 77.2501C61.9926 77.2501 67.6876 70.1101 67.6876 61.3126C67.6876 60.2501 67.6026 59.1451 67.4326 58.1251H67.6876C73.0001 58.1251 77.2501 53.8751 77.2501 48.5626C77.2501 43.2501 73.0001 39.0001 67.6876 39.0001Z" fill="#35A663"/>
</svg>
