<svg width="77" height="77" viewBox="0 0 77 77" fill="none" xmlns="http://www.w3.org/2000/svg">
<path d="M34.65 8.98333V3.85C34.65 2.82892 35.0556 1.84965 35.7776 1.12764C36.4997 0.405624 37.4789 0 38.5 0C39.5211 0 40.5003 0.405624 41.2224 1.12764C41.9444 1.84965 42.35 2.82892 42.35 3.85V8.98333C42.35 10.0044 41.9444 10.9837 41.2224 11.7057C40.5003 12.4277 39.5211 12.8333 38.5 12.8333C37.4789 12.8333 36.4997 12.4277 35.7776 11.7057C35.0556 10.9837 34.65 10.0044 34.65 8.98333ZM60.3167 38.5C60.3167 42.8149 59.0371 47.033 56.6399 50.6207C54.2426 54.2084 50.8354 57.0047 46.8489 58.656C42.8624 60.3072 38.4758 60.7393 34.2438 59.8975C30.0118 59.0557 26.1244 56.9778 23.0733 53.9267C20.0222 50.8756 17.9443 46.9882 17.1025 42.7562C16.2607 38.5242 16.6928 34.1376 18.344 30.1511C19.9953 26.1646 22.7916 22.7574 26.3793 20.3601C29.967 17.9629 34.1851 16.6833 38.5 16.6833C44.2843 16.6893 49.83 18.9897 53.9201 23.0799C58.0103 27.17 60.3107 32.7157 60.3167 38.5ZM52.6167 38.5C52.6167 35.708 51.7887 32.9787 50.2376 30.6572C48.6864 28.3357 46.4817 26.5264 43.9022 25.4579C41.3227 24.3894 38.4843 24.1099 35.746 24.6546C33.0076 25.1993 30.4923 26.5438 28.518 28.518C26.5438 30.4923 25.1993 33.0076 24.6546 35.746C24.1099 38.4843 24.3894 41.3227 25.4579 43.9022C26.5264 46.4817 28.3357 48.6864 30.6572 50.2376C32.9787 51.7887 35.708 52.6167 38.5 52.6167C42.2427 52.6124 45.8308 51.1238 48.4773 48.4773C51.1238 45.8308 52.6124 42.2427 52.6167 38.5ZM13.9595 19.4072C14.3176 19.7653 14.7427 20.0494 15.2107 20.2432C15.6786 20.437 16.1801 20.5368 16.6865 20.5368C17.193 20.5368 17.6945 20.437 18.1624 20.2432C18.6303 20.0494 19.0555 19.7653 19.4136 19.4072C19.7718 19.0491 20.0558 18.6239 20.2496 18.156C20.4435 17.6881 20.5432 17.1866 20.5432 16.6801C20.5432 16.1737 20.4435 15.6722 20.2496 15.2042C20.0558 14.7363 19.7718 14.3112 19.4136 13.953L15.5636 10.103C14.8404 9.37977 13.8594 8.97345 12.8365 8.97345C11.8137 8.97345 10.8327 9.37977 10.1095 10.103C9.38619 10.8263 8.97986 11.8073 8.97986 12.8301C8.97986 13.853 9.38619 14.8339 10.1095 15.5572L13.9595 19.4072ZM13.9595 57.5864L10.1095 61.4364C9.75133 61.7945 9.46725 62.2197 9.27343 62.6876C9.07962 63.1555 8.97986 63.657 8.97986 64.1635C8.97986 64.6699 9.07962 65.1714 9.27343 65.6393C9.46725 66.1073 9.75133 66.5324 10.1095 66.8905C10.8327 67.6138 11.8137 68.0201 12.8365 68.0201C13.343 68.0201 13.8445 67.9204 14.3124 67.7266C14.7803 67.5327 15.2055 67.2487 15.5636 66.8905L19.4136 63.0405C20.1369 62.3173 20.5432 61.3363 20.5432 60.3135C20.5432 59.2906 20.1369 58.3096 19.4136 57.5864C18.6904 56.8631 17.7094 56.4568 16.6865 56.4568C15.6637 56.4568 14.6827 56.8631 13.9595 57.5864ZM60.3167 20.5333C60.8224 20.5337 61.3233 20.4345 61.7906 20.2413C62.258 20.048 62.6827 19.7646 63.0405 19.4072L66.8905 15.5572C67.2487 15.1991 67.5327 14.7739 67.7266 14.306C67.9204 13.8381 68.0201 13.3366 68.0201 12.8301C68.0201 12.3237 67.9204 11.8222 67.7266 11.3542C67.5327 10.8863 67.2487 10.4612 66.8905 10.103C66.5324 9.74492 66.1073 9.46084 65.6393 9.26702C65.1714 9.0732 64.6699 8.97345 64.1635 8.97345C63.657 8.97345 63.1555 9.0732 62.6876 9.26702C62.2197 9.46084 61.7945 9.74492 61.4364 10.103L57.5864 13.953C57.0447 14.4915 56.6755 15.1789 56.5256 15.9279C56.3757 16.6768 56.452 17.4534 56.7447 18.1588C57.0374 18.8643 57.5333 19.4668 58.1694 19.8896C58.8054 20.3124 59.5529 20.5365 60.3167 20.5333ZM63.0405 57.5928C62.3173 56.8695 61.3363 56.4632 60.3135 56.4632C59.2906 56.4632 58.3096 56.8695 57.5864 57.5928C56.8631 58.3161 56.4568 59.297 56.4568 60.3199C56.4568 61.3427 56.8631 62.3237 57.5864 63.047L61.4364 66.897C62.1596 67.6202 63.1406 68.0266 64.1635 68.0266C65.1863 68.0266 66.1673 67.6202 66.8905 66.897C67.6138 66.1737 68.0201 65.1927 68.0201 64.1699C68.0201 63.147 67.6138 62.1661 66.8905 61.4428L63.0405 57.5928ZM12.8333 38.5C12.8333 37.4789 12.4277 36.4997 11.7057 35.7776C10.9837 35.0556 10.0044 34.65 8.98333 34.65H3.85C2.82892 34.65 1.84965 35.0556 1.12764 35.7776C0.405624 36.4997 0 37.4789 0 38.5C0 39.5211 0.405624 40.5003 1.12764 41.2224C1.84965 41.9444 2.82892 42.35 3.85 42.35H8.98333C10.0044 42.35 10.9837 41.9444 11.7057 41.2224C12.4277 40.5003 12.8333 39.5211 12.8333 38.5ZM38.5 64.1667C37.4789 64.1667 36.4997 64.5723 35.7776 65.2943C35.0556 66.0163 34.65 66.9956 34.65 68.0167V73.15C34.65 74.1711 35.0556 75.1503 35.7776 75.8724C36.4997 76.5944 37.4789 77 38.5 77C39.5211 77 40.5003 76.5944 41.2224 75.8724C41.9444 75.1503 42.35 74.1711 42.35 73.15V68.0167C42.35 66.9956 41.9444 66.0163 41.2224 65.2943C40.5003 64.5723 39.5211 64.1667 38.5 64.1667ZM73.15 34.65H68.0167C66.9956 34.65 66.0163 35.0556 65.2943 35.7776C64.5723 36.4997 64.1667 37.4789 64.1667 38.5C64.1667 39.5211 64.5723 40.5003 65.2943 41.2224C66.0163 41.9444 66.9956 42.35 68.0167 42.35H73.15C74.1711 42.35 75.1503 41.9444 75.8724 41.2224C76.5944 40.5003 77 39.5211 77 38.5C77 37.4789 76.5944 36.4997 75.8724 35.7776C75.1503 35.0556 74.1711 34.65 73.15 34.65Z" fill="#35A663"/>
</svg>
