<svg width="54" height="77" viewBox="0 0 54 77" fill="none" xmlns="http://www.w3.org/2000/svg">
<path d="M28.71 0.791573C28.4988 0.543323 28.2366 0.344031 27.9416 0.207391C27.6466 0.0707508 27.3257 0 27.0009 0C26.6762 0 26.3553 0.0707508 26.0602 0.207391C25.7652 0.344031 25.5031 0.543323 25.2919 0.791573C19.3556 7.77879 0 31.935 0 49.8285C0 66.5031 10.4325 77 27 77C43.5675 77 54 66.5031 54 49.8285C54 31.935 34.6444 7.77879 28.71 0.791573ZM30 67.1881C29.6396 67.1889 29.2843 67.1025 28.964 66.9364C28.6437 66.7702 28.3678 66.529 28.1594 66.2331C27.951 65.9372 27.8163 65.5953 27.7666 65.2361C27.7169 64.8769 27.7536 64.5109 27.8738 64.169C28.0272 63.7229 28.3165 63.3368 28.7007 63.0658C29.0848 62.7948 29.5441 62.6526 30.0131 62.6595C32.9914 62.653 35.8458 61.4595 37.9517 59.3402C40.0576 57.2209 41.2436 54.3484 41.25 51.3513C41.2431 50.8792 41.3844 50.417 41.6537 50.0305C41.9231 49.6439 42.3067 49.3527 42.75 49.1983C43.0898 49.0774 43.4534 49.0404 43.8103 49.0904C44.1673 49.1405 44.507 49.276 44.8011 49.4857C45.0951 49.6954 45.3347 49.9732 45.4999 50.2955C45.665 50.6178 45.7508 50.9754 45.75 51.3381C45.7455 55.5404 44.0847 59.5693 41.132 62.5408C38.1793 65.5122 34.1758 67.1836 30 67.1881Z" fill="#35A663"/>
</svg>
