<svg width="58" height="72" viewBox="0 0 58 72" fill="none" xmlns="http://www.w3.org/2000/svg">
<path d="M7.50004 71.8332C5.52921 71.8332 3.84265 71.132 2.44037 69.7298C1.0381 68.3275 0.335763 66.6397 0.333374 64.6665V7.33317C0.333374 5.36234 1.03571 3.67578 2.44037 2.2735C3.84504 0.871226 5.5316 0.168893 7.50004 0.166504H50.5C52.4709 0.166504 54.1586 0.868837 55.5633 2.2735C56.968 3.67817 57.6691 5.36473 57.6667 7.33317V64.6665C57.6667 66.6373 56.9656 68.3251 55.5633 69.7298C54.161 71.1344 52.4733 71.8356 50.5 71.8332H7.50004ZM25.4167 32.4165L34.375 27.0415L43.3334 32.4165V7.33317H25.4167V32.4165Z" fill="#35A663"/>
</svg>
