<svg width="61" height="61" viewBox="0 0 61 61" fill="none" xmlns="http://www.w3.org/2000/svg">
<path d="M3.3398 59.8078C4.47063 60.2786 5.73408 60.3219 6.89449 59.9297L19.7482 55.6478C20.3429 55.4477 20.8831 55.1126 21.3265 54.6688L59.0468 16.9485C59.8078 16.1867 60.2353 15.154 60.2353 14.0773C60.2353 13.0006 59.8078 11.9679 59.0468 11.2061L48.9922 1.15144C48.2185 0.412399 47.1898 0 46.12 0C45.0501 0 44.0214 0.412399 43.2478 1.15144L5.52949 38.8677C5.08184 39.314 4.74451 39.8586 4.54434 40.4582L0.262461 53.2936C-0.037902 54.1899 -0.0814166 55.1523 0.136842 56.072C0.3551 56.9917 0.826418 57.832 1.49746 58.4977L1.70059 58.7008C2.16777 59.1741 2.72637 59.5499 3.34184 59.8078M43.9587 6.18894L46.12 4.02565L56.1767 14.0885L54.0175 16.2477L43.9587 6.18894ZM42.5206 7.62503L52.5814 17.6838L51.1453 19.1199L41.0845 9.06112L42.5206 7.62503ZM22.4173 47.8478L20.9812 49.2839L10.9265 39.2232L12.3626 37.7871L22.4173 47.8478ZM19.5451 50.72L18.4584 51.8067L5.61277 56.0846C5.43223 56.1438 5.23867 56.1513 5.0541 56.106C4.86954 56.0608 4.70137 55.9647 4.56871 55.8286L4.36559 55.6255C4.23129 55.4921 4.13693 55.3239 4.09315 55.1398C4.04936 54.9557 4.05789 54.763 4.11777 54.5835L8.40371 41.746L9.4884 40.6613L19.5451 50.72ZM34.6332 31.3358C29.0818 36.8892 23.2928 40.1047 21.7064 38.5183C20.122 36.9319 23.3354 31.1449 28.8889 25.5914C34.4423 20.038 40.2293 16.8225 41.8157 18.4089C43.4001 19.9953 40.1867 25.7824 34.6332 31.3358Z" fill="#35A663"/>
</svg>
