<svg width="58" height="58" viewBox="0 0 58 58" fill="none" xmlns="http://www.w3.org/2000/svg">
<path d="M40.3333 9.1665C40.3333 9.1665 37.5 0.666504 29 0.666504C20.5 0.666504 17.6667 9.1665 17.6667 9.1665C12 9.1665 6.33333 14.8332 6.33333 20.4998C-1.31668 20.4998 -1.31668 31.8332 6.33333 31.8332H51.6667C59.3167 31.8332 59.3167 20.4998 51.6667 20.4998C51.6667 14.8332 46 9.1665 40.3333 9.1665ZM9.16666 37.4998L14.8333 57.3332H20.5L17.6667 37.4998H9.16666ZM23.3333 37.4998L26.1667 57.3332H31.8333L34.6667 37.4998H23.3333ZM40.3333 37.4998L37.5 57.3332H43.1667L48.8333 37.4998H40.3333Z" fill="#35A663"/>
</svg>
