<svg width="59" height="78" viewBox="0 0 59 78" fill="none" xmlns="http://www.w3.org/2000/svg">
<path d="M10.5986 0.000228603C10.434 0.000228603 10.2531 0.000228666 10.0886 0.0168466C9.31538 0.0517444 8.54219 0.154776 7.81835 0.322617C4.90653 0.993983 2.53431 2.6724 1.19191 5.18337C-0.152126 7.69435 -0.522271 11.1177 0.935281 15.4998C2.84359 21.233 4.46236 27.0327 6.27196 32.7659C7.0287 31.9516 7.9664 31.2038 9.08507 30.5889L10.4998 33.2146C6.45292 35.4414 6.00875 39.0807 7.04515 41.8393C7.57158 43.2186 8.49284 44.2821 9.47989 44.7807C10.4669 45.2626 11.4869 45.3124 12.8194 44.4483L14.3987 46.9742C13.6091 47.4728 12.7865 47.8051 11.964 47.9547C15.7312 56.0975 20.8475 63.8415 28.8755 70.7213V70.7379C31.1951 72.7321 33.416 74.2443 35.5382 75.3577C35.3078 74.4271 35.1927 73.3802 35.2256 72.2336L38.1867 72.3333C38.1209 74.5601 38.6967 75.9228 39.4699 76.7703C40.2267 77.6178 41.2302 78 42.283 78C44.4052 77.9834 46.5438 76.5044 46.4616 73.4965L49.4227 73.3968C49.4721 74.9423 49.0773 76.2883 48.4192 77.4184C50.5578 76.87 52.4168 75.8397 53.9632 74.5601C56.5953 72.3831 58.3062 69.342 58.8327 66.3674C59.2933 63.6753 58.8162 61.0995 57.2369 59.0721C56.8092 59.7036 56.2828 60.3185 55.6741 60.9333L53.6013 58.773C55.197 57.2275 55.7234 55.8316 55.7728 54.7016C55.8057 53.555 55.3615 52.5745 54.5883 51.8267C53.0584 50.3477 50.5085 49.899 48.485 52.1092L46.3135 50.0818C46.8893 49.4503 47.5144 48.9518 48.1725 48.5862C38.8283 36.6379 34.0576 25.886 26.3585 11.0296C25.865 11.9386 25.1741 12.8376 24.3022 13.7051L22.2294 11.5481C23.8251 10.0009 24.3515 8.60501 24.4009 7.46336C24.4338 6.32337 23.9896 5.34623 23.2164 4.60341C21.6865 3.1161 19.1366 2.66077 17.1131 4.8776L14.9416 2.85021C15.5174 2.22205 16.1425 1.72684 16.8006 1.35293C14.7113 0.420663 12.5891 -0.011404 10.5986 0.000228603ZM7.42353 16.231L10.286 16.9622C9.7431 19.1225 10.0228 20.6015 10.5821 21.582C11.1414 22.5791 12.0298 23.1607 13.0662 23.3933C15.139 23.842 17.5573 22.8616 18.1331 19.9036L21.0284 20.4686C20.173 24.9721 15.9945 27.0825 12.4575 26.3181C10.6808 25.9359 9.00281 24.8391 8.01576 23.0776C7.01225 21.2995 6.73259 18.9563 7.42353 16.231ZM39.8647 29.9907C39.766 29.9907 39.6673 30.0073 39.5522 30.0073C40.7531 32.1842 41.9869 34.2947 43.2865 36.3886C43.5168 36.0895 43.6814 35.7737 43.7965 35.458C44.2078 34.3944 44.0926 33.3309 43.6156 32.3671C42.9246 31.0044 41.5592 29.9574 39.8647 29.9907ZM35.9659 49.8159C37.1503 52.1757 37.0681 54.4856 35.9988 56.0809C34.9295 57.6762 33.1692 58.4739 31.409 58.6899C29.6487 58.9059 27.7898 58.557 26.3585 57.3937C24.9438 56.2305 24.2035 54.1034 24.7957 51.7935L27.6582 52.5579C27.2798 54.0037 27.6253 54.5687 28.2175 55.0672C28.8262 55.5657 29.9613 55.8482 31.047 55.7153C32.1493 55.5824 33.1034 55.0672 33.5476 54.4025C33.9753 53.7544 34.1727 52.8736 33.3337 51.1786L35.9659 49.8159ZM23.6935 69.9901C23.348 70.9207 23.2822 71.7184 23.3809 72.3997C23.5454 73.5298 24.1706 74.4105 25.0589 75.0088C26.3585 75.8729 28.1352 76.1055 29.6158 75.1085C28.7275 74.4604 27.8556 73.7624 26.9672 72.998C25.8157 72.0175 24.7299 71.0038 23.6935 69.9901Z" fill="#35A663"/>
</svg>
