<svg width="87" height="86" viewBox="0 0 87 86" fill="none" xmlns="http://www.w3.org/2000/svg">
<path d="M77 49.7727C77 51.1244 76.0806 52.3028 74.7695 52.6315L60.7015 56.1589C60.2627 56.269 59.8046 56.2783 59.3616 56.1863L44.7319 53.1466C44.3339 53.0639 43.9233 53.0629 43.5249 53.1437L28.5141 56.19C28.0725 56.2796 27.6164 56.2686 27.1796 56.1578L13.2096 52.613C11.91 52.2832 11 51.1135 11 49.7727C11 47.1326 12.043 44.6006 13.8996 42.7338C15.7563 40.867 18.2744 39.8182 20.9 39.8182H67.1C69.7256 39.8182 72.2437 40.867 74.1004 42.7338C75.957 44.6006 77 47.1326 77 49.7727ZM73.2727 59.8491C75.166 59.3759 77 60.808 77 62.7596V70C77 71.6569 75.6569 73 74 73H14C12.3431 73 11 71.6569 11 70V62.7532C11 60.7974 12.8414 59.3645 14.7372 59.8452L27.025 62.9603C27.4615 63.071 27.9172 63.0819 28.3585 62.9925L43.5119 59.9194C43.9102 59.8386 44.3206 59.8396 44.7185 59.9222L59.4783 62.9888C59.9205 63.0807 60.3778 63.0715 60.8159 62.962L73.2727 59.8491ZM34.1 32.8636C34.1 31.2068 35.4431 29.8636 37.1 29.8636H50.9C52.5569 29.8636 53.9 31.2068 53.9 32.8636V33.5C53.9 35.1569 52.5569 36.5 50.9 36.5H37.1C35.4431 36.5 34.1 35.1569 34.1 33.5V32.8636ZM44 27.8727C41.3744 27.8727 38.8563 26.8239 36.9996 24.9571C35.143 23.0903 34.1 20.5583 34.1 17.9182C34.1 14.7066 36.6319 9.72558 41.6956 2.97527C42.8518 1.43402 45.1482 1.43402 46.3044 2.97527C51.3681 9.72558 53.9 14.7066 53.9 17.9182C53.9 20.5583 52.857 23.0903 51.0004 24.9571C49.1437 26.8239 46.6256 27.8727 44 27.8727Z" fill="#35A663"/>
</svg>
