<svg width="66" height="67" viewBox="0 0 66 67" fill="none" xmlns="http://www.w3.org/2000/svg">
<path d="M1.58496 1L32.9665 4.8985L64.5436 1.1955L64.1545 65.3214L40.478 58.983C39.8575 60.0535 38.8727 60.8652 37.7034 61.2698C36.5341 61.6745 35.2583 61.6452 34.1089 61.1872" stroke="#35A663" stroke-width="2" stroke-linecap="round" stroke-linejoin="round"/>
<path d="M1.58458 1L1 64.3458L19.1317 61.6625M32.9662 4.887V41.7483M46.8064 8.21242V18.4742L36.2801 18.5433L45.8308 22.6353L43.688 32.5752L49.9248 24.7801L58.5 30.2368L53.6278 21.0752L61.2293 15.4229L50.9694 17.6233L46.8064 8.21242ZM21.4681 60.0602L27.3139 65.3214L47.9756 41.7368L52.6523 31.797L41.9323 36.0846L21.4681 60.0602Z" stroke="#35A663" stroke-width="2" stroke-linecap="round" stroke-linejoin="round"/>
<path d="M11.331 29.4586C11.3156 33.4299 19.542 34.2177 20.6747 30.4093C25.98 29.8956 28.5599 28.1514 26.3404 23.4153C29.7329 16.8565 26.0184 16.063 22.8329 14.8402C20.5616 10.9877 17.5544 9.84726 13.0847 14.0601C5.79754 12.9714 7.29638 19.1814 8.01704 21.8571C4.01696 25.3109 7.16604 32.0154 11.3329 29.4586" stroke="#35A663" stroke-width="2" stroke-linecap="round" stroke-linejoin="round"/>
<path d="M13.8242 32.7438C15.7332 40.995 12.6014 49.8596 11.7216 58.1109C13.5176 44.0176 19.5455 35.8085 28.8739 32.186C15.1946 42.1067 27.5648 53.0777 11.7197 58.1109" stroke="#35A663" stroke-width="2" stroke-linecap="round" stroke-linejoin="round"/>
<path d="M11.7218 58.1112C10.1386 50.9333 14.2882 41.4784 4.5918 38.9311C5.69963 32.9933 10.7635 41.8847 13.8244 32.7441" stroke="#35A663" stroke-width="2" stroke-linecap="round" stroke-linejoin="round"/>
<path d="M16.7604 24.251C18.0169 24.251 19.0355 23.2633 19.0355 22.045C19.0355 20.8266 18.0169 19.8389 16.7604 19.8389C15.5039 19.8389 14.4854 20.8266 14.4854 22.045C14.4854 23.2633 15.5039 24.251 16.7604 24.251Z" stroke="white" stroke-width="2" stroke-linecap="round" stroke-linejoin="round"/>
</svg>
