<svg width="58" height="70" viewBox="0 0 58 70" fill="none" xmlns="http://www.w3.org/2000/svg">
<path d="M43.3333 40.5834H41.5417C39.0333 35.925 37.2417 29.8333 35.45 23.7417L38.675 26.9667C48.35 34.4917 56.95 33.0583 56.95 33.0583C56.95 33.0583 59.4583 19.4417 49.7833 12.275C41.5417 5.82502 34.0167 5.82502 31.8667 6.18335C31.5083 4.03335 31.5083 2.24168 31.15 0.80835L26.1333 1.16668C26.1333 12.6333 16.4583 33.775 13.2333 40.5834C6.06668 41.3 0.333344 47.3917 0.333344 54.9167C0.333344 62.8 6.78334 69.25 14.6667 69.25C18.6083 69.25 21.8333 67.8167 24.3417 65.3083C22.9083 62.0833 21.8333 58.5 21.8333 54.9167C21.8333 51.3333 22.9083 47.75 24.3417 44.525C22.9083 43.0917 20.7583 42.0167 18.9667 41.3C21.475 35.925 25.775 26.25 28.6417 16.9333C30.075 25.175 32.9417 34.85 36.525 42.375C32.225 44.8833 29 49.5417 29 54.9167C29 62.8 35.45 69.25 43.3333 69.25C51.2167 69.25 57.6667 62.8 57.6667 54.9167C57.6667 47.0333 51.2167 40.5834 43.3333 40.5834ZM14.6667 49.5417C11.8 49.5417 9.29168 52.05 9.29168 54.9167H5.70834C5.70834 49.9 9.65001 45.9583 14.6667 45.9583V49.5417ZM43.3333 49.5417C40.4667 49.5417 37.9583 52.05 37.9583 54.9167H34.375C34.375 49.9 38.3167 45.9583 43.3333 45.9583V49.5417Z" fill="#E75858"/>
</svg>
