<svg width="50" height="60" viewBox="0 0 50 60" fill="none" xmlns="http://www.w3.org/2000/svg">
<path d="M17.48 2.91589C17.48 0.249893 20.796 -1.04611 22.586 0.997893L24.95 3.70589L27.314 0.999893C29.104 -1.04611 32.42 0.249893 32.42 2.91589V6.57589C32.42 8.05189 33.3 9.38589 34.692 9.99989C43.62 13.7839 49.9 22.6499 49.9 32.9759C49.9 45.1279 41.202 55.2679 29.68 57.4759V57.4959C29.68 58.8759 28.56 59.9959 27.18 59.9959H22.86C21.48 59.9959 20.36 58.8759 20.36 57.4959V57.4859C8.916 55.2639 0 44.8759 0 32.9559C0 22.6239 6.286 13.7779 15.216 9.99589C15.8839 9.71183 16.4541 9.23857 16.8564 8.63444C17.2587 8.03031 17.4755 7.32169 17.48 6.59589V2.91589ZM21.48 5.81389V6.59389C21.4758 8.10351 21.0291 9.57878 20.1952 10.8371C19.3612 12.0955 18.1767 13.0818 16.788 13.6739L16.78 13.6779C16.412 13.8319 16.052 13.9979 15.696 14.1739C11.776 18.3439 9.46 24.8559 9.46 31.8539C9.46 42.4739 14.75 51.3599 21.766 53.4639C19.074 49.4359 17.64 40.4359 17.64 31.8359C17.64 24.3159 18.64 17.4159 20.38 12.9559L21.88 13.5359C20.24 17.7559 19.26 24.5959 19.26 31.8359C19.26 37.8959 19.92 43.5959 21.14 47.8759C22.244 51.7739 23.54 53.5159 24.52 53.9199C24.814 53.9259 25.11 53.9259 25.402 53.9199C26.38 53.5139 27.676 51.7719 28.78 47.8759C29.98 43.5959 30.66 37.9159 30.66 31.8359C30.66 24.6159 29.68 17.7759 28.04 13.5359L29.54 12.9559C31.28 17.4359 32.28 24.3159 32.28 31.8359C32.266 40.4359 30.84 49.4379 28.152 53.4639C35.168 51.3639 40.46 42.4759 40.46 31.8559C40.46 24.8659 38.15 18.3639 34.242 14.1919C33.8738 14.0095 33.5004 13.8381 33.122 13.6779L33.098 13.6679C31.7122 13.0699 30.5313 12.0801 29.7003 10.8202C28.8692 9.56036 28.4243 8.08518 28.42 6.57589V5.81389L27.15 7.26589C26.879 7.57843 26.5445 7.82964 26.1688 8.00279C25.7932 8.17594 25.3849 8.26707 24.9712 8.2701C24.5576 8.27312 24.148 8.18798 23.7698 8.02035C23.3917 7.85271 23.0535 7.60643 22.778 7.29789L22.766 7.28389L21.48 5.81389ZM11.34 17.0399C9.03589 19.0021 7.18601 21.4419 5.91859 24.1902C4.65117 26.9385 3.99652 29.9295 4 32.9559C4 40.5499 8.36 47.4359 14.67 51.1159C13.94 50.3719 13.25 49.5439 12.6 48.6359C9.38 44.1359 7.62 38.1759 7.62 31.8559C7.62 26.3999 8.96 21.2019 11.34 17.0399ZM34.974 51.3759C38.2809 49.5742 41.041 46.9144 42.9638 43.6763C44.8866 40.4383 45.9009 36.7418 45.9 32.9759C45.9 26.6239 43.068 20.9259 38.602 17.0819C40.97 21.2379 42.3 26.4179 42.3 31.8559C42.3 38.1759 40.54 44.1359 37.32 48.6359C36.6187 49.6153 35.8337 50.5321 34.974 51.3759Z" fill="#E75858"/>
</svg>
