<svg width="62" height="70" viewBox="0 0 62 70" fill="none" xmlns="http://www.w3.org/2000/svg">
<path d="M27.7303 0.881149C28.724 0.303943 29.8518 0 31 0C32.1482 0 33.276 0.303943 34.2697 0.881149L58.7434 15.0984C59.7338 15.6737 60.556 16.5002 61.1276 17.4951C61.6992 18.4899 62.0001 19.618 62 20.7663V49.2337C61.9995 50.3814 61.6984 51.5089 61.1268 52.5031C60.5552 53.4973 59.7333 54.3233 58.7434 54.8983L34.2697 69.1189C33.276 69.6961 32.1482 70 31 70C29.8518 70 28.724 69.6961 27.7303 69.1189L3.25663 54.9016C2.26622 54.3263 1.44399 53.4998 0.872391 52.5049C0.300796 51.5101 -6.03185e-05 50.382 9.07085e-09 49.2337V20.7663C0.000511693 19.6186 0.301639 18.4911 0.873206 17.4969C1.44477 16.5027 2.2667 15.6767 3.25663 15.1017L27.7303 0.881149ZM8.97368 22.2038C8.72557 22.0593 8.44387 21.983 8.157 21.9826C7.87012 21.9821 7.5882 22.0576 7.33967 22.2014C7.09115 22.3452 6.88479 22.5522 6.74142 22.8015C6.59805 23.0509 6.52273 23.3337 6.52305 23.6216V45.4583C6.52356 46.6061 6.82469 47.7335 7.39626 48.7277C7.96782 49.7219 8.78976 50.5479 9.77969 51.123L28.5461 62.0266C28.794 62.1709 29.0754 62.2473 29.362 62.2478C29.6486 62.2484 29.9303 62.1732 30.1787 62.0298C30.4271 61.8864 30.6335 61.6798 30.7771 61.431C30.9207 61.1821 30.9965 60.8996 30.9967 60.6121V38.7753C30.9962 37.6276 30.6951 36.5001 30.1235 35.5059C29.552 34.5117 28.73 33.6857 27.7401 33.1107L8.97368 22.2038ZM43.2923 13.7723C41.7325 12.8686 39.2003 12.8686 37.6405 13.7723C36.0807 14.676 36.0807 16.143 37.6405 17.0467C39.2003 17.9504 41.7325 17.9504 43.2923 17.0467C44.8521 16.143 44.8521 14.676 43.2923 13.7723ZM24.366 13.7723C22.8062 12.8686 20.274 12.8686 18.7142 13.7723C17.1544 14.676 17.1544 16.143 18.7142 17.0467C20.274 17.9504 22.8062 17.9504 24.366 17.0467C25.9291 16.143 25.9291 14.676 24.366 13.7723ZM47.2897 47.5899C49.2378 46.4603 50.8204 43.7131 50.8204 41.4505C50.8204 39.1912 49.2378 38.2744 47.2897 39.404C45.3416 40.5337 43.7589 43.2841 43.7589 45.5434C43.7589 47.8028 45.3416 48.7196 47.2897 47.5899ZM12.6121 35.6549C14.1719 36.5619 15.438 35.8284 15.438 34.0177C15.438 32.2102 14.1719 30.0131 12.6121 29.1061C11.0523 28.1991 9.78621 28.9359 9.78621 30.7433C9.78621 32.554 11.0523 34.7511 12.6121 35.6549ZM26.7416 53.6573C26.7416 55.4648 25.4722 56.1982 23.9124 55.2945C22.3526 54.3908 21.0865 52.1904 21.0865 50.3829C21.0865 48.5755 22.3526 47.842 23.9124 48.7458C25.4722 49.6495 26.7416 51.8499 26.7416 53.6573ZM15.438 47.1151C15.438 48.9259 14.1719 49.6593 12.6121 48.7523C11.0523 47.8486 9.78621 45.6515 9.78621 43.8408C9.78621 42.0333 11.0523 41.2999 12.6121 42.2036C14.1719 43.1106 15.438 45.3077 15.438 47.1151ZM26.7383 40.5664C26.7383 42.3771 25.4722 43.1106 23.9124 42.2036C22.3494 41.3031 21.0865 39.1028 21.0865 37.292C21.0865 35.4879 22.3494 34.7544 23.9124 35.6549C25.4722 36.5619 26.7383 38.7622 26.7383 40.5664Z" fill="#35A663"/>
</svg>
