<svg width="97" height="98" viewBox="0 0 97 98" fill="none" xmlns="http://www.w3.org/2000/svg">
<path d="M2.18555 1.74609L48.5757 7.50909L95.2549 2.03509L94.6797 96.8299L59.6795 87.4601C58.7623 89.0426 57.3066 90.2424 55.5781 90.8406C53.8496 91.4388 51.9636 91.3954 50.2644 90.7184" stroke="#44CA7B" stroke-width="2" stroke-linecap="round" stroke-linejoin="round"/>
<path d="M2.18448 1.74609L1.32031 95.3878L28.1236 91.4211M48.5746 7.49209V61.9828M69.0341 12.4079V27.5776L53.4735 27.6796L67.592 33.7288L64.4243 48.4224L73.644 36.8993L86.3203 44.9658L79.118 31.4224L90.355 23.0669L75.1881 26.3196L69.0341 12.4079ZM31.5775 89.0524L40.2191 96.8299L70.7625 61.9658L77.6758 47.2721L61.829 53.6103L31.5775 89.0524Z" stroke="#44CA7B" stroke-width="2" stroke-linecap="round" stroke-linejoin="round"/>
<path d="M16.5933 43.8137C16.5706 49.6844 28.7313 50.8489 30.4058 45.2191C38.2484 44.4597 42.0621 41.8814 38.7811 34.8802C43.7961 25.1846 38.3051 24.0116 33.5961 22.2039C30.2386 16.5089 25.7931 14.8231 19.1858 21.0507C8.41344 19.4414 10.6291 28.6214 11.6944 32.5767C5.78127 37.6824 10.4364 47.5934 16.5961 43.8137" stroke="#44CA7B" stroke-width="2" stroke-linecap="round" stroke-linejoin="round"/>
<path d="M20.279 48.6722C23.101 60.8697 18.4713 73.9738 17.1708 86.1713C19.8256 65.3378 28.7365 53.2027 42.5263 47.8477C22.3048 62.513 40.5911 78.731 17.168 86.1713" stroke="#44CA7B" stroke-width="2" stroke-linecap="round" stroke-linejoin="round"/>
<path d="M17.1709 86.171C14.8305 75.5602 20.9647 61.5834 6.63086 57.8179C8.26853 49.0402 15.7542 62.184 20.279 48.6719" stroke="#44CA7B" stroke-width="2" stroke-linecap="round" stroke-linejoin="round"/>
<path d="M24.619 36.1161C26.4765 36.1161 27.9822 34.656 27.9822 32.8549C27.9822 31.0538 26.4765 29.5938 24.619 29.5938C22.7616 29.5938 21.2559 31.0538 21.2559 32.8549C21.2559 34.656 22.7616 36.1161 24.619 36.1161Z" stroke="#44CA7B" stroke-width="2" stroke-linecap="round" stroke-linejoin="round"/>
</svg>
