<svg width="70" height="70" viewBox="0 0 70 70" fill="none" xmlns="http://www.w3.org/2000/svg">
<path d="M17.5083 67.4667L14.025 63.9833L10.175 67.8333C9.01389 68.9944 7.59367 69.5909 5.91433 69.6227C4.235 69.6544 2.84411 69.058 1.74167 67.8333C0.580555 66.6722 0 65.2667 0 63.6167C0 61.9667 0.580555 60.5611 1.74167 59.4L5.59167 55.55L2.10833 51.8833L52.8917 1.1C53.625 0.366666 54.5111 0 55.55 0C56.5889 0 57.475 0.366666 58.2083 1.1L68.475 11.3667C69.2083 12.1 69.575 12.9861 69.575 14.025C69.575 15.0639 69.2083 15.95 68.475 16.6833L17.5083 67.4667ZM33.275 31.1667L12.375 51.8833L17.6917 57.2L38.4083 36.3L33.275 31.1667Z" fill="#35A663"/>
</svg>
