<svg width="62" height="62" viewBox="0 0 62 62" fill="none" xmlns="http://www.w3.org/2000/svg">
<path d="M52.4167 3.08333L33.9167 21.5833L40.0833 27.75L61.6667 6.16667V3.08333M30.8333 32.375C30.4245 32.375 30.0323 32.2126 29.7432 31.9235C29.4541 31.6343 29.2917 31.2422 29.2917 30.8333C29.2917 30.4245 29.4541 30.0323 29.7432 29.7432C30.0323 29.4541 30.4245 29.2917 30.8333 29.2917C31.2422 29.2917 31.6343 29.4541 31.9235 29.7432C32.2126 30.0323 32.375 30.4245 32.375 30.8333C32.375 31.2422 32.2126 31.6343 31.9235 31.9235C31.6343 32.2126 31.2422 32.375 30.8333 32.375ZM12.3333 55.5C10.6978 55.5 9.12932 54.8503 7.97284 53.6938C6.81637 52.5373 6.16667 50.9688 6.16667 49.3333C6.16667 47.6978 6.81637 46.1293 7.97284 44.9728C9.12932 43.8164 10.6978 43.1667 12.3333 43.1667C13.9688 43.1667 15.5374 43.8164 16.6938 44.9728C17.8503 46.1293 18.5 47.6978 18.5 49.3333C18.5 50.9688 17.8503 52.5373 16.6938 53.6938C15.5374 54.8503 13.9688 55.5 12.3333 55.5ZM12.3333 18.5C10.6978 18.5 9.12932 17.8503 7.97284 16.6938C6.81637 15.5374 6.16667 13.9688 6.16667 12.3333C6.16667 10.6978 6.81637 9.12932 7.97284 7.97284C9.12932 6.81637 10.6978 6.16667 12.3333 6.16667C13.9688 6.16667 15.5374 6.81637 16.6938 7.97284C17.8503 9.12932 18.5 10.6978 18.5 12.3333C18.5 13.9688 17.8503 15.5374 16.6938 16.6938C15.5374 17.8503 13.9688 18.5 12.3333 18.5ZM23.5567 17.39C24.2658 15.8483 24.6667 14.1525 24.6667 12.3333C24.6667 9.06233 23.3673 5.9253 21.0543 3.61235C18.7414 1.2994 15.6043 0 12.3333 0C9.06233 0 5.9253 1.2994 3.61235 3.61235C1.2994 5.9253 0 9.06233 0 12.3333C0 15.6043 1.2994 18.7414 3.61235 21.0543C5.9253 23.3673 9.06233 24.6667 12.3333 24.6667C14.1525 24.6667 15.8483 24.2658 17.39 23.5567L24.6667 30.8333L17.39 38.11C15.8483 37.4008 14.1525 37 12.3333 37C9.06233 37 5.9253 38.2994 3.61235 40.6123C1.2994 42.9253 0 46.0623 0 49.3333C0 52.6043 1.2994 55.7414 3.61235 58.0543C5.9253 60.3673 9.06233 61.6667 12.3333 61.6667C15.6043 61.6667 18.7414 60.3673 21.0543 58.0543C23.3673 55.7414 24.6667 52.6043 24.6667 49.3333C24.6667 47.5142 24.2658 45.8183 23.5567 44.2767L30.8333 37L52.4167 58.5833H61.6667V55.5L23.5567 17.39Z" fill="#35A663"/>
</svg>
