<svg width="69" height="65" viewBox="0 0 69 65" fill="none" xmlns="http://www.w3.org/2000/svg">
<path d="M22.25 0C10.3892 0 1.25167 9.63917 0.75 21.5V64.5H33V37.4817C36.9417 41.0292 41.9583 43 47.3333 43C59.1942 43 68.8333 33.3608 68.8333 21.5C68.8333 9.63917 59.1942 0 47.3333 0H22.25ZM47.3333 7.16667C55.2525 7.16667 61.6667 13.5808 61.6667 21.5C61.6667 29.4192 55.2525 35.8333 47.3333 35.8333C39.4142 35.8333 33 29.4192 33 21.5C33 13.5808 39.4142 7.16667 47.3333 7.16667ZM47.3333 15.2292C43.8575 15.2292 41.0625 18.0242 41.0625 21.5C41.0625 24.9758 43.8575 27.7708 47.3333 27.7708C50.8092 27.7708 53.6042 24.9758 53.6042 21.5C53.6042 18.0242 50.8092 15.2292 47.3333 15.2292ZM4.33333 32.25H7.91667V35.8333H4.33333V32.25ZM11.5 32.25H15.0833V35.8333H11.5V32.25ZM18.6667 32.25H22.25V35.8333H18.6667V32.25ZM25.8333 32.25H29.4167V35.8333H25.8333V32.25Z" fill="#35A663"/>
</svg>
