<svg width="77" height="77" viewBox="0 0 77 77" fill="none" xmlns="http://www.w3.org/2000/svg">
<path d="M54.1876 68.5545C50.6601 68.5545 47.8126 64.9845 47.8126 60.5645C47.8126 56.187 50.6601 52.617 54.1876 52.617C57.7151 52.617 60.5626 56.187 60.5626 60.5645C60.5626 64.9845 57.7151 68.5545 54.1876 68.5545ZM38.2501 35.0645C32.9801 35.0645 28.6876 31.4945 28.6876 27.117C28.6876 22.697 32.9801 19.127 38.2501 19.127C43.5201 19.127 47.8126 22.697 47.8126 27.117C47.8126 31.4945 43.5201 35.0645 38.2501 35.0645ZM22.3126 68.5545C18.7851 68.5545 15.9376 64.9845 15.9376 60.5645C15.9376 56.187 18.7851 52.617 22.3126 52.617C25.8401 52.617 28.6876 56.187 28.6876 60.5645C28.6876 64.9845 25.8401 68.5545 22.3126 68.5545ZM38.2501 22.3145C39.9926 22.3145 41.4376 23.7595 41.4376 25.502C41.4376 27.2445 39.9926 28.6895 38.2501 28.6895C36.5076 28.6895 35.0626 27.2445 35.0626 25.502C35.0626 23.7595 36.5076 22.3145 38.2501 22.3145ZM66.9376 38.252C65.5776 38.252 64.2601 38.5495 63.0701 39.102C61.0301 36.5095 58.2676 34.2995 54.9526 32.5995C57.3751 29.1995 58.8201 25.077 58.8201 20.6145V20.3595C63.4526 19.382 66.9376 15.2595 66.9376 10.287C66.9376 4.63454 62.3051 0.00204176 56.6526 0.00204176C53.7201 0.00204176 51.0001 1.23454 49.2151 3.18954C45.9372 1.10635 42.1338 0 38.2501 0C34.3663 0 30.5629 1.10635 27.2851 3.18954C25.5001 1.23454 22.7801 0.00204176 19.8476 0.00204176C14.1951 0.00204176 9.56256 4.63454 9.56256 10.287C9.56256 15.217 13.0476 19.3395 17.6376 20.3595V20.6145C17.6376 25.077 19.1251 29.242 21.5051 32.5995C18.2326 34.2995 15.4701 36.5095 13.4301 39.102C11.9777 38.4478 10.3844 38.1684 8.79603 38.2896C7.20771 38.4107 5.67518 38.9285 4.33882 39.7954C3.00246 40.6623 1.90501 41.8508 1.14699 43.2518C0.388964 44.6528 -0.00538762 46.2216 5.55935e-05 47.8145C5.55935e-05 53.127 4.25006 57.377 9.56256 57.377H9.81756C9.64756 58.397 9.56256 59.502 9.56256 60.5645C9.56256 69.362 15.2576 76.502 22.3126 76.502C26.6051 76.502 30.3876 73.8245 32.7251 69.7445C34.5101 69.9995 36.3376 70.127 38.2501 70.127C40.1626 70.127 41.9901 69.9995 43.7751 69.7445C46.1126 73.8245 49.8951 76.502 54.1876 76.502C61.2426 76.502 66.9376 69.362 66.9376 60.5645C66.9376 59.502 66.8526 58.397 66.6826 57.377H66.9376C72.2501 57.377 76.5001 53.127 76.5001 47.8145C76.5001 42.502 72.2501 38.252 66.9376 38.252Z" fill="#F1A533"/>
</svg>
