<svg width="77" height="72" viewBox="0 0 77 72" fill="none" xmlns="http://www.w3.org/2000/svg">
<g filter="url(#filter0_d_349_8457)">
<path fill-rule="evenodd" clip-rule="evenodd" d="M11.8698 5.34648L12.6269 6.86723L5.54977 16.7751C5.09734 17.4092 4.88444 18.1832 4.94893 18.9595C5.01342 19.7358 5.35111 20.4641 5.90198 21.0148L10.8395 25.9523C11.328 26.4404 11.9577 26.7625 12.6395 26.873C13.3212 26.9834 14.0204 26.8767 14.6381 26.5679L18.7658 24.5073L21.0436 27.5422L14.2299 49.3528L13.6703 48.9249C13.1753 48.5396 12.7027 48.1264 12.2549 47.6872C11.6495 47.0729 10.8272 46.7208 9.96491 46.7065C9.10257 46.6922 8.26908 47.0169 7.6437 47.6108C7.01832 48.2047 6.651 49.0203 6.62076 49.8823C6.59052 50.7442 6.89976 51.5835 7.48198 52.2198L9.57548 54.0796C10.8823 55.1165 12.8013 56.4661 15.3293 57.8058C20.4084 60.4918 27.9232 63.1251 37.8542 63.1251C47.7851 63.1251 55.3033 60.4918 60.3791 57.8058C62.4067 56.7419 64.3327 55.4946 66.1329 54.0796C66.6398 53.6747 68.2889 52.1639 68.2264 52.2198C68.7832 51.6341 69.1051 50.864 69.1307 50.0563C69.1563 49.2485 68.8839 48.4596 68.3653 47.8398C67.8468 47.2199 67.1183 46.8125 66.3187 46.6952C65.5191 46.5778 64.7043 46.7587 64.0295 47.2033L60.6391 30.2479C62.3606 31.8576 64.2204 34.3461 66.1823 38.2631C66.3671 38.6633 66.6305 39.0223 66.9567 39.3188C67.283 39.6153 67.6655 39.8432 68.0815 39.989C68.4975 40.1349 68.9385 40.1957 69.3785 40.1678C69.8184 40.14 70.2483 40.0241 70.6426 39.8269C71.0369 39.6298 71.3876 39.3554 71.6738 39.0202C71.9601 38.6849 72.1761 38.2956 72.309 37.8753C72.4419 37.455 72.489 37.0122 72.4476 36.5734C72.4062 36.1345 72.277 35.7084 72.0678 35.3204C68.5918 28.3651 64.8722 24.4019 60.7214 22.3282C57.2421 20.5869 53.7859 20.3664 50.8563 20.3334H38.7034C38.3743 19.3368 38.002 18.355 37.5876 17.3907C36.2413 14.2504 33.9766 10.1556 30.3064 6.48539C26.4914 2.67035 22.5611 1.14302 19.4669 0.626228C18.2263 0.420398 16.9661 0.357446 15.7111 0.438603C15.3392 0.464936 14.2299 0.626228 14.0126 0.682186C13.5349 0.802129 13.0901 1.02778 12.7111 1.3425C12.3322 1.65722 12.0287 2.05298 11.823 2.50061C11.6174 2.94824 11.5148 3.43632 11.5229 3.92886C11.531 4.4214 11.6495 4.90585 11.8698 5.34648ZM47.1564 55.6036L43.7989 46.6668H35.1945L31.6428 56.1336C33.5684 56.3936 35.6356 56.5418 37.8509 56.5418C41.3039 56.5418 44.4013 56.1797 47.1499 55.6036H47.1564Z" fill="#F1A533"/>
</g>
<defs>
<filter id="filter0_d_349_8457" x="0.937622" y="0.404297" width="75.5245" height="70.7207" filterUnits="userSpaceOnUse" color-interpolation-filters="sRGB">
<feFlood flood-opacity="0" result="BackgroundImageFix"/>
<feColorMatrix in="SourceAlpha" type="matrix" values="0 0 0 0 0 0 0 0 0 0 0 0 0 0 0 0 0 0 127 0" result="hardAlpha"/>
<feOffset dy="4"/>
<feGaussianBlur stdDeviation="2"/>
<feComposite in2="hardAlpha" operator="out"/>
<feColorMatrix type="matrix" values="0 0 0 0 0 0 0 0 0 0 0 0 0 0 0 0 0 0 0.25 0"/>
<feBlend mode="normal" in2="BackgroundImageFix" result="effect1_dropShadow_349_8457"/>
<feBlend mode="normal" in="SourceGraphic" in2="effect1_dropShadow_349_8457" result="shape"/>
</filter>
</defs>
</svg>
