<svg width="71" height="53" viewBox="0 0 71 53" fill="none" xmlns="http://www.w3.org/2000/svg">
<path d="M30.5822 36.4046L52.4191 21.5559C53.0402 21.0929 53.5855 20.5575 54.0551 19.9496C55.6516 17.8759 55.6219 14.9924 54.6081 12.5829C53.4557 9.8681 51.5274 7.55403 49.065 5.93081C46.6027 4.30759 43.7159 3.44749 40.7667 3.45835C37.6857 3.45835 34.8219 4.37673 32.442 5.95015L9.13702 22.4085" stroke="#F1A533" stroke-width="5" stroke-linecap="round" stroke-linejoin="round"/>
<path d="M15.7335 31.4573C15.7335 33.7483 16.9482 38.3039 22.4485 39.5548C25.7632 40.3053 35.4111 37.1321 30.6909 27.9418C25.9706 18.7514 14.6045 18.7054 9.9797 21.7864C7.15216 23.498 1.66495 28.8569 2.70512 35.9767C3.07708 40.2888 6.47408 49.0447 17.1062 49.545H49.6673C52.7022 49.3047 53.3277 48.8636 55.6384 47.0927C58.749 44.3014 63.94 39.1664 66.9585 35.7858C67.6102 35.0584 68.3113 34.3046 68.4035 33.3302C68.8808 28.1426 61.0071 30.3908 55.3027 29.7719" stroke="#F1A533" stroke-width="5" stroke-linecap="round" stroke-linejoin="round"/>
</svg>
