<svg width="62" height="62" viewBox="0 0 62 62" fill="none" xmlns="http://www.w3.org/2000/svg">
<path d="M55.8 0H15.5C6.9533 0 0 6.9533 0 15.5V46.5C0 55.0467 6.9533 62 15.5 62H52.7C57.8274 62 62 57.8274 62 52.7C62 47.5726 57.8274 43.4 52.7 43.4H12.4V49.6H52.7C53.5222 49.6 54.3107 49.9266 54.892 50.508C55.4734 51.0893 55.8 51.8778 55.8 52.7C55.8 53.5222 55.4734 54.3107 54.892 54.892C54.3107 55.4734 53.5222 55.8 52.7 55.8H15.5C10.3726 55.8 6.2 51.6274 6.2 46.5C6.2 41.3726 10.3726 37.2 15.5 37.2H55.8C59.2193 37.2 62 34.4193 62 31V6.2C62 2.7807 59.2193 0 55.8 0ZM6.2 34.1H6.2093L6.2 34.1062V34.1Z" fill="#F1A533"/>
</svg>
