<svg width="72" height="57" viewBox="0 0 72 57" fill="none" xmlns="http://www.w3.org/2000/svg">
<path d="M8.6 43.7001C3.03753 37.257 -0.0128439 29.0577 3.43498e-07 20.5834V20.4647C3.43498e-07 9.57925 9 0.791748 20 0.791748C26.56 0.791748 32.36 3.91883 36 8.70842C39.64 3.91883 45.48 0.791748 52 0.791748C63.04 0.791748 72 9.65841 72 20.5834C72 29.4105 68.76 37.4855 63.4 43.7001L68.84 49.0834L63.16 54.6647L57.56 49.123C51.3291 53.7155 43.7692 56.2 36 56.2084C28 56.2084 20.44 53.5563 14.44 49.123L8.84 54.6647L3.16 49.0834L8.6 43.7001ZM51.84 43.423L36 27.7876L20.16 43.423C24.68 46.5105 30.12 48.2917 36 48.2917C41.88 48.2917 47.32 46.5105 51.84 43.423ZM32 20.5834C32 14.0126 26.6 8.70842 20 8.70842C13.36 8.70842 8 14.0126 8 20.5834C8 27.2334 10.36 33.2897 14.28 38.0793L32 20.5834ZM57.72 38.0793C61.7843 33.1355 64.0022 26.9565 64 20.5834C64 13.973 58.6 8.70842 52 8.70842C45.4 8.70842 40 14.0126 40 20.5834L57.72 38.0793Z" fill="#F1A533"/>
</svg>
