<svg width="109" height="109" viewBox="0 0 109 109" fill="none" xmlns="http://www.w3.org/2000/svg">
<g clip-path="url(#clip0_349_8464)">
<path d="M86.8431 32.7751C86.8055 31.6834 86.9844 30.5302 87.3798 29.3157C87.7752 28.1012 88.2489 27.0457 88.801 26.1493C89.2176 25.552 89.6707 24.9534 90.1601 24.3536C90.6495 23.7537 90.8817 23.0899 90.8566 22.3621C90.814 21.1247 91.1975 20.0738 92.0072 19.2094C92.8169 18.3449 93.8389 17.89 95.0733 17.8445C96.3076 17.7991 97.3585 18.1826 98.2259 18.9951C99.0934 19.8076 99.5484 20.8296 99.5908 22.0612C99.6284 23.1529 99.4676 24.3244 99.1085 25.5756C98.7493 26.8268 98.2575 27.8639 97.6329 28.687C97.2891 29.2818 96.8535 29.8798 96.3262 30.4809C95.7989 31.0821 95.5493 31.7465 95.5773 32.4742C95.5998 33.1293 95.8934 33.7386 96.4579 34.3021C97.0223 34.8656 97.498 35.4322 97.8849 36.0019C98.5701 36.8527 99.1349 37.8899 99.5793 39.1134C100.024 40.3369 100.262 41.4582 100.294 42.4772C100.332 43.569 100.171 44.7405 99.8118 45.9917C99.4527 47.2429 98.9609 48.28 98.3363 49.1031C97.9924 49.6979 97.5569 50.2959 97.0296 50.897C96.5023 51.4981 96.2527 52.1626 96.2806 52.8903C96.3032 53.5454 96.5967 54.1547 97.1612 54.7182C97.7257 55.2817 98.2014 55.8483 98.5883 56.4179C99.2734 57.2688 99.8382 58.306 100.283 59.5295C100.727 60.753 100.965 61.8743 100.998 62.8933C101.035 63.9851 100.874 65.1391 100.513 66.3554C100.153 67.5716 99.6618 68.6262 99.0397 69.5192C98.6958 70.114 98.2609 70.7309 97.7349 71.3699C97.2089 72.0089 96.9586 72.6544 96.984 73.3064C97.0091 74.0343 97.3039 74.6799 97.8683 75.2435C98.4328 75.807 98.9085 76.3736 99.2954 76.9432C99.9806 77.794 100.545 78.8123 100.988 79.9979C101.431 81.1836 101.67 82.3238 101.705 83.4186C101.747 84.6559 101.364 85.7083 100.554 86.5757C99.7446 87.443 98.7225 87.8965 97.488 87.9361C96.2535 87.9757 95.2011 87.5923 94.331 86.7857C93.4608 85.9791 93.0073 84.957 92.9705 83.7195C92.9454 82.9917 92.6681 82.3454 92.1385 81.7806C91.609 81.2159 91.1158 80.6499 90.6591 80.0827C90.0442 79.1566 89.4977 78.1013 89.0197 76.9168C88.5417 75.7324 88.2838 74.5928 88.2461 73.4981C88.2084 72.4035 88.3872 71.2489 88.7826 70.0343C89.178 68.8198 89.6518 67.7658 90.2039 66.8723C90.6206 66.275 91.0736 65.6764 91.5631 65.0766C92.0525 64.4767 92.2847 63.8129 92.2596 63.0851C92.237 62.43 91.961 61.8201 91.4314 61.2554C90.9019 60.6907 90.4087 60.1247 89.9519 59.5574C89.3396 58.7041 88.7937 57.6663 88.3144 56.444C87.835 55.2217 87.5778 54.101 87.5427 53.0821C87.5051 51.9903 87.6833 50.8182 88.0774 49.5658C88.4715 48.3134 88.9459 47.2769 89.5006 46.4562C89.9172 45.8589 90.3703 45.2603 90.8597 44.6605C91.3491 44.0607 91.5813 43.3968 91.5562 42.669C91.5337 42.0139 91.2576 41.404 90.7281 40.8393C90.1985 40.2746 89.7053 39.7086 89.2486 39.1414C88.6362 38.288 88.091 37.2691 87.613 36.0847C87.1349 34.9002 86.8783 33.797 86.8431 32.7751ZM107.195 52.405C106.941 45.0538 109.256 38.7625 114.139 33.5312C119.022 28.2999 125.14 25.5561 132.494 25.2998L162.081 24.2805C163.537 24.2304 164.812 24.733 165.906 25.7883C167.001 26.8437 167.572 28.0993 167.619 29.5551C167.672 31.0836 167.188 32.3944 166.167 33.4877C165.147 34.5809 163.874 35.1523 162.348 35.202L132.87 36.2175C128.576 36.3655 125.005 37.9649 122.158 41.0157C119.31 44.0666 117.961 47.7376 118.112 52.0289C118.263 56.3202 119.861 59.8912 122.906 62.7419C125.951 65.5927 129.624 66.9411 133.924 66.7871L163.511 65.7678C164.966 65.7176 166.241 66.2202 167.336 67.2756C168.43 68.3309 169.001 69.5865 169.048 71.0423C169.101 72.5708 168.617 73.8816 167.597 74.9749C166.576 76.0681 165.303 76.6396 163.778 76.6892L134.3 77.7048C126.948 77.958 120.656 75.6433 115.422 70.7605C110.187 65.8778 107.445 59.7593 107.195 52.405Z" fill="#F1A533"/>
</g>
<defs>
<clipPath id="clip0_349_8464">
<rect width="104.872" height="104.872" fill="white" transform="translate(105.389) rotate(88.0269)"/>
</clipPath>
</defs>
</svg>
