<svg width="63" height="63" viewBox="0 0 63 63" fill="none" xmlns="http://www.w3.org/2000/svg">
<path d="M44.625 56.4552C41.72 56.4552 39.375 53.5153 39.375 49.8754C39.375 46.2704 41.72 43.3305 44.625 43.3305C47.53 43.3305 49.875 46.2704 49.875 49.8754C49.875 53.5153 47.53 56.4552 44.625 56.4552ZM31.5 28.8759C27.16 28.8759 23.625 25.936 23.625 22.3311C23.625 18.6912 27.16 15.7513 31.5 15.7513C35.84 15.7513 39.375 18.6912 39.375 22.3311C39.375 25.936 35.84 28.8759 31.5 28.8759ZM18.375 56.4552C15.47 56.4552 13.125 53.5153 13.125 49.8754C13.125 46.2704 15.47 43.3305 18.375 43.3305C21.28 43.3305 23.625 46.2704 23.625 49.8754C23.625 53.5153 21.28 56.4552 18.375 56.4552ZM31.5 18.3762C32.935 18.3762 34.125 19.5662 34.125 21.0011C34.125 22.4361 32.935 23.6261 31.5 23.6261C30.065 23.6261 28.875 22.4361 28.875 21.0011C28.875 19.5662 30.065 18.3762 31.5 18.3762ZM55.125 31.5008C54.005 31.5008 52.92 31.7458 51.94 32.2008C50.26 30.0659 47.985 28.2459 45.255 26.846C47.25 24.046 48.44 20.6511 48.44 16.9762V16.7662C52.255 15.9613 55.125 12.5663 55.125 8.47146C55.125 3.81658 51.31 0.0016814 46.655 0.0016814C44.24 0.0016814 42 1.01665 40.53 2.62661C37.8306 0.91109 34.6984 0 31.5 0C28.3016 0 25.1694 0.91109 22.47 2.62661C21 1.01665 18.76 0.0016814 16.345 0.0016814C11.69 0.0016814 7.87504 3.81658 7.87504 8.47146C7.87504 12.5313 10.745 15.9263 14.525 16.7662V16.9762C14.525 20.6511 15.75 24.081 17.71 26.846C15.015 28.2459 12.74 30.0659 11.06 32.2008C9.86396 31.662 8.55181 31.432 7.24379 31.5318C5.93576 31.6315 4.67367 32.0579 3.57314 32.7718C2.47262 33.4857 1.56883 34.4644 0.944575 35.6182C0.320323 36.7719 -0.00443686 38.0638 4.57829e-05 39.3756C4.57829e-05 43.7505 3.50004 47.2504 7.87504 47.2504H8.08504C7.94504 48.0904 7.87504 49.0004 7.87504 49.8754C7.87504 57.1202 12.565 63 18.375 63C21.91 63 25.025 60.7951 26.95 57.4351C28.42 57.6451 29.925 57.7501 31.5 57.7501C33.075 57.7501 34.58 57.6451 36.05 57.4351C37.975 60.7951 41.09 63 44.625 63C50.435 63 55.125 57.1202 55.125 49.8754C55.125 49.0004 55.055 48.0904 54.915 47.2504H55.125C59.5 47.2504 63 43.7505 63 39.3756C63 35.0007 59.5 31.5008 55.125 31.5008Z" fill="#F1A533"/>
</svg>
