<svg width="70" height="67" viewBox="0 0 70 67" fill="none" xmlns="http://www.w3.org/2000/svg">
<path fill-rule="evenodd" clip-rule="evenodd" d="M9.17625 5.1815C13.7075 1.92625 19.029 0.875 22.625 0.875H48C51.5257 0.874911 54.9985 1.7319 58.1194 3.37215C61.2402 5.0124 63.9156 7.38674 65.915 10.2906C67.9143 13.1946 69.1778 16.541 69.5966 20.0417C70.0153 23.5424 69.5768 27.0924 68.3188 30.386C67.0607 33.6795 65.0209 36.6179 62.3749 38.948C59.729 41.2781 56.5563 42.93 53.1301 43.7615C49.7039 44.593 46.1269 44.5791 42.7072 43.7211C39.2876 42.863 36.1278 41.1865 33.5 38.836V62.5C33.5001 63.1563 33.322 63.8003 32.9848 64.3633C32.6476 64.9263 32.1638 65.3872 31.5851 65.6968C31.0065 66.0064 30.3546 66.1531 29.6991 66.1213C29.0436 66.0894 28.409 65.8802 27.8631 65.516L24.1765 63.0583L18.8115 65.7408C18.3079 65.9928 17.7525 66.124 17.1893 66.124C16.6262 66.124 16.0707 65.9928 15.5671 65.7408L10.1985 63.0583L6.51187 65.516C5.96595 65.8802 5.33138 66.0894 4.67587 66.1213C4.02037 66.1531 3.36851 66.0064 2.78985 65.6968C2.21119 65.3872 1.72744 64.9263 1.39021 64.3633C1.05297 63.8003 0.874902 63.1563 0.875 62.5V22.625C0.875 14.1933 4.471 8.5745 9.17625 5.1815ZM31.7926 8.125H22.625C20.1854 8.125 16.4407 8.88625 13.4175 11.0685C10.5682 13.113 8.125 16.5568 8.125 22.625V55.7358C8.64422 55.4364 9.22956 55.2704 9.82865 55.2527C10.4277 55.235 11.0219 55.3661 11.5579 55.6343L17.1875 58.4473L22.8171 55.6343C23.3531 55.3661 23.9473 55.235 24.5463 55.2527C25.1454 55.2704 25.7308 55.4364 26.25 55.7358V22.625C26.25 17.0534 28.3452 11.9748 31.789 8.125H31.7926ZM48 29.875C49.9228 29.875 51.7669 29.1112 53.1265 27.7515C54.4862 26.3919 55.25 24.5478 55.25 22.625C55.25 20.7022 54.4862 18.8581 53.1265 17.4985C51.7669 16.1388 49.9228 15.375 48 15.375C46.0772 15.375 44.2331 16.1388 42.8735 17.4985C41.5138 18.8581 40.75 20.7022 40.75 22.625C40.75 24.5478 41.5138 26.3919 42.8735 27.7515C44.2331 29.1112 46.0772 29.875 48 29.875Z" fill="#F1A533"/>
</svg>
