<svg width="87" height="82" viewBox="0 0 87 82" fill="none" xmlns="http://www.w3.org/2000/svg">
<path d="M77 16.8462V50.8462C77.0008 51.2047 76.9285 51.5596 76.7877 51.8887C76.6469 52.2179 76.4406 52.5143 76.1815 52.7596C75.9224 53.0048 75.6162 53.1937 75.2817 53.3145C74.9473 53.4352 74.5918 53.4853 74.2374 53.4615C73.5712 53.4038 72.9513 53.0935 72.5025 52.5931C72.0537 52.0927 71.8092 51.4394 71.8182 50.7644V16.8462C71.819 16.487 71.7466 16.1316 71.6054 15.8019C71.4642 15.4723 71.2572 15.1756 70.9975 14.9302C70.7377 14.6848 70.4306 14.4961 70.0954 14.3758C69.7602 14.2554 69.4041 14.2061 69.0491 14.2308C68.3829 14.2917 67.7641 14.6045 67.3167 15.1065C66.8693 15.6084 66.6263 16.2625 66.6364 16.9377V60C66.6364 60.3468 66.4999 60.6794 66.2569 60.9247C66.014 61.1699 65.6845 61.3077 65.3409 61.3077H21.2955C20.9519 61.3077 20.6224 61.1699 20.3794 60.9247C20.1365 60.6794 20 60.3468 20 60V16.8462C20 14.7652 20.8189 12.7695 22.2766 11.2981C23.7342 9.82665 25.7113 9 27.7727 9H69.2273C71.2887 9 73.2657 9.82665 74.7234 11.2981C76.1811 12.7695 77 14.7652 77 16.8462ZM65.3409 66.5385H21.2955C20.9519 66.5385 20.6224 66.6762 20.3794 66.9215C20.1365 67.1667 20 67.4993 20 67.8462V71.7692C20 73.1565 20.5459 74.487 21.5177 75.4679C22.4895 76.4489 23.8075 77 25.1818 77H61.4545C62.8288 77 64.1469 76.4489 65.1186 75.4679C66.0904 74.487 66.6364 73.1565 66.6364 71.7692V67.8462C66.6364 67.4993 66.4999 67.1667 66.2569 66.9215C66.014 66.6762 65.6845 66.5385 65.3409 66.5385Z" fill="#F1A533"/>
</svg>
