<svg width="37" height="37" viewBox="0 0 37 37" fill="none" xmlns="http://www.w3.org/2000/svg">
    <path
        d="M6.9375 8.09375H10.9439L12.9139 5.13953C13.0194 4.98134 13.1623 4.85163 13.33 4.76188C13.4976 4.67213 13.6848 4.62511 13.875 4.625H23.125C23.3152 4.62511 23.5024 4.67213 23.67 4.76188C23.8377 4.85163 23.9806 4.98134 24.0861 5.13953L26.0575 8.09375H30.0625C30.9825 8.09375 31.8648 8.45921 32.5153 9.10972C33.1658 9.76024 33.5312 10.6425 33.5312 11.5625V27.75C33.5312 28.67 33.1658 29.5523 32.5153 30.2028C31.8648 30.8533 30.9825 31.2188 30.0625 31.2188H6.9375C6.01753 31.2188 5.13524 30.8533 4.48472 30.2028C3.83421 29.5523 3.46875 28.67 3.46875 27.75V11.5625C3.46875 10.6425 3.83421 9.76024 4.48472 9.10972C5.13524 8.45921 6.01753 8.09375 6.9375 8.09375ZM13.2969 19.0781C13.2969 20.1072 13.602 21.1132 14.1738 21.9688C14.7455 22.8245 15.5581 23.4914 16.5089 23.8852C17.4596 24.279 18.5058 24.382 19.5151 24.1813C20.5244 23.9805 21.4515 23.485 22.1792 22.7573C22.9068 22.0296 23.4024 21.1025 23.6031 20.0932C23.8039 19.0839 23.7009 18.0377 23.3071 17.087C22.9132 16.1362 22.2464 15.3236 21.3907 14.7519C20.5351 14.1802 19.5291 13.875 18.5 13.875C17.12 13.875 15.7966 14.4232 14.8208 15.399C13.8451 16.3747 13.2969 17.6982 13.2969 19.0781Z"
        fill="#F1A533" />
</svg>