<svg width="39" height="39" viewBox="0 0 39 39" fill="none" xmlns="http://www.w3.org/2000/svg">
<path d="M4.875 38.9999C3.53438 38.9999 2.38713 38.523 1.43325 37.5691C0.479378 36.6152 0.00162913 35.4672 4.13136e-06 34.1249C-0.00162087 32.7827 0.476128 31.6354 1.43325 30.6832C2.39038 29.731 3.53763 29.2532 4.875 29.25C6.21237 29.2467 7.36043 29.7245 8.31918 30.6832C9.27793 31.6419 9.75487 32.7892 9.74999 34.1249C9.74512 35.4607 9.26818 36.6087 8.31918 37.5691C7.37018 38.5295 6.22212 39.0064 4.875 38.9999ZM24.375 38.9999C23.0344 38.9999 21.8871 38.523 20.9332 37.5691C19.9794 36.6152 19.5016 35.4672 19.5 34.1249C19.4984 32.7827 19.9761 31.6354 20.9332 30.6832C21.8904 29.731 23.0376 29.2532 24.375 29.25C25.7124 29.2467 26.8604 29.7245 27.8192 30.6832C28.7779 31.6419 29.2548 32.7892 29.25 34.1249C29.2451 35.4607 28.7682 36.6087 27.8192 37.5691C26.8702 38.5295 25.7221 39.0064 24.375 38.9999ZM14.625 29.25C13.2844 29.25 12.1371 28.773 11.1832 27.8191C10.2294 26.8653 9.75162 25.7172 9.74999 24.375C9.74837 23.0327 10.2261 21.8855 11.1832 20.9332C12.1404 19.981 13.2876 19.5032 14.625 19.5C15.9624 19.4967 17.1104 19.9745 18.0692 20.9332C19.0279 21.892 19.5049 23.0392 19.5 24.375C19.4951 25.7107 19.0182 26.8588 18.0692 27.8191C17.1202 28.7795 15.9721 29.2565 14.625 29.25ZM34.125 29.25C32.7843 29.25 31.6371 28.773 30.6832 27.8191C29.7293 26.8653 29.2516 25.7172 29.25 24.375C29.2483 23.0327 29.7261 21.8855 30.6832 20.9332C31.6403 19.981 32.7876 19.5032 34.125 19.5C35.4623 19.4967 36.6104 19.9745 37.5692 20.9332C38.5279 21.892 39.0048 23.0392 39 24.375C38.9951 25.7107 38.5182 26.8588 37.5692 27.8191C36.6202 28.7795 35.4721 29.2565 34.125 29.25ZM4.875 19.5C3.53438 19.5 2.38713 19.023 1.43325 18.0692C0.479378 17.1153 0.00162913 15.9672 4.13136e-06 14.625C-0.00162087 13.2827 0.476128 12.1355 1.43325 11.1832C2.39038 10.231 3.53763 9.75325 4.875 9.75C6.21237 9.74675 7.36043 10.2245 8.31918 11.1832C9.27793 12.142 9.75487 13.2892 9.74999 14.625C9.74512 15.9607 9.26818 17.1088 8.31918 18.0692C7.37018 19.0295 6.22212 19.5065 4.875 19.5ZM24.375 19.5C23.0344 19.5 21.8871 19.023 20.9332 18.0692C19.9794 17.1153 19.5016 15.9672 19.5 14.625C19.4984 13.2827 19.9761 12.1355 20.9332 11.1832C21.8904 10.231 23.0376 9.75325 24.375 9.75C25.7124 9.74675 26.8604 10.2245 27.8192 11.1832C28.7779 12.142 29.2548 13.2892 29.25 14.625C29.2451 15.9607 28.7682 17.1088 27.8192 18.0692C26.8702 19.0295 25.7221 19.5065 24.375 19.5ZM14.625 9.75C13.2844 9.75 12.1371 9.27306 11.1832 8.31919C10.2294 7.36531 9.75162 6.21725 9.74999 4.87501C9.74837 3.53276 10.2261 2.38551 11.1832 1.43326C12.1404 0.481015 13.2876 0.00326646 14.625 1.64696e-05C15.9624 -0.00323352 17.1104 0.474515 18.0692 1.43326C19.0279 2.39201 19.5049 3.53926 19.5 4.87501C19.4951 6.21075 19.0182 7.35881 18.0692 8.31919C17.1202 9.27956 15.9721 9.7565 14.625 9.75ZM34.125 9.75C32.7843 9.75 31.6371 9.27306 30.6832 8.31919C29.7293 7.36531 29.2516 6.21725 29.25 4.87501C29.2483 3.53276 29.7261 2.38551 30.6832 1.43326C31.6403 0.481015 32.7876 0.00326646 34.125 1.64696e-05C35.4623 -0.00323352 36.6104 0.474515 37.5692 1.43326C38.5279 2.39201 39.0048 3.53926 39 4.87501C38.9951 6.21075 38.5182 7.35881 37.5692 8.31919C36.6202 9.27956 35.4721 9.7565 34.125 9.75Z" fill="#F1A533"/>
</svg>
