<svg width="58" height="65" viewBox="0 0 58 65" fill="none" xmlns="http://www.w3.org/2000/svg">
<path d="M0 16.0417V9.625H6.41667V6.41667C6.41667 4.71486 7.09271 3.08276 8.29606 1.8794C9.49942 0.676039 11.1315 0 12.8333 0H32.0833V22.4583L40.1042 17.6458L48.125 22.4583V0H51.3333C54.7021 0 57.75 3.04792 57.75 6.41667V57.75C57.75 61.1187 54.7021 64.1667 51.3333 64.1667H12.8333C9.46458 64.1667 6.41667 61.1187 6.41667 57.75V54.5417H0V48.125H6.41667V35.2917H0V28.875H6.41667V16.0417H0ZM12.8333 28.875H6.41667V35.2917H12.8333V28.875ZM12.8333 16.0417V9.625H6.41667V16.0417H12.8333ZM12.8333 54.5417V48.125H6.41667V54.5417H12.8333Z" fill="#F1A533"/>
</svg>
