<svg width="69" height="66" viewBox="0 0 69 66" fill="none" xmlns="http://www.w3.org/2000/svg">
<path d="M22.25 0.75C10.3892 0.75 1.25167 10.3892 0.75 22.25V65.25H33V38.2317C36.9417 41.7792 41.9583 43.75 47.3333 43.75C59.1942 43.75 68.8333 34.1108 68.8333 22.25C68.8333 10.3892 59.1942 0.75 47.3333 0.75H22.25ZM47.3333 7.91667C55.2525 7.91667 61.6667 14.3308 61.6667 22.25C61.6667 30.1692 55.2525 36.5833 47.3333 36.5833C39.4142 36.5833 33 30.1692 33 22.25C33 14.3308 39.4142 7.91667 47.3333 7.91667ZM47.3333 15.9792C43.8575 15.9792 41.0625 18.7742 41.0625 22.25C41.0625 25.7258 43.8575 28.5208 47.3333 28.5208C50.8092 28.5208 53.6042 25.7258 53.6042 22.25C53.6042 18.7742 50.8092 15.9792 47.3333 15.9792ZM4.33333 33H7.91667V36.5833H4.33333V33ZM11.5 33H15.0833V36.5833H11.5V33ZM18.6667 33H22.25V36.5833H18.6667V33ZM25.8333 33H29.4167V36.5833H25.8333V33Z" fill="#F1A533"/>
</svg>
