<svg width="81" height="81" viewBox="0 0 81 81" fill="none" xmlns="http://www.w3.org/2000/svg">
<path d="M72.75 0H20.2083C9.06546 0 0 9.06546 0 20.2083V60.625C0 71.7679 9.06546 80.8333 20.2083 80.8333H68.7083C75.3932 80.8333 80.8333 75.3932 80.8333 68.7083C80.8333 62.0234 75.3932 56.5833 68.7083 56.5833H16.1667V64.6667H68.7083C69.7803 64.6667 70.8083 65.0925 71.5662 65.8504C72.3242 66.6084 72.75 67.6364 72.75 68.7083C72.75 69.7803 72.3242 70.8083 71.5662 71.5662C70.8083 72.3242 69.7803 72.75 68.7083 72.75H20.2083C13.5234 72.75 8.08333 67.3099 8.08333 60.625C8.08333 53.9401 13.5234 48.5 20.2083 48.5H72.75C77.208 48.5 80.8333 44.8746 80.8333 40.4167V8.08333C80.8333 3.62537 77.208 0 72.75 0ZM8.08333 44.4583H8.09546L8.08333 44.4664V44.4583Z" fill="#FFD178"/>
</svg>
