<svg width="73" height="62" viewBox="0 0 73 62" fill="none" xmlns="http://www.w3.org/2000/svg">
<path d="M61.875 0.25C64.7592 0.25 67.5253 1.32991 69.5648 3.25216C71.6042 5.1744 72.75 7.78153 72.75 10.5V51.5C72.75 54.2185 71.6042 56.8256 69.5648 58.7478C67.5253 60.6701 64.7592 61.75 61.875 61.75H11.125C8.24077 61.75 5.47467 60.6701 3.43521 58.7478C1.39576 56.8256 0.25 54.2185 0.25 51.5V10.5C0.25 7.78153 1.39576 5.1744 3.43521 3.25216C5.47467 1.32991 8.24077 0.25 11.125 0.25H61.875ZM36.5 13.9167C31.693 13.9167 27.0828 15.7165 23.6837 18.9203C20.2846 22.124 18.375 26.4692 18.375 31C18.375 35.5308 20.2846 39.876 23.6837 43.0797C27.0828 46.2835 31.693 48.0833 36.5 48.0833C41.307 48.0833 45.9172 46.2835 49.3163 43.0797C52.7154 39.876 54.625 35.5308 54.625 31C54.625 26.4692 52.7154 22.124 49.3163 18.9203C45.9172 15.7165 41.307 13.9167 36.5 13.9167ZM36.5 20.75C39.3842 20.75 42.1503 21.8299 44.1898 23.7522C46.2292 25.6744 47.375 28.2815 47.375 31C47.375 33.7185 46.2292 36.3256 44.1898 38.2478C42.1503 40.1701 39.3842 41.25 36.5 41.25C33.6158 41.25 30.8497 40.1701 28.8102 38.2478C26.7708 36.3256 25.625 33.7185 25.625 31C25.625 28.2815 26.7708 25.6744 28.8102 23.7522C30.8497 21.8299 33.6158 20.75 36.5 20.75ZM61.875 10.5H58.25C57.3261 10.501 56.4374 10.8344 55.7655 11.4322C55.0937 12.03 54.6894 12.8471 54.6353 13.7164C54.5811 14.5858 54.8812 15.4418 55.4742 16.1096C56.0672 16.7774 56.9084 17.2066 57.8259 17.3094L58.25 17.3333H61.875C62.7989 17.3324 63.6876 16.9989 64.3595 16.4011C65.0313 15.8033 65.4356 14.9862 65.4897 14.1169C65.5439 13.2476 65.2438 12.3915 64.6508 11.7237C64.0578 11.0559 63.2166 10.6268 62.2991 10.5239L61.875 10.5Z" fill="#F1A533"/>
</svg>
