<svg width="47" height="75" viewBox="0 0 47 75" fill="none" xmlns="http://www.w3.org/2000/svg">
<path d="M4.7 4.6875C4.7 2.09473 6.80031 0 9.4 0H37.6C40.1997 0 42.3 2.09473 42.3 4.6875C42.3 7.28027 40.1997 9.375 37.6 9.375H9.4C6.80031 9.375 4.7 7.28027 4.7 4.6875ZM0 23.4375C0 18.2666 4.21531 14.0625 9.4 14.0625H37.6C42.7847 14.0625 47 18.2666 47 23.4375V65.625C47 70.7959 42.7847 75 37.6 75H9.4C4.21531 75 0 70.7959 0 65.625V23.4375ZM14.1 32.8125C11.5003 32.8125 9.4 34.9072 9.4 37.5V51.5625C9.4 54.1553 11.5003 56.25 14.1 56.25H32.9C35.4997 56.25 37.6 54.1553 37.6 51.5625V37.5C37.6 34.9072 35.4997 32.8125 32.9 32.8125H14.1Z" fill="#F1A533"/>
</svg>
