<svg width="44" height="71" viewBox="0 0 44 71" fill="none" xmlns="http://www.w3.org/2000/svg">
<path d="M43.5 49.3335C43.5 61.1943 33.8608 70.8335 22 70.8335C10.1392 70.8335 0.5 61.1943 0.5 49.3335C0.5 38.5835 7.66667 38.5835 7.66667 27.8335C7.66667 22.6735 10.3542 17.8718 14.8333 15.2918C16.2667 14.4677 17.7717 13.9302 19.3125 13.6435V9.91683C19.3125 8.591 19.0258 7.8385 18.5242 7.33683C18.0583 6.83516 17.0908 6.3335 14.8333 6.3335V0.958496C17.9867 0.958496 20.5667 1.78266 22.3225 3.5385C24.0783 5.29433 24.6875 7.69516 24.6875 9.91683V13.6435C26.2283 13.9302 27.7692 14.4677 29.1667 15.2918C33.6458 17.8718 36.3333 22.6735 36.3333 27.8335C36.3333 38.5835 43.5 38.5835 43.5 49.3335Z" fill="#F1A533"/>
</svg>
