<svg width="48" height="70" viewBox="0 0 48 70" fill="none" xmlns="http://www.w3.org/2000/svg">
<path d="M44.5 31.5833V14.4999H34.25V7.66658H24V0.833252H10.3333V11.0833H3.50001V31.5833H0.0833435L6.91668 69.1666H41.0833L47.9167 31.5833H44.5ZM37.1883 31.5833C36.6417 33.6674 35.6167 35.5466 34.25 37.1182V23.4516L41.0833 26.8682V31.5833H37.1883ZM41.0833 17.9166V23.0416L34.25 19.6249V17.9166H41.0833ZM24 11.0833H30.8333V23.0416L24 26.4583V11.0833ZM24 30.2849L30.8333 26.8682V39.9541C28.8175 41.1499 26.4942 41.8333 24 41.8333V30.2849ZM20.5833 41.3549C17.8842 40.6374 15.4583 39.1683 13.75 37.1182V26.8682L20.5833 23.4516V41.3549ZM13.75 4.24992H20.5833V19.6249L17.1667 21.3333V11.0833H13.75V4.24992ZM6.91668 14.4999H13.75V23.0416L10.3333 24.7499V31.5833H6.91668V14.4999Z" fill="#F1A533"/>
</svg>
