<svg width="68" height="73" viewBox="0 0 68 73" fill="none" xmlns="http://www.w3.org/2000/svg">
<path d="M54.1256 9.14596H52.0708V17.4731C51.7641 19.5599 50.5027 20.0411 48.6459 19.5208L7.81159 9.1461H4.94536C-1.67192 9.1461 -0.901707 0 4.94536 0H54.1256C60.5145 0 61.2544 9.14596 54.1256 9.14596ZM8.7608 19.5847L49.5499 29.5413C52.6077 30.2879 53.7485 25.6471 50.6909 24.9007L9.9016 14.9442C6.78083 14.1824 5.64003 18.823 8.76095 19.5848L8.7608 19.5847ZM8.7608 29.4816L49.5499 39.4381C52.6077 40.1847 53.7485 35.5439 50.6909 34.7975L9.9016 24.841C6.78083 24.0792 5.63989 28.7199 8.7608 29.4816ZM8.7608 39.3785L49.5499 49.335C52.6077 50.0816 53.7485 45.4408 50.6909 44.6944L9.9016 34.7379C6.78083 33.9761 5.63989 38.6167 8.7608 39.3785ZM47.5123 64.4425L10.2679 54.9549C8.75923 54.5217 7.47234 54.6777 7.00074 57.0013V64.2565H3.64045C-1.21348 64.2565 -1.21348 73 3.64045 73H55.4165C59.8338 73 61.3275 64.2565 54.2635 64.2565L47.5123 64.4425ZM49.8186 59.7439C58.8752 59.869 63.0669 62.9276 63.2054 70.2107C63.2663 73.4146 68.0602 73.3242 67.9994 70.1204C67.4597 58.1983 59.8537 55.1956 50.4302 54.8689L9.90174 44.976C6.78097 44.2143 5.64017 48.8548 8.76109 49.6166L49.8189 59.7439H49.8186Z" fill="#F1A533"/>
</svg>
