<svg width="63" height="75" viewBox="0 0 63 75" fill="none" xmlns="http://www.w3.org/2000/svg">
<path d="M22.4519 4.06827C22.4519 0.777422 26.5451 -0.822328 28.7546 1.70073L31.6727 5.04342L34.5907 1.7032C36.8002 -0.822328 40.8934 0.777422 40.8934 4.06827V8.58608C40.8934 10.408 41.9797 12.0547 43.6979 12.8126C54.7184 17.4835 62.4703 28.4274 62.4703 41.1736C62.4703 56.1737 51.7337 68.6903 37.5112 71.4158V71.4405C37.5112 73.1439 36.1287 74.5264 34.4253 74.5264H29.0928C27.3894 74.5264 26.0069 73.1439 26.0069 71.4405V71.4281C11.8807 68.6853 0.875 55.8626 0.875 41.1489C0.875 28.3953 8.63428 17.476 19.6572 12.8076C20.4817 12.457 21.1856 11.8728 21.6821 11.1271C22.1787 10.3814 22.4463 9.50667 22.4519 8.61077V4.06827ZM27.3894 7.64548V8.6083C27.3842 10.4717 26.8328 12.2928 25.8034 13.8461C24.774 15.3994 23.3118 16.6168 21.5977 17.3477L21.5878 17.3526C21.1336 17.5427 20.6892 17.7476 20.2497 17.9649C15.411 23.1122 12.5522 31.1505 12.5522 39.7886C12.5522 52.8977 19.082 63.8663 27.7424 66.4635C24.4195 61.4914 22.6494 50.382 22.6494 39.7664C22.6494 30.4839 23.8837 21.9667 26.0316 16.4614L27.8831 17.1773C25.8587 22.3864 24.6491 30.8295 24.6491 39.7664C24.6491 47.2467 25.4637 54.2826 26.9697 59.5658C28.3324 64.3774 29.9322 66.5276 31.1419 67.0263C31.5048 67.0337 31.8702 67.0337 32.2306 67.0263C33.4378 66.5252 35.0376 64.3749 36.4003 59.5658C37.8816 54.2826 38.7209 47.2714 38.7209 39.7664C38.7209 30.8542 37.5112 22.4111 35.4869 17.1773L37.3384 16.4614C39.4863 21.9914 40.7206 30.4839 40.7206 39.7664C40.7033 50.382 38.9431 61.4939 35.6251 66.4635C44.2855 63.8713 50.8178 52.9001 50.8178 39.7911C50.8178 31.1628 47.9664 23.1369 43.1425 17.9871C42.688 17.7619 42.227 17.5503 41.76 17.3526L41.7303 17.3403C40.0198 16.6021 38.5621 15.3804 37.5363 13.8252C36.5105 12.27 35.9612 10.4491 35.9559 8.58608V7.64548L34.3883 9.4378C34.0538 9.82358 33.6409 10.1337 33.1772 10.3474C32.7134 10.5611 32.2095 10.6736 31.6989 10.6774C31.1883 10.6811 30.6827 10.576 30.2159 10.3691C29.7491 10.1622 29.3317 9.85814 28.9916 9.4773L28.9768 9.46002L27.3894 7.64548ZM14.8728 21.5026C12.0287 23.9247 9.74524 26.9363 8.18076 30.3287C6.61629 33.7211 5.8082 37.4131 5.8125 41.1489C5.8125 50.5227 11.1944 59.0226 18.9833 63.5651C18.0822 62.6468 17.2305 61.6247 16.4281 60.5039C12.4534 54.9492 10.2809 47.5923 10.2809 39.7911C10.2809 33.0563 11.935 26.64 14.8728 21.5026ZM44.046 63.8861C48.128 61.6621 51.535 58.3789 53.9084 54.3819C56.2819 50.385 57.5339 45.8221 57.5328 41.1736C57.5328 33.3328 54.0371 26.2994 48.5243 21.5544C51.4473 26.6845 53.0891 33.0785 53.0891 39.7911C53.0891 47.5923 50.9166 54.9492 46.9419 60.5039C46.0762 61.7129 45.1073 62.8445 44.046 63.8861Z" fill="#F1A533"/>
</svg>
